%TF.GenerationSoftware,KiCad,Pcbnew,(5.1.12)-1*%
%TF.CreationDate,2022-05-27T21:16:08+02:00*%
%TF.ProjectId,ec1834-post,65633138-3334-42d7-906f-73742e6b6963,2b*%
%TF.SameCoordinates,Original*%
%TF.FileFunction,Copper,L1,Top*%
%TF.FilePolarity,Positive*%
%FSLAX46Y46*%
G04 Gerber Fmt 4.6, Leading zero omitted, Abs format (unit mm)*
G04 Created by KiCad (PCBNEW (5.1.12)-1) date 2022-05-27 21:16:08*
%MOMM*%
%LPD*%
G01*
G04 APERTURE LIST*
%TA.AperFunction,ComponentPad*%
%ADD10O,1.700000X1.700000*%
%TD*%
%TA.AperFunction,ComponentPad*%
%ADD11C,1.700000*%
%TD*%
%TA.AperFunction,ComponentPad*%
%ADD12O,1.600000X1.600000*%
%TD*%
%TA.AperFunction,ComponentPad*%
%ADD13R,1.600000X1.600000*%
%TD*%
%TA.AperFunction,ComponentPad*%
%ADD14C,1.600000*%
%TD*%
%TA.AperFunction,ComponentPad*%
%ADD15R,1.500000X1.050000*%
%TD*%
%TA.AperFunction,ComponentPad*%
%ADD16O,1.500000X1.050000*%
%TD*%
%TA.AperFunction,ComponentPad*%
%ADD17C,1.550000*%
%TD*%
%TA.AperFunction,ComponentPad*%
%ADD18R,1.700000X1.700000*%
%TD*%
%TA.AperFunction,ConnectorPad*%
%ADD19R,7.112000X1.778000*%
%TD*%
%TA.AperFunction,ViaPad*%
%ADD20C,0.889000*%
%TD*%
%TA.AperFunction,Conductor*%
%ADD21C,1.270000*%
%TD*%
%TA.AperFunction,Conductor*%
%ADD22C,0.500000*%
%TD*%
%TA.AperFunction,Conductor*%
%ADD23C,1.000000*%
%TD*%
%TA.AperFunction,Conductor*%
%ADD24C,0.250000*%
%TD*%
G04 APERTURE END LIST*
D10*
%TO.P,JMPR,10*%
%TO.N,GND*%
X94742000Y-81484000D03*
%TO.P,JMPR,9*%
X94742000Y-78944000D03*
%TO.P,JMPR,8*%
X94742000Y-76404000D03*
%TO.P,JMPR,7*%
X94742000Y-73864000D03*
%TO.P,JMPR,6*%
X94742000Y-71324000D03*
%TO.P,JMPR,5*%
X94742000Y-68784000D03*
%TO.P,JMPR,4*%
X94742000Y-66244000D03*
%TO.P,JMPR,3*%
X94742000Y-63704000D03*
%TO.P,JMPR,2*%
X94742000Y-61164000D03*
D11*
%TO.P,JMPR,1*%
X94742000Y-58624000D03*
%TD*%
D12*
%TO.P,U4,20*%
%TO.N,+5V*%
X128333500Y-120078500D03*
%TO.P,U4,10*%
%TO.N,GND*%
X135953500Y-97218500D03*
%TO.P,U4,19*%
%TO.N,/DB7*%
X128333500Y-117538500D03*
%TO.P,U4,9*%
%TO.N,/DB3*%
X135953500Y-99758500D03*
%TO.P,U4,18*%
%TO.N,D7*%
X128333500Y-114998500D03*
%TO.P,U4,8*%
%TO.N,D3*%
X135953500Y-102298500D03*
%TO.P,U4,17*%
%TO.N,D6*%
X128333500Y-112458500D03*
%TO.P,U4,7*%
%TO.N,D2*%
X135953500Y-104838500D03*
%TO.P,U4,16*%
%TO.N,/DB6*%
X128333500Y-109918500D03*
%TO.P,U4,6*%
%TO.N,/DB2*%
X135953500Y-107378500D03*
%TO.P,U4,15*%
%TO.N,/DB5*%
X128333500Y-107378500D03*
%TO.P,U4,5*%
%TO.N,/DB1*%
X135953500Y-109918500D03*
%TO.P,U4,14*%
%TO.N,D5*%
X128333500Y-104838500D03*
%TO.P,U4,4*%
%TO.N,D1*%
X135953500Y-112458500D03*
%TO.P,U4,13*%
%TO.N,D4*%
X128333500Y-102298500D03*
%TO.P,U4,3*%
%TO.N,D0*%
X135953500Y-114998500D03*
%TO.P,U4,12*%
%TO.N,/DB4*%
X128333500Y-99758500D03*
%TO.P,U4,2*%
%TO.N,/DB0*%
X135953500Y-117538500D03*
%TO.P,U4,11*%
%TO.N,Net-(U3-Pad8)*%
X128333500Y-97218500D03*
D13*
%TO.P,U4,1*%
%TO.N,GND*%
X135953500Y-120078500D03*
%TD*%
D12*
%TO.P,RN5,8*%
%TO.N,Net-(RN5-Pad8)*%
X147574000Y-87782400D03*
%TO.P,RN5,7*%
%TO.N,Net-(RN5-Pad7)*%
X147574000Y-85242400D03*
%TO.P,RN5,6*%
%TO.N,Net-(RN5-Pad6)*%
X147574000Y-82702400D03*
%TO.P,RN5,5*%
%TO.N,Net-(RN5-Pad5)*%
X147574000Y-80162400D03*
%TO.P,RN5,4*%
%TO.N,Net-(RN5-Pad4)*%
X147574000Y-77622400D03*
%TO.P,RN5,3*%
%TO.N,Net-(RN5-Pad3)*%
X147574000Y-75082400D03*
%TO.P,RN5,2*%
%TO.N,Net-(RN5-Pad2)*%
X147574000Y-72542400D03*
D13*
%TO.P,RN5,1*%
%TO.N,Net-(RN5-Pad1)*%
X147574000Y-70002400D03*
%TD*%
D12*
%TO.P,RN4,8*%
%TO.N,Net-(RN4-Pad8)*%
X142900400Y-87833200D03*
%TO.P,RN4,7*%
%TO.N,Net-(RN4-Pad7)*%
X142900400Y-85293200D03*
%TO.P,RN4,6*%
%TO.N,Net-(RN4-Pad6)*%
X142900400Y-82753200D03*
%TO.P,RN4,5*%
%TO.N,Net-(RN4-Pad5)*%
X142900400Y-80213200D03*
%TO.P,RN4,4*%
%TO.N,Net-(RN4-Pad4)*%
X142900400Y-77673200D03*
%TO.P,RN4,3*%
%TO.N,Net-(RN4-Pad3)*%
X142900400Y-75133200D03*
%TO.P,RN4,2*%
%TO.N,Net-(RN4-Pad2)*%
X142900400Y-72593200D03*
D13*
%TO.P,RN4,1*%
%TO.N,Net-(RN4-Pad1)*%
X142900400Y-70053200D03*
%TD*%
D12*
%TO.P,RN3,8*%
%TO.N,Net-(RN3-Pad8)*%
X134518400Y-87782400D03*
%TO.P,RN3,7*%
%TO.N,Net-(RN3-Pad7)*%
X134518400Y-85242400D03*
%TO.P,RN3,6*%
%TO.N,Net-(RN3-Pad6)*%
X134518400Y-82702400D03*
%TO.P,RN3,5*%
%TO.N,Net-(RN3-Pad5)*%
X134518400Y-80162400D03*
%TO.P,RN3,4*%
%TO.N,Net-(RN3-Pad4)*%
X134518400Y-77622400D03*
%TO.P,RN3,3*%
%TO.N,Net-(RN3-Pad3)*%
X134518400Y-75082400D03*
%TO.P,RN3,2*%
%TO.N,Net-(RN3-Pad2)*%
X134518400Y-72542400D03*
D13*
%TO.P,RN3,1*%
%TO.N,Net-(RN3-Pad1)*%
X134518400Y-70002400D03*
%TD*%
D12*
%TO.P,RN2,8*%
%TO.N,Net-(RN2-Pad8)*%
X139242800Y-87833200D03*
%TO.P,RN2,7*%
%TO.N,Net-(RN2-Pad7)*%
X139242800Y-85293200D03*
%TO.P,RN2,6*%
%TO.N,Net-(RN2-Pad6)*%
X139242800Y-82753200D03*
%TO.P,RN2,5*%
%TO.N,Net-(RN2-Pad5)*%
X139242800Y-80213200D03*
%TO.P,RN2,4*%
%TO.N,Net-(RN2-Pad4)*%
X139242800Y-77673200D03*
%TO.P,RN2,3*%
%TO.N,Net-(RN2-Pad3)*%
X139242800Y-75133200D03*
%TO.P,RN2,2*%
%TO.N,Net-(RN2-Pad2)*%
X139242800Y-72593200D03*
D13*
%TO.P,RN2,1*%
%TO.N,Net-(RN2-Pad1)*%
X139242800Y-70053200D03*
%TD*%
D12*
%TO.P,RN1,9*%
%TO.N,Net-(RN1-Pad9)*%
X88295480Y-78724760D03*
%TO.P,RN1,8*%
%TO.N,Net-(RN1-Pad8)*%
X88295480Y-76184760D03*
%TO.P,RN1,7*%
%TO.N,Net-(RN1-Pad7)*%
X88295480Y-73644760D03*
%TO.P,RN1,6*%
%TO.N,Net-(RN1-Pad6)*%
X88295480Y-71104760D03*
%TO.P,RN1,5*%
%TO.N,Net-(RN1-Pad5)*%
X88295480Y-68564760D03*
%TO.P,RN1,4*%
%TO.N,Net-(RN1-Pad4)*%
X88295480Y-66024760D03*
%TO.P,RN1,3*%
%TO.N,Net-(RN1-Pad3)*%
X88295480Y-63484760D03*
%TO.P,RN1,2*%
%TO.N,Net-(RN1-Pad2)*%
X88295480Y-60944760D03*
D13*
%TO.P,RN1,1*%
%TO.N,+5V*%
X88295480Y-58404760D03*
%TD*%
D12*
%TO.P,R6,2*%
%TO.N,Net-(Q2-Pad3)*%
X100177600Y-92862400D03*
D14*
%TO.P,R6,1*%
%TO.N,GND*%
X90017600Y-92862400D03*
%TD*%
D12*
%TO.P,R5,2*%
%TO.N,IOR*%
X90017600Y-99060000D03*
D14*
%TO.P,R5,1*%
%TO.N,Net-(Q2-Pad2)*%
X100177600Y-99060000D03*
%TD*%
D12*
%TO.P,R4,2*%
%TO.N,IOW*%
X90017600Y-95961200D03*
D14*
%TO.P,R4,1*%
%TO.N,Net-(Q1-Pad2)*%
X100177600Y-95961200D03*
%TD*%
D12*
%TO.P,R3,2*%
%TO.N,+5V*%
X84607400Y-70144640D03*
D14*
%TO.P,R3,1*%
%TO.N,/SW_A9*%
X84607400Y-80304640D03*
%TD*%
D12*
%TO.P,R2,2*%
%TO.N,+5V*%
X84607400Y-57744360D03*
D14*
%TO.P,R2,1*%
%TO.N,/SW_A8*%
X84607400Y-67904360D03*
%TD*%
D12*
%TO.P,R1,2*%
%TO.N,+5V*%
X83682840Y-119969280D03*
D14*
%TO.P,R1,1*%
%TO.N,Net-(R1-Pad1)*%
X83682840Y-109809280D03*
%TD*%
D15*
%TO.P,Q2,1*%
%TO.N,Net-(Q1-Pad3)*%
X99212400Y-119735600D03*
D16*
%TO.P,Q2,3*%
%TO.N,Net-(Q2-Pad3)*%
X99212400Y-117195600D03*
%TO.P,Q2,2*%
%TO.N,Net-(Q2-Pad2)*%
X99212400Y-118465600D03*
%TD*%
D15*
%TO.P,Q1,1*%
%TO.N,+5V*%
X99415600Y-112572800D03*
D16*
%TO.P,Q1,3*%
%TO.N,Net-(Q1-Pad3)*%
X99415600Y-110032800D03*
%TO.P,Q1,2*%
%TO.N,Net-(Q1-Pad2)*%
X99415600Y-111302800D03*
%TD*%
D17*
%TO.P,J0,c32*%
%TO.N,Net-(J0-Padc32)*%
X77724000Y-142621000D03*
%TO.P,J0,c31*%
%TO.N,A0*%
X80264000Y-142621000D03*
%TO.P,J0,c30*%
%TO.N,A1*%
X82804000Y-142621000D03*
%TO.P,J0,c29*%
%TO.N,A2*%
X85344000Y-142621000D03*
%TO.P,J0,c28*%
%TO.N,A3*%
X87884000Y-142621000D03*
%TO.P,J0,c27*%
%TO.N,A4*%
X90424000Y-142621000D03*
%TO.P,J0,c26*%
%TO.N,A5*%
X92964000Y-142621000D03*
%TO.P,J0,c25*%
%TO.N,A6*%
X95504000Y-142621000D03*
%TO.P,J0,c24*%
%TO.N,A7*%
X98044000Y-142621000D03*
%TO.P,J0,c23*%
%TO.N,A8*%
X100584000Y-142621000D03*
%TO.P,J0,c22*%
%TO.N,A9*%
X103124000Y-142621000D03*
%TO.P,J0,c21*%
%TO.N,Net-(J0-Padc21)*%
X105664000Y-142621000D03*
%TO.P,J0,c20*%
%TO.N,Net-(J0-Padc20)*%
X108204000Y-142621000D03*
%TO.P,J0,c19*%
%TO.N,Net-(J0-Padc19)*%
X110744000Y-142621000D03*
%TO.P,J0,c18*%
%TO.N,Net-(J0-Padc18)*%
X113284000Y-142621000D03*
%TO.P,J0,c17*%
%TO.N,Net-(J0-Padc17)*%
X115824000Y-142621000D03*
%TO.P,J0,c16*%
%TO.N,Net-(J0-Padc16)*%
X118364000Y-142621000D03*
%TO.P,J0,c15*%
%TO.N,Net-(J0-Padc15)*%
X120904000Y-142621000D03*
%TO.P,J0,c14*%
%TO.N,Net-(J0-Padc14)*%
X123444000Y-142621000D03*
%TO.P,J0,c13*%
%TO.N,Net-(J0-Padc13)*%
X125984000Y-142621000D03*
%TO.P,J0,c12*%
%TO.N,Net-(J0-Padc12)*%
X128524000Y-142621000D03*
%TO.P,J0,c11*%
%TO.N,AEN*%
X131064000Y-142621000D03*
%TO.P,J0,c10*%
%TO.N,Net-(J0-Padc10)*%
X133604000Y-142621000D03*
%TO.P,J0,c9*%
%TO.N,D0*%
X136144000Y-142621000D03*
%TO.P,J0,c8*%
%TO.N,D1*%
X138684000Y-142621000D03*
%TO.P,J0,c7*%
%TO.N,D2*%
X141224000Y-142621000D03*
%TO.P,J0,c6*%
%TO.N,D3*%
X143764000Y-142621000D03*
%TO.P,J0,c5*%
%TO.N,D4*%
X146304000Y-142621000D03*
%TO.P,J0,c4*%
%TO.N,D5*%
X148844000Y-142621000D03*
%TO.P,J0,c3*%
%TO.N,D6*%
X151384000Y-142621000D03*
%TO.P,J0,c2*%
%TO.N,D7*%
X153924000Y-142621000D03*
%TO.P,J0,c1*%
%TO.N,Net-(J0-Padc1)*%
X156464000Y-142621000D03*
%TO.P,J0,b32*%
%TO.N,N/C*%
X77724000Y-145161000D03*
%TO.P,J0,b31*%
X80264000Y-145161000D03*
%TO.P,J0,b30*%
X82804000Y-145161000D03*
%TO.P,J0,b29*%
X85344000Y-145161000D03*
%TO.P,J0,b28*%
X87884000Y-145161000D03*
%TO.P,J0,b27*%
X90424000Y-145161000D03*
%TO.P,J0,b26*%
X92964000Y-145161000D03*
%TO.P,J0,b25*%
X95504000Y-145161000D03*
%TO.P,J0,b24*%
X98044000Y-145161000D03*
%TO.P,J0,b23*%
X100584000Y-145161000D03*
%TO.P,J0,b22*%
X103124000Y-145161000D03*
%TO.P,J0,b21*%
X105664000Y-145161000D03*
%TO.P,J0,b20*%
X108204000Y-145161000D03*
%TO.P,J0,b19*%
X110744000Y-145161000D03*
%TO.P,J0,b18*%
X113284000Y-145161000D03*
%TO.P,J0,b17*%
X115824000Y-145161000D03*
%TO.P,J0,b16*%
X118364000Y-145161000D03*
%TO.P,J0,b15*%
X120904000Y-145161000D03*
%TO.P,J0,b14*%
X123444000Y-145161000D03*
%TO.P,J0,b13*%
X125984000Y-145161000D03*
%TO.P,J0,b12*%
X128524000Y-145161000D03*
%TO.P,J0,b11*%
X131064000Y-145161000D03*
%TO.P,J0,b10*%
X133604000Y-145161000D03*
%TO.P,J0,b9*%
X136144000Y-145161000D03*
%TO.P,J0,b8*%
X138684000Y-145161000D03*
%TO.P,J0,b7*%
X141224000Y-145161000D03*
%TO.P,J0,b6*%
X143764000Y-145161000D03*
%TO.P,J0,b5*%
X146304000Y-145161000D03*
%TO.P,J0,b4*%
X148844000Y-145161000D03*
%TO.P,J0,b3*%
X151384000Y-145161000D03*
%TO.P,J0,b2*%
X153924000Y-145161000D03*
%TO.P,J0,b1*%
X156464000Y-145161000D03*
%TO.P,J0,a32*%
%TO.N,GND*%
X77724000Y-147701000D03*
%TO.P,J0,a31*%
X80264000Y-147701000D03*
%TO.P,J0,a30*%
%TO.N,Net-(J0-Pada30)*%
X82804000Y-147701000D03*
%TO.P,J0,a29*%
%TO.N,+5V*%
X85344000Y-147701000D03*
%TO.P,J0,a28*%
%TO.N,Net-(J0-Pada28)*%
X87884000Y-147701000D03*
%TO.P,J0,a27*%
%TO.N,Net-(J0-Pada27)*%
X90424000Y-147701000D03*
%TO.P,J0,a26*%
%TO.N,Net-(J0-Pada26)*%
X92964000Y-147701000D03*
%TO.P,J0,a25*%
%TO.N,Net-(J0-Pada25)*%
X95504000Y-147701000D03*
%TO.P,J0,a24*%
%TO.N,Net-(J0-Pada24)*%
X98044000Y-147701000D03*
%TO.P,J0,a23*%
%TO.N,Net-(J0-Pada23)*%
X100584000Y-147701000D03*
%TO.P,J0,a22*%
%TO.N,Net-(J0-Pada22)*%
X103124000Y-147701000D03*
%TO.P,J0,a21*%
%TO.N,Net-(J0-Pada21)*%
X105664000Y-147701000D03*
%TO.P,J0,a20*%
%TO.N,CLK*%
X108204000Y-147701000D03*
%TO.P,J0,a19*%
%TO.N,Net-(J0-Pada19)*%
X110744000Y-147701000D03*
%TO.P,J0,a18*%
%TO.N,Net-(J0-Pada18)*%
X113284000Y-147701000D03*
%TO.P,J0,a17*%
%TO.N,Net-(J0-Pada17)*%
X115824000Y-147701000D03*
%TO.P,J0,a16*%
%TO.N,Net-(J0-Pada16)*%
X118364000Y-147701000D03*
%TO.P,J0,a15*%
%TO.N,Net-(J0-Pada15)*%
X120904000Y-147701000D03*
%TO.P,J0,a14*%
%TO.N,IOR*%
X123444000Y-147701000D03*
%TO.P,J0,a13*%
%TO.N,IOW*%
X125984000Y-147701000D03*
%TO.P,J0,a12*%
%TO.N,Net-(J0-Pada12)*%
X128524000Y-147701000D03*
%TO.P,J0,a11*%
%TO.N,Net-(J0-Pada11)*%
X131064000Y-147701000D03*
%TO.P,J0,a10*%
%TO.N,Net-(J0-Pada10)*%
X133604000Y-147701000D03*
%TO.P,J0,a9*%
%TO.N,+12V*%
X136144000Y-147701000D03*
%TO.P,J0,a8*%
%TO.N,Net-(J0-Pada8)*%
X138684000Y-147701000D03*
%TO.P,J0,a7*%
%TO.N,-12V*%
X141224000Y-147701000D03*
%TO.P,J0,a6*%
%TO.N,Net-(J0-Pada6)*%
X143764000Y-147701000D03*
%TO.P,J0,a5*%
%TO.N,-5V*%
X146304000Y-147701000D03*
%TO.P,J0,a4*%
%TO.N,Net-(J0-Pada4)*%
X148844000Y-147701000D03*
%TO.P,J0,a3*%
%TO.N,+5V*%
X151384000Y-147701000D03*
%TO.P,J0,a2*%
%TO.N,RESET*%
X153924000Y-147701000D03*
%TO.P,J0,a1*%
%TO.N,GND*%
%TA.AperFunction,ComponentPad*%
G36*
G01*
X157239000Y-147175999D02*
X157239000Y-148226001D01*
G75*
G02*
X156989001Y-148476000I-249999J0D01*
G01*
X155938999Y-148476000D01*
G75*
G02*
X155689000Y-148226001I0J249999D01*
G01*
X155689000Y-147175999D01*
G75*
G02*
X155938999Y-146926000I249999J0D01*
G01*
X156989001Y-146926000D01*
G75*
G02*
X157239000Y-147175999I0J-249999D01*
G01*
G37*
%TD.AperFunction*%
%TD*%
D12*
%TO.P,U3,14*%
%TO.N,+5V*%
X70866000Y-73660000D03*
%TO.P,U3,7*%
%TO.N,GND*%
X78486000Y-58420000D03*
%TO.P,U3,13*%
%TO.N,/SELA9*%
X70866000Y-71120000D03*
%TO.P,U3,6*%
%TO.N,Net-(U3-Pad1)*%
X78486000Y-60960000D03*
%TO.P,U3,12*%
%TO.N,/SELA8*%
X70866000Y-68580000D03*
%TO.P,U3,5*%
%TO.N,/SEL_AD*%
X78486000Y-63500000D03*
%TO.P,U3,11*%
%TO.N,Net-(U3-Pad11)*%
X70866000Y-66040000D03*
%TO.P,U3,4*%
X78486000Y-66040000D03*
%TO.P,U3,10*%
%TO.N,Net-(U3-Pad1)*%
X70866000Y-63500000D03*
%TO.P,U3,3*%
%TO.N,Net-(U3-Pad3)*%
X78486000Y-68580000D03*
%TO.P,U3,9*%
%TO.N,IOWIOR*%
X70866000Y-60960000D03*
%TO.P,U3,2*%
%TO.N,ENLATCH*%
X78486000Y-71120000D03*
%TO.P,U3,8*%
%TO.N,Net-(U3-Pad8)*%
X70866000Y-58420000D03*
D13*
%TO.P,U3,1*%
%TO.N,Net-(U3-Pad1)*%
X78486000Y-73660000D03*
%TD*%
D12*
%TO.P,U5,24*%
%TO.N,+5V*%
X106045000Y-83756500D03*
%TO.P,U5,12*%
%TO.N,GND*%
X121285000Y-55816500D03*
%TO.P,U5,23*%
X106045000Y-81216500D03*
%TO.P,U5,11*%
%TO.N,Net-(RN2-Pad5)*%
X121285000Y-58356500D03*
%TO.P,U5,22*%
%TO.N,GND*%
X106045000Y-78676500D03*
%TO.P,U5,10*%
%TO.N,Net-(RN2-Pad3)*%
X121285000Y-60896500D03*
%TO.P,U5,21*%
%TO.N,GND*%
X106045000Y-76136500D03*
%TO.P,U5,9*%
%TO.N,Net-(RN2-Pad1)*%
X121285000Y-63436500D03*
%TO.P,U5,20*%
%TO.N,GND*%
X106045000Y-73596500D03*
%TO.P,U5,8*%
%TO.N,/DB0*%
X121285000Y-65976500D03*
%TO.P,U5,19*%
%TO.N,GND*%
X106045000Y-71056500D03*
%TO.P,U5,7*%
%TO.N,/DB1*%
X121285000Y-68516500D03*
%TO.P,U5,18*%
%TO.N,GND*%
X106045000Y-68516500D03*
%TO.P,U5,6*%
%TO.N,/DB2*%
X121285000Y-71056500D03*
%TO.P,U5,17*%
%TO.N,Net-(U5-Pad17)*%
X106045000Y-65976500D03*
%TO.P,U5,5*%
%TO.N,/DB3*%
X121285000Y-73596500D03*
%TO.P,U5,16*%
%TO.N,Net-(RN3-Pad5)*%
X106045000Y-63436500D03*
%TO.P,U5,4*%
%TO.N,GND*%
X121285000Y-76136500D03*
%TO.P,U5,15*%
%TO.N,Net-(RN3-Pad3)*%
X106045000Y-60896500D03*
%TO.P,U5,3*%
%TO.N,GND*%
X121285000Y-78676500D03*
%TO.P,U5,14*%
%TO.N,Net-(RN3-Pad1)*%
X106045000Y-58356500D03*
%TO.P,U5,2*%
%TO.N,GND*%
X121285000Y-81216500D03*
%TO.P,U5,13*%
%TO.N,Net-(RN2-Pad7)*%
X106045000Y-55816500D03*
D13*
%TO.P,U5,1*%
%TO.N,GND*%
X121285000Y-83756500D03*
%TD*%
D12*
%TO.P,C4,2*%
%TO.N,GND*%
X135897000Y-124079000D03*
D14*
%TO.P,C4,1*%
%TO.N,+5V*%
X128397000Y-124079000D03*
%TD*%
D12*
%TO.P,U9,20*%
%TO.N,+5V*%
X140975000Y-120078500D03*
%TO.P,U9,10*%
%TO.N,GND*%
X148595000Y-97218500D03*
%TO.P,U9,19*%
%TO.N,/J2D7*%
X140975000Y-117538500D03*
%TO.P,U9,9*%
%TO.N,/J2D3*%
X148595000Y-99758500D03*
%TO.P,U9,18*%
%TO.N,D7*%
X140975000Y-114998500D03*
%TO.P,U9,8*%
%TO.N,D3*%
X148595000Y-102298500D03*
%TO.P,U9,17*%
%TO.N,D6*%
X140975000Y-112458500D03*
%TO.P,U9,7*%
%TO.N,D2*%
X148595000Y-104838500D03*
%TO.P,U9,16*%
%TO.N,/J2D6*%
X140975000Y-109918500D03*
%TO.P,U9,6*%
%TO.N,/J2D2*%
X148595000Y-107378500D03*
%TO.P,U9,15*%
%TO.N,/J2D5*%
X140975000Y-107378500D03*
%TO.P,U9,5*%
%TO.N,/J2D1*%
X148595000Y-109918500D03*
%TO.P,U9,14*%
%TO.N,D5*%
X140975000Y-104838500D03*
%TO.P,U9,4*%
%TO.N,D1*%
X148595000Y-112458500D03*
%TO.P,U9,13*%
%TO.N,D4*%
X140975000Y-102298500D03*
%TO.P,U9,3*%
%TO.N,D0*%
X148595000Y-114998500D03*
%TO.P,U9,12*%
%TO.N,/J2D4*%
X140975000Y-99758500D03*
%TO.P,U9,2*%
%TO.N,/J2D0*%
X148595000Y-117538500D03*
%TO.P,U9,11*%
%TO.N,Net-(U3-Pad3)*%
X140975000Y-97218500D03*
D13*
%TO.P,U9,1*%
%TO.N,GND*%
X148595000Y-120078500D03*
%TD*%
D12*
%TO.P,C8,2*%
%TO.N,GND*%
X148470000Y-124079000D03*
D14*
%TO.P,C8,1*%
%TO.N,+5V*%
X140970000Y-124079000D03*
%TD*%
%TO.P,C7,2*%
%TO.N,GND*%
X72263000Y-140676000D03*
D13*
%TO.P,C7,1*%
%TO.N,+5V*%
X72263000Y-138176000D03*
%TD*%
D12*
%TO.P,C6,2*%
%TO.N,GND*%
X113545000Y-124079000D03*
D14*
%TO.P,C6,1*%
%TO.N,+5V*%
X106045000Y-124079000D03*
%TD*%
D12*
%TO.P,C5,2*%
%TO.N,GND*%
X113545000Y-87757000D03*
D14*
%TO.P,C5,1*%
%TO.N,+5V*%
X106045000Y-87757000D03*
%TD*%
D10*
%TO.P,J4,12*%
%TO.N,GND*%
X159512000Y-114300000D03*
%TO.P,J4,11*%
X156972000Y-114300000D03*
%TO.P,J4,10*%
%TO.N,Net-(J4-Pad10)*%
X159512000Y-111760000D03*
%TO.P,J4,9*%
%TO.N,RESET*%
X156972000Y-111760000D03*
%TO.P,J4,8*%
%TO.N,-12V*%
X159512000Y-109220000D03*
%TO.P,J4,7*%
%TO.N,Net-(J4-Pad7)*%
X156972000Y-109220000D03*
%TO.P,J4,6*%
%TO.N,Net-(J4-Pad6)*%
X159512000Y-106680000D03*
%TO.P,J4,5*%
%TO.N,-5V*%
X156972000Y-106680000D03*
%TO.P,J4,4*%
%TO.N,+12V*%
X159512000Y-104140000D03*
%TO.P,J4,3*%
%TO.N,Net-(J4-Pad3)*%
X156972000Y-104140000D03*
%TO.P,J4,2*%
%TO.N,Net-(J4-Pad2)*%
X159512000Y-101600000D03*
D18*
%TO.P,J4,1*%
%TO.N,+5V*%
X156972000Y-101600000D03*
%TD*%
D10*
%TO.P,J3,3*%
%TO.N,IOR*%
X156972000Y-71120000D03*
%TO.P,J3,2*%
%TO.N,IOWIOR*%
X156972000Y-68580000D03*
D18*
%TO.P,J3,1*%
%TO.N,IOW*%
X156972000Y-66040000D03*
%TD*%
D10*
%TO.P,J2,14*%
%TO.N,GND*%
X159512000Y-93980000D03*
%TO.P,J2,13*%
%TO.N,+5V*%
X156972000Y-93980000D03*
%TO.P,J2,12*%
%TO.N,RESET*%
X159512000Y-91440000D03*
%TO.P,J2,11*%
%TO.N,CLK*%
X156972000Y-91440000D03*
%TO.P,J2,10*%
%TO.N,IOR*%
X159512000Y-88900000D03*
%TO.P,J2,9*%
%TO.N,IOW*%
X156972000Y-88900000D03*
%TO.P,J2,8*%
%TO.N,/J2D7*%
X159512000Y-86360000D03*
%TO.P,J2,7*%
%TO.N,/J2D6*%
X156972000Y-86360000D03*
%TO.P,J2,6*%
%TO.N,/J2D5*%
X159512000Y-83820000D03*
%TO.P,J2,5*%
%TO.N,/J2D4*%
X156972000Y-83820000D03*
%TO.P,J2,4*%
%TO.N,/J2D3*%
X159512000Y-81280000D03*
%TO.P,J2,3*%
%TO.N,/J2D2*%
X156972000Y-81280000D03*
%TO.P,J2,2*%
%TO.N,/J2D1*%
X159512000Y-78740000D03*
D18*
%TO.P,J2,1*%
%TO.N,/J2D0*%
X156972000Y-78740000D03*
%TD*%
D19*
%TO.P,J1,32*%
%TO.N,Net-(J1-Pad32)*%
X54610000Y-146050000D03*
%TO.P,J1,41*%
%TO.N,Net-(J1-Pad41)*%
X54610000Y-123190000D03*
%TO.P,J1,62*%
%TO.N,A0*%
X54610000Y-69850000D03*
%TO.P,J1,61*%
%TO.N,A1*%
X54610000Y-72390000D03*
%TO.P,J1,60*%
%TO.N,A2*%
X54610000Y-74930000D03*
%TO.P,J1,59*%
%TO.N,A3*%
X54610000Y-77470000D03*
%TO.P,J1,58*%
%TO.N,A4*%
X54610000Y-80010000D03*
%TO.P,J1,57*%
%TO.N,A5*%
X54610000Y-82550000D03*
%TO.P,J1,56*%
%TO.N,A6*%
X54610000Y-85090000D03*
%TO.P,J1,55*%
%TO.N,A7*%
X54610000Y-87630000D03*
%TO.P,J1,54*%
%TO.N,A8*%
X54610000Y-90170000D03*
%TO.P,J1,53*%
%TO.N,A9*%
X54610000Y-92710000D03*
%TO.P,J1,52*%
%TO.N,Net-(J1-Pad52)*%
X54610000Y-95250000D03*
%TO.P,J1,51*%
%TO.N,Net-(J1-Pad51)*%
X54610000Y-97790000D03*
%TO.P,J1,50*%
%TO.N,Net-(J1-Pad50)*%
X54610000Y-100330000D03*
%TO.P,J1,49*%
%TO.N,Net-(J1-Pad49)*%
X54610000Y-102870000D03*
%TO.P,J1,48*%
%TO.N,Net-(J1-Pad48)*%
X54610000Y-105410000D03*
%TO.P,J1,47*%
%TO.N,Net-(J1-Pad47)*%
X54610000Y-107950000D03*
%TO.P,J1,46*%
%TO.N,Net-(J1-Pad46)*%
X54610000Y-110490000D03*
%TO.P,J1,45*%
%TO.N,Net-(J1-Pad45)*%
X54610000Y-113030000D03*
%TO.P,J1,44*%
%TO.N,Net-(J1-Pad44)*%
X54610000Y-115570000D03*
%TO.P,J1,43*%
%TO.N,Net-(J1-Pad43)*%
X54610000Y-118110000D03*
%TO.P,J1,42*%
%TO.N,AEN*%
X54610000Y-120650000D03*
%TO.P,J1,40*%
%TO.N,D0*%
X54610000Y-125730000D03*
%TO.P,J1,39*%
%TO.N,D1*%
X54610000Y-128270000D03*
%TO.P,J1,38*%
%TO.N,D2*%
X54610000Y-130810000D03*
%TO.P,J1,37*%
%TO.N,D3*%
X54610000Y-133350000D03*
%TO.P,J1,36*%
%TO.N,D4*%
X54610000Y-135890000D03*
%TO.P,J1,35*%
%TO.N,D5*%
X54610000Y-138430000D03*
%TO.P,J1,34*%
%TO.N,D6*%
X54610000Y-140970000D03*
%TO.P,J1,33*%
%TO.N,D7*%
X54610000Y-143510000D03*
%TD*%
D11*
%TO.P,U8,10*%
%TO.N,Net-(RN4-Pad2)*%
X150368000Y-56134000D03*
%TO.P,U8,9*%
%TO.N,Net-(RN4-Pad4)*%
X150368000Y-58674000D03*
%TO.P,U8,8*%
%TO.N,+5V*%
X150368000Y-61214000D03*
%TO.P,U8,7*%
%TO.N,Net-(RN4-Pad6)*%
X150368000Y-63754000D03*
%TO.P,U8,6*%
%TO.N,Net-(U8-Pad6)*%
X150368000Y-66294000D03*
%TO.P,U8,5*%
%TO.N,Net-(RN4-Pad8)*%
X142748000Y-66294000D03*
%TO.P,U8,4*%
%TO.N,Net-(RN5-Pad2)*%
X142748000Y-63754000D03*
%TO.P,U8,3*%
%TO.N,+5V*%
X142748000Y-61214000D03*
%TO.P,U8,2*%
%TO.N,Net-(RN5-Pad4)*%
X142748000Y-58674000D03*
D18*
%TO.P,U8,1*%
%TO.N,Net-(RN5-Pad6)*%
X142748000Y-56134000D03*
%TD*%
D11*
%TO.P,U7,10*%
%TO.N,Net-(RN2-Pad2)*%
X139446000Y-56134000D03*
%TO.P,U7,9*%
%TO.N,Net-(RN2-Pad4)*%
X139446000Y-58674000D03*
%TO.P,U7,8*%
%TO.N,+5V*%
X139446000Y-61214000D03*
%TO.P,U7,7*%
%TO.N,Net-(RN2-Pad6)*%
X139446000Y-63754000D03*
%TO.P,U7,6*%
%TO.N,Net-(U7-Pad6)*%
X139446000Y-66294000D03*
%TO.P,U7,5*%
%TO.N,Net-(RN2-Pad8)*%
X131826000Y-66294000D03*
%TO.P,U7,4*%
%TO.N,Net-(RN3-Pad2)*%
X131826000Y-63754000D03*
%TO.P,U7,3*%
%TO.N,+5V*%
X131826000Y-61214000D03*
%TO.P,U7,2*%
%TO.N,Net-(RN3-Pad4)*%
X131826000Y-58674000D03*
D18*
%TO.P,U7,1*%
%TO.N,Net-(RN3-Pad6)*%
X131826000Y-56134000D03*
%TD*%
D12*
%TO.P,U6,24*%
%TO.N,+5V*%
X106045000Y-120142000D03*
%TO.P,U6,12*%
%TO.N,GND*%
X121285000Y-92202000D03*
%TO.P,U6,23*%
X106045000Y-117602000D03*
%TO.P,U6,11*%
%TO.N,Net-(RN4-Pad5)*%
X121285000Y-94742000D03*
%TO.P,U6,22*%
%TO.N,GND*%
X106045000Y-115062000D03*
%TO.P,U6,10*%
%TO.N,Net-(RN4-Pad3)*%
X121285000Y-97282000D03*
%TO.P,U6,21*%
%TO.N,GND*%
X106045000Y-112522000D03*
%TO.P,U6,9*%
%TO.N,Net-(RN4-Pad1)*%
X121285000Y-99822000D03*
%TO.P,U6,20*%
%TO.N,GND*%
X106045000Y-109982000D03*
%TO.P,U6,8*%
%TO.N,/DB4*%
X121285000Y-102362000D03*
%TO.P,U6,19*%
%TO.N,GND*%
X106045000Y-107442000D03*
%TO.P,U6,7*%
%TO.N,/DB5*%
X121285000Y-104902000D03*
%TO.P,U6,18*%
%TO.N,GND*%
X106045000Y-104902000D03*
%TO.P,U6,6*%
%TO.N,/DB6*%
X121285000Y-107442000D03*
%TO.P,U6,17*%
%TO.N,Net-(U6-Pad17)*%
X106045000Y-102362000D03*
%TO.P,U6,5*%
%TO.N,/DB7*%
X121285000Y-109982000D03*
%TO.P,U6,16*%
%TO.N,Net-(RN5-Pad5)*%
X106045000Y-99822000D03*
%TO.P,U6,4*%
%TO.N,GND*%
X121285000Y-112522000D03*
%TO.P,U6,15*%
%TO.N,Net-(RN5-Pad3)*%
X106045000Y-97282000D03*
%TO.P,U6,3*%
%TO.N,GND*%
X121285000Y-115062000D03*
%TO.P,U6,14*%
%TO.N,Net-(RN5-Pad1)*%
X106045000Y-94742000D03*
%TO.P,U6,2*%
%TO.N,GND*%
X121285000Y-117602000D03*
%TO.P,U6,13*%
%TO.N,Net-(RN4-Pad7)*%
X106045000Y-92202000D03*
D13*
%TO.P,U6,1*%
%TO.N,GND*%
X121285000Y-120142000D03*
%TD*%
D12*
%TO.P,U2,14*%
%TO.N,+5V*%
X86652100Y-120078500D03*
%TO.P,U2,7*%
%TO.N,GND*%
X94272100Y-104838500D03*
%TO.P,U2,13*%
%TO.N,Net-(R1-Pad1)*%
X86652100Y-117538500D03*
%TO.P,U2,6*%
%TO.N,/SELA9*%
X94272100Y-107378500D03*
%TO.P,U2,12*%
%TO.N,Net-(R1-Pad1)*%
X86652100Y-114998500D03*
%TO.P,U2,5*%
%TO.N,/SW_A9*%
X94272100Y-109918500D03*
%TO.P,U2,11*%
%TO.N,Net-(U2-Pad11)*%
X86652100Y-112458500D03*
%TO.P,U2,4*%
%TO.N,A9*%
X94272100Y-112458500D03*
%TO.P,U2,10*%
%TO.N,Net-(R1-Pad1)*%
X86652100Y-109918500D03*
%TO.P,U2,3*%
%TO.N,/SELA8*%
X94272100Y-114998500D03*
%TO.P,U2,9*%
%TO.N,Net-(R1-Pad1)*%
X86652100Y-107378500D03*
%TO.P,U2,2*%
%TO.N,/SW_A8*%
X94272100Y-117538500D03*
%TO.P,U2,8*%
%TO.N,Net-(U2-Pad8)*%
X86652100Y-104838500D03*
D13*
%TO.P,U2,1*%
%TO.N,A8*%
X94272100Y-120078500D03*
%TD*%
D12*
%TO.P,U1,20*%
%TO.N,+5V*%
X72174100Y-120078500D03*
%TO.P,U1,10*%
%TO.N,GND*%
X79794100Y-97218500D03*
%TO.P,U1,19*%
%TO.N,/SEL_AD*%
X72174100Y-117538500D03*
%TO.P,U1,9*%
%TO.N,Net-(RN1-Pad6)*%
X79794100Y-99758500D03*
%TO.P,U1,18*%
%TO.N,Net-(RN1-Pad2)*%
X72174100Y-114998500D03*
%TO.P,U1,8*%
%TO.N,A3*%
X79794100Y-102298500D03*
%TO.P,U1,17*%
%TO.N,A7*%
X72174100Y-112458500D03*
%TO.P,U1,7*%
%TO.N,Net-(RN1-Pad7)*%
X79794100Y-104838500D03*
%TO.P,U1,16*%
%TO.N,Net-(RN1-Pad3)*%
X72174100Y-109918500D03*
%TO.P,U1,6*%
%TO.N,A2*%
X79794100Y-107378500D03*
%TO.P,U1,15*%
%TO.N,A6*%
X72174100Y-107378500D03*
%TO.P,U1,5*%
%TO.N,Net-(RN1-Pad8)*%
X79794100Y-109918500D03*
%TO.P,U1,14*%
%TO.N,Net-(RN1-Pad4)*%
X72174100Y-104838500D03*
%TO.P,U1,4*%
%TO.N,A1*%
X79794100Y-112458500D03*
%TO.P,U1,13*%
%TO.N,A5*%
X72174100Y-102298500D03*
%TO.P,U1,3*%
%TO.N,Net-(RN1-Pad9)*%
X79794100Y-114998500D03*
%TO.P,U1,12*%
%TO.N,Net-(RN1-Pad5)*%
X72174100Y-99758500D03*
%TO.P,U1,2*%
%TO.N,A0*%
X79794100Y-117538500D03*
%TO.P,U1,11*%
%TO.N,A4*%
X72174100Y-97218500D03*
D13*
%TO.P,U1,1*%
%TO.N,AEN*%
X79794100Y-120078500D03*
%TD*%
D12*
%TO.P,SW1,20*%
%TO.N,Net-(RN1-Pad9)*%
X92202000Y-81434000D03*
%TO.P,SW1,10*%
%TO.N,GND*%
X99822000Y-58574000D03*
%TO.P,SW1,19*%
%TO.N,Net-(RN1-Pad8)*%
X92202000Y-78894000D03*
%TO.P,SW1,9*%
%TO.N,GND*%
X99822000Y-61114000D03*
%TO.P,SW1,18*%
%TO.N,Net-(RN1-Pad7)*%
X92202000Y-76354000D03*
%TO.P,SW1,8*%
%TO.N,GND*%
X99822000Y-63654000D03*
%TO.P,SW1,17*%
%TO.N,Net-(RN1-Pad6)*%
X92202000Y-73814000D03*
%TO.P,SW1,7*%
%TO.N,GND*%
X99822000Y-66194000D03*
%TO.P,SW1,16*%
%TO.N,Net-(RN1-Pad5)*%
X92202000Y-71274000D03*
%TO.P,SW1,6*%
%TO.N,GND*%
X99822000Y-68734000D03*
%TO.P,SW1,15*%
%TO.N,Net-(RN1-Pad4)*%
X92202000Y-68734000D03*
%TO.P,SW1,5*%
%TO.N,GND*%
X99822000Y-71274000D03*
%TO.P,SW1,14*%
%TO.N,Net-(RN1-Pad3)*%
X92202000Y-66194000D03*
%TO.P,SW1,4*%
%TO.N,GND*%
X99822000Y-73814000D03*
%TO.P,SW1,13*%
%TO.N,Net-(RN1-Pad2)*%
X92202000Y-63654000D03*
%TO.P,SW1,3*%
%TO.N,GND*%
X99822000Y-76354000D03*
%TO.P,SW1,12*%
%TO.N,/SW_A8*%
X92202000Y-61114000D03*
%TO.P,SW1,2*%
%TO.N,GND*%
X99822000Y-78894000D03*
%TO.P,SW1,11*%
%TO.N,/SW_A9*%
X92202000Y-58574000D03*
D13*
%TO.P,SW1,1*%
%TO.N,GND*%
X99822000Y-81434000D03*
%TD*%
D12*
%TO.P,C3,2*%
%TO.N,GND*%
X67310000Y-62604000D03*
D14*
%TO.P,C3,1*%
%TO.N,+5V*%
X67310000Y-70104000D03*
%TD*%
D12*
%TO.P,C2,2*%
%TO.N,GND*%
X94122100Y-124079000D03*
D14*
%TO.P,C2,1*%
%TO.N,+5V*%
X86622100Y-124079000D03*
%TD*%
D12*
%TO.P,C1,2*%
%TO.N,GND*%
X79644100Y-124079000D03*
D14*
%TO.P,C1,1*%
%TO.N,+5V*%
X72144100Y-124079000D03*
%TD*%
D20*
%TO.N,+5V*%
X67564000Y-140970000D03*
X164846000Y-98044000D03*
X159512000Y-98044000D03*
X125664009Y-128081991D03*
X126680009Y-128081991D03*
X127696009Y-128081991D03*
X161290000Y-135382000D03*
X161290000Y-136398000D03*
X164846000Y-130873500D03*
X164846000Y-129794000D03*
X72421750Y-129063750D03*
X73152000Y-128270000D03*
X63246000Y-65976500D03*
X63246000Y-64897000D03*
X63246000Y-63881000D03*
X108966000Y-50736500D03*
X109982000Y-50736500D03*
X110998000Y-50736500D03*
X109474000Y-84201000D03*
X109474000Y-83248500D03*
X140081000Y-50736500D03*
%TO.N,A0*%
X81064100Y-125666500D03*
X83692381Y-135467018D03*
X76898500Y-114554000D03*
X67564000Y-74104500D03*
%TO.N,A1*%
X82143600Y-125666500D03*
X84771382Y-135466090D03*
X67584156Y-75290844D03*
%TO.N,A2*%
X83223100Y-125666500D03*
X85850385Y-135466090D03*
X67610212Y-76390997D03*
%TO.N,A3*%
X85509100Y-125666500D03*
X87884000Y-135466090D03*
X67610212Y-77470000D03*
%TO.N,A4*%
X77218353Y-126380970D03*
X82707587Y-135026080D03*
X71435000Y-80645000D03*
X67868462Y-80022935D03*
%TO.N,A5*%
X76072503Y-126555500D03*
X81635589Y-134586070D03*
X68151470Y-86614000D03*
%TO.N,A6*%
X74993500Y-126555500D03*
X80557322Y-134465550D03*
X67391970Y-85090000D03*
%TO.N,A7*%
X73850500Y-126555500D03*
X79742454Y-133706050D03*
X68151470Y-107632500D03*
%TO.N,A8*%
X97409000Y-126555500D03*
X97409000Y-133706050D03*
X71882000Y-91503500D03*
X67711460Y-91376500D03*
%TO.N,A9*%
X98933000Y-133706050D03*
X88745202Y-111031202D03*
X71879500Y-92710000D03*
X67711460Y-92710000D03*
%TO.N,AEN*%
X100393500Y-133706050D03*
X100330000Y-126619000D03*
X92583000Y-118681500D03*
X70231000Y-120650000D03*
X62418000Y-120650000D03*
X60899000Y-120650000D03*
%TO.N,D0*%
X136271000Y-129730500D03*
X63373000Y-125730000D03*
X60579000Y-125730000D03*
%TO.N,D1*%
X142494000Y-113538000D03*
X137096500Y-130619500D03*
X135255000Y-130619500D03*
X64325500Y-128270000D03*
X62039500Y-128270000D03*
%TO.N,D2*%
X143383000Y-108331000D03*
X138366500Y-130619500D03*
X133985000Y-131057010D03*
X64325500Y-130810000D03*
X62039500Y-130556000D03*
%TO.N,D3*%
X143764000Y-103124000D03*
X139319000Y-131254500D03*
X132905500Y-131506000D03*
X64325500Y-133413500D03*
X61849000Y-133413500D03*
%TO.N,D4*%
X143891000Y-130048000D03*
X131762500Y-131946010D03*
X64311521Y-135890000D03*
X61849000Y-135890000D03*
%TO.N,D5*%
X145034000Y-130048000D03*
X130492500Y-132386020D03*
X64311521Y-138430000D03*
X61023500Y-138430000D03*
%TO.N,D6*%
X146431000Y-130048000D03*
X129424723Y-132826030D03*
X65214500Y-139700000D03*
X61023500Y-139700500D03*
%TO.N,D7*%
X147574000Y-126619000D03*
X147574000Y-130048000D03*
X128391149Y-133266040D03*
X66040000Y-143510000D03*
X61019694Y-143449099D03*
%TO.N,IOW*%
X125984000Y-140970000D03*
X156845000Y-139827000D03*
X98044000Y-139700000D03*
X62418000Y-115506500D03*
X90737996Y-126732014D03*
X92583000Y-133731000D03*
X70167500Y-118554500D03*
%TO.N,CLK*%
X128524000Y-139446000D03*
X154305000Y-139446000D03*
X61023500Y-98615500D03*
%TO.N,IOR*%
X123444000Y-140208000D03*
X155575000Y-139827000D03*
X99314000Y-139700000D03*
X162433000Y-90805000D03*
X162814000Y-88646000D03*
X62418000Y-112839500D03*
X89662000Y-126812491D03*
X91503997Y-133731000D03*
X70104000Y-116141500D03*
%TO.N,+12V*%
X161290000Y-121666000D03*
X161290000Y-127508000D03*
X61531500Y-126555500D03*
%TO.N,-12V*%
X160020000Y-121666000D03*
X160274000Y-128270000D03*
X137130952Y-149762048D03*
X62039500Y-131635500D03*
%TO.N,-5V*%
X158750000Y-121666000D03*
X159258000Y-127254000D03*
X146240500Y-150870530D03*
X61912500Y-137160000D03*
%TO.N,RESET*%
X61087000Y-144526000D03*
%TO.N,+5V*%
X101917500Y-114317780D03*
X72247760Y-145689320D03*
X159207010Y-146100990D03*
X88265000Y-50736500D03*
%TO.N,D0*%
X142402560Y-116133880D03*
%TO.N,D6*%
X146441160Y-122087640D03*
%TO.N,GND*%
X80772000Y-80073500D03*
X80772000Y-75184000D03*
X82105500Y-88011000D03*
X86169500Y-88011000D03*
X89966800Y-55915560D03*
X89966800Y-55915560D03*
X86547960Y-55915560D03*
X138059160Y-96499680D03*
X140954760Y-94940120D03*
%TO.N,IOW*%
X90088720Y-117215920D03*
%TO.N,IOR*%
X89206212Y-116467708D03*
%TO.N,RESET*%
X147706080Y-150982680D03*
%TO.N,/DB3*%
X129501860Y-96240600D03*
%TO.N,/DB2*%
X130683000Y-97345500D03*
%TO.N,/DB1*%
X132506720Y-100274120D03*
%TO.N,/SW_A9*%
X97089000Y-109918500D03*
%TO.N,Net-(RN1-Pad4)*%
X70413869Y-78970290D03*
%TO.N,Net-(RN1-Pad3)*%
X69827473Y-78064540D03*
%TO.N,Net-(RN1-Pad2)*%
X69129213Y-77241936D03*
%TO.N,/SELA9*%
X97155000Y-59563000D03*
X95885000Y-54737000D03*
%TO.N,/SELA8*%
X98171000Y-57531000D03*
X96901000Y-54229000D03*
%TO.N,Net-(U3-Pad3)*%
X94615000Y-54984011D03*
%TO.N,Net-(RN1-Pad5)*%
X71437500Y-79311500D03*
%TO.N,Net-(U3-Pad3)*%
X108140500Y-79375000D03*
X138033760Y-89007469D03*
%TO.N,/J2D3*%
X161696400Y-81280000D03*
%TO.N,/J2D2*%
X152307192Y-96019655D03*
%TO.N,/J2D1*%
X153066692Y-96921927D03*
%TO.N,/J2D0*%
X153826192Y-97793792D03*
%TO.N,Net-(U3-Pad8)*%
X81526409Y-73860689D03*
X92893510Y-93431360D03*
%TO.N,Net-(RN2-Pad8)*%
X137697930Y-73568560D03*
%TO.N,Net-(RN2-Pad7)*%
X132161280Y-87995760D03*
%TO.N,Net-(RN4-Pad5)*%
X140158253Y-93444013D03*
%TO.N,Net-(RN4-Pad3)*%
X123946920Y-92461080D03*
X140933409Y-92684513D03*
%TO.N,Net-(RN4-Pad1)*%
X124912120Y-91846499D03*
X140253720Y-91846499D03*
%TO.N,Net-(RN5-Pad6)*%
X152196800Y-54457600D03*
%TO.N,Net-(RN5-Pad3)*%
X150980100Y-81410648D03*
%TO.N,Net-(RN5-Pad1)*%
X150220600Y-82448400D03*
%TD*%
D21*
%TO.N,+5V*%
X70358000Y-138176000D02*
X67564000Y-140970000D01*
X72263000Y-138176000D02*
X70358000Y-138176000D01*
X86802009Y-128081991D02*
X73594009Y-128081991D01*
D22*
X72263000Y-124197900D02*
X72144100Y-124079000D01*
X72144100Y-120108500D02*
X72174100Y-120078500D01*
X72144100Y-124079000D02*
X72144100Y-120108500D01*
X86802009Y-124258909D02*
X86622100Y-124079000D01*
X86802009Y-128081991D02*
X86802009Y-124258909D01*
X86622100Y-120108500D02*
X86652100Y-120078500D01*
X86622100Y-124079000D02*
X86622100Y-120108500D01*
X105983991Y-87818009D02*
X106045000Y-87757000D01*
X128081991Y-124394009D02*
X128397000Y-124079000D01*
X128397000Y-120142000D02*
X128333500Y-120078500D01*
X128397000Y-124079000D02*
X128397000Y-120142000D01*
X140975000Y-124074000D02*
X140970000Y-124079000D01*
X140975000Y-120078500D02*
X140975000Y-124074000D01*
D21*
X164846000Y-98806000D02*
X164846000Y-98044000D01*
D22*
X159512000Y-96520000D02*
X156972000Y-93980000D01*
X159512000Y-99060000D02*
X159512000Y-98044000D01*
X159512000Y-99060000D02*
X156972000Y-101600000D01*
D21*
X159207010Y-146100990D02*
X161290000Y-144018000D01*
X161290000Y-144018000D02*
X161290000Y-136398000D01*
D22*
X159512000Y-98044000D02*
X159512000Y-96520000D01*
D21*
X126172009Y-128081991D02*
X127188009Y-128081991D01*
X125664009Y-128081991D02*
X108269991Y-128081991D01*
D23*
X106045000Y-87757000D02*
X106045000Y-83756500D01*
X106045000Y-124079000D02*
X106045000Y-120142000D01*
X106045000Y-125857000D02*
X108269991Y-128081991D01*
X106045000Y-124079000D02*
X106045000Y-125857000D01*
D21*
X161290000Y-136398000D02*
X161290000Y-135382000D01*
X164846000Y-129794000D02*
X164846000Y-130873500D01*
X73340009Y-128081991D02*
X73152000Y-128270000D01*
X73152000Y-128270000D02*
X72580500Y-128841500D01*
D22*
X72144100Y-128405100D02*
X72580500Y-128841500D01*
X72144100Y-124079000D02*
X72144100Y-128405100D01*
D21*
X162496500Y-50736500D02*
X140081000Y-50736500D01*
X164846000Y-53086000D02*
X162496500Y-50736500D01*
X164846000Y-98044000D02*
X164846000Y-53086000D01*
X88265000Y-50736500D02*
X72834500Y-50736500D01*
X72834500Y-50736500D02*
X63246000Y-60325000D01*
X63246000Y-60325000D02*
X63246000Y-63881000D01*
X63246000Y-64897000D02*
X63246000Y-65976500D01*
X63246000Y-63881000D02*
X63246000Y-64897000D01*
X106045000Y-125925482D02*
X103888491Y-128081991D01*
X106045000Y-125857000D02*
X106045000Y-125925482D01*
X103888491Y-128081991D02*
X86802009Y-128081991D01*
X108269991Y-128081991D02*
X103888491Y-128081991D01*
X106045000Y-124079000D02*
X101917500Y-119951500D01*
X101917500Y-91884500D02*
X106045000Y-87757000D01*
X106045000Y-87757000D02*
X109474000Y-84328000D01*
D24*
%TO.N,A0*%
X81296071Y-119040471D02*
X79794100Y-117538500D01*
X81296071Y-120691471D02*
X81296071Y-119040471D01*
X82089080Y-121484480D02*
X81296071Y-120691471D01*
X82089080Y-121484480D02*
X82089080Y-124514520D01*
X81191100Y-125412500D02*
X81191100Y-125666500D01*
X82089080Y-124514520D02*
X81191100Y-125412500D01*
X80264000Y-138895399D02*
X83692381Y-135467018D01*
X80264000Y-142621000D02*
X80264000Y-138895399D01*
X76898500Y-114642900D02*
X76898500Y-114554000D01*
X79794100Y-117538500D02*
X76898500Y-114642900D01*
X63309500Y-69850000D02*
X54610000Y-69850000D01*
X67564000Y-74104500D02*
X63309500Y-69850000D01*
%TO.N,A1*%
X81736080Y-114400480D02*
X81736080Y-120355950D01*
X79794100Y-112458500D02*
X81736080Y-114400480D01*
X81736080Y-120355950D02*
X82529090Y-121148960D01*
X82529090Y-125344510D02*
X82207100Y-125666500D01*
X82529090Y-121148960D02*
X82529090Y-125344510D01*
X82804000Y-142621000D02*
X82804000Y-137541000D01*
X84771382Y-135573618D02*
X84771382Y-135466090D01*
X82804000Y-137541000D02*
X84771382Y-135573618D01*
X64683312Y-72390000D02*
X54610000Y-72390000D01*
X67584156Y-75290844D02*
X64683312Y-72390000D01*
%TO.N,A2*%
X85344000Y-135972475D02*
X85850385Y-135466090D01*
X85344000Y-142621000D02*
X85344000Y-135972475D01*
X55369501Y-74170499D02*
X54610000Y-74930000D01*
X65389714Y-74170499D02*
X55369501Y-74170499D01*
X67610212Y-76390997D02*
X65389714Y-74170499D01*
%TO.N,A3*%
X87884000Y-142621000D02*
X87884000Y-135466090D01*
X67610212Y-77470000D02*
X54610000Y-77470000D01*
%TO.N,A4*%
X77218353Y-126380970D02*
X75170530Y-124333147D01*
X75170530Y-100214930D02*
X72174100Y-97218500D01*
X75170530Y-124333147D02*
X75170530Y-100214930D01*
X90424000Y-137350500D02*
X90424000Y-142621000D01*
X89405786Y-134706590D02*
X90424000Y-135724804D01*
X83225410Y-134706590D02*
X89405786Y-134706590D01*
X82905920Y-135026080D02*
X83225410Y-134706590D01*
X82707587Y-135026080D02*
X82905920Y-135026080D01*
X72174100Y-97218500D02*
X71120000Y-96164400D01*
X71120000Y-88646000D02*
X71115510Y-88641510D01*
X71120000Y-96164400D02*
X71120000Y-88646000D01*
X71115510Y-80964490D02*
X71435000Y-80645000D01*
X71115510Y-88641510D02*
X71115510Y-80964490D01*
X54622935Y-80022935D02*
X54610000Y-80010000D01*
X67868462Y-80022935D02*
X54622935Y-80022935D01*
%TO.N,A5*%
X76072503Y-126555500D02*
X74730520Y-125213517D01*
X74730520Y-104854920D02*
X72174100Y-102298500D01*
X74730520Y-125213517D02*
X74730520Y-104854920D01*
X89588044Y-134266580D02*
X92964000Y-137642536D01*
X92964000Y-137642536D02*
X92964000Y-142621000D01*
X81955079Y-134266580D02*
X89588044Y-134266580D01*
X81635589Y-134586070D02*
X81955079Y-134266580D01*
X54610000Y-82550000D02*
X67708960Y-82550000D01*
X67708960Y-82550000D02*
X68470960Y-83312000D01*
X68470960Y-86294510D02*
X68151470Y-86614000D01*
X68470960Y-83312000D02*
X68470960Y-86294510D01*
%TO.N,A6*%
X74993500Y-126555500D02*
X74290510Y-125852510D01*
X74290510Y-109494910D02*
X72174100Y-107378500D01*
X74290510Y-125852510D02*
X74290510Y-109494910D01*
X95504000Y-139560268D02*
X95504000Y-142621000D01*
X89770302Y-133826570D02*
X95504000Y-139560268D01*
X80993930Y-133826570D02*
X89770302Y-133826570D01*
X80557322Y-134263178D02*
X80993930Y-133826570D01*
X80557322Y-134465550D02*
X80557322Y-134263178D01*
X67391970Y-85090000D02*
X54610000Y-85090000D01*
%TO.N,A7*%
X73850500Y-119126000D02*
X73850500Y-126555500D01*
X72174100Y-112458500D02*
X73850500Y-114134900D01*
X98044000Y-141478000D02*
X98044000Y-142621000D01*
X89952560Y-133386560D02*
X98044000Y-141478000D01*
X80163940Y-133386560D02*
X89952560Y-133386560D01*
X79844450Y-133706050D02*
X80163940Y-133386560D01*
X79742454Y-133706050D02*
X79844450Y-133706050D01*
X68151470Y-107632500D02*
X68151470Y-107108530D01*
X68151470Y-107108530D02*
X68470960Y-106789040D01*
X68470960Y-90886460D02*
X68470960Y-88409960D01*
X68470960Y-106789040D02*
X68470960Y-90886460D01*
X68470960Y-90886460D02*
X68470960Y-90378460D01*
X68470960Y-88409960D02*
X67691000Y-87630000D01*
X67691000Y-87630000D02*
X54610000Y-87630000D01*
%TO.N,A8*%
X94272100Y-120078500D02*
X96139000Y-120078500D01*
X97409000Y-121348500D02*
X97409000Y-126555500D01*
X96139000Y-120078500D02*
X97409000Y-121348500D01*
X100584000Y-136881050D02*
X100584000Y-142621000D01*
X97409000Y-133706050D02*
X100584000Y-136881050D01*
X67711460Y-91376500D02*
X66504960Y-90170000D01*
X66504960Y-90170000D02*
X54610000Y-90170000D01*
%TO.N,A9*%
X103124000Y-137897050D02*
X103124000Y-142621000D01*
X98933000Y-133706050D02*
X103124000Y-137897050D01*
X88745202Y-105281400D02*
X88709500Y-105245698D01*
X88745202Y-111031202D02*
X88745202Y-105281400D01*
X88709500Y-105245698D02*
X88709500Y-98742500D01*
X83248500Y-92710000D02*
X71879500Y-92710000D01*
X88709500Y-98171000D02*
X83248500Y-92710000D01*
X67711460Y-92710000D02*
X54610000Y-92710000D01*
%TO.N,AEN*%
X131064000Y-137062953D02*
X127387607Y-133386560D01*
X131064000Y-142621000D02*
X131064000Y-137062953D01*
X100712990Y-133386560D02*
X100393500Y-133706050D01*
X127387607Y-133386560D02*
X100712990Y-133386560D01*
X95364268Y-118681500D02*
X92583000Y-118681500D01*
X100330000Y-123647232D02*
X95364268Y-118681500D01*
X100330000Y-126619000D02*
X100330000Y-123647232D01*
X70231000Y-120650000D02*
X62418000Y-120650000D01*
X60899000Y-120650000D02*
X54610000Y-120650000D01*
%TO.N,D0*%
X136017000Y-130175000D02*
X136017000Y-142494000D01*
X137068501Y-129123499D02*
X136334500Y-129857500D01*
X136017000Y-142494000D02*
X136144000Y-142621000D01*
X137068501Y-116113501D02*
X137068501Y-129123499D01*
X135953500Y-114998500D02*
X137068501Y-116113501D01*
X136334500Y-129857500D02*
X136017000Y-130175000D01*
X136334500Y-129857500D02*
X78549500Y-129857500D01*
X78549500Y-129857500D02*
X78547509Y-129857500D01*
X78549500Y-129857500D02*
X70866000Y-129857500D01*
X67500500Y-129857500D02*
X63373000Y-125730000D01*
X60579000Y-125730000D02*
X54610000Y-125730000D01*
%TO.N,D1*%
X147515500Y-113538000D02*
X148595000Y-112458500D01*
X142494000Y-113538000D02*
X147515500Y-113538000D01*
X137508511Y-129699489D02*
X137096500Y-130111500D01*
X137096500Y-141033500D02*
X138684000Y-142621000D01*
X137508511Y-115664511D02*
X137508511Y-129699489D01*
X137068501Y-115224501D02*
X137508511Y-115664511D01*
X137096500Y-130111500D02*
X137096500Y-130619500D01*
X137068501Y-113573501D02*
X137068501Y-115224501D01*
X135953500Y-112458500D02*
X137068501Y-113573501D01*
X137096500Y-130619500D02*
X137096500Y-141033500D01*
X62039500Y-128270000D02*
X54610000Y-128270000D01*
%TO.N,D2*%
X145102500Y-108331000D02*
X148595000Y-104838500D01*
X143510000Y-108331000D02*
X145102500Y-108331000D01*
X138366500Y-129794000D02*
X138366500Y-130619500D01*
X137948521Y-129376021D02*
X138366500Y-129794000D01*
X137948521Y-105436521D02*
X137948521Y-129376021D01*
X137350500Y-104838500D02*
X137948521Y-105436521D01*
X138366500Y-139763500D02*
X141224000Y-142621000D01*
X135953500Y-104838500D02*
X137350500Y-104838500D01*
X138366500Y-130619500D02*
X138366500Y-139763500D01*
X54990503Y-130429497D02*
X54610000Y-130810000D01*
X54864000Y-130556000D02*
X54610000Y-130810000D01*
X62039500Y-130556000D02*
X54864000Y-130556000D01*
%TO.N,D3*%
X147769500Y-103124000D02*
X148595000Y-102298500D01*
X143764000Y-103124000D02*
X147769500Y-103124000D01*
X137350500Y-102298500D02*
X135953500Y-102298500D01*
X138388531Y-129136969D02*
X138388531Y-103336531D01*
X138388531Y-103336531D02*
X137350500Y-102298500D01*
X139255500Y-130003938D02*
X138388531Y-129136969D01*
X139255500Y-137109232D02*
X139255500Y-131127500D01*
X143764000Y-141617732D02*
X139255500Y-137109232D01*
X143764000Y-142621000D02*
X143764000Y-141617732D01*
X54673500Y-133413500D02*
X54610000Y-133350000D01*
X61849000Y-133413500D02*
X54673500Y-133413500D01*
%TO.N,D4*%
X143891000Y-140208000D02*
X146304000Y-142621000D01*
X143891000Y-130048000D02*
X143891000Y-140208000D01*
X131565010Y-131946010D02*
X131245520Y-131626520D01*
X131762500Y-131946010D02*
X131565010Y-131946010D01*
X77783748Y-131626520D02*
X71056500Y-131626520D01*
X68575001Y-131626520D02*
X64311521Y-135890000D01*
X61849000Y-135890000D02*
X54610000Y-135890000D01*
%TO.N,D5*%
X145034000Y-138811000D02*
X148844000Y-142621000D01*
X145034000Y-126619000D02*
X145034000Y-130048000D01*
X145034000Y-130048000D02*
X145034000Y-138811000D01*
X61023500Y-138430000D02*
X54610000Y-138430000D01*
%TO.N,D6*%
X146431000Y-137668000D02*
X151384000Y-142621000D01*
X146431000Y-130048000D02*
X146431000Y-137668000D01*
X59754000Y-140970000D02*
X54610000Y-140970000D01*
X61023500Y-139700500D02*
X59754000Y-140970000D01*
%TO.N,D7*%
X153924000Y-142621000D02*
X152527000Y-141224000D01*
X152527000Y-141224000D02*
X150609268Y-141224000D01*
X147574000Y-138188732D02*
X150609268Y-141224000D01*
X147574000Y-126619000D02*
X147574000Y-130048000D01*
X147574000Y-130048000D02*
X147574000Y-138188732D01*
X128391149Y-133266040D02*
X128071659Y-132946550D01*
X128071659Y-132946550D02*
X79057500Y-132946550D01*
X66040000Y-137985500D02*
X66040000Y-143510000D01*
X71078950Y-132946550D02*
X66040000Y-137985500D01*
X54670901Y-143449099D02*
X54610000Y-143510000D01*
X61019694Y-143449099D02*
X54670901Y-143449099D01*
%TO.N,IOW*%
X124883999Y-146600999D02*
X124883999Y-142070001D01*
X125984000Y-147701000D02*
X124883999Y-146600999D01*
X124883999Y-142070001D02*
X125984000Y-140970000D01*
X161798000Y-66040000D02*
X156972000Y-66040000D01*
X163895990Y-68137990D02*
X161798000Y-66040000D01*
X163895990Y-123886010D02*
X163895990Y-91143928D01*
X161544000Y-126238000D02*
X163895990Y-123886010D01*
X158750000Y-126238000D02*
X161544000Y-126238000D01*
X158242000Y-126746000D02*
X158750000Y-126238000D01*
X158242000Y-139319000D02*
X158242000Y-126746000D01*
X157734000Y-139827000D02*
X158242000Y-139319000D01*
X156845000Y-139827000D02*
X157734000Y-139827000D01*
X98044000Y-139192000D02*
X98044000Y-139700000D01*
X92583000Y-133731000D02*
X98044000Y-139192000D01*
X70167500Y-118554500D02*
X63563500Y-118554500D01*
X62418000Y-117409000D02*
X62418000Y-115506500D01*
X63563500Y-118554500D02*
X62418000Y-117409000D01*
%TO.N,CLK*%
X127433999Y-140536001D02*
X128524000Y-139446000D01*
X127433999Y-147864203D02*
X127433999Y-140536001D01*
X126507201Y-148791001D02*
X127433999Y-147864203D01*
X109294001Y-148791001D02*
X126507201Y-148791001D01*
X108204000Y-147701000D02*
X109294001Y-148791001D01*
X158137001Y-90274999D02*
X156972000Y-91440000D01*
X160632999Y-90274999D02*
X158137001Y-90274999D01*
X163015970Y-92657970D02*
X160632999Y-90274999D01*
X163015970Y-123381762D02*
X163015970Y-92657970D01*
X161937732Y-124460000D02*
X163015970Y-123381762D01*
X157359383Y-124460000D02*
X161937732Y-124460000D01*
X156210000Y-125609383D02*
X157359383Y-124460000D01*
X156210000Y-137541000D02*
X156210000Y-125609383D01*
X154305000Y-139446000D02*
X156210000Y-137541000D01*
X63552021Y-145923000D02*
X63552021Y-127052021D01*
X63552021Y-127052021D02*
X61658500Y-125158500D01*
X61658500Y-99250500D02*
X61023500Y-98615500D01*
X61658500Y-125158500D02*
X61658500Y-99250500D01*
%TO.N,IOR*%
X155448000Y-139700000D02*
X155575000Y-139827000D01*
X122343999Y-146600999D02*
X123444000Y-147701000D01*
X122343999Y-141308001D02*
X122343999Y-146600999D01*
X123444000Y-140208000D02*
X122343999Y-141308001D01*
X97028000Y-139808062D02*
X97028000Y-139306268D01*
X97679439Y-140459501D02*
X97028000Y-139808062D01*
X98554499Y-140459501D02*
X97679439Y-140459501D01*
X99314000Y-139700000D02*
X98554499Y-140459501D01*
X155575000Y-139827000D02*
X155720938Y-139827000D01*
X162814000Y-88646000D02*
X163455980Y-88004020D01*
X163455980Y-88004020D02*
X163455980Y-73031980D01*
X161544000Y-71120000D02*
X156972000Y-71120000D01*
X163455980Y-73031980D02*
X161544000Y-71120000D01*
X163455980Y-91827980D02*
X162433000Y-90805000D01*
X163455980Y-123564020D02*
X163455980Y-91827980D01*
X162052000Y-124968000D02*
X163455980Y-123564020D01*
X158387938Y-124968000D02*
X162052000Y-124968000D01*
X157226000Y-126129938D02*
X158387938Y-124968000D01*
X157226000Y-138176000D02*
X157226000Y-126129938D01*
X155575000Y-139827000D02*
X157226000Y-138176000D01*
X91427782Y-133706050D02*
X97028000Y-139306268D01*
X91479047Y-133706050D02*
X91503997Y-133731000D01*
X91427782Y-133706050D02*
X91479047Y-133706050D01*
X70104000Y-116141500D02*
X64389000Y-116141500D01*
X62418000Y-114170500D02*
X62418000Y-112839500D01*
X64389000Y-116141500D02*
X62418000Y-114170500D01*
%TO.N,+12V*%
X159512000Y-104140000D02*
X161036000Y-104140000D01*
X161036000Y-104140000D02*
X162135950Y-105239950D01*
X162135950Y-105239950D02*
X162135950Y-120820050D01*
X162135950Y-120820050D02*
X161290000Y-121666000D01*
X163694020Y-129912020D02*
X163694019Y-145144517D01*
X161290000Y-127508000D02*
X163694020Y-129912020D01*
X158727506Y-150111030D02*
X163694019Y-145144517D01*
X138554030Y-150111030D02*
X158727506Y-150111030D01*
X136144000Y-147701000D02*
X138554030Y-150111030D01*
X136144000Y-147701000D02*
X136144000Y-150025971D01*
X136144000Y-150025971D02*
X135611471Y-150558500D01*
X76781238Y-150558500D02*
X73424718Y-147201980D01*
X135611471Y-150558500D02*
X76781238Y-150558500D01*
X73424718Y-147201980D02*
X63610516Y-147201980D01*
X63610516Y-147201980D02*
X63112011Y-146703475D01*
X63112011Y-128136011D02*
X61531500Y-126555500D01*
X63112011Y-146703475D02*
X63112011Y-128136011D01*
%TO.N,-12V*%
X159512000Y-109220000D02*
X160933940Y-109220000D01*
X160933940Y-109220000D02*
X161695940Y-109982000D01*
X161695940Y-109982000D02*
X161695940Y-118974060D01*
X161695940Y-118974060D02*
X160020000Y-120650000D01*
X160020000Y-120650000D02*
X160020000Y-121666000D01*
X163254010Y-131250010D02*
X163254010Y-144962258D01*
X160274000Y-128270000D02*
X163254010Y-131250010D01*
X158545247Y-149671021D02*
X163254010Y-144962258D01*
X143194021Y-149671021D02*
X158545247Y-149671021D01*
X141224000Y-147701000D02*
X143194021Y-149671021D01*
X137130952Y-149762048D02*
X137356866Y-149536134D01*
X137130952Y-149762048D02*
X135792019Y-151100981D01*
X135792019Y-151100981D02*
X76701451Y-151100981D01*
X73242460Y-147641990D02*
X63428258Y-147641990D01*
X76701451Y-151100981D02*
X73242460Y-147641990D01*
X63428258Y-147641990D02*
X62672001Y-146885733D01*
X62672001Y-132077501D02*
X62103000Y-131508500D01*
X62672001Y-146885733D02*
X62672001Y-132077501D01*
%TO.N,-5V*%
X158346999Y-108054999D02*
X158346999Y-121262999D01*
X156972000Y-106680000D02*
X158346999Y-108054999D01*
X158346999Y-121262999D02*
X158750000Y-121666000D01*
X159258000Y-128378062D02*
X159258000Y-127254000D01*
X162814000Y-131934062D02*
X159258000Y-128378062D01*
X162814000Y-144780000D02*
X162814000Y-131934062D01*
X147834011Y-149231011D02*
X158362989Y-149231011D01*
X158362989Y-149231011D02*
X162814000Y-144780000D01*
X146304000Y-147701000D02*
X147834011Y-149231011D01*
X146240500Y-150870530D02*
X145570039Y-151540991D01*
X76519193Y-151540991D02*
X73060202Y-148082000D01*
X145570039Y-151540991D02*
X76519193Y-151540991D01*
X73060202Y-148082000D02*
X63246000Y-148082000D01*
X63246000Y-148082000D02*
X61912500Y-146748500D01*
X61912500Y-146748500D02*
X61912500Y-137477500D01*
%TO.N,RESET*%
X161798000Y-123952000D02*
X162575960Y-123174040D01*
X157245115Y-123952000D02*
X161798000Y-123952000D01*
X162575960Y-123174040D02*
X162575960Y-93233960D01*
X160782000Y-91440000D02*
X159512000Y-91440000D01*
X162575960Y-93233960D02*
X160782000Y-91440000D01*
X155806999Y-112925001D02*
X156972000Y-111760000D01*
X155806999Y-122513884D02*
X155806999Y-112925001D01*
X157245115Y-123952000D02*
X155806999Y-122513884D01*
X155194000Y-137160000D02*
X155194000Y-126003115D01*
X153545499Y-138808501D02*
X155194000Y-137160000D01*
X155014001Y-141279063D02*
X153545499Y-139810561D01*
X155014001Y-143435999D02*
X155014001Y-141279063D01*
X155194000Y-126003115D02*
X157245115Y-123952000D01*
X153545499Y-139810561D02*
X153545499Y-138808501D01*
%TO.N,/DB7*%
X121285000Y-110490000D02*
X121285000Y-109982000D01*
X128333500Y-117538500D02*
X121285000Y-110490000D01*
%TO.N,/DB6*%
X123761500Y-109918500D02*
X121285000Y-107442000D01*
X128333500Y-109918500D02*
X123761500Y-109918500D01*
%TO.N,/DB5*%
X123761500Y-107378500D02*
X121285000Y-104902000D01*
X128333500Y-107378500D02*
X123761500Y-107378500D01*
%TO.N,/DB4*%
X123888500Y-99758500D02*
X121285000Y-102362000D01*
X128333500Y-99758500D02*
X123888500Y-99758500D01*
%TO.N,/DB2*%
X135953500Y-107378500D02*
X134838499Y-106263499D01*
D21*
%TO.N,+5V*%
X101917500Y-114317780D02*
X101917500Y-91884500D01*
X101917500Y-119951500D02*
X101917500Y-114317780D01*
X67564000Y-141005560D02*
X72247760Y-145689320D01*
X67564000Y-140970000D02*
X67564000Y-141005560D01*
X109474000Y-84328000D02*
X109474000Y-82486500D01*
X140081000Y-50736500D02*
X88265000Y-50736500D01*
X127188009Y-128081991D02*
X128081991Y-128081991D01*
X125918009Y-128081991D02*
X125664009Y-128081991D01*
X164846000Y-129794000D02*
X164846000Y-98806000D01*
X73594009Y-128081991D02*
X73340009Y-128081991D01*
D24*
X85267800Y-58404760D02*
X84607400Y-57744360D01*
X88295480Y-58404760D02*
X85267800Y-58404760D01*
X83492399Y-69029639D02*
X84607400Y-70144640D01*
X83492399Y-58859361D02*
X83492399Y-69029639D01*
X84607400Y-57744360D02*
X83492399Y-58859361D01*
%TO.N,A2*%
X82969100Y-125412500D02*
X83223100Y-125666500D01*
X82969100Y-120966702D02*
X82969100Y-125412500D01*
X82176089Y-120173691D02*
X82969100Y-120966702D01*
X82176090Y-114218222D02*
X82176089Y-120173691D01*
X81483200Y-113525332D02*
X82176090Y-114218222D01*
X81483200Y-109067600D02*
X81483200Y-113525332D01*
X79794100Y-107378500D02*
X81483200Y-109067600D01*
%TO.N,A3*%
X81923210Y-104427610D02*
X79794100Y-102298500D01*
X81923210Y-112098410D02*
X81923210Y-104427610D01*
X85255100Y-125412500D02*
X85255100Y-115430300D01*
X85255100Y-115430300D02*
X81923210Y-112098410D01*
X85509100Y-125666500D02*
X85255100Y-125412500D01*
%TO.N,A4*%
X90424000Y-135724804D02*
X90424000Y-137350500D01*
%TO.N,A7*%
X73850500Y-114134900D02*
X73850500Y-119126000D01*
%TO.N,A8*%
X92855938Y-120078500D02*
X94272100Y-120078500D01*
X91694000Y-95885798D02*
X91694000Y-118916562D01*
X91694000Y-118916562D02*
X92855938Y-120078500D01*
X89785603Y-93977401D02*
X91694000Y-95885798D01*
X85589997Y-93977401D02*
X89785603Y-93977401D01*
X83882586Y-92269990D02*
X85589997Y-93977401D01*
X72648490Y-92269990D02*
X83882586Y-92269990D01*
X71882000Y-91503500D02*
X72648490Y-92269990D01*
%TO.N,A9*%
X88709500Y-98742500D02*
X88709500Y-98171000D01*
%TO.N,D0*%
X142402560Y-116133880D02*
X148000720Y-116133880D01*
X148595000Y-115539600D02*
X148595000Y-114998500D01*
X148000720Y-116133880D02*
X148595000Y-115539600D01*
X70866000Y-129857500D02*
X67500500Y-129857500D01*
%TO.N,D1*%
X134304393Y-130297510D02*
X134626383Y-130619500D01*
X134626383Y-130619500D02*
X135255000Y-130619500D01*
X66353010Y-130297510D02*
X134304393Y-130297510D01*
X64325500Y-128270000D02*
X66353010Y-130297510D01*
%TO.N,D2*%
X133674490Y-130746500D02*
X133985000Y-131057010D01*
X127952500Y-130746500D02*
X133674490Y-130746500D01*
X127943520Y-130737520D02*
X127952500Y-130746500D01*
X64397980Y-130737520D02*
X127943520Y-130737520D01*
X64325500Y-130810000D02*
X64397980Y-130737520D01*
%TO.N,D3*%
X139255500Y-131127500D02*
X139255500Y-130003938D01*
X66552490Y-131186510D02*
X132586010Y-131186510D01*
X132586010Y-131186510D02*
X132905500Y-131506000D01*
X64325500Y-133413500D02*
X66552490Y-131186510D01*
%TO.N,D4*%
X138828542Y-124210012D02*
X141237530Y-126619000D01*
X138828541Y-103131859D02*
X138828542Y-124210012D01*
X139661900Y-102298500D02*
X138828541Y-103131859D01*
X140975000Y-102298500D02*
X139661900Y-102298500D01*
X141237530Y-126619000D02*
X143576040Y-126619000D01*
X143891000Y-126933960D02*
X143891000Y-130048000D01*
X143576040Y-126619000D02*
X143891000Y-126933960D01*
X71056500Y-131626520D02*
X68575001Y-131626520D01*
X131245520Y-131626520D02*
X77796480Y-131626520D01*
%TO.N,D5*%
X145034000Y-126619000D02*
X144593990Y-126178990D01*
X141419788Y-126178990D02*
X139268551Y-124027753D01*
X144593990Y-126178990D02*
X141419788Y-126178990D01*
X139268551Y-106544949D02*
X140975000Y-104838500D01*
X139268551Y-124027753D02*
X139268551Y-106544949D01*
X130173010Y-132066530D02*
X130492500Y-132386020D01*
X70674991Y-132066530D02*
X130173010Y-132066530D01*
X64311521Y-138430000D02*
X70674991Y-132066530D01*
%TO.N,D6*%
X146431000Y-122097800D02*
X146441160Y-122087640D01*
X146431000Y-130048000D02*
X146431000Y-122097800D01*
X129105233Y-132506540D02*
X129424723Y-132826030D01*
X71120000Y-132506540D02*
X129105233Y-132506540D01*
X70896691Y-132506541D02*
X71120000Y-132506540D01*
X65214500Y-138188732D02*
X70896691Y-132506541D01*
X65214500Y-139700000D02*
X65214500Y-138188732D01*
%TO.N,D7*%
X79057500Y-132946550D02*
X71078950Y-132946550D01*
D23*
%TO.N,GND*%
X80772000Y-80073500D02*
X80772000Y-75184000D01*
X86169500Y-88011000D02*
X82105500Y-88011000D01*
D21*
X89966800Y-55915560D02*
X86547960Y-55915560D01*
X139618720Y-94940120D02*
X138059160Y-96499680D01*
X140954760Y-94940120D02*
X139618720Y-94940120D01*
D24*
%TO.N,IOW*%
X91132601Y-116172039D02*
X90088720Y-117215920D01*
X91132601Y-96974601D02*
X91132601Y-116172039D01*
X90017600Y-95859600D02*
X91132601Y-96974601D01*
X90737996Y-117865196D02*
X90088720Y-117215920D01*
X90737996Y-126732014D02*
X90737996Y-117865196D01*
X163794340Y-89885520D02*
X163895990Y-89987170D01*
X160071201Y-87734999D02*
X162221722Y-89885520D01*
X158137001Y-87734999D02*
X160071201Y-87734999D01*
X162221722Y-89885520D02*
X163794340Y-89885520D01*
X156972000Y-88900000D02*
X158137001Y-87734999D01*
X163895990Y-89987170D02*
X163895990Y-68137990D01*
X163895990Y-91143928D02*
X163895990Y-89987170D01*
%TO.N,CLK*%
X64390991Y-146761970D02*
X63552021Y-145923000D01*
X73606976Y-146761970D02*
X64390991Y-146761970D01*
X76895506Y-150050500D02*
X73606976Y-146761970D01*
X105854500Y-150050500D02*
X76895506Y-150050500D01*
X108204000Y-147701000D02*
X105854500Y-150050500D01*
%TO.N,IOR*%
X89641090Y-126791581D02*
X89662000Y-126812491D01*
X89641090Y-119130490D02*
X89641090Y-126791581D01*
X89206212Y-118695612D02*
X89641090Y-119130490D01*
X89206212Y-116467708D02*
X89206212Y-118695612D01*
X90017600Y-115656320D02*
X90017600Y-98856800D01*
X89206212Y-116467708D02*
X90017600Y-115656320D01*
%TO.N,-5V*%
X61912500Y-137477500D02*
X61912500Y-137160000D01*
%TO.N,RESET*%
X147251319Y-151981001D02*
X147706080Y-151526240D01*
X65811501Y-151981001D02*
X147251319Y-151981001D01*
X61087000Y-147256500D02*
X65811501Y-151981001D01*
X147706080Y-151526240D02*
X147706080Y-150982680D01*
X61087000Y-144526000D02*
X61087000Y-147256500D01*
X154738999Y-143711001D02*
X155014001Y-143435999D01*
X153760797Y-143711001D02*
X154738999Y-143711001D01*
X152833999Y-144637799D02*
X153760797Y-143711001D01*
X152833999Y-146610999D02*
X152833999Y-144637799D01*
X153924000Y-147701000D02*
X152833999Y-146610999D01*
%TO.N,/DB3*%
X135953500Y-99396438D02*
X132665582Y-96108520D01*
X135953500Y-99758500D02*
X135953500Y-99396438D01*
X129633940Y-96108520D02*
X129501860Y-96240600D01*
X132665582Y-96108520D02*
X129633940Y-96108520D01*
%TO.N,/DB2*%
X134838499Y-101500999D02*
X134838499Y-106263499D01*
X130683000Y-97345500D02*
X134838499Y-101500999D01*
%TO.N,/DB1*%
X132506720Y-100274120D02*
X134289800Y-102057200D01*
X134289800Y-108254800D02*
X135953500Y-109918500D01*
X134289800Y-102057200D02*
X134289800Y-108254800D01*
%TO.N,IOWIOR*%
X68544440Y-57175400D02*
X68544440Y-58638440D01*
X72375348Y-53344492D02*
X68544440Y-57175400D01*
X106159592Y-53344492D02*
X72375348Y-53344492D01*
X68544440Y-58638440D02*
X70866000Y-60960000D01*
X106513199Y-53698099D02*
X106159592Y-53344492D01*
X152567599Y-53698099D02*
X106513199Y-53698099D01*
X154114500Y-67246500D02*
X154114500Y-55245000D01*
X155448000Y-68580000D02*
X154114500Y-67246500D01*
X154114500Y-55245000D02*
X152567599Y-53698099D01*
X156972000Y-68580000D02*
X155448000Y-68580000D01*
%TO.N,Net-(R1-Pad1)*%
X86271100Y-109918500D02*
X86652100Y-109918500D01*
X86652100Y-109918500D02*
X86652100Y-107378500D01*
X86542880Y-109809280D02*
X86652100Y-109918500D01*
X83682840Y-109809280D02*
X86542880Y-109809280D01*
X85537099Y-111033501D02*
X86652100Y-109918500D01*
X85537099Y-113883499D02*
X85537099Y-111033501D01*
X86652100Y-114998500D02*
X85537099Y-113883499D01*
X86652100Y-117538500D02*
X86652100Y-114998500D01*
%TO.N,/SW_A9*%
X94234000Y-56515000D02*
X92202000Y-58547000D01*
X100457000Y-56515000D02*
X94234000Y-56515000D01*
X101727000Y-57785000D02*
X100457000Y-56515000D01*
X101727000Y-81669002D02*
X101727000Y-57785000D01*
X101718998Y-81669002D02*
X96769510Y-86618490D01*
X101727000Y-81669002D02*
X101718998Y-81669002D01*
X96769510Y-109599010D02*
X97089000Y-109918500D01*
X96769510Y-86618490D02*
X96769510Y-109599010D01*
%TO.N,Net-(RN1-Pad2)*%
X69350980Y-112175380D02*
X69350980Y-80272980D01*
X72174100Y-114998500D02*
X69350980Y-112175380D01*
X69067972Y-77303177D02*
X69129213Y-77241936D01*
X69067972Y-79989972D02*
X69067972Y-77303177D01*
X69350980Y-80272980D02*
X69067972Y-79989972D01*
%TO.N,/SEL_AD*%
X75438000Y-66548000D02*
X78486000Y-63500000D01*
X75438000Y-74168000D02*
X75438000Y-66548000D01*
X68793087Y-76454000D02*
X73152000Y-76454000D01*
X68369712Y-76877375D02*
X68793087Y-76454000D01*
X73152000Y-76454000D02*
X75438000Y-74168000D01*
X68627962Y-77898962D02*
X68369712Y-77640712D01*
X68627963Y-80172231D02*
X68627962Y-77898962D01*
X68910970Y-80455238D02*
X68627963Y-80172231D01*
X68369712Y-77640712D02*
X68369712Y-76877375D01*
X71059099Y-115128099D02*
X68910970Y-112979970D01*
X68910970Y-112979970D02*
X68910970Y-80455238D01*
X71059099Y-116423499D02*
X71059099Y-115128099D01*
X72174100Y-117538500D02*
X71059099Y-116423499D01*
%TO.N,/SELA9*%
X95887499Y-84592233D02*
X97409000Y-83070732D01*
X97409000Y-83070732D02*
X97409000Y-59817000D01*
X97409000Y-59817000D02*
X97155000Y-59563000D01*
X95885000Y-54737000D02*
X95372511Y-54224511D01*
X95372511Y-54224511D02*
X75175757Y-54224511D01*
X75175757Y-54224511D02*
X74227010Y-55173258D01*
X95887499Y-105763101D02*
X94272100Y-107378500D01*
X95887499Y-84592233D02*
X95887499Y-105763101D01*
X74227010Y-55173258D02*
X74227010Y-70044990D01*
X73152000Y-71120000D02*
X70866000Y-71120000D01*
X74227010Y-70044990D02*
X73152000Y-71120000D01*
%TO.N,/SW_A8*%
X96769510Y-115041090D02*
X94272100Y-117538500D01*
X96769510Y-111759410D02*
X96769510Y-115041090D01*
X97848501Y-110680419D02*
X96769510Y-111759410D01*
X97848501Y-109553939D02*
X97848501Y-110680419D01*
X92202000Y-61087000D02*
X91086999Y-59971999D01*
X91086999Y-58011799D02*
X93023808Y-56074990D01*
X98425000Y-85593270D02*
X98416998Y-85593270D01*
X93023808Y-56074990D02*
X100639258Y-56074990D01*
X97453561Y-86556707D02*
X97453561Y-86569439D01*
X102167009Y-57602741D02*
X102167010Y-81851260D01*
X97209520Y-108914958D02*
X97848501Y-109553939D01*
X102167010Y-81851260D02*
X98425000Y-85593270D01*
X98416998Y-85593270D02*
X97453561Y-86556707D01*
X97453561Y-86569439D02*
X97209520Y-86813480D01*
X100639258Y-56074990D02*
X102167009Y-57602741D01*
X97209520Y-86813480D02*
X97209520Y-108914958D01*
X88004119Y-59585919D02*
X91086999Y-59585919D01*
X84607400Y-67904360D02*
X84607400Y-62982638D01*
X84607400Y-62982638D02*
X88004119Y-59585919D01*
X91086999Y-59585919D02*
X91086999Y-58011799D01*
X91086999Y-59971999D02*
X91086999Y-59585919D01*
%TO.N,/SW_A9*%
X84607400Y-80304640D02*
X92134010Y-87831250D01*
X92134010Y-107780410D02*
X94272100Y-109918500D01*
X92134010Y-87831250D02*
X92134010Y-107780410D01*
%TO.N,/SELA8*%
X96456501Y-53784501D02*
X74993499Y-53784501D01*
X96901000Y-54229000D02*
X96456501Y-53784501D01*
X74993499Y-53784501D02*
X73787000Y-54991000D01*
X96329500Y-112941100D02*
X94272100Y-114998500D01*
X98171000Y-82931000D02*
X96329500Y-84772500D01*
X96329500Y-84772500D02*
X96329500Y-112941100D01*
X98171000Y-57531000D02*
X98171000Y-82931000D01*
X73787000Y-54991000D02*
X73787000Y-67437000D01*
X72644000Y-68580000D02*
X70866000Y-68580000D01*
X73787000Y-67437000D02*
X72644000Y-68580000D01*
%TO.N,Net-(U3-Pad3)*%
X108140500Y-79375000D02*
X117429460Y-88663960D01*
X77370999Y-69695001D02*
X78486000Y-68580000D01*
X77433999Y-74775001D02*
X77370999Y-74712001D01*
X82543010Y-71769992D02*
X79538001Y-74775001D01*
X82543011Y-56331489D02*
X82543010Y-71769992D01*
X77370999Y-74712001D02*
X77370999Y-69695001D01*
X84209979Y-54664521D02*
X82543011Y-56331489D01*
X79538001Y-74775001D02*
X77433999Y-74775001D01*
X94295510Y-54664521D02*
X84209979Y-54664521D01*
X94615000Y-54984011D02*
X94295510Y-54664521D01*
%TO.N,Net-(RN5-Pad1)*%
X106045000Y-94742000D02*
X110140011Y-90646989D01*
X110140011Y-90646989D02*
X113975475Y-90646989D01*
%TO.N,Net-(RN4-Pad7)*%
X108040021Y-90206979D02*
X113793217Y-90206979D01*
X106045000Y-92202000D02*
X108040021Y-90206979D01*
%TO.N,Net-(RN1-Pad9)*%
X89492760Y-78724760D02*
X92202000Y-81434000D01*
X88295480Y-78724760D02*
X89492760Y-78724760D01*
%TO.N,Net-(RN1-Pad8)*%
X89492760Y-76184760D02*
X92202000Y-78894000D01*
X88295480Y-76184760D02*
X89492760Y-76184760D01*
%TO.N,Net-(RN1-Pad7)*%
X89492760Y-73644760D02*
X92202000Y-76354000D01*
X88295480Y-73644760D02*
X89492760Y-73644760D01*
%TO.N,Net-(RN1-Pad6)*%
X89492760Y-71104760D02*
X92202000Y-73814000D01*
X88295480Y-71104760D02*
X89492760Y-71104760D01*
%TO.N,Net-(RN1-Pad5)*%
X89492760Y-68564760D02*
X92202000Y-71274000D01*
X88295480Y-68564760D02*
X89492760Y-68564760D01*
X72174100Y-99758500D02*
X70675500Y-98259900D01*
X70675500Y-98259900D02*
X70675500Y-79883000D01*
X70675500Y-79883000D02*
X70802500Y-79756000D01*
X70802500Y-79756000D02*
X70993000Y-79756000D01*
X70993000Y-79756000D02*
X71437500Y-79311500D01*
%TO.N,Net-(RN1-Pad4)*%
X89492760Y-66024760D02*
X92202000Y-68734000D01*
X88295480Y-66024760D02*
X89492760Y-66024760D01*
X70231000Y-102895400D02*
X72174100Y-104838500D01*
X70231000Y-79153159D02*
X70231000Y-102895400D01*
X70413869Y-78970290D02*
X70231000Y-79153159D01*
%TO.N,Net-(U3-Pad3)*%
X117429460Y-88681740D02*
X118074679Y-89326959D01*
X117429460Y-88663960D02*
X117429460Y-88681740D01*
X137714270Y-89326959D02*
X138033760Y-89007469D01*
X118074679Y-89326959D02*
X137714270Y-89326959D01*
%TO.N,/J2D7*%
X157724731Y-87525001D02*
X158889732Y-86360000D01*
X140975000Y-117538500D02*
X140975000Y-117969062D01*
X140975000Y-117969062D02*
X142383439Y-119377501D01*
X142383439Y-119377501D02*
X147128997Y-119377501D01*
X147128997Y-119377501D02*
X147852997Y-118653501D01*
X149824499Y-118653501D02*
X150622000Y-117856000D01*
X147852997Y-118653501D02*
X149824499Y-118653501D01*
X150622000Y-117856000D02*
X150622000Y-116133768D01*
X158889732Y-86360000D02*
X159512000Y-86360000D01*
X150622000Y-116133768D02*
X152255040Y-114500728D01*
X156622797Y-87525001D02*
X157724731Y-87525001D01*
X155476414Y-88671384D02*
X156622797Y-87525001D01*
X155476414Y-88671384D02*
X155476414Y-97217666D01*
X155476414Y-97217666D02*
X152255040Y-100439040D01*
X152255040Y-114500728D02*
X152255040Y-100439040D01*
%TO.N,/J2D6*%
X143004499Y-102804001D02*
X145478500Y-100330000D01*
X143004499Y-107585439D02*
X143004499Y-102804001D01*
X140975000Y-109614938D02*
X143004499Y-107585439D01*
X140975000Y-109918500D02*
X140975000Y-109614938D01*
X145478500Y-97853500D02*
X156972000Y-86360000D01*
X145478500Y-100330000D02*
X145478500Y-97853500D01*
%TO.N,/J2D5*%
X142564490Y-102621742D02*
X145038490Y-100147742D01*
X142564489Y-105789011D02*
X142564490Y-102621742D01*
X140975000Y-107378500D02*
X142564489Y-105789011D01*
X145038490Y-100147742D02*
X145038491Y-97671241D01*
X158346999Y-84985001D02*
X159512000Y-83820000D01*
X155806999Y-85800799D02*
X156622797Y-84985001D01*
X156622797Y-84985001D02*
X158346999Y-84985001D01*
X155806999Y-86902733D02*
X155806999Y-85800799D01*
X145038491Y-97671241D02*
X155806999Y-86902733D01*
%TO.N,/J2D4*%
X143899980Y-99758500D02*
X144598480Y-99060000D01*
X140975000Y-99758500D02*
X143899980Y-99758500D01*
X144598480Y-99060000D02*
X144598480Y-99038320D01*
X144598480Y-99060000D02*
X144598482Y-97488982D01*
X155366989Y-85425011D02*
X156972000Y-83820000D01*
X155366989Y-86720475D02*
X155366989Y-85425011D01*
X144598482Y-97488982D02*
X155366989Y-86720475D01*
%TO.N,/J2D3*%
X161696400Y-81280000D02*
X159512000Y-81280000D01*
%TO.N,/J2D2*%
X148595000Y-107378500D02*
X150935010Y-105038490D01*
X150935010Y-97391837D02*
X152307192Y-96019655D01*
X150935010Y-105038490D02*
X150935010Y-97391837D01*
%TO.N,/J2D1*%
X148595000Y-109918500D02*
X151375020Y-107138480D01*
X151375020Y-98613599D02*
X153066692Y-96921927D01*
X151375020Y-107138480D02*
X151375020Y-98613599D01*
%TO.N,/J2D0*%
X148595000Y-117538500D02*
X151815030Y-114318470D01*
X151815030Y-99804954D02*
X153826192Y-97793792D01*
X151815030Y-114318470D02*
X151815030Y-99804954D01*
%TO.N,Net-(U3-Pad1)*%
X78486000Y-60960000D02*
X81097120Y-63571120D01*
X81097120Y-71048880D02*
X78486000Y-73660000D01*
X81097120Y-63571120D02*
X81097120Y-71048880D01*
%TO.N,Net-(Q1-Pad3)*%
X97221040Y-118744240D02*
X97221040Y-111942880D01*
X98212400Y-119735600D02*
X97221040Y-118744240D01*
X99212400Y-119735600D02*
X98212400Y-119735600D01*
X99118388Y-110032800D02*
X99415600Y-110032800D01*
X97241360Y-111909828D02*
X99118388Y-110032800D01*
X97241360Y-111922560D02*
X97241360Y-111909828D01*
X97221040Y-111942880D02*
X97241360Y-111922560D01*
%TO.N,Net-(Q2-Pad3)*%
X99062599Y-93977401D02*
X100177600Y-92862400D01*
X99062599Y-99595201D02*
X99062599Y-93977401D01*
X100480610Y-101013212D02*
X99062599Y-99595201D01*
X100480610Y-116927390D02*
X100480610Y-101013212D01*
X100212400Y-117195600D02*
X100480610Y-116927390D01*
X99212400Y-117195600D02*
X100212400Y-117195600D01*
%TO.N,Net-(Q2-Pad2)*%
X100212400Y-118465600D02*
X100967490Y-117710510D01*
X99212400Y-118465600D02*
X100212400Y-118465600D01*
X100967490Y-99646690D02*
X100177600Y-98856800D01*
X100967490Y-117710510D02*
X100967490Y-99646690D01*
%TO.N,Net-(RN1-Pad3)*%
X89492760Y-63484760D02*
X92202000Y-66194000D01*
X88295480Y-63484760D02*
X89492760Y-63484760D01*
X69654368Y-79334851D02*
X69790990Y-79471473D01*
X69790990Y-79471473D02*
X69790990Y-107535390D01*
X69654368Y-78237645D02*
X69654368Y-79334851D01*
X69790990Y-107535390D02*
X72174100Y-109918500D01*
X69827473Y-78064540D02*
X69654368Y-78237645D01*
%TO.N,Net-(RN1-Pad2)*%
X89492760Y-60944760D02*
X92202000Y-63654000D01*
X88295480Y-60944760D02*
X89492760Y-60944760D01*
%TO.N,Net-(U3-Pad8)*%
X81526409Y-73860689D02*
X86229174Y-78563454D01*
X86229174Y-81304146D02*
X92574020Y-87648992D01*
X86229174Y-78563454D02*
X86229174Y-81304146D01*
X92574020Y-93111870D02*
X92893510Y-93431360D01*
X92574020Y-87648992D02*
X92574020Y-93111870D01*
%TO.N,Net-(RN2-Pad8)*%
X137687789Y-86278189D02*
X139242800Y-87833200D01*
X137687789Y-73578701D02*
X137687789Y-86278189D01*
X137697930Y-73568560D02*
X137687789Y-73578701D01*
%TO.N,Net-(RN2-Pad7)*%
X104929999Y-56931501D02*
X106045000Y-55816500D01*
X104929999Y-76671701D02*
X104929999Y-56931501D01*
X105819797Y-77561499D02*
X104929999Y-76671701D01*
X121820201Y-77561499D02*
X105819797Y-77561499D01*
X132161280Y-87902578D02*
X121820201Y-77561499D01*
X132161280Y-87995760D02*
X132161280Y-87902578D01*
%TO.N,Net-(RN2-Pad6)*%
X140357801Y-79677999D02*
X140357801Y-81638199D01*
X139778001Y-79098199D02*
X140357801Y-79677999D01*
X139017597Y-79098199D02*
X139778001Y-79098199D01*
X138127799Y-78208401D02*
X139017597Y-79098199D01*
X140357801Y-81638199D02*
X139242800Y-82753200D01*
X138127799Y-77137999D02*
X138127799Y-78208401D01*
X138707599Y-76558199D02*
X138127799Y-77137999D01*
X139778001Y-76558199D02*
X138707599Y-76558199D01*
X140611001Y-75725199D02*
X139778001Y-76558199D01*
X140611001Y-64919001D02*
X140611001Y-75725199D01*
X139446000Y-63754000D02*
X140611001Y-64919001D01*
%TO.N,Net-(RN2-Pad4)*%
X140980160Y-77673200D02*
X139242800Y-77673200D01*
X141579600Y-77073760D02*
X140980160Y-77673200D01*
X141579600Y-69125278D02*
X141579600Y-77073760D01*
X141582999Y-69121879D02*
X141579600Y-69125278D01*
X141582999Y-60810999D02*
X141582999Y-69121879D01*
X139446000Y-58674000D02*
X141582999Y-60810999D01*
%TO.N,Net-(RN2-Pad2)*%
X138280999Y-57299001D02*
X138280999Y-61586521D01*
X139446000Y-56134000D02*
X138280999Y-57299001D01*
X138280999Y-61586521D02*
X137378440Y-62489080D01*
X137378440Y-62489080D02*
X137378440Y-72029320D01*
X137942320Y-72593200D02*
X139242800Y-72593200D01*
X137378440Y-72029320D02*
X137942320Y-72593200D01*
%TO.N,Net-(RN3-Pad6)*%
X131826000Y-56134000D02*
X136938430Y-61246430D01*
X136938430Y-61246430D02*
X136938430Y-81852090D01*
X136088120Y-82702400D02*
X134518400Y-82702400D01*
X136938430Y-81852090D02*
X136088120Y-82702400D01*
%TO.N,Net-(RN3-Pad5)*%
X117629999Y-75021499D02*
X122001339Y-75021499D01*
X106045000Y-63436500D02*
X117629999Y-75021499D01*
X127142240Y-80162400D02*
X134518400Y-80162400D01*
X122001339Y-75021499D02*
X127142240Y-80162400D01*
%TO.N,Net-(RN3-Pad4)*%
X131826000Y-58674000D02*
X136498420Y-63346420D01*
X136498420Y-63346420D02*
X136498420Y-76795540D01*
X135671560Y-77622400D02*
X134518400Y-77622400D01*
X136498420Y-76795540D02*
X135671560Y-77622400D01*
%TO.N,Net-(RN3-Pad3)*%
X117320001Y-72171501D02*
X124175461Y-72171501D01*
X106045000Y-60896500D02*
X117320001Y-72171501D01*
X127086360Y-75082400D02*
X134518400Y-75082400D01*
X124175461Y-72171501D02*
X127086360Y-75082400D01*
%TO.N,Net-(RN3-Pad2)*%
X131826000Y-63754000D02*
X134727450Y-63754000D01*
X134727450Y-63754000D02*
X136058410Y-65084960D01*
X136058410Y-65084960D02*
X136058410Y-72003150D01*
X135519160Y-72542400D02*
X134518400Y-72542400D01*
X136058410Y-72003150D02*
X135519160Y-72542400D01*
%TO.N,Net-(RN3-Pad1)*%
X134147501Y-69631501D02*
X134518400Y-70002400D01*
X117320001Y-69631501D02*
X134147501Y-69631501D01*
X106045000Y-58356500D02*
X117320001Y-69631501D01*
%TO.N,Net-(RN4-Pad7)*%
X114233227Y-89766969D02*
X143913031Y-89766969D01*
X113793217Y-90206979D02*
X114233227Y-89766969D01*
X144015401Y-86408201D02*
X142900400Y-85293200D01*
X144015401Y-89664599D02*
X144015401Y-86408201D01*
X143913031Y-89766969D02*
X144015401Y-89664599D01*
%TO.N,Net-(RN4-Pad6)*%
X147038799Y-76507399D02*
X146202400Y-77343798D01*
X147799203Y-76507399D02*
X147038799Y-76507399D01*
X148689001Y-75617601D02*
X147799203Y-76507399D01*
X148689001Y-65432999D02*
X148689001Y-75617601D01*
X150368000Y-63754000D02*
X148689001Y-65432999D01*
X146202400Y-77343798D02*
X146202400Y-81940400D01*
X145389600Y-82753200D02*
X142900400Y-82753200D01*
X146202400Y-81940400D02*
X145389600Y-82753200D01*
%TO.N,Net-(RN4-Pad5)*%
X122582987Y-93444013D02*
X121285000Y-94742000D01*
X140158253Y-93444013D02*
X122582987Y-93444013D01*
%TO.N,Net-(RN4-Pad4)*%
X146458999Y-62583001D02*
X146458999Y-76464931D01*
X150368000Y-58674000D02*
X146458999Y-62583001D01*
X145250730Y-77673200D02*
X142900400Y-77673200D01*
X146458999Y-76464931D02*
X145250730Y-77673200D01*
%TO.N,Net-(RN4-Pad3)*%
X124170353Y-92684513D02*
X140933409Y-92684513D01*
X123946920Y-92461080D02*
X124170353Y-92684513D01*
%TO.N,Net-(RN4-Pad2)*%
X150368000Y-56134000D02*
X146018989Y-60483011D01*
X146018989Y-60483011D02*
X146018989Y-71659011D01*
X145084800Y-72593200D02*
X142900400Y-72593200D01*
X146018989Y-71659011D02*
X145084800Y-72593200D01*
%TO.N,Net-(RN4-Pad1)*%
X124912120Y-91846499D02*
X140253720Y-91846499D01*
%TO.N,Net-(RN5-Pad6)*%
X144424400Y-54457600D02*
X142748000Y-56134000D01*
X152196800Y-54457600D02*
X144424400Y-54457600D01*
%TO.N,Net-(RN5-Pad5)*%
X106045000Y-99822000D02*
X114780001Y-91086999D01*
X151739600Y-80975200D02*
X150926800Y-80162400D01*
X150926800Y-80162400D02*
X147574000Y-80162400D01*
X150009801Y-91086999D02*
X151739600Y-89357200D01*
X121058999Y-91086999D02*
X150009801Y-91086999D01*
X151739600Y-89357200D02*
X151739600Y-80975200D01*
X114780001Y-91086999D02*
X121058999Y-91086999D01*
X121058999Y-91086999D02*
X121257001Y-91086999D01*
%TO.N,Net-(RN5-Pad4)*%
X150927201Y-54968999D02*
X146453001Y-54968999D01*
X151533001Y-55574799D02*
X150927201Y-54968999D01*
X151533001Y-73663399D02*
X151533001Y-55574799D01*
X146453001Y-54968999D02*
X142748000Y-58674000D01*
X147574000Y-77622400D02*
X151533001Y-73663399D01*
%TO.N,Net-(RN5-Pad3)*%
X150980100Y-89494432D02*
X150980100Y-81410648D01*
X149827543Y-90646989D02*
X150980100Y-89494432D01*
X114597743Y-90646989D02*
X149827543Y-90646989D01*
X114157733Y-91086999D02*
X114597743Y-90646989D01*
X112240001Y-91086999D02*
X114157733Y-91086999D01*
X106045000Y-97282000D02*
X112240001Y-91086999D01*
%TO.N,Net-(RN5-Pad1)*%
X113975475Y-90646989D02*
X114415485Y-90206979D01*
X114415485Y-90206979D02*
X149645285Y-90206979D01*
X149645285Y-90206979D02*
X150220600Y-89631664D01*
X150220600Y-89631664D02*
X150220600Y-82448400D01*
%TD*%
M02*
