%TF.GenerationSoftware,KiCad,Pcbnew,(5.1.12)-1*%
%TF.CreationDate,2022-05-27T21:16:08+02:00*%
%TF.ProjectId,ec1834-post,65633138-3334-42d7-906f-73742e6b6963,2b*%
%TF.SameCoordinates,Original*%
%TF.FileFunction,AssemblyDrawing,Top*%
%FSLAX46Y46*%
G04 Gerber Fmt 4.6, Leading zero omitted, Abs format (unit mm)*
G04 Created by KiCad (PCBNEW (5.1.12)-1) date 2022-05-27 21:16:08*
%MOMM*%
%LPD*%
G01*
G04 APERTURE LIST*
%ADD10C,0.100000*%
%ADD11C,0.150000*%
%ADD12C,0.114000*%
%ADD13C,0.120000*%
G04 APERTURE END LIST*
D10*
%TO.C,JMPR*%
X94107000Y-57354000D02*
X96012000Y-57354000D01*
X96012000Y-57354000D02*
X96012000Y-82754000D01*
X96012000Y-82754000D02*
X93472000Y-82754000D01*
X93472000Y-82754000D02*
X93472000Y-57989000D01*
X93472000Y-57989000D02*
X94107000Y-57354000D01*
%TO.C,U4*%
X135318500Y-120348500D02*
X134318500Y-121348500D01*
X135318500Y-95948500D02*
X135318500Y-120348500D01*
X128968500Y-95948500D02*
X135318500Y-95948500D01*
X128968500Y-121348500D02*
X128968500Y-95948500D01*
X134318500Y-121348500D02*
X128968500Y-121348500D01*
%TO.C,RN5*%
X148824000Y-68712400D02*
X146324000Y-68712400D01*
X146324000Y-68712400D02*
X146324000Y-89072400D01*
X146324000Y-89072400D02*
X148824000Y-89072400D01*
X148824000Y-89072400D02*
X148824000Y-68712400D01*
X148824000Y-71272400D02*
X146324000Y-71272400D01*
%TO.C,RN4*%
X144150400Y-68763200D02*
X141650400Y-68763200D01*
X141650400Y-68763200D02*
X141650400Y-89123200D01*
X141650400Y-89123200D02*
X144150400Y-89123200D01*
X144150400Y-89123200D02*
X144150400Y-68763200D01*
X144150400Y-71323200D02*
X141650400Y-71323200D01*
%TO.C,RN3*%
X135768400Y-68712400D02*
X133268400Y-68712400D01*
X133268400Y-68712400D02*
X133268400Y-89072400D01*
X133268400Y-89072400D02*
X135768400Y-89072400D01*
X135768400Y-89072400D02*
X135768400Y-68712400D01*
X135768400Y-71272400D02*
X133268400Y-71272400D01*
%TO.C,RN2*%
X140492800Y-68763200D02*
X137992800Y-68763200D01*
X137992800Y-68763200D02*
X137992800Y-89123200D01*
X137992800Y-89123200D02*
X140492800Y-89123200D01*
X140492800Y-89123200D02*
X140492800Y-68763200D01*
X140492800Y-71323200D02*
X137992800Y-71323200D01*
%TO.C,RN1*%
X89545480Y-57114760D02*
X87045480Y-57114760D01*
X87045480Y-57114760D02*
X87045480Y-80014760D01*
X87045480Y-80014760D02*
X89545480Y-80014760D01*
X89545480Y-80014760D02*
X89545480Y-57114760D01*
X89545480Y-59674760D02*
X87045480Y-59674760D01*
%TO.C,R6*%
X91947600Y-91612400D02*
X91947600Y-94112400D01*
X91947600Y-94112400D02*
X98247600Y-94112400D01*
X98247600Y-94112400D02*
X98247600Y-91612400D01*
X98247600Y-91612400D02*
X91947600Y-91612400D01*
X90017600Y-92862400D02*
X91947600Y-92862400D01*
X100177600Y-92862400D02*
X98247600Y-92862400D01*
%TO.C,R5*%
X98247600Y-100310000D02*
X98247600Y-97810000D01*
X98247600Y-97810000D02*
X91947600Y-97810000D01*
X91947600Y-97810000D02*
X91947600Y-100310000D01*
X91947600Y-100310000D02*
X98247600Y-100310000D01*
X100177600Y-99060000D02*
X98247600Y-99060000D01*
X90017600Y-99060000D02*
X91947600Y-99060000D01*
%TO.C,R4*%
X98247600Y-97211200D02*
X98247600Y-94711200D01*
X98247600Y-94711200D02*
X91947600Y-94711200D01*
X91947600Y-94711200D02*
X91947600Y-97211200D01*
X91947600Y-97211200D02*
X98247600Y-97211200D01*
X100177600Y-95961200D02*
X98247600Y-95961200D01*
X90017600Y-95961200D02*
X91947600Y-95961200D01*
%TO.C,R3*%
X83357400Y-78374640D02*
X85857400Y-78374640D01*
X85857400Y-78374640D02*
X85857400Y-72074640D01*
X85857400Y-72074640D02*
X83357400Y-72074640D01*
X83357400Y-72074640D02*
X83357400Y-78374640D01*
X84607400Y-80304640D02*
X84607400Y-78374640D01*
X84607400Y-70144640D02*
X84607400Y-72074640D01*
%TO.C,R2*%
X83357400Y-65974360D02*
X85857400Y-65974360D01*
X85857400Y-65974360D02*
X85857400Y-59674360D01*
X85857400Y-59674360D02*
X83357400Y-59674360D01*
X83357400Y-59674360D02*
X83357400Y-65974360D01*
X84607400Y-67904360D02*
X84607400Y-65974360D01*
X84607400Y-57744360D02*
X84607400Y-59674360D01*
%TO.C,R1*%
X84932840Y-111739280D02*
X82432840Y-111739280D01*
X82432840Y-111739280D02*
X82432840Y-118039280D01*
X82432840Y-118039280D02*
X84932840Y-118039280D01*
X84932840Y-118039280D02*
X84932840Y-111739280D01*
X83682840Y-109809280D02*
X83682840Y-111739280D01*
X83682840Y-119969280D02*
X83682840Y-118039280D01*
%TO.C,Q2*%
X100966025Y-120219225D02*
G75*
G02*
X96732400Y-118465600I-1753625J1753625D01*
G01*
X100966025Y-116711975D02*
G75*
G03*
X96732400Y-118465600I-1753625J-1753625D01*
G01*
X100962400Y-120235600D02*
X100962400Y-116735600D01*
%TO.C,Q1*%
X101169225Y-113056425D02*
G75*
G02*
X96935600Y-111302800I-1753625J1753625D01*
G01*
X101169225Y-109549175D02*
G75*
G03*
X96935600Y-111302800I-1753625J-1753625D01*
G01*
X101165600Y-113072800D02*
X101165600Y-109572800D01*
%TO.C,J0*%
X160844000Y-160441000D02*
X160844000Y-154441000D01*
X160844000Y-154441000D02*
X164094000Y-154441000D01*
X164094000Y-154441000D02*
X164094000Y-147701000D01*
X164094000Y-147701000D02*
X159094000Y-147701000D01*
X159094000Y-147701000D02*
X159094000Y-148701000D01*
X159094000Y-148701000D02*
X75094000Y-148701000D01*
X75094000Y-148701000D02*
X75094000Y-147701000D01*
X75094000Y-147701000D02*
X70094000Y-147701000D01*
X70094000Y-147701000D02*
X70094000Y-154441000D01*
X70094000Y-154441000D02*
X73344000Y-154441000D01*
X73344000Y-154441000D02*
X73344000Y-160441000D01*
X73344000Y-160441000D02*
X160844000Y-160441000D01*
X156464000Y-148901000D02*
X156964000Y-149601000D01*
X156964000Y-149601000D02*
X155964000Y-149601000D01*
X155964000Y-149601000D02*
X156464000Y-148901000D01*
%TO.C,U3*%
X76851000Y-74930000D02*
X71501000Y-74930000D01*
X71501000Y-74930000D02*
X71501000Y-57150000D01*
X71501000Y-57150000D02*
X77851000Y-57150000D01*
X77851000Y-57150000D02*
X77851000Y-73930000D01*
X77851000Y-73930000D02*
X76851000Y-74930000D01*
%TO.C,U5*%
X121030000Y-84026500D02*
X120030000Y-85026500D01*
X121030000Y-54546500D02*
X121030000Y-84026500D01*
X106300000Y-54546500D02*
X121030000Y-54546500D01*
X106300000Y-85026500D02*
X106300000Y-54546500D01*
X120030000Y-85026500D02*
X106300000Y-85026500D01*
%TO.C,C4*%
X130247000Y-122779000D02*
X130247000Y-125379000D01*
X130247000Y-125379000D02*
X134047000Y-125379000D01*
X134047000Y-125379000D02*
X134047000Y-122779000D01*
X134047000Y-122779000D02*
X130247000Y-122779000D01*
X128397000Y-124079000D02*
X130247000Y-124079000D01*
X135897000Y-124079000D02*
X134047000Y-124079000D01*
%TO.C,U9*%
X147960000Y-120348500D02*
X146960000Y-121348500D01*
X147960000Y-95948500D02*
X147960000Y-120348500D01*
X141610000Y-95948500D02*
X147960000Y-95948500D01*
X141610000Y-121348500D02*
X141610000Y-95948500D01*
X146960000Y-121348500D02*
X141610000Y-121348500D01*
%TO.C,C8*%
X148470000Y-124079000D02*
X146620000Y-124079000D01*
X140970000Y-124079000D02*
X142820000Y-124079000D01*
X146620000Y-122779000D02*
X142820000Y-122779000D01*
X146620000Y-125379000D02*
X146620000Y-122779000D01*
X142820000Y-125379000D02*
X146620000Y-125379000D01*
X142820000Y-122779000D02*
X142820000Y-125379000D01*
%TO.C,C7*%
X73951500Y-137047028D02*
X73321500Y-137047028D01*
X73636500Y-136732028D02*
X73636500Y-137362028D01*
X75413000Y-139426000D02*
G75*
G03*
X75413000Y-139426000I-3150000J0D01*
G01*
%TO.C,C6*%
X107895000Y-122779000D02*
X107895000Y-125379000D01*
X107895000Y-125379000D02*
X111695000Y-125379000D01*
X111695000Y-125379000D02*
X111695000Y-122779000D01*
X111695000Y-122779000D02*
X107895000Y-122779000D01*
X106045000Y-124079000D02*
X107895000Y-124079000D01*
X113545000Y-124079000D02*
X111695000Y-124079000D01*
%TO.C,C5*%
X107895000Y-86457000D02*
X107895000Y-89057000D01*
X107895000Y-89057000D02*
X111695000Y-89057000D01*
X111695000Y-89057000D02*
X111695000Y-86457000D01*
X111695000Y-86457000D02*
X107895000Y-86457000D01*
X106045000Y-87757000D02*
X107895000Y-87757000D01*
X113545000Y-87757000D02*
X111695000Y-87757000D01*
%TO.C,J4*%
X156972000Y-100330000D02*
X160782000Y-100330000D01*
X160782000Y-100330000D02*
X160782000Y-115570000D01*
X160782000Y-115570000D02*
X155702000Y-115570000D01*
X155702000Y-115570000D02*
X155702000Y-101600000D01*
X155702000Y-101600000D02*
X156972000Y-100330000D01*
%TO.C,J3*%
X156337000Y-64770000D02*
X158242000Y-64770000D01*
X158242000Y-64770000D02*
X158242000Y-72390000D01*
X158242000Y-72390000D02*
X155702000Y-72390000D01*
X155702000Y-72390000D02*
X155702000Y-65405000D01*
X155702000Y-65405000D02*
X156337000Y-64770000D01*
%TO.C,J2*%
X156972000Y-77470000D02*
X160782000Y-77470000D01*
X160782000Y-77470000D02*
X160782000Y-95250000D01*
X160782000Y-95250000D02*
X155702000Y-95250000D01*
X155702000Y-95250000D02*
X155702000Y-78740000D01*
X155702000Y-78740000D02*
X156972000Y-77470000D01*
%TO.C,U8*%
X151558000Y-54714000D02*
X151558000Y-67714000D01*
X151558000Y-67714000D02*
X141558000Y-67714000D01*
X141558000Y-67714000D02*
X141558000Y-55714000D01*
X141558000Y-55714000D02*
X142558000Y-54714000D01*
X142558000Y-54714000D02*
X151558000Y-54714000D01*
%TO.C,U7*%
X140636000Y-54714000D02*
X140636000Y-67714000D01*
X140636000Y-67714000D02*
X130636000Y-67714000D01*
X130636000Y-67714000D02*
X130636000Y-55714000D01*
X130636000Y-55714000D02*
X131636000Y-54714000D01*
X131636000Y-54714000D02*
X140636000Y-54714000D01*
%TO.C,U6*%
X121030000Y-120412000D02*
X120030000Y-121412000D01*
X121030000Y-90932000D02*
X121030000Y-120412000D01*
X106300000Y-90932000D02*
X121030000Y-90932000D01*
X106300000Y-121412000D02*
X106300000Y-90932000D01*
X120030000Y-121412000D02*
X106300000Y-121412000D01*
%TO.C,U2*%
X93637100Y-120348500D02*
X92637100Y-121348500D01*
X93637100Y-103568500D02*
X93637100Y-120348500D01*
X87287100Y-103568500D02*
X93637100Y-103568500D01*
X87287100Y-121348500D02*
X87287100Y-103568500D01*
X92637100Y-121348500D02*
X87287100Y-121348500D01*
%TO.C,U1*%
X79159100Y-120348500D02*
X78159100Y-121348500D01*
X79159100Y-95948500D02*
X79159100Y-120348500D01*
X72809100Y-95948500D02*
X79159100Y-95948500D01*
X72809100Y-121348500D02*
X72809100Y-95948500D01*
X78159100Y-121348500D02*
X72809100Y-121348500D01*
%TO.C,SW1*%
X96688667Y-59209000D02*
X96688667Y-57939000D01*
X98042000Y-58009000D02*
X96688667Y-58009000D01*
X98042000Y-58109000D02*
X96688667Y-58109000D01*
X98042000Y-58209000D02*
X96688667Y-58209000D01*
X98042000Y-58309000D02*
X96688667Y-58309000D01*
X98042000Y-58409000D02*
X96688667Y-58409000D01*
X98042000Y-58509000D02*
X96688667Y-58509000D01*
X98042000Y-58609000D02*
X96688667Y-58609000D01*
X98042000Y-58709000D02*
X96688667Y-58709000D01*
X98042000Y-58809000D02*
X96688667Y-58809000D01*
X98042000Y-58909000D02*
X96688667Y-58909000D01*
X98042000Y-59009000D02*
X96688667Y-59009000D01*
X98042000Y-59109000D02*
X96688667Y-59109000D01*
X93982000Y-59209000D02*
X98042000Y-59209000D01*
X93982000Y-57939000D02*
X93982000Y-59209000D01*
X98042000Y-57939000D02*
X93982000Y-57939000D01*
X98042000Y-59209000D02*
X98042000Y-57939000D01*
X96688667Y-61749000D02*
X96688667Y-60479000D01*
X98042000Y-60549000D02*
X96688667Y-60549000D01*
X98042000Y-60649000D02*
X96688667Y-60649000D01*
X98042000Y-60749000D02*
X96688667Y-60749000D01*
X98042000Y-60849000D02*
X96688667Y-60849000D01*
X98042000Y-60949000D02*
X96688667Y-60949000D01*
X98042000Y-61049000D02*
X96688667Y-61049000D01*
X98042000Y-61149000D02*
X96688667Y-61149000D01*
X98042000Y-61249000D02*
X96688667Y-61249000D01*
X98042000Y-61349000D02*
X96688667Y-61349000D01*
X98042000Y-61449000D02*
X96688667Y-61449000D01*
X98042000Y-61549000D02*
X96688667Y-61549000D01*
X98042000Y-61649000D02*
X96688667Y-61649000D01*
X93982000Y-61749000D02*
X98042000Y-61749000D01*
X93982000Y-60479000D02*
X93982000Y-61749000D01*
X98042000Y-60479000D02*
X93982000Y-60479000D01*
X98042000Y-61749000D02*
X98042000Y-60479000D01*
X96688667Y-64289000D02*
X96688667Y-63019000D01*
X98042000Y-63089000D02*
X96688667Y-63089000D01*
X98042000Y-63189000D02*
X96688667Y-63189000D01*
X98042000Y-63289000D02*
X96688667Y-63289000D01*
X98042000Y-63389000D02*
X96688667Y-63389000D01*
X98042000Y-63489000D02*
X96688667Y-63489000D01*
X98042000Y-63589000D02*
X96688667Y-63589000D01*
X98042000Y-63689000D02*
X96688667Y-63689000D01*
X98042000Y-63789000D02*
X96688667Y-63789000D01*
X98042000Y-63889000D02*
X96688667Y-63889000D01*
X98042000Y-63989000D02*
X96688667Y-63989000D01*
X98042000Y-64089000D02*
X96688667Y-64089000D01*
X98042000Y-64189000D02*
X96688667Y-64189000D01*
X93982000Y-64289000D02*
X98042000Y-64289000D01*
X93982000Y-63019000D02*
X93982000Y-64289000D01*
X98042000Y-63019000D02*
X93982000Y-63019000D01*
X98042000Y-64289000D02*
X98042000Y-63019000D01*
X96688667Y-66829000D02*
X96688667Y-65559000D01*
X98042000Y-65629000D02*
X96688667Y-65629000D01*
X98042000Y-65729000D02*
X96688667Y-65729000D01*
X98042000Y-65829000D02*
X96688667Y-65829000D01*
X98042000Y-65929000D02*
X96688667Y-65929000D01*
X98042000Y-66029000D02*
X96688667Y-66029000D01*
X98042000Y-66129000D02*
X96688667Y-66129000D01*
X98042000Y-66229000D02*
X96688667Y-66229000D01*
X98042000Y-66329000D02*
X96688667Y-66329000D01*
X98042000Y-66429000D02*
X96688667Y-66429000D01*
X98042000Y-66529000D02*
X96688667Y-66529000D01*
X98042000Y-66629000D02*
X96688667Y-66629000D01*
X98042000Y-66729000D02*
X96688667Y-66729000D01*
X93982000Y-66829000D02*
X98042000Y-66829000D01*
X93982000Y-65559000D02*
X93982000Y-66829000D01*
X98042000Y-65559000D02*
X93982000Y-65559000D01*
X98042000Y-66829000D02*
X98042000Y-65559000D01*
X96688667Y-69369000D02*
X96688667Y-68099000D01*
X98042000Y-68169000D02*
X96688667Y-68169000D01*
X98042000Y-68269000D02*
X96688667Y-68269000D01*
X98042000Y-68369000D02*
X96688667Y-68369000D01*
X98042000Y-68469000D02*
X96688667Y-68469000D01*
X98042000Y-68569000D02*
X96688667Y-68569000D01*
X98042000Y-68669000D02*
X96688667Y-68669000D01*
X98042000Y-68769000D02*
X96688667Y-68769000D01*
X98042000Y-68869000D02*
X96688667Y-68869000D01*
X98042000Y-68969000D02*
X96688667Y-68969000D01*
X98042000Y-69069000D02*
X96688667Y-69069000D01*
X98042000Y-69169000D02*
X96688667Y-69169000D01*
X98042000Y-69269000D02*
X96688667Y-69269000D01*
X93982000Y-69369000D02*
X98042000Y-69369000D01*
X93982000Y-68099000D02*
X93982000Y-69369000D01*
X98042000Y-68099000D02*
X93982000Y-68099000D01*
X98042000Y-69369000D02*
X98042000Y-68099000D01*
X96688667Y-71909000D02*
X96688667Y-70639000D01*
X98042000Y-70709000D02*
X96688667Y-70709000D01*
X98042000Y-70809000D02*
X96688667Y-70809000D01*
X98042000Y-70909000D02*
X96688667Y-70909000D01*
X98042000Y-71009000D02*
X96688667Y-71009000D01*
X98042000Y-71109000D02*
X96688667Y-71109000D01*
X98042000Y-71209000D02*
X96688667Y-71209000D01*
X98042000Y-71309000D02*
X96688667Y-71309000D01*
X98042000Y-71409000D02*
X96688667Y-71409000D01*
X98042000Y-71509000D02*
X96688667Y-71509000D01*
X98042000Y-71609000D02*
X96688667Y-71609000D01*
X98042000Y-71709000D02*
X96688667Y-71709000D01*
X98042000Y-71809000D02*
X96688667Y-71809000D01*
X93982000Y-71909000D02*
X98042000Y-71909000D01*
X93982000Y-70639000D02*
X93982000Y-71909000D01*
X98042000Y-70639000D02*
X93982000Y-70639000D01*
X98042000Y-71909000D02*
X98042000Y-70639000D01*
X96688667Y-74449000D02*
X96688667Y-73179000D01*
X98042000Y-73249000D02*
X96688667Y-73249000D01*
X98042000Y-73349000D02*
X96688667Y-73349000D01*
X98042000Y-73449000D02*
X96688667Y-73449000D01*
X98042000Y-73549000D02*
X96688667Y-73549000D01*
X98042000Y-73649000D02*
X96688667Y-73649000D01*
X98042000Y-73749000D02*
X96688667Y-73749000D01*
X98042000Y-73849000D02*
X96688667Y-73849000D01*
X98042000Y-73949000D02*
X96688667Y-73949000D01*
X98042000Y-74049000D02*
X96688667Y-74049000D01*
X98042000Y-74149000D02*
X96688667Y-74149000D01*
X98042000Y-74249000D02*
X96688667Y-74249000D01*
X98042000Y-74349000D02*
X96688667Y-74349000D01*
X93982000Y-74449000D02*
X98042000Y-74449000D01*
X93982000Y-73179000D02*
X93982000Y-74449000D01*
X98042000Y-73179000D02*
X93982000Y-73179000D01*
X98042000Y-74449000D02*
X98042000Y-73179000D01*
X96688667Y-76989000D02*
X96688667Y-75719000D01*
X98042000Y-75789000D02*
X96688667Y-75789000D01*
X98042000Y-75889000D02*
X96688667Y-75889000D01*
X98042000Y-75989000D02*
X96688667Y-75989000D01*
X98042000Y-76089000D02*
X96688667Y-76089000D01*
X98042000Y-76189000D02*
X96688667Y-76189000D01*
X98042000Y-76289000D02*
X96688667Y-76289000D01*
X98042000Y-76389000D02*
X96688667Y-76389000D01*
X98042000Y-76489000D02*
X96688667Y-76489000D01*
X98042000Y-76589000D02*
X96688667Y-76589000D01*
X98042000Y-76689000D02*
X96688667Y-76689000D01*
X98042000Y-76789000D02*
X96688667Y-76789000D01*
X98042000Y-76889000D02*
X96688667Y-76889000D01*
X93982000Y-76989000D02*
X98042000Y-76989000D01*
X93982000Y-75719000D02*
X93982000Y-76989000D01*
X98042000Y-75719000D02*
X93982000Y-75719000D01*
X98042000Y-76989000D02*
X98042000Y-75719000D01*
X96688667Y-79529000D02*
X96688667Y-78259000D01*
X98042000Y-78329000D02*
X96688667Y-78329000D01*
X98042000Y-78429000D02*
X96688667Y-78429000D01*
X98042000Y-78529000D02*
X96688667Y-78529000D01*
X98042000Y-78629000D02*
X96688667Y-78629000D01*
X98042000Y-78729000D02*
X96688667Y-78729000D01*
X98042000Y-78829000D02*
X96688667Y-78829000D01*
X98042000Y-78929000D02*
X96688667Y-78929000D01*
X98042000Y-79029000D02*
X96688667Y-79029000D01*
X98042000Y-79129000D02*
X96688667Y-79129000D01*
X98042000Y-79229000D02*
X96688667Y-79229000D01*
X98042000Y-79329000D02*
X96688667Y-79329000D01*
X98042000Y-79429000D02*
X96688667Y-79429000D01*
X93982000Y-79529000D02*
X98042000Y-79529000D01*
X93982000Y-78259000D02*
X93982000Y-79529000D01*
X98042000Y-78259000D02*
X93982000Y-78259000D01*
X98042000Y-79529000D02*
X98042000Y-78259000D01*
X96688667Y-82069000D02*
X96688667Y-80799000D01*
X98042000Y-80869000D02*
X96688667Y-80869000D01*
X98042000Y-80969000D02*
X96688667Y-80969000D01*
X98042000Y-81069000D02*
X96688667Y-81069000D01*
X98042000Y-81169000D02*
X96688667Y-81169000D01*
X98042000Y-81269000D02*
X96688667Y-81269000D01*
X98042000Y-81369000D02*
X96688667Y-81369000D01*
X98042000Y-81469000D02*
X96688667Y-81469000D01*
X98042000Y-81569000D02*
X96688667Y-81569000D01*
X98042000Y-81669000D02*
X96688667Y-81669000D01*
X98042000Y-81769000D02*
X96688667Y-81769000D01*
X98042000Y-81869000D02*
X96688667Y-81869000D01*
X98042000Y-81969000D02*
X96688667Y-81969000D01*
X93982000Y-82069000D02*
X98042000Y-82069000D01*
X93982000Y-80799000D02*
X93982000Y-82069000D01*
X98042000Y-80799000D02*
X93982000Y-80799000D01*
X98042000Y-82069000D02*
X98042000Y-80799000D01*
X100902000Y-82794000D02*
X99902000Y-83794000D01*
X100902000Y-56214000D02*
X100902000Y-82794000D01*
X91122000Y-56214000D02*
X100902000Y-56214000D01*
X91122000Y-83794000D02*
X91122000Y-56214000D01*
X99902000Y-83794000D02*
X91122000Y-83794000D01*
%TO.C,C3*%
X67310000Y-62604000D02*
X67310000Y-64454000D01*
X67310000Y-70104000D02*
X67310000Y-68254000D01*
X66010000Y-64454000D02*
X66010000Y-68254000D01*
X68610000Y-64454000D02*
X66010000Y-64454000D01*
X68610000Y-68254000D02*
X68610000Y-64454000D01*
X66010000Y-68254000D02*
X68610000Y-68254000D01*
%TO.C,C2*%
X94122100Y-124079000D02*
X92272100Y-124079000D01*
X86622100Y-124079000D02*
X88472100Y-124079000D01*
X92272100Y-122779000D02*
X88472100Y-122779000D01*
X92272100Y-125379000D02*
X92272100Y-122779000D01*
X88472100Y-125379000D02*
X92272100Y-125379000D01*
X88472100Y-122779000D02*
X88472100Y-125379000D01*
%TO.C,C1*%
X79644100Y-124079000D02*
X77794100Y-124079000D01*
X72144100Y-124079000D02*
X73994100Y-124079000D01*
X77794100Y-122779000D02*
X73994100Y-122779000D01*
X77794100Y-125379000D02*
X77794100Y-122779000D01*
X73994100Y-125379000D02*
X77794100Y-125379000D01*
X73994100Y-122779000D02*
X73994100Y-125379000D01*
%TD*%
%TO.C,JMPR*%
D11*
X93313428Y-83266380D02*
X93313428Y-83980666D01*
X93265809Y-84123523D01*
X93170571Y-84218761D01*
X93027714Y-84266380D01*
X92932476Y-84266380D01*
X93789619Y-84266380D02*
X93789619Y-83266380D01*
X94122952Y-83980666D01*
X94456285Y-83266380D01*
X94456285Y-84266380D01*
X94932476Y-84266380D02*
X94932476Y-83266380D01*
X95313428Y-83266380D01*
X95408666Y-83314000D01*
X95456285Y-83361619D01*
X95503904Y-83456857D01*
X95503904Y-83599714D01*
X95456285Y-83694952D01*
X95408666Y-83742571D01*
X95313428Y-83790190D01*
X94932476Y-83790190D01*
X96503904Y-84266380D02*
X96170571Y-83790190D01*
X95932476Y-84266380D02*
X95932476Y-83266380D01*
X96313428Y-83266380D01*
X96408666Y-83314000D01*
X96456285Y-83361619D01*
X96503904Y-83456857D01*
X96503904Y-83599714D01*
X96456285Y-83694952D01*
X96408666Y-83742571D01*
X96313428Y-83790190D01*
X95932476Y-83790190D01*
X94194380Y-71482571D02*
X94908666Y-71482571D01*
X95051523Y-71530190D01*
X95146761Y-71625428D01*
X95194380Y-71768285D01*
X95194380Y-71863523D01*
X95194380Y-71006380D02*
X94194380Y-71006380D01*
X94908666Y-70673047D01*
X94194380Y-70339714D01*
X95194380Y-70339714D01*
X95194380Y-69863523D02*
X94194380Y-69863523D01*
X94194380Y-69482571D01*
X94242000Y-69387333D01*
X94289619Y-69339714D01*
X94384857Y-69292095D01*
X94527714Y-69292095D01*
X94622952Y-69339714D01*
X94670571Y-69387333D01*
X94718190Y-69482571D01*
X94718190Y-69863523D01*
X95194380Y-68292095D02*
X94718190Y-68625428D01*
X95194380Y-68863523D02*
X94194380Y-68863523D01*
X94194380Y-68482571D01*
X94242000Y-68387333D01*
X94289619Y-68339714D01*
X94384857Y-68292095D01*
X94527714Y-68292095D01*
X94622952Y-68339714D01*
X94670571Y-68387333D01*
X94718190Y-68482571D01*
X94718190Y-68863523D01*
%TO.C,U4*%
X131254595Y-109307380D02*
X131254595Y-110116904D01*
X131302214Y-110212142D01*
X131349833Y-110259761D01*
X131445071Y-110307380D01*
X131635547Y-110307380D01*
X131730785Y-110259761D01*
X131778404Y-110212142D01*
X131826023Y-110116904D01*
X131826023Y-109307380D01*
X132730785Y-109640714D02*
X132730785Y-110307380D01*
X132492690Y-109259761D02*
X132254595Y-109974047D01*
X132873642Y-109974047D01*
%TO.C,RN5*%
X148026380Y-79582876D02*
X147550190Y-79916209D01*
X148026380Y-80154304D02*
X147026380Y-80154304D01*
X147026380Y-79773352D01*
X147074000Y-79678114D01*
X147121619Y-79630495D01*
X147216857Y-79582876D01*
X147359714Y-79582876D01*
X147454952Y-79630495D01*
X147502571Y-79678114D01*
X147550190Y-79773352D01*
X147550190Y-80154304D01*
X148026380Y-79154304D02*
X147026380Y-79154304D01*
X148026380Y-78582876D01*
X147026380Y-78582876D01*
X147026380Y-77630495D02*
X147026380Y-78106685D01*
X147502571Y-78154304D01*
X147454952Y-78106685D01*
X147407333Y-78011447D01*
X147407333Y-77773352D01*
X147454952Y-77678114D01*
X147502571Y-77630495D01*
X147597809Y-77582876D01*
X147835904Y-77582876D01*
X147931142Y-77630495D01*
X147978761Y-77678114D01*
X148026380Y-77773352D01*
X148026380Y-78011447D01*
X147978761Y-78106685D01*
X147931142Y-78154304D01*
%TO.C,RN4*%
X143352780Y-79633676D02*
X142876590Y-79967009D01*
X143352780Y-80205104D02*
X142352780Y-80205104D01*
X142352780Y-79824152D01*
X142400400Y-79728914D01*
X142448019Y-79681295D01*
X142543257Y-79633676D01*
X142686114Y-79633676D01*
X142781352Y-79681295D01*
X142828971Y-79728914D01*
X142876590Y-79824152D01*
X142876590Y-80205104D01*
X143352780Y-79205104D02*
X142352780Y-79205104D01*
X143352780Y-78633676D01*
X142352780Y-78633676D01*
X142686114Y-77728914D02*
X143352780Y-77728914D01*
X142305161Y-77967009D02*
X143019447Y-78205104D01*
X143019447Y-77586057D01*
%TO.C,RN3*%
X134970780Y-79582876D02*
X134494590Y-79916209D01*
X134970780Y-80154304D02*
X133970780Y-80154304D01*
X133970780Y-79773352D01*
X134018400Y-79678114D01*
X134066019Y-79630495D01*
X134161257Y-79582876D01*
X134304114Y-79582876D01*
X134399352Y-79630495D01*
X134446971Y-79678114D01*
X134494590Y-79773352D01*
X134494590Y-80154304D01*
X134970780Y-79154304D02*
X133970780Y-79154304D01*
X134970780Y-78582876D01*
X133970780Y-78582876D01*
X133970780Y-78201923D02*
X133970780Y-77582876D01*
X134351733Y-77916209D01*
X134351733Y-77773352D01*
X134399352Y-77678114D01*
X134446971Y-77630495D01*
X134542209Y-77582876D01*
X134780304Y-77582876D01*
X134875542Y-77630495D01*
X134923161Y-77678114D01*
X134970780Y-77773352D01*
X134970780Y-78059066D01*
X134923161Y-78154304D01*
X134875542Y-78201923D01*
%TO.C,RN2*%
X139695180Y-79633676D02*
X139218990Y-79967009D01*
X139695180Y-80205104D02*
X138695180Y-80205104D01*
X138695180Y-79824152D01*
X138742800Y-79728914D01*
X138790419Y-79681295D01*
X138885657Y-79633676D01*
X139028514Y-79633676D01*
X139123752Y-79681295D01*
X139171371Y-79728914D01*
X139218990Y-79824152D01*
X139218990Y-80205104D01*
X139695180Y-79205104D02*
X138695180Y-79205104D01*
X139695180Y-78633676D01*
X138695180Y-78633676D01*
X138790419Y-78205104D02*
X138742800Y-78157485D01*
X138695180Y-78062247D01*
X138695180Y-77824152D01*
X138742800Y-77728914D01*
X138790419Y-77681295D01*
X138885657Y-77633676D01*
X138980895Y-77633676D01*
X139123752Y-77681295D01*
X139695180Y-78252723D01*
X139695180Y-77633676D01*
%TO.C,RN1*%
X88747860Y-69255236D02*
X88271670Y-69588569D01*
X88747860Y-69826664D02*
X87747860Y-69826664D01*
X87747860Y-69445712D01*
X87795480Y-69350474D01*
X87843099Y-69302855D01*
X87938337Y-69255236D01*
X88081194Y-69255236D01*
X88176432Y-69302855D01*
X88224051Y-69350474D01*
X88271670Y-69445712D01*
X88271670Y-69826664D01*
X88747860Y-68826664D02*
X87747860Y-68826664D01*
X88747860Y-68255236D01*
X87747860Y-68255236D01*
X88747860Y-67255236D02*
X88747860Y-67826664D01*
X88747860Y-67540950D02*
X87747860Y-67540950D01*
X87890718Y-67636188D01*
X87985956Y-67731426D01*
X88033575Y-67826664D01*
%TO.C,R6*%
X94930933Y-93314780D02*
X94597600Y-92838590D01*
X94359504Y-93314780D02*
X94359504Y-92314780D01*
X94740457Y-92314780D01*
X94835695Y-92362400D01*
X94883314Y-92410019D01*
X94930933Y-92505257D01*
X94930933Y-92648114D01*
X94883314Y-92743352D01*
X94835695Y-92790971D01*
X94740457Y-92838590D01*
X94359504Y-92838590D01*
X95788076Y-92314780D02*
X95597600Y-92314780D01*
X95502361Y-92362400D01*
X95454742Y-92410019D01*
X95359504Y-92552876D01*
X95311885Y-92743352D01*
X95311885Y-93124304D01*
X95359504Y-93219542D01*
X95407123Y-93267161D01*
X95502361Y-93314780D01*
X95692838Y-93314780D01*
X95788076Y-93267161D01*
X95835695Y-93219542D01*
X95883314Y-93124304D01*
X95883314Y-92886209D01*
X95835695Y-92790971D01*
X95788076Y-92743352D01*
X95692838Y-92695733D01*
X95502361Y-92695733D01*
X95407123Y-92743352D01*
X95359504Y-92790971D01*
X95311885Y-92886209D01*
%TO.C,R5*%
X94930933Y-99512380D02*
X94597600Y-99036190D01*
X94359504Y-99512380D02*
X94359504Y-98512380D01*
X94740457Y-98512380D01*
X94835695Y-98560000D01*
X94883314Y-98607619D01*
X94930933Y-98702857D01*
X94930933Y-98845714D01*
X94883314Y-98940952D01*
X94835695Y-98988571D01*
X94740457Y-99036190D01*
X94359504Y-99036190D01*
X95835695Y-98512380D02*
X95359504Y-98512380D01*
X95311885Y-98988571D01*
X95359504Y-98940952D01*
X95454742Y-98893333D01*
X95692838Y-98893333D01*
X95788076Y-98940952D01*
X95835695Y-98988571D01*
X95883314Y-99083809D01*
X95883314Y-99321904D01*
X95835695Y-99417142D01*
X95788076Y-99464761D01*
X95692838Y-99512380D01*
X95454742Y-99512380D01*
X95359504Y-99464761D01*
X95311885Y-99417142D01*
%TO.C,R4*%
X94930933Y-96413580D02*
X94597600Y-95937390D01*
X94359504Y-96413580D02*
X94359504Y-95413580D01*
X94740457Y-95413580D01*
X94835695Y-95461200D01*
X94883314Y-95508819D01*
X94930933Y-95604057D01*
X94930933Y-95746914D01*
X94883314Y-95842152D01*
X94835695Y-95889771D01*
X94740457Y-95937390D01*
X94359504Y-95937390D01*
X95788076Y-95746914D02*
X95788076Y-96413580D01*
X95549980Y-95365961D02*
X95311885Y-96080247D01*
X95930933Y-96080247D01*
%TO.C,R3*%
X85059780Y-75391306D02*
X84583590Y-75724640D01*
X85059780Y-75962735D02*
X84059780Y-75962735D01*
X84059780Y-75581782D01*
X84107400Y-75486544D01*
X84155019Y-75438925D01*
X84250257Y-75391306D01*
X84393114Y-75391306D01*
X84488352Y-75438925D01*
X84535971Y-75486544D01*
X84583590Y-75581782D01*
X84583590Y-75962735D01*
X84059780Y-75057973D02*
X84059780Y-74438925D01*
X84440733Y-74772259D01*
X84440733Y-74629401D01*
X84488352Y-74534163D01*
X84535971Y-74486544D01*
X84631209Y-74438925D01*
X84869304Y-74438925D01*
X84964542Y-74486544D01*
X85012161Y-74534163D01*
X85059780Y-74629401D01*
X85059780Y-74915116D01*
X85012161Y-75010354D01*
X84964542Y-75057973D01*
%TO.C,R2*%
X85059780Y-62991026D02*
X84583590Y-63324360D01*
X85059780Y-63562455D02*
X84059780Y-63562455D01*
X84059780Y-63181502D01*
X84107400Y-63086264D01*
X84155019Y-63038645D01*
X84250257Y-62991026D01*
X84393114Y-62991026D01*
X84488352Y-63038645D01*
X84535971Y-63086264D01*
X84583590Y-63181502D01*
X84583590Y-63562455D01*
X84155019Y-62610074D02*
X84107400Y-62562455D01*
X84059780Y-62467217D01*
X84059780Y-62229121D01*
X84107400Y-62133883D01*
X84155019Y-62086264D01*
X84250257Y-62038645D01*
X84345495Y-62038645D01*
X84488352Y-62086264D01*
X85059780Y-62657693D01*
X85059780Y-62038645D01*
%TO.C,R1*%
X84135220Y-115055946D02*
X83659030Y-115389280D01*
X84135220Y-115627375D02*
X83135220Y-115627375D01*
X83135220Y-115246422D01*
X83182840Y-115151184D01*
X83230459Y-115103565D01*
X83325697Y-115055946D01*
X83468554Y-115055946D01*
X83563792Y-115103565D01*
X83611411Y-115151184D01*
X83659030Y-115246422D01*
X83659030Y-115627375D01*
X84135220Y-114103565D02*
X84135220Y-114674994D01*
X84135220Y-114389280D02*
X83135220Y-114389280D01*
X83278078Y-114484518D01*
X83373316Y-114579756D01*
X83420935Y-114674994D01*
%TO.C,Q2*%
X99760019Y-118560838D02*
X99712400Y-118656076D01*
X99617161Y-118751314D01*
X99474304Y-118894171D01*
X99426685Y-118989409D01*
X99426685Y-119084647D01*
X99664780Y-119037028D02*
X99617161Y-119132266D01*
X99521923Y-119227504D01*
X99331447Y-119275123D01*
X98998114Y-119275123D01*
X98807638Y-119227504D01*
X98712400Y-119132266D01*
X98664780Y-119037028D01*
X98664780Y-118846552D01*
X98712400Y-118751314D01*
X98807638Y-118656076D01*
X98998114Y-118608457D01*
X99331447Y-118608457D01*
X99521923Y-118656076D01*
X99617161Y-118751314D01*
X99664780Y-118846552D01*
X99664780Y-119037028D01*
X98760019Y-118227504D02*
X98712400Y-118179885D01*
X98664780Y-118084647D01*
X98664780Y-117846552D01*
X98712400Y-117751314D01*
X98760019Y-117703695D01*
X98855257Y-117656076D01*
X98950495Y-117656076D01*
X99093352Y-117703695D01*
X99664780Y-118275123D01*
X99664780Y-117656076D01*
%TO.C,Q1*%
X99963219Y-111398038D02*
X99915600Y-111493276D01*
X99820361Y-111588514D01*
X99677504Y-111731371D01*
X99629885Y-111826609D01*
X99629885Y-111921847D01*
X99867980Y-111874228D02*
X99820361Y-111969466D01*
X99725123Y-112064704D01*
X99534647Y-112112323D01*
X99201314Y-112112323D01*
X99010838Y-112064704D01*
X98915600Y-111969466D01*
X98867980Y-111874228D01*
X98867980Y-111683752D01*
X98915600Y-111588514D01*
X99010838Y-111493276D01*
X99201314Y-111445657D01*
X99534647Y-111445657D01*
X99725123Y-111493276D01*
X99820361Y-111588514D01*
X99867980Y-111683752D01*
X99867980Y-111874228D01*
X99867980Y-110493276D02*
X99867980Y-111064704D01*
X99867980Y-110778990D02*
X98867980Y-110778990D01*
X99010838Y-110874228D01*
X99106076Y-110969466D01*
X99153695Y-111064704D01*
%TO.C,J0*%
X111046380Y-140009571D02*
X111189238Y-140057190D01*
X111236857Y-140104809D01*
X111284476Y-140200047D01*
X111284476Y-140342904D01*
X111236857Y-140438142D01*
X111189238Y-140485761D01*
X111094000Y-140533380D01*
X110713047Y-140533380D01*
X110713047Y-139533380D01*
X111046380Y-139533380D01*
X111141619Y-139581000D01*
X111189238Y-139628619D01*
X111236857Y-139723857D01*
X111236857Y-139819095D01*
X111189238Y-139914333D01*
X111141619Y-139961952D01*
X111046380Y-140009571D01*
X110713047Y-140009571D01*
X111713047Y-139533380D02*
X111713047Y-140342904D01*
X111760666Y-140438142D01*
X111808285Y-140485761D01*
X111903523Y-140533380D01*
X112094000Y-140533380D01*
X112189238Y-140485761D01*
X112236857Y-140438142D01*
X112284476Y-140342904D01*
X112284476Y-139533380D01*
X112713047Y-140485761D02*
X112855904Y-140533380D01*
X113094000Y-140533380D01*
X113189238Y-140485761D01*
X113236857Y-140438142D01*
X113284476Y-140342904D01*
X113284476Y-140247666D01*
X113236857Y-140152428D01*
X113189238Y-140104809D01*
X113094000Y-140057190D01*
X112903523Y-140009571D01*
X112808285Y-139961952D01*
X112760666Y-139914333D01*
X112713047Y-139819095D01*
X112713047Y-139723857D01*
X112760666Y-139628619D01*
X112808285Y-139581000D01*
X112903523Y-139533380D01*
X113141619Y-139533380D01*
X113284476Y-139581000D01*
X113474952Y-140628619D02*
X114236857Y-140628619D01*
X114474952Y-140009571D02*
X114808285Y-140009571D01*
X114951142Y-140533380D02*
X114474952Y-140533380D01*
X114474952Y-139533380D01*
X114951142Y-139533380D01*
X115951142Y-140438142D02*
X115903523Y-140485761D01*
X115760666Y-140533380D01*
X115665428Y-140533380D01*
X115522571Y-140485761D01*
X115427333Y-140390523D01*
X115379714Y-140295285D01*
X115332095Y-140104809D01*
X115332095Y-139961952D01*
X115379714Y-139771476D01*
X115427333Y-139676238D01*
X115522571Y-139581000D01*
X115665428Y-139533380D01*
X115760666Y-139533380D01*
X115903523Y-139581000D01*
X115951142Y-139628619D01*
X116903523Y-140533380D02*
X116332095Y-140533380D01*
X116617809Y-140533380D02*
X116617809Y-139533380D01*
X116522571Y-139676238D01*
X116427333Y-139771476D01*
X116332095Y-139819095D01*
X117474952Y-139961952D02*
X117379714Y-139914333D01*
X117332095Y-139866714D01*
X117284476Y-139771476D01*
X117284476Y-139723857D01*
X117332095Y-139628619D01*
X117379714Y-139581000D01*
X117474952Y-139533380D01*
X117665428Y-139533380D01*
X117760666Y-139581000D01*
X117808285Y-139628619D01*
X117855904Y-139723857D01*
X117855904Y-139771476D01*
X117808285Y-139866714D01*
X117760666Y-139914333D01*
X117665428Y-139961952D01*
X117474952Y-139961952D01*
X117379714Y-140009571D01*
X117332095Y-140057190D01*
X117284476Y-140152428D01*
X117284476Y-140342904D01*
X117332095Y-140438142D01*
X117379714Y-140485761D01*
X117474952Y-140533380D01*
X117665428Y-140533380D01*
X117760666Y-140485761D01*
X117808285Y-140438142D01*
X117855904Y-140342904D01*
X117855904Y-140152428D01*
X117808285Y-140057190D01*
X117760666Y-140009571D01*
X117665428Y-139961952D01*
X118189238Y-139533380D02*
X118808285Y-139533380D01*
X118474952Y-139914333D01*
X118617809Y-139914333D01*
X118713047Y-139961952D01*
X118760666Y-140009571D01*
X118808285Y-140104809D01*
X118808285Y-140342904D01*
X118760666Y-140438142D01*
X118713047Y-140485761D01*
X118617809Y-140533380D01*
X118332095Y-140533380D01*
X118236857Y-140485761D01*
X118189238Y-140438142D01*
X119665428Y-139866714D02*
X119665428Y-140533380D01*
X119427333Y-139485761D02*
X119189238Y-140200047D01*
X119808285Y-140200047D01*
X119951142Y-140628619D02*
X120713047Y-140628619D01*
X121094000Y-139961952D02*
X120998761Y-139914333D01*
X120951142Y-139866714D01*
X120903523Y-139771476D01*
X120903523Y-139723857D01*
X120951142Y-139628619D01*
X120998761Y-139581000D01*
X121094000Y-139533380D01*
X121284476Y-139533380D01*
X121379714Y-139581000D01*
X121427333Y-139628619D01*
X121474952Y-139723857D01*
X121474952Y-139771476D01*
X121427333Y-139866714D01*
X121379714Y-139914333D01*
X121284476Y-139961952D01*
X121094000Y-139961952D01*
X120998761Y-140009571D01*
X120951142Y-140057190D01*
X120903523Y-140152428D01*
X120903523Y-140342904D01*
X120951142Y-140438142D01*
X120998761Y-140485761D01*
X121094000Y-140533380D01*
X121284476Y-140533380D01*
X121379714Y-140485761D01*
X121427333Y-140438142D01*
X121474952Y-140342904D01*
X121474952Y-140152428D01*
X121427333Y-140057190D01*
X121379714Y-140009571D01*
X121284476Y-139961952D01*
X122236857Y-140009571D02*
X122379714Y-140057190D01*
X122427333Y-140104809D01*
X122474952Y-140200047D01*
X122474952Y-140342904D01*
X122427333Y-140438142D01*
X122379714Y-140485761D01*
X122284476Y-140533380D01*
X121903523Y-140533380D01*
X121903523Y-139533380D01*
X122236857Y-139533380D01*
X122332095Y-139581000D01*
X122379714Y-139628619D01*
X122427333Y-139723857D01*
X122427333Y-139819095D01*
X122379714Y-139914333D01*
X122332095Y-139961952D01*
X122236857Y-140009571D01*
X121903523Y-140009571D01*
X122903523Y-140533380D02*
X122903523Y-139866714D01*
X122903523Y-139533380D02*
X122855904Y-139581000D01*
X122903523Y-139628619D01*
X122951142Y-139581000D01*
X122903523Y-139533380D01*
X122903523Y-139628619D01*
X123236857Y-139866714D02*
X123617809Y-139866714D01*
X123379714Y-139533380D02*
X123379714Y-140390523D01*
X123427333Y-140485761D01*
X123522571Y-140533380D01*
X123617809Y-140533380D01*
X116760666Y-149693380D02*
X116760666Y-150407666D01*
X116713047Y-150550523D01*
X116617809Y-150645761D01*
X116474952Y-150693380D01*
X116379714Y-150693380D01*
X117427333Y-149693380D02*
X117522571Y-149693380D01*
X117617809Y-149741000D01*
X117665428Y-149788619D01*
X117713047Y-149883857D01*
X117760666Y-150074333D01*
X117760666Y-150312428D01*
X117713047Y-150502904D01*
X117665428Y-150598142D01*
X117617809Y-150645761D01*
X117522571Y-150693380D01*
X117427333Y-150693380D01*
X117332095Y-150645761D01*
X117284476Y-150598142D01*
X117236857Y-150502904D01*
X117189238Y-150312428D01*
X117189238Y-150074333D01*
X117236857Y-149883857D01*
X117284476Y-149788619D01*
X117332095Y-149741000D01*
X117427333Y-149693380D01*
%TO.C,U3*%
X73914095Y-65492380D02*
X73914095Y-66301904D01*
X73961714Y-66397142D01*
X74009333Y-66444761D01*
X74104571Y-66492380D01*
X74295047Y-66492380D01*
X74390285Y-66444761D01*
X74437904Y-66397142D01*
X74485523Y-66301904D01*
X74485523Y-65492380D01*
X74866476Y-65492380D02*
X75485523Y-65492380D01*
X75152190Y-65873333D01*
X75295047Y-65873333D01*
X75390285Y-65920952D01*
X75437904Y-65968571D01*
X75485523Y-66063809D01*
X75485523Y-66301904D01*
X75437904Y-66397142D01*
X75390285Y-66444761D01*
X75295047Y-66492380D01*
X75009333Y-66492380D01*
X74914095Y-66444761D01*
X74866476Y-66397142D01*
%TO.C,U5*%
X112776095Y-69810380D02*
X112776095Y-70619904D01*
X112823714Y-70715142D01*
X112871333Y-70762761D01*
X112966571Y-70810380D01*
X113157047Y-70810380D01*
X113252285Y-70762761D01*
X113299904Y-70715142D01*
X113347523Y-70619904D01*
X113347523Y-69810380D01*
X114299904Y-69810380D02*
X113823714Y-69810380D01*
X113776095Y-70286571D01*
X113823714Y-70238952D01*
X113918952Y-70191333D01*
X114157047Y-70191333D01*
X114252285Y-70238952D01*
X114299904Y-70286571D01*
X114347523Y-70381809D01*
X114347523Y-70619904D01*
X114299904Y-70715142D01*
X114252285Y-70762761D01*
X114157047Y-70810380D01*
X113918952Y-70810380D01*
X113823714Y-70762761D01*
X113776095Y-70715142D01*
%TO.C,C4*%
D12*
X132020333Y-124350428D02*
X131984142Y-124386619D01*
X131875571Y-124422809D01*
X131803190Y-124422809D01*
X131694619Y-124386619D01*
X131622238Y-124314238D01*
X131586047Y-124241857D01*
X131549857Y-124097095D01*
X131549857Y-123988523D01*
X131586047Y-123843761D01*
X131622238Y-123771380D01*
X131694619Y-123699000D01*
X131803190Y-123662809D01*
X131875571Y-123662809D01*
X131984142Y-123699000D01*
X132020333Y-123735190D01*
X132671761Y-123916142D02*
X132671761Y-124422809D01*
X132490809Y-123626619D02*
X132309857Y-124169476D01*
X132780333Y-124169476D01*
%TO.C,U9*%
D11*
X144023095Y-108100880D02*
X144023095Y-108910404D01*
X144070714Y-109005642D01*
X144118333Y-109053261D01*
X144213571Y-109100880D01*
X144404047Y-109100880D01*
X144499285Y-109053261D01*
X144546904Y-109005642D01*
X144594523Y-108910404D01*
X144594523Y-108100880D01*
X145118333Y-109100880D02*
X145308809Y-109100880D01*
X145404047Y-109053261D01*
X145451666Y-109005642D01*
X145546904Y-108862785D01*
X145594523Y-108672309D01*
X145594523Y-108291357D01*
X145546904Y-108196119D01*
X145499285Y-108148500D01*
X145404047Y-108100880D01*
X145213571Y-108100880D01*
X145118333Y-108148500D01*
X145070714Y-108196119D01*
X145023095Y-108291357D01*
X145023095Y-108529452D01*
X145070714Y-108624690D01*
X145118333Y-108672309D01*
X145213571Y-108719928D01*
X145404047Y-108719928D01*
X145499285Y-108672309D01*
X145546904Y-108624690D01*
X145594523Y-108529452D01*
%TO.C,C8*%
D12*
X144593333Y-124350428D02*
X144557142Y-124386619D01*
X144448571Y-124422809D01*
X144376190Y-124422809D01*
X144267619Y-124386619D01*
X144195238Y-124314238D01*
X144159047Y-124241857D01*
X144122857Y-124097095D01*
X144122857Y-123988523D01*
X144159047Y-123843761D01*
X144195238Y-123771380D01*
X144267619Y-123699000D01*
X144376190Y-123662809D01*
X144448571Y-123662809D01*
X144557142Y-123699000D01*
X144593333Y-123735190D01*
X145027619Y-123988523D02*
X144955238Y-123952333D01*
X144919047Y-123916142D01*
X144882857Y-123843761D01*
X144882857Y-123807571D01*
X144919047Y-123735190D01*
X144955238Y-123699000D01*
X145027619Y-123662809D01*
X145172380Y-123662809D01*
X145244761Y-123699000D01*
X145280952Y-123735190D01*
X145317142Y-123807571D01*
X145317142Y-123843761D01*
X145280952Y-123916142D01*
X145244761Y-123952333D01*
X145172380Y-123988523D01*
X145027619Y-123988523D01*
X144955238Y-124024714D01*
X144919047Y-124060904D01*
X144882857Y-124133285D01*
X144882857Y-124278047D01*
X144919047Y-124350428D01*
X144955238Y-124386619D01*
X145027619Y-124422809D01*
X145172380Y-124422809D01*
X145244761Y-124386619D01*
X145280952Y-124350428D01*
X145317142Y-124278047D01*
X145317142Y-124133285D01*
X145280952Y-124060904D01*
X145244761Y-124024714D01*
X145172380Y-123988523D01*
%TO.C,C7*%
D11*
X72620142Y-139592666D02*
X72667761Y-139640285D01*
X72715380Y-139783142D01*
X72715380Y-139878380D01*
X72667761Y-140021238D01*
X72572523Y-140116476D01*
X72477285Y-140164095D01*
X72286809Y-140211714D01*
X72143952Y-140211714D01*
X71953476Y-140164095D01*
X71858238Y-140116476D01*
X71763000Y-140021238D01*
X71715380Y-139878380D01*
X71715380Y-139783142D01*
X71763000Y-139640285D01*
X71810619Y-139592666D01*
X71715380Y-139259333D02*
X71715380Y-138592666D01*
X72715380Y-139021238D01*
%TO.C,C6*%
D12*
X109668333Y-124350428D02*
X109632142Y-124386619D01*
X109523571Y-124422809D01*
X109451190Y-124422809D01*
X109342619Y-124386619D01*
X109270238Y-124314238D01*
X109234047Y-124241857D01*
X109197857Y-124097095D01*
X109197857Y-123988523D01*
X109234047Y-123843761D01*
X109270238Y-123771380D01*
X109342619Y-123699000D01*
X109451190Y-123662809D01*
X109523571Y-123662809D01*
X109632142Y-123699000D01*
X109668333Y-123735190D01*
X110319761Y-123662809D02*
X110175000Y-123662809D01*
X110102619Y-123699000D01*
X110066428Y-123735190D01*
X109994047Y-123843761D01*
X109957857Y-123988523D01*
X109957857Y-124278047D01*
X109994047Y-124350428D01*
X110030238Y-124386619D01*
X110102619Y-124422809D01*
X110247380Y-124422809D01*
X110319761Y-124386619D01*
X110355952Y-124350428D01*
X110392142Y-124278047D01*
X110392142Y-124097095D01*
X110355952Y-124024714D01*
X110319761Y-123988523D01*
X110247380Y-123952333D01*
X110102619Y-123952333D01*
X110030238Y-123988523D01*
X109994047Y-124024714D01*
X109957857Y-124097095D01*
%TO.C,C5*%
X109668333Y-88028428D02*
X109632142Y-88064619D01*
X109523571Y-88100809D01*
X109451190Y-88100809D01*
X109342619Y-88064619D01*
X109270238Y-87992238D01*
X109234047Y-87919857D01*
X109197857Y-87775095D01*
X109197857Y-87666523D01*
X109234047Y-87521761D01*
X109270238Y-87449380D01*
X109342619Y-87377000D01*
X109451190Y-87340809D01*
X109523571Y-87340809D01*
X109632142Y-87377000D01*
X109668333Y-87413190D01*
X110355952Y-87340809D02*
X109994047Y-87340809D01*
X109957857Y-87702714D01*
X109994047Y-87666523D01*
X110066428Y-87630333D01*
X110247380Y-87630333D01*
X110319761Y-87666523D01*
X110355952Y-87702714D01*
X110392142Y-87775095D01*
X110392142Y-87956047D01*
X110355952Y-88028428D01*
X110319761Y-88064619D01*
X110247380Y-88100809D01*
X110066428Y-88100809D01*
X109994047Y-88064619D01*
X109957857Y-88028428D01*
%TO.C,J4*%
D11*
X150599142Y-116987142D02*
X150551523Y-117034761D01*
X150408666Y-117082380D01*
X150313428Y-117082380D01*
X150170571Y-117034761D01*
X150075333Y-116939523D01*
X150027714Y-116844285D01*
X149980095Y-116653809D01*
X149980095Y-116510952D01*
X150027714Y-116320476D01*
X150075333Y-116225238D01*
X150170571Y-116130000D01*
X150313428Y-116082380D01*
X150408666Y-116082380D01*
X150551523Y-116130000D01*
X150599142Y-116177619D01*
X151170571Y-117082380D02*
X151075333Y-117034761D01*
X151027714Y-116987142D01*
X150980095Y-116891904D01*
X150980095Y-116606190D01*
X151027714Y-116510952D01*
X151075333Y-116463333D01*
X151170571Y-116415714D01*
X151313428Y-116415714D01*
X151408666Y-116463333D01*
X151456285Y-116510952D01*
X151503904Y-116606190D01*
X151503904Y-116891904D01*
X151456285Y-116987142D01*
X151408666Y-117034761D01*
X151313428Y-117082380D01*
X151170571Y-117082380D01*
X151932476Y-116415714D02*
X151932476Y-117082380D01*
X151932476Y-116510952D02*
X151980095Y-116463333D01*
X152075333Y-116415714D01*
X152218190Y-116415714D01*
X152313428Y-116463333D01*
X152361047Y-116558571D01*
X152361047Y-117082380D01*
X152837238Y-116415714D02*
X152837238Y-117082380D01*
X152837238Y-116510952D02*
X152884857Y-116463333D01*
X152980095Y-116415714D01*
X153122952Y-116415714D01*
X153218190Y-116463333D01*
X153265809Y-116558571D01*
X153265809Y-117082380D01*
X153503904Y-117177619D02*
X154265809Y-117177619D01*
X154694380Y-116082380D02*
X154789619Y-116082380D01*
X154884857Y-116130000D01*
X154932476Y-116177619D01*
X154980095Y-116272857D01*
X155027714Y-116463333D01*
X155027714Y-116701428D01*
X154980095Y-116891904D01*
X154932476Y-116987142D01*
X154884857Y-117034761D01*
X154789619Y-117082380D01*
X154694380Y-117082380D01*
X154599142Y-117034761D01*
X154551523Y-116987142D01*
X154503904Y-116891904D01*
X154456285Y-116701428D01*
X154456285Y-116463333D01*
X154503904Y-116272857D01*
X154551523Y-116177619D01*
X154599142Y-116130000D01*
X154694380Y-116082380D01*
X155408666Y-116177619D02*
X155456285Y-116130000D01*
X155551523Y-116082380D01*
X155789619Y-116082380D01*
X155884857Y-116130000D01*
X155932476Y-116177619D01*
X155980095Y-116272857D01*
X155980095Y-116368095D01*
X155932476Y-116510952D01*
X155361047Y-117082380D01*
X155980095Y-117082380D01*
X156313428Y-117082380D02*
X156837238Y-116415714D01*
X156313428Y-116415714D02*
X156837238Y-117082380D01*
X157408666Y-116082380D02*
X157503904Y-116082380D01*
X157599142Y-116130000D01*
X157646761Y-116177619D01*
X157694380Y-116272857D01*
X157742000Y-116463333D01*
X157742000Y-116701428D01*
X157694380Y-116891904D01*
X157646761Y-116987142D01*
X157599142Y-117034761D01*
X157503904Y-117082380D01*
X157408666Y-117082380D01*
X157313428Y-117034761D01*
X157265809Y-116987142D01*
X157218190Y-116891904D01*
X157170571Y-116701428D01*
X157170571Y-116463333D01*
X157218190Y-116272857D01*
X157265809Y-116177619D01*
X157313428Y-116130000D01*
X157408666Y-116082380D01*
X158599142Y-116082380D02*
X158408666Y-116082380D01*
X158313428Y-116130000D01*
X158265809Y-116177619D01*
X158170571Y-116320476D01*
X158122952Y-116510952D01*
X158122952Y-116891904D01*
X158170571Y-116987142D01*
X158218190Y-117034761D01*
X158313428Y-117082380D01*
X158503904Y-117082380D01*
X158599142Y-117034761D01*
X158646761Y-116987142D01*
X158694380Y-116891904D01*
X158694380Y-116653809D01*
X158646761Y-116558571D01*
X158599142Y-116510952D01*
X158503904Y-116463333D01*
X158313428Y-116463333D01*
X158218190Y-116510952D01*
X158170571Y-116558571D01*
X158122952Y-116653809D01*
X158884857Y-117177619D02*
X159646761Y-117177619D01*
X160075333Y-116082380D02*
X160265809Y-116082380D01*
X160361047Y-116130000D01*
X160456285Y-116225238D01*
X160503904Y-116415714D01*
X160503904Y-116749047D01*
X160456285Y-116939523D01*
X160361047Y-117034761D01*
X160265809Y-117082380D01*
X160075333Y-117082380D01*
X159980095Y-117034761D01*
X159884857Y-116939523D01*
X159837238Y-116749047D01*
X159837238Y-116415714D01*
X159884857Y-116225238D01*
X159980095Y-116130000D01*
X160075333Y-116082380D01*
X161361047Y-117082380D02*
X161361047Y-116082380D01*
X161361047Y-117034761D02*
X161265809Y-117082380D01*
X161075333Y-117082380D01*
X160980095Y-117034761D01*
X160932476Y-116987142D01*
X160884857Y-116891904D01*
X160884857Y-116606190D01*
X160932476Y-116510952D01*
X160980095Y-116463333D01*
X161075333Y-116415714D01*
X161265809Y-116415714D01*
X161361047Y-116463333D01*
X162265809Y-117082380D02*
X162265809Y-116082380D01*
X162265809Y-117034761D02*
X162170571Y-117082380D01*
X161980095Y-117082380D01*
X161884857Y-117034761D01*
X161837238Y-116987142D01*
X161789619Y-116891904D01*
X161789619Y-116606190D01*
X161837238Y-116510952D01*
X161884857Y-116463333D01*
X161980095Y-116415714D01*
X162170571Y-116415714D01*
X162265809Y-116463333D01*
X162503904Y-117177619D02*
X163265809Y-117177619D01*
X163503904Y-116558571D02*
X163837238Y-116558571D01*
X163980095Y-117082380D02*
X163503904Y-117082380D01*
X163503904Y-116082380D01*
X163980095Y-116082380D01*
X164313428Y-116415714D02*
X164551523Y-117082380D01*
X164789619Y-116415714D01*
X165551523Y-117034761D02*
X165456285Y-117082380D01*
X165265809Y-117082380D01*
X165170571Y-117034761D01*
X165122952Y-116939523D01*
X165122952Y-116558571D01*
X165170571Y-116463333D01*
X165265809Y-116415714D01*
X165456285Y-116415714D01*
X165551523Y-116463333D01*
X165599142Y-116558571D01*
X165599142Y-116653809D01*
X165122952Y-116749047D01*
X166027714Y-116415714D02*
X166027714Y-117082380D01*
X166027714Y-116510952D02*
X166075333Y-116463333D01*
X166170571Y-116415714D01*
X166313428Y-116415714D01*
X166408666Y-116463333D01*
X166456285Y-116558571D01*
X166456285Y-117082380D01*
X157694380Y-108283333D02*
X158408666Y-108283333D01*
X158551523Y-108330952D01*
X158646761Y-108426190D01*
X158694380Y-108569047D01*
X158694380Y-108664285D01*
X158027714Y-107378571D02*
X158694380Y-107378571D01*
X157646761Y-107616666D02*
X158361047Y-107854761D01*
X158361047Y-107235714D01*
%TO.C,J3*%
X153233904Y-73807142D02*
X153186285Y-73854761D01*
X153043428Y-73902380D01*
X152948190Y-73902380D01*
X152805333Y-73854761D01*
X152710095Y-73759523D01*
X152662476Y-73664285D01*
X152614857Y-73473809D01*
X152614857Y-73330952D01*
X152662476Y-73140476D01*
X152710095Y-73045238D01*
X152805333Y-72950000D01*
X152948190Y-72902380D01*
X153043428Y-72902380D01*
X153186285Y-72950000D01*
X153233904Y-72997619D01*
X153805333Y-73902380D02*
X153710095Y-73854761D01*
X153662476Y-73807142D01*
X153614857Y-73711904D01*
X153614857Y-73426190D01*
X153662476Y-73330952D01*
X153710095Y-73283333D01*
X153805333Y-73235714D01*
X153948190Y-73235714D01*
X154043428Y-73283333D01*
X154091047Y-73330952D01*
X154138666Y-73426190D01*
X154138666Y-73711904D01*
X154091047Y-73807142D01*
X154043428Y-73854761D01*
X153948190Y-73902380D01*
X153805333Y-73902380D01*
X154567238Y-73235714D02*
X154567238Y-73902380D01*
X154567238Y-73330952D02*
X154614857Y-73283333D01*
X154710095Y-73235714D01*
X154852952Y-73235714D01*
X154948190Y-73283333D01*
X154995809Y-73378571D01*
X154995809Y-73902380D01*
X155472000Y-73235714D02*
X155472000Y-73902380D01*
X155472000Y-73330952D02*
X155519619Y-73283333D01*
X155614857Y-73235714D01*
X155757714Y-73235714D01*
X155852952Y-73283333D01*
X155900571Y-73378571D01*
X155900571Y-73902380D01*
X156138666Y-73997619D02*
X156900571Y-73997619D01*
X157329142Y-72902380D02*
X157424380Y-72902380D01*
X157519619Y-72950000D01*
X157567238Y-72997619D01*
X157614857Y-73092857D01*
X157662476Y-73283333D01*
X157662476Y-73521428D01*
X157614857Y-73711904D01*
X157567238Y-73807142D01*
X157519619Y-73854761D01*
X157424380Y-73902380D01*
X157329142Y-73902380D01*
X157233904Y-73854761D01*
X157186285Y-73807142D01*
X157138666Y-73711904D01*
X157091047Y-73521428D01*
X157091047Y-73283333D01*
X157138666Y-73092857D01*
X157186285Y-72997619D01*
X157233904Y-72950000D01*
X157329142Y-72902380D01*
X158614857Y-73902380D02*
X158043428Y-73902380D01*
X158329142Y-73902380D02*
X158329142Y-72902380D01*
X158233904Y-73045238D01*
X158138666Y-73140476D01*
X158043428Y-73188095D01*
X158948190Y-73902380D02*
X159472000Y-73235714D01*
X158948190Y-73235714D02*
X159472000Y-73902380D01*
X160043428Y-72902380D02*
X160138666Y-72902380D01*
X160233904Y-72950000D01*
X160281523Y-72997619D01*
X160329142Y-73092857D01*
X160376761Y-73283333D01*
X160376761Y-73521428D01*
X160329142Y-73711904D01*
X160281523Y-73807142D01*
X160233904Y-73854761D01*
X160138666Y-73902380D01*
X160043428Y-73902380D01*
X159948190Y-73854761D01*
X159900571Y-73807142D01*
X159852952Y-73711904D01*
X159805333Y-73521428D01*
X159805333Y-73283333D01*
X159852952Y-73092857D01*
X159900571Y-72997619D01*
X159948190Y-72950000D01*
X160043428Y-72902380D01*
X160710095Y-72902380D02*
X161329142Y-72902380D01*
X160995809Y-73283333D01*
X161138666Y-73283333D01*
X161233904Y-73330952D01*
X161281523Y-73378571D01*
X161329142Y-73473809D01*
X161329142Y-73711904D01*
X161281523Y-73807142D01*
X161233904Y-73854761D01*
X161138666Y-73902380D01*
X160852952Y-73902380D01*
X160757714Y-73854761D01*
X160710095Y-73807142D01*
X156424380Y-68913333D02*
X157138666Y-68913333D01*
X157281523Y-68960952D01*
X157376761Y-69056190D01*
X157424380Y-69199047D01*
X157424380Y-69294285D01*
X156424380Y-68532380D02*
X156424380Y-67913333D01*
X156805333Y-68246666D01*
X156805333Y-68103809D01*
X156852952Y-68008571D01*
X156900571Y-67960952D01*
X156995809Y-67913333D01*
X157233904Y-67913333D01*
X157329142Y-67960952D01*
X157376761Y-68008571D01*
X157424380Y-68103809D01*
X157424380Y-68389523D01*
X157376761Y-68484761D01*
X157329142Y-68532380D01*
%TO.C,J2*%
X150662642Y-96940642D02*
X150615023Y-96988261D01*
X150472166Y-97035880D01*
X150376928Y-97035880D01*
X150234071Y-96988261D01*
X150138833Y-96893023D01*
X150091214Y-96797785D01*
X150043595Y-96607309D01*
X150043595Y-96464452D01*
X150091214Y-96273976D01*
X150138833Y-96178738D01*
X150234071Y-96083500D01*
X150376928Y-96035880D01*
X150472166Y-96035880D01*
X150615023Y-96083500D01*
X150662642Y-96131119D01*
X151234071Y-97035880D02*
X151138833Y-96988261D01*
X151091214Y-96940642D01*
X151043595Y-96845404D01*
X151043595Y-96559690D01*
X151091214Y-96464452D01*
X151138833Y-96416833D01*
X151234071Y-96369214D01*
X151376928Y-96369214D01*
X151472166Y-96416833D01*
X151519785Y-96464452D01*
X151567404Y-96559690D01*
X151567404Y-96845404D01*
X151519785Y-96940642D01*
X151472166Y-96988261D01*
X151376928Y-97035880D01*
X151234071Y-97035880D01*
X151995976Y-96369214D02*
X151995976Y-97035880D01*
X151995976Y-96464452D02*
X152043595Y-96416833D01*
X152138833Y-96369214D01*
X152281690Y-96369214D01*
X152376928Y-96416833D01*
X152424547Y-96512071D01*
X152424547Y-97035880D01*
X152900738Y-96369214D02*
X152900738Y-97035880D01*
X152900738Y-96464452D02*
X152948357Y-96416833D01*
X153043595Y-96369214D01*
X153186452Y-96369214D01*
X153281690Y-96416833D01*
X153329309Y-96512071D01*
X153329309Y-97035880D01*
X153567404Y-97131119D02*
X154329309Y-97131119D01*
X154757880Y-96035880D02*
X154853119Y-96035880D01*
X154948357Y-96083500D01*
X154995976Y-96131119D01*
X155043595Y-96226357D01*
X155091214Y-96416833D01*
X155091214Y-96654928D01*
X155043595Y-96845404D01*
X154995976Y-96940642D01*
X154948357Y-96988261D01*
X154853119Y-97035880D01*
X154757880Y-97035880D01*
X154662642Y-96988261D01*
X154615023Y-96940642D01*
X154567404Y-96845404D01*
X154519785Y-96654928D01*
X154519785Y-96416833D01*
X154567404Y-96226357D01*
X154615023Y-96131119D01*
X154662642Y-96083500D01*
X154757880Y-96035880D01*
X155472166Y-96131119D02*
X155519785Y-96083500D01*
X155615023Y-96035880D01*
X155853119Y-96035880D01*
X155948357Y-96083500D01*
X155995976Y-96131119D01*
X156043595Y-96226357D01*
X156043595Y-96321595D01*
X155995976Y-96464452D01*
X155424547Y-97035880D01*
X156043595Y-97035880D01*
X156376928Y-97035880D02*
X156900738Y-96369214D01*
X156376928Y-96369214D02*
X156900738Y-97035880D01*
X157472166Y-96035880D02*
X157567404Y-96035880D01*
X157662642Y-96083500D01*
X157710261Y-96131119D01*
X157757880Y-96226357D01*
X157805500Y-96416833D01*
X157805500Y-96654928D01*
X157757880Y-96845404D01*
X157710261Y-96940642D01*
X157662642Y-96988261D01*
X157567404Y-97035880D01*
X157472166Y-97035880D01*
X157376928Y-96988261D01*
X157329309Y-96940642D01*
X157281690Y-96845404D01*
X157234071Y-96654928D01*
X157234071Y-96416833D01*
X157281690Y-96226357D01*
X157329309Y-96131119D01*
X157376928Y-96083500D01*
X157472166Y-96035880D01*
X158138833Y-96035880D02*
X158805500Y-96035880D01*
X158376928Y-97035880D01*
X158948357Y-97131119D02*
X159710261Y-97131119D01*
X160138833Y-96035880D02*
X160329309Y-96035880D01*
X160424547Y-96083500D01*
X160519785Y-96178738D01*
X160567404Y-96369214D01*
X160567404Y-96702547D01*
X160519785Y-96893023D01*
X160424547Y-96988261D01*
X160329309Y-97035880D01*
X160138833Y-97035880D01*
X160043595Y-96988261D01*
X159948357Y-96893023D01*
X159900738Y-96702547D01*
X159900738Y-96369214D01*
X159948357Y-96178738D01*
X160043595Y-96083500D01*
X160138833Y-96035880D01*
X161424547Y-97035880D02*
X161424547Y-96035880D01*
X161424547Y-96988261D02*
X161329309Y-97035880D01*
X161138833Y-97035880D01*
X161043595Y-96988261D01*
X160995976Y-96940642D01*
X160948357Y-96845404D01*
X160948357Y-96559690D01*
X160995976Y-96464452D01*
X161043595Y-96416833D01*
X161138833Y-96369214D01*
X161329309Y-96369214D01*
X161424547Y-96416833D01*
X162329309Y-97035880D02*
X162329309Y-96035880D01*
X162329309Y-96988261D02*
X162234071Y-97035880D01*
X162043595Y-97035880D01*
X161948357Y-96988261D01*
X161900738Y-96940642D01*
X161853119Y-96845404D01*
X161853119Y-96559690D01*
X161900738Y-96464452D01*
X161948357Y-96416833D01*
X162043595Y-96369214D01*
X162234071Y-96369214D01*
X162329309Y-96416833D01*
X162567404Y-97131119D02*
X163329309Y-97131119D01*
X163567404Y-96512071D02*
X163900738Y-96512071D01*
X164043595Y-97035880D02*
X163567404Y-97035880D01*
X163567404Y-96035880D01*
X164043595Y-96035880D01*
X164376928Y-96369214D02*
X164615023Y-97035880D01*
X164853119Y-96369214D01*
X165615023Y-96988261D02*
X165519785Y-97035880D01*
X165329309Y-97035880D01*
X165234071Y-96988261D01*
X165186452Y-96893023D01*
X165186452Y-96512071D01*
X165234071Y-96416833D01*
X165329309Y-96369214D01*
X165519785Y-96369214D01*
X165615023Y-96416833D01*
X165662642Y-96512071D01*
X165662642Y-96607309D01*
X165186452Y-96702547D01*
X166091214Y-96369214D02*
X166091214Y-97035880D01*
X166091214Y-96464452D02*
X166138833Y-96416833D01*
X166234071Y-96369214D01*
X166376928Y-96369214D01*
X166472166Y-96416833D01*
X166519785Y-96512071D01*
X166519785Y-97035880D01*
X157694380Y-86693333D02*
X158408666Y-86693333D01*
X158551523Y-86740952D01*
X158646761Y-86836190D01*
X158694380Y-86979047D01*
X158694380Y-87074285D01*
X157789619Y-86264761D02*
X157742000Y-86217142D01*
X157694380Y-86121904D01*
X157694380Y-85883809D01*
X157742000Y-85788571D01*
X157789619Y-85740952D01*
X157884857Y-85693333D01*
X157980095Y-85693333D01*
X158122952Y-85740952D01*
X158694380Y-86312380D01*
X158694380Y-85693333D01*
%TO.C,U8*%
X153058761Y-65015476D02*
X153106380Y-64872619D01*
X153106380Y-64634523D01*
X153058761Y-64539285D01*
X153011142Y-64491666D01*
X152915904Y-64444047D01*
X152820666Y-64444047D01*
X152725428Y-64491666D01*
X152677809Y-64539285D01*
X152630190Y-64634523D01*
X152582571Y-64825000D01*
X152534952Y-64920238D01*
X152487333Y-64967857D01*
X152392095Y-65015476D01*
X152296857Y-65015476D01*
X152201619Y-64967857D01*
X152154000Y-64920238D01*
X152106380Y-64825000D01*
X152106380Y-64586904D01*
X152154000Y-64444047D01*
X152820666Y-64063095D02*
X152820666Y-63586904D01*
X153106380Y-64158333D02*
X152106380Y-63825000D01*
X153106380Y-63491666D01*
X152106380Y-63253571D02*
X152106380Y-62634523D01*
X152487333Y-62967857D01*
X152487333Y-62825000D01*
X152534952Y-62729761D01*
X152582571Y-62682142D01*
X152677809Y-62634523D01*
X152915904Y-62634523D01*
X153011142Y-62682142D01*
X153058761Y-62729761D01*
X153106380Y-62825000D01*
X153106380Y-63110714D01*
X153058761Y-63205952D01*
X153011142Y-63253571D01*
X153106380Y-62158333D02*
X153106380Y-61967857D01*
X153058761Y-61872619D01*
X153011142Y-61825000D01*
X152868285Y-61729761D01*
X152677809Y-61682142D01*
X152296857Y-61682142D01*
X152201619Y-61729761D01*
X152154000Y-61777380D01*
X152106380Y-61872619D01*
X152106380Y-62063095D01*
X152154000Y-62158333D01*
X152201619Y-62205952D01*
X152296857Y-62253571D01*
X152534952Y-62253571D01*
X152630190Y-62205952D01*
X152677809Y-62158333D01*
X152725428Y-62063095D01*
X152725428Y-61872619D01*
X152677809Y-61777380D01*
X152630190Y-61729761D01*
X152534952Y-61682142D01*
X152725428Y-61253571D02*
X152725428Y-60491666D01*
X153106380Y-59491666D02*
X153106380Y-60063095D01*
X153106380Y-59777380D02*
X152106380Y-59777380D01*
X152249238Y-59872619D01*
X152344476Y-59967857D01*
X152392095Y-60063095D01*
X153106380Y-58539285D02*
X153106380Y-59110714D01*
X153106380Y-58825000D02*
X152106380Y-58825000D01*
X152249238Y-58920238D01*
X152344476Y-59015476D01*
X152392095Y-59110714D01*
X152582571Y-58110714D02*
X152582571Y-57777380D01*
X153106380Y-57634523D02*
X153106380Y-58110714D01*
X152106380Y-58110714D01*
X152106380Y-57634523D01*
X152106380Y-57301190D02*
X153106380Y-57063095D01*
X152392095Y-56872619D01*
X153106380Y-56682142D01*
X152106380Y-56444047D01*
X152820666Y-56110714D02*
X152820666Y-55634523D01*
X153106380Y-56205952D02*
X152106380Y-55872619D01*
X153106380Y-55539285D01*
X145796095Y-60666380D02*
X145796095Y-61475904D01*
X145843714Y-61571142D01*
X145891333Y-61618761D01*
X145986571Y-61666380D01*
X146177047Y-61666380D01*
X146272285Y-61618761D01*
X146319904Y-61571142D01*
X146367523Y-61475904D01*
X146367523Y-60666380D01*
X146986571Y-61094952D02*
X146891333Y-61047333D01*
X146843714Y-60999714D01*
X146796095Y-60904476D01*
X146796095Y-60856857D01*
X146843714Y-60761619D01*
X146891333Y-60714000D01*
X146986571Y-60666380D01*
X147177047Y-60666380D01*
X147272285Y-60714000D01*
X147319904Y-60761619D01*
X147367523Y-60856857D01*
X147367523Y-60904476D01*
X147319904Y-60999714D01*
X147272285Y-61047333D01*
X147177047Y-61094952D01*
X146986571Y-61094952D01*
X146891333Y-61142571D01*
X146843714Y-61190190D01*
X146796095Y-61285428D01*
X146796095Y-61475904D01*
X146843714Y-61571142D01*
X146891333Y-61618761D01*
X146986571Y-61666380D01*
X147177047Y-61666380D01*
X147272285Y-61618761D01*
X147319904Y-61571142D01*
X147367523Y-61475904D01*
X147367523Y-61285428D01*
X147319904Y-61190190D01*
X147272285Y-61142571D01*
X147177047Y-61094952D01*
%TO.C,U7*%
X129817761Y-65142476D02*
X129865380Y-64999619D01*
X129865380Y-64761523D01*
X129817761Y-64666285D01*
X129770142Y-64618666D01*
X129674904Y-64571047D01*
X129579666Y-64571047D01*
X129484428Y-64618666D01*
X129436809Y-64666285D01*
X129389190Y-64761523D01*
X129341571Y-64952000D01*
X129293952Y-65047238D01*
X129246333Y-65094857D01*
X129151095Y-65142476D01*
X129055857Y-65142476D01*
X128960619Y-65094857D01*
X128913000Y-65047238D01*
X128865380Y-64952000D01*
X128865380Y-64713904D01*
X128913000Y-64571047D01*
X129579666Y-64190095D02*
X129579666Y-63713904D01*
X129865380Y-64285333D02*
X128865380Y-63952000D01*
X129865380Y-63618666D01*
X128865380Y-63380571D02*
X128865380Y-62761523D01*
X129246333Y-63094857D01*
X129246333Y-62952000D01*
X129293952Y-62856761D01*
X129341571Y-62809142D01*
X129436809Y-62761523D01*
X129674904Y-62761523D01*
X129770142Y-62809142D01*
X129817761Y-62856761D01*
X129865380Y-62952000D01*
X129865380Y-63237714D01*
X129817761Y-63332952D01*
X129770142Y-63380571D01*
X129865380Y-62285333D02*
X129865380Y-62094857D01*
X129817761Y-61999619D01*
X129770142Y-61952000D01*
X129627285Y-61856761D01*
X129436809Y-61809142D01*
X129055857Y-61809142D01*
X128960619Y-61856761D01*
X128913000Y-61904380D01*
X128865380Y-61999619D01*
X128865380Y-62190095D01*
X128913000Y-62285333D01*
X128960619Y-62332952D01*
X129055857Y-62380571D01*
X129293952Y-62380571D01*
X129389190Y-62332952D01*
X129436809Y-62285333D01*
X129484428Y-62190095D01*
X129484428Y-61999619D01*
X129436809Y-61904380D01*
X129389190Y-61856761D01*
X129293952Y-61809142D01*
X129484428Y-61380571D02*
X129484428Y-60618666D01*
X129865380Y-59618666D02*
X129865380Y-60190095D01*
X129865380Y-59904380D02*
X128865380Y-59904380D01*
X129008238Y-59999619D01*
X129103476Y-60094857D01*
X129151095Y-60190095D01*
X129865380Y-58666285D02*
X129865380Y-59237714D01*
X129865380Y-58952000D02*
X128865380Y-58952000D01*
X129008238Y-59047238D01*
X129103476Y-59142476D01*
X129151095Y-59237714D01*
X129341571Y-58237714D02*
X129341571Y-57904380D01*
X129865380Y-57761523D02*
X129865380Y-58237714D01*
X128865380Y-58237714D01*
X128865380Y-57761523D01*
X128865380Y-57428190D02*
X129865380Y-57190095D01*
X129151095Y-56999619D01*
X129865380Y-56809142D01*
X128865380Y-56571047D01*
X129579666Y-56237714D02*
X129579666Y-55761523D01*
X129865380Y-56332952D02*
X128865380Y-55999619D01*
X129865380Y-55666285D01*
X134874095Y-60666380D02*
X134874095Y-61475904D01*
X134921714Y-61571142D01*
X134969333Y-61618761D01*
X135064571Y-61666380D01*
X135255047Y-61666380D01*
X135350285Y-61618761D01*
X135397904Y-61571142D01*
X135445523Y-61475904D01*
X135445523Y-60666380D01*
X135826476Y-60666380D02*
X136493142Y-60666380D01*
X136064571Y-61666380D01*
%TO.C,U6*%
X112839595Y-105751380D02*
X112839595Y-106560904D01*
X112887214Y-106656142D01*
X112934833Y-106703761D01*
X113030071Y-106751380D01*
X113220547Y-106751380D01*
X113315785Y-106703761D01*
X113363404Y-106656142D01*
X113411023Y-106560904D01*
X113411023Y-105751380D01*
X114315785Y-105751380D02*
X114125309Y-105751380D01*
X114030071Y-105799000D01*
X113982452Y-105846619D01*
X113887214Y-105989476D01*
X113839595Y-106179952D01*
X113839595Y-106560904D01*
X113887214Y-106656142D01*
X113934833Y-106703761D01*
X114030071Y-106751380D01*
X114220547Y-106751380D01*
X114315785Y-106703761D01*
X114363404Y-106656142D01*
X114411023Y-106560904D01*
X114411023Y-106322809D01*
X114363404Y-106227571D01*
X114315785Y-106179952D01*
X114220547Y-106132333D01*
X114030071Y-106132333D01*
X113934833Y-106179952D01*
X113887214Y-106227571D01*
X113839595Y-106322809D01*
%TO.C,U2*%
X89446195Y-112545880D02*
X89446195Y-113355404D01*
X89493814Y-113450642D01*
X89541433Y-113498261D01*
X89636671Y-113545880D01*
X89827147Y-113545880D01*
X89922385Y-113498261D01*
X89970004Y-113450642D01*
X90017623Y-113355404D01*
X90017623Y-112545880D01*
X90446195Y-112641119D02*
X90493814Y-112593500D01*
X90589052Y-112545880D01*
X90827147Y-112545880D01*
X90922385Y-112593500D01*
X90970004Y-112641119D01*
X91017623Y-112736357D01*
X91017623Y-112831595D01*
X90970004Y-112974452D01*
X90398576Y-113545880D01*
X91017623Y-113545880D01*
%TO.C,U1*%
X75222195Y-108100880D02*
X75222195Y-108910404D01*
X75269814Y-109005642D01*
X75317433Y-109053261D01*
X75412671Y-109100880D01*
X75603147Y-109100880D01*
X75698385Y-109053261D01*
X75746004Y-109005642D01*
X75793623Y-108910404D01*
X75793623Y-108100880D01*
X76793623Y-109100880D02*
X76222195Y-109100880D01*
X76507909Y-109100880D02*
X76507909Y-108100880D01*
X76412671Y-108243738D01*
X76317433Y-108338976D01*
X76222195Y-108386595D01*
%TO.C,SW1*%
X91797714Y-55558761D02*
X91940571Y-55606380D01*
X92178666Y-55606380D01*
X92273904Y-55558761D01*
X92321523Y-55511142D01*
X92369142Y-55415904D01*
X92369142Y-55320666D01*
X92321523Y-55225428D01*
X92273904Y-55177809D01*
X92178666Y-55130190D01*
X91988190Y-55082571D01*
X91892952Y-55034952D01*
X91845333Y-54987333D01*
X91797714Y-54892095D01*
X91797714Y-54796857D01*
X91845333Y-54701619D01*
X91892952Y-54654000D01*
X91988190Y-54606380D01*
X92226285Y-54606380D01*
X92369142Y-54654000D01*
X92702476Y-54606380D02*
X92940571Y-55606380D01*
X93131047Y-54892095D01*
X93321523Y-55606380D01*
X93559619Y-54606380D01*
X93702476Y-55701619D02*
X94464380Y-55701619D01*
X94702476Y-55606380D02*
X94702476Y-54606380D01*
X94940571Y-54606380D01*
X95083428Y-54654000D01*
X95178666Y-54749238D01*
X95226285Y-54844476D01*
X95273904Y-55034952D01*
X95273904Y-55177809D01*
X95226285Y-55368285D01*
X95178666Y-55463523D01*
X95083428Y-55558761D01*
X94940571Y-55606380D01*
X94702476Y-55606380D01*
X95702476Y-55606380D02*
X95702476Y-54606380D01*
X96178666Y-55606380D02*
X96178666Y-54606380D01*
X96559619Y-54606380D01*
X96654857Y-54654000D01*
X96702476Y-54701619D01*
X96750095Y-54796857D01*
X96750095Y-54939714D01*
X96702476Y-55034952D01*
X96654857Y-55082571D01*
X96559619Y-55130190D01*
X96178666Y-55130190D01*
X96940571Y-55701619D02*
X97702476Y-55701619D01*
X97845333Y-55606380D02*
X98369142Y-54939714D01*
X97845333Y-54939714D02*
X98369142Y-55606380D01*
X99273904Y-55606380D02*
X98702476Y-55606380D01*
X98988190Y-55606380D02*
X98988190Y-54606380D01*
X98892952Y-54749238D01*
X98797714Y-54844476D01*
X98702476Y-54892095D01*
X99892952Y-54606380D02*
X99988190Y-54606380D01*
X100083428Y-54654000D01*
X100131047Y-54701619D01*
X100178666Y-54796857D01*
X100226285Y-54987333D01*
X100226285Y-55225428D01*
X100178666Y-55415904D01*
X100131047Y-55511142D01*
X100083428Y-55558761D01*
X99988190Y-55606380D01*
X99892952Y-55606380D01*
X99797714Y-55558761D01*
X99750095Y-55511142D01*
X99702476Y-55415904D01*
X99654857Y-55225428D01*
X99654857Y-54987333D01*
X99702476Y-54796857D01*
X99750095Y-54701619D01*
X99797714Y-54654000D01*
X99892952Y-54606380D01*
D13*
X94037952Y-83293404D02*
X93961761Y-83255309D01*
X93923666Y-83217214D01*
X93885571Y-83141023D01*
X93885571Y-82912452D01*
X93923666Y-82836261D01*
X93961761Y-82798166D01*
X94037952Y-82760071D01*
X94152238Y-82760071D01*
X94228428Y-82798166D01*
X94266523Y-82836261D01*
X94304619Y-82912452D01*
X94304619Y-83141023D01*
X94266523Y-83217214D01*
X94228428Y-83255309D01*
X94152238Y-83293404D01*
X94037952Y-83293404D01*
X94647476Y-82760071D02*
X94647476Y-83293404D01*
X94647476Y-82836261D02*
X94685571Y-82798166D01*
X94761761Y-82760071D01*
X94876047Y-82760071D01*
X94952238Y-82798166D01*
X94990333Y-82874357D01*
X94990333Y-83293404D01*
X92875809Y-71070666D02*
X92913904Y-70956380D01*
X92913904Y-70765904D01*
X92875809Y-70689714D01*
X92837714Y-70651619D01*
X92761523Y-70613523D01*
X92685333Y-70613523D01*
X92609142Y-70651619D01*
X92571047Y-70689714D01*
X92532952Y-70765904D01*
X92494857Y-70918285D01*
X92456761Y-70994476D01*
X92418666Y-71032571D01*
X92342476Y-71070666D01*
X92266285Y-71070666D01*
X92190095Y-71032571D01*
X92152000Y-70994476D01*
X92113904Y-70918285D01*
X92113904Y-70727809D01*
X92152000Y-70613523D01*
X92113904Y-70346857D02*
X92913904Y-70156380D01*
X92342476Y-70004000D01*
X92913904Y-69851619D01*
X92113904Y-69661142D01*
X92913904Y-68937333D02*
X92913904Y-69394476D01*
X92913904Y-69165904D02*
X92113904Y-69165904D01*
X92228190Y-69242095D01*
X92304380Y-69318285D01*
X92342476Y-69394476D01*
%TO.C,C3*%
D12*
X67581428Y-66480666D02*
X67617619Y-66516857D01*
X67653809Y-66625428D01*
X67653809Y-66697809D01*
X67617619Y-66806380D01*
X67545238Y-66878761D01*
X67472857Y-66914952D01*
X67328095Y-66951142D01*
X67219523Y-66951142D01*
X67074761Y-66914952D01*
X67002380Y-66878761D01*
X66930000Y-66806380D01*
X66893809Y-66697809D01*
X66893809Y-66625428D01*
X66930000Y-66516857D01*
X66966190Y-66480666D01*
X66893809Y-66227333D02*
X66893809Y-65756857D01*
X67183333Y-66010190D01*
X67183333Y-65901619D01*
X67219523Y-65829238D01*
X67255714Y-65793047D01*
X67328095Y-65756857D01*
X67509047Y-65756857D01*
X67581428Y-65793047D01*
X67617619Y-65829238D01*
X67653809Y-65901619D01*
X67653809Y-66118761D01*
X67617619Y-66191142D01*
X67581428Y-66227333D01*
%TO.C,C2*%
X90178433Y-124350428D02*
X90142242Y-124386619D01*
X90033671Y-124422809D01*
X89961290Y-124422809D01*
X89852719Y-124386619D01*
X89780338Y-124314238D01*
X89744147Y-124241857D01*
X89707957Y-124097095D01*
X89707957Y-123988523D01*
X89744147Y-123843761D01*
X89780338Y-123771380D01*
X89852719Y-123699000D01*
X89961290Y-123662809D01*
X90033671Y-123662809D01*
X90142242Y-123699000D01*
X90178433Y-123735190D01*
X90467957Y-123735190D02*
X90504147Y-123699000D01*
X90576528Y-123662809D01*
X90757480Y-123662809D01*
X90829861Y-123699000D01*
X90866052Y-123735190D01*
X90902242Y-123807571D01*
X90902242Y-123879952D01*
X90866052Y-123988523D01*
X90431766Y-124422809D01*
X90902242Y-124422809D01*
%TO.C,C1*%
X75767433Y-124350428D02*
X75731242Y-124386619D01*
X75622671Y-124422809D01*
X75550290Y-124422809D01*
X75441719Y-124386619D01*
X75369338Y-124314238D01*
X75333147Y-124241857D01*
X75296957Y-124097095D01*
X75296957Y-123988523D01*
X75333147Y-123843761D01*
X75369338Y-123771380D01*
X75441719Y-123699000D01*
X75550290Y-123662809D01*
X75622671Y-123662809D01*
X75731242Y-123699000D01*
X75767433Y-123735190D01*
X76491242Y-124422809D02*
X76056957Y-124422809D01*
X76274100Y-124422809D02*
X76274100Y-123662809D01*
X76201719Y-123771380D01*
X76129338Y-123843761D01*
X76056957Y-123879952D01*
%TD*%
M02*
