%TF.GenerationSoftware,KiCad,Pcbnew,(5.1.12)-1*%
%TF.CreationDate,2022-05-27T21:16:08+02:00*%
%TF.ProjectId,ec1834-post,65633138-3334-42d7-906f-73742e6b6963,2b*%
%TF.SameCoordinates,Original*%
%TF.FileFunction,Legend,Top*%
%TF.FilePolarity,Positive*%
%FSLAX46Y46*%
G04 Gerber Fmt 4.6, Leading zero omitted, Abs format (unit mm)*
G04 Created by KiCad (PCBNEW (5.1.12)-1) date 2022-05-27 21:16:08*
%MOMM*%
%LPD*%
G01*
G04 APERTURE LIST*
%ADD10C,0.200000*%
%ADD11C,0.100000*%
%ADD12C,0.300000*%
%ADD13C,0.150000*%
%ADD14C,0.120000*%
G04 APERTURE END LIST*
D10*
X117082819Y-101552952D02*
X116368533Y-101552952D01*
X116225676Y-101505333D01*
X116130438Y-101410095D01*
X116082819Y-101267238D01*
X116082819Y-101172000D01*
X116082819Y-102505333D02*
X116082819Y-102029142D01*
X117082819Y-102029142D01*
X116178057Y-103410095D02*
X116130438Y-103362476D01*
X116082819Y-103219619D01*
X116082819Y-103124380D01*
X116130438Y-102981523D01*
X116225676Y-102886285D01*
X116320914Y-102838666D01*
X116511390Y-102791047D01*
X116654247Y-102791047D01*
X116844723Y-102838666D01*
X116939961Y-102886285D01*
X117035200Y-102981523D01*
X117082819Y-103124380D01*
X117082819Y-103219619D01*
X117035200Y-103362476D01*
X116987580Y-103410095D01*
X117082819Y-104124380D02*
X116368533Y-104124380D01*
X116225676Y-104076761D01*
X116130438Y-103981523D01*
X116082819Y-103838666D01*
X116082819Y-103743428D01*
X116082819Y-105076761D02*
X116082819Y-104600571D01*
X117082819Y-104600571D01*
X116178057Y-105981523D02*
X116130438Y-105933904D01*
X116082819Y-105791047D01*
X116082819Y-105695809D01*
X116130438Y-105552952D01*
X116225676Y-105457714D01*
X116320914Y-105410095D01*
X116511390Y-105362476D01*
X116654247Y-105362476D01*
X116844723Y-105410095D01*
X116939961Y-105457714D01*
X117035200Y-105552952D01*
X117082819Y-105695809D01*
X117082819Y-105791047D01*
X117035200Y-105933904D01*
X116987580Y-105981523D01*
X117082819Y-106695809D02*
X116368533Y-106695809D01*
X116225676Y-106648190D01*
X116130438Y-106552952D01*
X116082819Y-106410095D01*
X116082819Y-106314857D01*
X116082819Y-107648190D02*
X116082819Y-107172000D01*
X117082819Y-107172000D01*
X116178057Y-108552952D02*
X116130438Y-108505333D01*
X116082819Y-108362476D01*
X116082819Y-108267238D01*
X116130438Y-108124380D01*
X116225676Y-108029142D01*
X116320914Y-107981523D01*
X116511390Y-107933904D01*
X116654247Y-107933904D01*
X116844723Y-107981523D01*
X116939961Y-108029142D01*
X117035200Y-108124380D01*
X117082819Y-108267238D01*
X117082819Y-108362476D01*
X117035200Y-108505333D01*
X116987580Y-108552952D01*
X117082819Y-109267238D02*
X116368533Y-109267238D01*
X116225676Y-109219619D01*
X116130438Y-109124380D01*
X116082819Y-108981523D01*
X116082819Y-108886285D01*
X116082819Y-110219619D02*
X116082819Y-109743428D01*
X117082819Y-109743428D01*
X116178057Y-111124380D02*
X116130438Y-111076761D01*
X116082819Y-110933904D01*
X116082819Y-110838666D01*
X116130438Y-110695809D01*
X116225676Y-110600571D01*
X116320914Y-110552952D01*
X116511390Y-110505333D01*
X116654247Y-110505333D01*
X116844723Y-110552952D01*
X116939961Y-110600571D01*
X117035200Y-110695809D01*
X117082819Y-110838666D01*
X117082819Y-110933904D01*
X117035200Y-111076761D01*
X116987580Y-111124380D01*
D11*
X153258780Y-67648933D02*
X152258780Y-67648933D01*
X153258780Y-67220361D02*
X152734971Y-67220361D01*
X152639733Y-67267980D01*
X152592114Y-67363219D01*
X152592114Y-67506076D01*
X152639733Y-67601314D01*
X152687352Y-67648933D01*
X153258780Y-66744171D02*
X152592114Y-66744171D01*
X152258780Y-66744171D02*
X152306400Y-66791790D01*
X152354019Y-66744171D01*
X152306400Y-66696552D01*
X152258780Y-66744171D01*
X152354019Y-66744171D01*
X152592114Y-65839409D02*
X153401638Y-65839409D01*
X153496876Y-65887028D01*
X153544495Y-65934647D01*
X153592114Y-66029885D01*
X153592114Y-66172742D01*
X153544495Y-66267980D01*
X153211161Y-65839409D02*
X153258780Y-65934647D01*
X153258780Y-66125123D01*
X153211161Y-66220361D01*
X153163542Y-66267980D01*
X153068304Y-66315600D01*
X152782590Y-66315600D01*
X152687352Y-66267980D01*
X152639733Y-66220361D01*
X152592114Y-66125123D01*
X152592114Y-65934647D01*
X152639733Y-65839409D01*
X153258780Y-65363219D02*
X152258780Y-65363219D01*
X153258780Y-64934647D02*
X152734971Y-64934647D01*
X152639733Y-64982266D01*
X152592114Y-65077504D01*
X152592114Y-65220361D01*
X152639733Y-65315600D01*
X152687352Y-65363219D01*
X152877828Y-63696552D02*
X152877828Y-62934647D01*
X153258780Y-61696552D02*
X152258780Y-61696552D01*
X152639733Y-61696552D02*
X152592114Y-61601314D01*
X152592114Y-61410838D01*
X152639733Y-61315600D01*
X152687352Y-61267980D01*
X152782590Y-61220361D01*
X153068304Y-61220361D01*
X153163542Y-61267980D01*
X153211161Y-61315600D01*
X153258780Y-61410838D01*
X153258780Y-61601314D01*
X153211161Y-61696552D01*
X153258780Y-60648933D02*
X153211161Y-60744171D01*
X153163542Y-60791790D01*
X153068304Y-60839409D01*
X152782590Y-60839409D01*
X152687352Y-60791790D01*
X152639733Y-60744171D01*
X152592114Y-60648933D01*
X152592114Y-60506076D01*
X152639733Y-60410838D01*
X152687352Y-60363219D01*
X152782590Y-60315600D01*
X153068304Y-60315600D01*
X153163542Y-60363219D01*
X153211161Y-60410838D01*
X153258780Y-60506076D01*
X153258780Y-60648933D01*
X152592114Y-60029885D02*
X152592114Y-59648933D01*
X152258780Y-59887028D02*
X153115923Y-59887028D01*
X153211161Y-59839409D01*
X153258780Y-59744171D01*
X153258780Y-59648933D01*
X152592114Y-59458457D02*
X152592114Y-59077504D01*
X152258780Y-59315600D02*
X153115923Y-59315600D01*
X153211161Y-59267980D01*
X153258780Y-59172742D01*
X153258780Y-59077504D01*
X153258780Y-58601314D02*
X153211161Y-58696552D01*
X153163542Y-58744171D01*
X153068304Y-58791790D01*
X152782590Y-58791790D01*
X152687352Y-58744171D01*
X152639733Y-58696552D01*
X152592114Y-58601314D01*
X152592114Y-58458457D01*
X152639733Y-58363219D01*
X152687352Y-58315600D01*
X152782590Y-58267980D01*
X153068304Y-58267980D01*
X153163542Y-58315600D01*
X153211161Y-58363219D01*
X153258780Y-58458457D01*
X153258780Y-58601314D01*
X153258780Y-57839409D02*
X152592114Y-57839409D01*
X152687352Y-57839409D02*
X152639733Y-57791790D01*
X152592114Y-57696552D01*
X152592114Y-57553695D01*
X152639733Y-57458457D01*
X152734971Y-57410838D01*
X153258780Y-57410838D01*
X152734971Y-57410838D02*
X152639733Y-57363219D01*
X152592114Y-57267980D01*
X152592114Y-57125123D01*
X152639733Y-57029885D01*
X152734971Y-56982266D01*
X153258780Y-56982266D01*
X152592114Y-55744171D02*
X152877828Y-54982266D01*
X153163542Y-55744171D01*
X129372620Y-67250533D02*
X129325001Y-67345771D01*
X129229763Y-67393390D01*
X128372620Y-67393390D01*
X129372620Y-66726723D02*
X129325001Y-66821961D01*
X129277382Y-66869580D01*
X129182144Y-66917200D01*
X128896430Y-66917200D01*
X128801192Y-66869580D01*
X128753573Y-66821961D01*
X128705954Y-66726723D01*
X128705954Y-66583866D01*
X128753573Y-66488628D01*
X128801192Y-66441009D01*
X128896430Y-66393390D01*
X129182144Y-66393390D01*
X129277382Y-66441009D01*
X129325001Y-66488628D01*
X129372620Y-66583866D01*
X129372620Y-66726723D01*
X128705954Y-66060057D02*
X129372620Y-65869580D01*
X128896430Y-65679104D01*
X129372620Y-65488628D01*
X128705954Y-65298152D01*
X128991668Y-64155295D02*
X128991668Y-63393390D01*
X129372620Y-62155295D02*
X128372620Y-62155295D01*
X128753573Y-62155295D02*
X128705954Y-62060057D01*
X128705954Y-61869580D01*
X128753573Y-61774342D01*
X128801192Y-61726723D01*
X128896430Y-61679104D01*
X129182144Y-61679104D01*
X129277382Y-61726723D01*
X129325001Y-61774342D01*
X129372620Y-61869580D01*
X129372620Y-62060057D01*
X129325001Y-62155295D01*
X129372620Y-61107676D02*
X129325001Y-61202914D01*
X129277382Y-61250533D01*
X129182144Y-61298152D01*
X128896430Y-61298152D01*
X128801192Y-61250533D01*
X128753573Y-61202914D01*
X128705954Y-61107676D01*
X128705954Y-60964819D01*
X128753573Y-60869580D01*
X128801192Y-60821961D01*
X128896430Y-60774342D01*
X129182144Y-60774342D01*
X129277382Y-60821961D01*
X129325001Y-60869580D01*
X129372620Y-60964819D01*
X129372620Y-61107676D01*
X128705954Y-60488628D02*
X128705954Y-60107676D01*
X128372620Y-60345771D02*
X129229763Y-60345771D01*
X129325001Y-60298152D01*
X129372620Y-60202914D01*
X129372620Y-60107676D01*
X128705954Y-59917200D02*
X128705954Y-59536247D01*
X128372620Y-59774342D02*
X129229763Y-59774342D01*
X129325001Y-59726723D01*
X129372620Y-59631485D01*
X129372620Y-59536247D01*
X129372620Y-59060057D02*
X129325001Y-59155295D01*
X129277382Y-59202914D01*
X129182144Y-59250533D01*
X128896430Y-59250533D01*
X128801192Y-59202914D01*
X128753573Y-59155295D01*
X128705954Y-59060057D01*
X128705954Y-58917200D01*
X128753573Y-58821961D01*
X128801192Y-58774342D01*
X128896430Y-58726723D01*
X129182144Y-58726723D01*
X129277382Y-58774342D01*
X129325001Y-58821961D01*
X129372620Y-58917200D01*
X129372620Y-59060057D01*
X129372620Y-58298152D02*
X128705954Y-58298152D01*
X128801192Y-58298152D02*
X128753573Y-58250533D01*
X128705954Y-58155295D01*
X128705954Y-58012438D01*
X128753573Y-57917200D01*
X128848811Y-57869580D01*
X129372620Y-57869580D01*
X128848811Y-57869580D02*
X128753573Y-57821961D01*
X128705954Y-57726723D01*
X128705954Y-57583866D01*
X128753573Y-57488628D01*
X128848811Y-57441009D01*
X129372620Y-57441009D01*
X128705954Y-56202914D02*
X128991668Y-55441009D01*
X129277382Y-56202914D01*
D12*
X149031960Y-67078634D02*
X149103388Y-67150062D01*
X149031960Y-67221491D01*
X148960531Y-67150062D01*
X149031960Y-67078634D01*
X149031960Y-67221491D01*
X137698480Y-66992274D02*
X137769908Y-67063702D01*
X137698480Y-67135131D01*
X137627051Y-67063702D01*
X137698480Y-66992274D01*
X137698480Y-67135131D01*
D13*
X150353395Y-88304761D02*
X149496252Y-89590476D01*
X150686728Y-89352380D02*
X150686728Y-88352380D01*
X151353395Y-88352380D02*
X151543871Y-88352380D01*
X151639109Y-88400000D01*
X151734347Y-88495238D01*
X151781966Y-88685714D01*
X151781966Y-89019047D01*
X151734347Y-89209523D01*
X151639109Y-89304761D01*
X151543871Y-89352380D01*
X151353395Y-89352380D01*
X151258157Y-89304761D01*
X151162919Y-89209523D01*
X151115300Y-89019047D01*
X151115300Y-88685714D01*
X151162919Y-88495238D01*
X151258157Y-88400000D01*
X151353395Y-88352380D01*
X152115300Y-88352380D02*
X152353395Y-89352380D01*
X152543871Y-88638095D01*
X152734347Y-89352380D01*
X152972442Y-88352380D01*
X87765576Y-86740361D02*
X87908433Y-86787980D01*
X88146528Y-86787980D01*
X88241766Y-86740361D01*
X88289385Y-86692742D01*
X88337004Y-86597504D01*
X88337004Y-86502266D01*
X88289385Y-86407028D01*
X88241766Y-86359409D01*
X88146528Y-86311790D01*
X87956052Y-86264171D01*
X87860814Y-86216552D01*
X87813195Y-86168933D01*
X87765576Y-86073695D01*
X87765576Y-85978457D01*
X87813195Y-85883219D01*
X87860814Y-85835600D01*
X87956052Y-85787980D01*
X88194147Y-85787980D01*
X88337004Y-85835600D01*
X88670338Y-85787980D02*
X88908433Y-86787980D01*
X89098909Y-86073695D01*
X89289385Y-86787980D01*
X89527480Y-85787980D01*
X90432242Y-86787980D02*
X89860814Y-86787980D01*
X90146528Y-86787980D02*
X90146528Y-85787980D01*
X90051290Y-85930838D01*
X89956052Y-86026076D01*
X89860814Y-86073695D01*
X91813195Y-85787980D02*
X92003671Y-85787980D01*
X92098909Y-85835600D01*
X92194147Y-85930838D01*
X92241766Y-86121314D01*
X92241766Y-86454647D01*
X92194147Y-86645123D01*
X92098909Y-86740361D01*
X92003671Y-86787980D01*
X91813195Y-86787980D01*
X91717957Y-86740361D01*
X91622719Y-86645123D01*
X91575100Y-86454647D01*
X91575100Y-86121314D01*
X91622719Y-85930838D01*
X91717957Y-85835600D01*
X91813195Y-85787980D01*
X93003671Y-86264171D02*
X92670338Y-86264171D01*
X92670338Y-86787980D02*
X92670338Y-85787980D01*
X93146528Y-85787980D01*
X93860814Y-86264171D02*
X93527480Y-86264171D01*
X93527480Y-86787980D02*
X93527480Y-85787980D01*
X94003671Y-85787980D01*
X87813195Y-88437980D02*
X87813195Y-87437980D01*
X88194147Y-87437980D01*
X88289385Y-87485600D01*
X88337004Y-87533219D01*
X88384623Y-87628457D01*
X88384623Y-87771314D01*
X88337004Y-87866552D01*
X88289385Y-87914171D01*
X88194147Y-87961790D01*
X87813195Y-87961790D01*
X88956052Y-88437980D02*
X88860814Y-88390361D01*
X88813195Y-88342742D01*
X88765576Y-88247504D01*
X88765576Y-87961790D01*
X88813195Y-87866552D01*
X88860814Y-87818933D01*
X88956052Y-87771314D01*
X89098909Y-87771314D01*
X89194147Y-87818933D01*
X89241766Y-87866552D01*
X89289385Y-87961790D01*
X89289385Y-88247504D01*
X89241766Y-88342742D01*
X89194147Y-88390361D01*
X89098909Y-88437980D01*
X88956052Y-88437980D01*
X89717957Y-88437980D02*
X89717957Y-87771314D01*
X89717957Y-87961790D02*
X89765576Y-87866552D01*
X89813195Y-87818933D01*
X89908433Y-87771314D01*
X90003671Y-87771314D01*
X90194147Y-87771314D02*
X90575100Y-87771314D01*
X90337004Y-87437980D02*
X90337004Y-88295123D01*
X90384623Y-88390361D01*
X90479861Y-88437980D01*
X90575100Y-88437980D01*
X92098909Y-87437980D02*
X91908433Y-87437980D01*
X91813195Y-87485600D01*
X91765576Y-87533219D01*
X91670338Y-87676076D01*
X91622719Y-87866552D01*
X91622719Y-88247504D01*
X91670338Y-88342742D01*
X91717957Y-88390361D01*
X91813195Y-88437980D01*
X92003671Y-88437980D01*
X92098909Y-88390361D01*
X92146528Y-88342742D01*
X92194147Y-88247504D01*
X92194147Y-88009409D01*
X92146528Y-87914171D01*
X92098909Y-87866552D01*
X92003671Y-87818933D01*
X91813195Y-87818933D01*
X91717957Y-87866552D01*
X91670338Y-87914171D01*
X91622719Y-88009409D01*
X92813195Y-87437980D02*
X92908433Y-87437980D01*
X93003671Y-87485600D01*
X93051290Y-87533219D01*
X93098909Y-87628457D01*
X93146528Y-87818933D01*
X93146528Y-88057028D01*
X93098909Y-88247504D01*
X93051290Y-88342742D01*
X93003671Y-88390361D01*
X92908433Y-88437980D01*
X92813195Y-88437980D01*
X92717957Y-88390361D01*
X92670338Y-88342742D01*
X92622719Y-88247504D01*
X92575100Y-88057028D01*
X92575100Y-87818933D01*
X92622719Y-87628457D01*
X92670338Y-87533219D01*
X92717957Y-87485600D01*
X92813195Y-87437980D01*
X93575100Y-88437980D02*
X93575100Y-87437980D01*
X94003671Y-88437980D02*
X94003671Y-87914171D01*
X93956052Y-87818933D01*
X93860814Y-87771314D01*
X93717957Y-87771314D01*
X93622719Y-87818933D01*
X93575100Y-87866552D01*
X94479861Y-88342742D02*
X94527480Y-88390361D01*
X94479861Y-88437980D01*
X94432242Y-88390361D01*
X94479861Y-88342742D01*
X94479861Y-88437980D01*
X94479861Y-87818933D02*
X94527480Y-87866552D01*
X94479861Y-87914171D01*
X94432242Y-87866552D01*
X94479861Y-87818933D01*
X94479861Y-87914171D01*
X96432242Y-88152266D02*
X96908433Y-88152266D01*
X96337004Y-88437980D02*
X96670338Y-87437980D01*
X97003671Y-88437980D01*
X97813195Y-87437980D02*
X97337004Y-87437980D01*
X97289385Y-87914171D01*
X97337004Y-87866552D01*
X97432242Y-87818933D01*
X97670338Y-87818933D01*
X97765576Y-87866552D01*
X97813195Y-87914171D01*
X97860814Y-88009409D01*
X97860814Y-88247504D01*
X97813195Y-88342742D01*
X97765576Y-88390361D01*
X97670338Y-88437980D01*
X97432242Y-88437980D01*
X97337004Y-88390361D01*
X97289385Y-88342742D01*
X99003671Y-88152266D02*
X99479861Y-88152266D01*
X98908433Y-88437980D02*
X99241766Y-87437980D01*
X99575100Y-88437980D01*
X100337004Y-87437980D02*
X100146528Y-87437980D01*
X100051290Y-87485600D01*
X100003671Y-87533219D01*
X99908433Y-87676076D01*
X99860814Y-87866552D01*
X99860814Y-88247504D01*
X99908433Y-88342742D01*
X99956052Y-88390361D01*
X100051290Y-88437980D01*
X100241766Y-88437980D01*
X100337004Y-88390361D01*
X100384623Y-88342742D01*
X100432242Y-88247504D01*
X100432242Y-88009409D01*
X100384623Y-87914171D01*
X100337004Y-87866552D01*
X100241766Y-87818933D01*
X100051290Y-87818933D01*
X99956052Y-87866552D01*
X99908433Y-87914171D01*
X99860814Y-88009409D01*
X87813195Y-90087980D02*
X87813195Y-89087980D01*
X88194147Y-89087980D01*
X88289385Y-89135600D01*
X88337004Y-89183219D01*
X88384623Y-89278457D01*
X88384623Y-89421314D01*
X88337004Y-89516552D01*
X88289385Y-89564171D01*
X88194147Y-89611790D01*
X87813195Y-89611790D01*
X88956052Y-90087980D02*
X88860814Y-90040361D01*
X88813195Y-89992742D01*
X88765576Y-89897504D01*
X88765576Y-89611790D01*
X88813195Y-89516552D01*
X88860814Y-89468933D01*
X88956052Y-89421314D01*
X89098909Y-89421314D01*
X89194147Y-89468933D01*
X89241766Y-89516552D01*
X89289385Y-89611790D01*
X89289385Y-89897504D01*
X89241766Y-89992742D01*
X89194147Y-90040361D01*
X89098909Y-90087980D01*
X88956052Y-90087980D01*
X89717957Y-90087980D02*
X89717957Y-89421314D01*
X89717957Y-89611790D02*
X89765576Y-89516552D01*
X89813195Y-89468933D01*
X89908433Y-89421314D01*
X90003671Y-89421314D01*
X90194147Y-89421314D02*
X90575100Y-89421314D01*
X90337004Y-89087980D02*
X90337004Y-89945123D01*
X90384623Y-90040361D01*
X90479861Y-90087980D01*
X90575100Y-90087980D01*
X91813195Y-89516552D02*
X91717957Y-89468933D01*
X91670338Y-89421314D01*
X91622719Y-89326076D01*
X91622719Y-89278457D01*
X91670338Y-89183219D01*
X91717957Y-89135600D01*
X91813195Y-89087980D01*
X92003671Y-89087980D01*
X92098909Y-89135600D01*
X92146528Y-89183219D01*
X92194147Y-89278457D01*
X92194147Y-89326076D01*
X92146528Y-89421314D01*
X92098909Y-89468933D01*
X92003671Y-89516552D01*
X91813195Y-89516552D01*
X91717957Y-89564171D01*
X91670338Y-89611790D01*
X91622719Y-89707028D01*
X91622719Y-89897504D01*
X91670338Y-89992742D01*
X91717957Y-90040361D01*
X91813195Y-90087980D01*
X92003671Y-90087980D01*
X92098909Y-90040361D01*
X92146528Y-89992742D01*
X92194147Y-89897504D01*
X92194147Y-89707028D01*
X92146528Y-89611790D01*
X92098909Y-89564171D01*
X92003671Y-89516552D01*
X92813195Y-89087980D02*
X92908433Y-89087980D01*
X93003671Y-89135600D01*
X93051290Y-89183219D01*
X93098909Y-89278457D01*
X93146528Y-89468933D01*
X93146528Y-89707028D01*
X93098909Y-89897504D01*
X93051290Y-89992742D01*
X93003671Y-90040361D01*
X92908433Y-90087980D01*
X92813195Y-90087980D01*
X92717957Y-90040361D01*
X92670338Y-89992742D01*
X92622719Y-89897504D01*
X92575100Y-89707028D01*
X92575100Y-89468933D01*
X92622719Y-89278457D01*
X92670338Y-89183219D01*
X92717957Y-89135600D01*
X92813195Y-89087980D01*
X93575100Y-90087980D02*
X93575100Y-89087980D01*
X94003671Y-90087980D02*
X94003671Y-89564171D01*
X93956052Y-89468933D01*
X93860814Y-89421314D01*
X93717957Y-89421314D01*
X93622719Y-89468933D01*
X93575100Y-89516552D01*
X94479861Y-89992742D02*
X94527480Y-90040361D01*
X94479861Y-90087980D01*
X94432242Y-90040361D01*
X94479861Y-89992742D01*
X94479861Y-90087980D01*
X94479861Y-89468933D02*
X94527480Y-89516552D01*
X94479861Y-89564171D01*
X94432242Y-89516552D01*
X94479861Y-89468933D01*
X94479861Y-89564171D01*
X96432242Y-89802266D02*
X96908433Y-89802266D01*
X96337004Y-90087980D02*
X96670338Y-89087980D01*
X97003671Y-90087980D01*
X97241766Y-89087980D02*
X97908433Y-89087980D01*
X97479861Y-90087980D01*
X151350214Y-79192380D02*
X151350214Y-78192380D01*
X151588309Y-78192380D01*
X151731166Y-78240000D01*
X151826404Y-78335238D01*
X151874023Y-78430476D01*
X151921642Y-78620952D01*
X151921642Y-78763809D01*
X151874023Y-78954285D01*
X151826404Y-79049523D01*
X151731166Y-79144761D01*
X151588309Y-79192380D01*
X151350214Y-79192380D01*
X152540690Y-78192380D02*
X152635928Y-78192380D01*
X152731166Y-78240000D01*
X152778785Y-78287619D01*
X152826404Y-78382857D01*
X152874023Y-78573333D01*
X152874023Y-78811428D01*
X152826404Y-79001904D01*
X152778785Y-79097142D01*
X152731166Y-79144761D01*
X152635928Y-79192380D01*
X152540690Y-79192380D01*
X152445452Y-79144761D01*
X152397833Y-79097142D01*
X152350214Y-79001904D01*
X152302595Y-78811428D01*
X152302595Y-78573333D01*
X152350214Y-78382857D01*
X152397833Y-78287619D01*
X152445452Y-78240000D01*
X152540690Y-78192380D01*
X163657595Y-79192380D02*
X163657595Y-78192380D01*
X163895690Y-78192380D01*
X164038547Y-78240000D01*
X164133785Y-78335238D01*
X164181404Y-78430476D01*
X164229023Y-78620952D01*
X164229023Y-78763809D01*
X164181404Y-78954285D01*
X164133785Y-79049523D01*
X164038547Y-79144761D01*
X163895690Y-79192380D01*
X163657595Y-79192380D01*
X165181404Y-79192380D02*
X164609976Y-79192380D01*
X164895690Y-79192380D02*
X164895690Y-78192380D01*
X164800452Y-78335238D01*
X164705214Y-78430476D01*
X164609976Y-78478095D01*
X151350214Y-81732380D02*
X151350214Y-80732380D01*
X151588309Y-80732380D01*
X151731166Y-80780000D01*
X151826404Y-80875238D01*
X151874023Y-80970476D01*
X151921642Y-81160952D01*
X151921642Y-81303809D01*
X151874023Y-81494285D01*
X151826404Y-81589523D01*
X151731166Y-81684761D01*
X151588309Y-81732380D01*
X151350214Y-81732380D01*
X152302595Y-80827619D02*
X152350214Y-80780000D01*
X152445452Y-80732380D01*
X152683547Y-80732380D01*
X152778785Y-80780000D01*
X152826404Y-80827619D01*
X152874023Y-80922857D01*
X152874023Y-81018095D01*
X152826404Y-81160952D01*
X152254976Y-81732380D01*
X152874023Y-81732380D01*
X163657595Y-81732380D02*
X163657595Y-80732380D01*
X163895690Y-80732380D01*
X164038547Y-80780000D01*
X164133785Y-80875238D01*
X164181404Y-80970476D01*
X164229023Y-81160952D01*
X164229023Y-81303809D01*
X164181404Y-81494285D01*
X164133785Y-81589523D01*
X164038547Y-81684761D01*
X163895690Y-81732380D01*
X163657595Y-81732380D01*
X164562357Y-80732380D02*
X165181404Y-80732380D01*
X164848071Y-81113333D01*
X164990928Y-81113333D01*
X165086166Y-81160952D01*
X165133785Y-81208571D01*
X165181404Y-81303809D01*
X165181404Y-81541904D01*
X165133785Y-81637142D01*
X165086166Y-81684761D01*
X164990928Y-81732380D01*
X164705214Y-81732380D01*
X164609976Y-81684761D01*
X164562357Y-81637142D01*
X151350214Y-84272380D02*
X151350214Y-83272380D01*
X151588309Y-83272380D01*
X151731166Y-83320000D01*
X151826404Y-83415238D01*
X151874023Y-83510476D01*
X151921642Y-83700952D01*
X151921642Y-83843809D01*
X151874023Y-84034285D01*
X151826404Y-84129523D01*
X151731166Y-84224761D01*
X151588309Y-84272380D01*
X151350214Y-84272380D01*
X152778785Y-83605714D02*
X152778785Y-84272380D01*
X152540690Y-83224761D02*
X152302595Y-83939047D01*
X152921642Y-83939047D01*
X163657595Y-84272380D02*
X163657595Y-83272380D01*
X163895690Y-83272380D01*
X164038547Y-83320000D01*
X164133785Y-83415238D01*
X164181404Y-83510476D01*
X164229023Y-83700952D01*
X164229023Y-83843809D01*
X164181404Y-84034285D01*
X164133785Y-84129523D01*
X164038547Y-84224761D01*
X163895690Y-84272380D01*
X163657595Y-84272380D01*
X165133785Y-83272380D02*
X164657595Y-83272380D01*
X164609976Y-83748571D01*
X164657595Y-83700952D01*
X164752833Y-83653333D01*
X164990928Y-83653333D01*
X165086166Y-83700952D01*
X165133785Y-83748571D01*
X165181404Y-83843809D01*
X165181404Y-84081904D01*
X165133785Y-84177142D01*
X165086166Y-84224761D01*
X164990928Y-84272380D01*
X164752833Y-84272380D01*
X164657595Y-84224761D01*
X164609976Y-84177142D01*
X151350214Y-86812380D02*
X151350214Y-85812380D01*
X151588309Y-85812380D01*
X151731166Y-85860000D01*
X151826404Y-85955238D01*
X151874023Y-86050476D01*
X151921642Y-86240952D01*
X151921642Y-86383809D01*
X151874023Y-86574285D01*
X151826404Y-86669523D01*
X151731166Y-86764761D01*
X151588309Y-86812380D01*
X151350214Y-86812380D01*
X152778785Y-85812380D02*
X152588309Y-85812380D01*
X152493071Y-85860000D01*
X152445452Y-85907619D01*
X152350214Y-86050476D01*
X152302595Y-86240952D01*
X152302595Y-86621904D01*
X152350214Y-86717142D01*
X152397833Y-86764761D01*
X152493071Y-86812380D01*
X152683547Y-86812380D01*
X152778785Y-86764761D01*
X152826404Y-86717142D01*
X152874023Y-86621904D01*
X152874023Y-86383809D01*
X152826404Y-86288571D01*
X152778785Y-86240952D01*
X152683547Y-86193333D01*
X152493071Y-86193333D01*
X152397833Y-86240952D01*
X152350214Y-86288571D01*
X152302595Y-86383809D01*
X163657595Y-86812380D02*
X163657595Y-85812380D01*
X163895690Y-85812380D01*
X164038547Y-85860000D01*
X164133785Y-85955238D01*
X164181404Y-86050476D01*
X164229023Y-86240952D01*
X164229023Y-86383809D01*
X164181404Y-86574285D01*
X164133785Y-86669523D01*
X164038547Y-86764761D01*
X163895690Y-86812380D01*
X163657595Y-86812380D01*
X164562357Y-85812380D02*
X165229023Y-85812380D01*
X164800452Y-86812380D01*
X163609880Y-88304761D02*
X162752738Y-89590476D01*
X163943214Y-89352380D02*
X163943214Y-88352380D01*
X164609880Y-88352380D02*
X164800357Y-88352380D01*
X164895595Y-88400000D01*
X164990833Y-88495238D01*
X165038452Y-88685714D01*
X165038452Y-89019047D01*
X164990833Y-89209523D01*
X164895595Y-89304761D01*
X164800357Y-89352380D01*
X164609880Y-89352380D01*
X164514642Y-89304761D01*
X164419404Y-89209523D01*
X164371785Y-89019047D01*
X164371785Y-88685714D01*
X164419404Y-88495238D01*
X164514642Y-88400000D01*
X164609880Y-88352380D01*
X166038452Y-89352380D02*
X165705119Y-88876190D01*
X165467023Y-89352380D02*
X165467023Y-88352380D01*
X165847976Y-88352380D01*
X165943214Y-88400000D01*
X165990833Y-88447619D01*
X166038452Y-88542857D01*
X166038452Y-88685714D01*
X165990833Y-88780952D01*
X165943214Y-88828571D01*
X165847976Y-88876190D01*
X165467023Y-88876190D01*
X151064500Y-91797142D02*
X151016880Y-91844761D01*
X150874023Y-91892380D01*
X150778785Y-91892380D01*
X150635928Y-91844761D01*
X150540690Y-91749523D01*
X150493071Y-91654285D01*
X150445452Y-91463809D01*
X150445452Y-91320952D01*
X150493071Y-91130476D01*
X150540690Y-91035238D01*
X150635928Y-90940000D01*
X150778785Y-90892380D01*
X150874023Y-90892380D01*
X151016880Y-90940000D01*
X151064500Y-90987619D01*
X151969261Y-91892380D02*
X151493071Y-91892380D01*
X151493071Y-90892380D01*
X152302595Y-91892380D02*
X152302595Y-90892380D01*
X152874023Y-91892380D02*
X152445452Y-91320952D01*
X152874023Y-90892380D02*
X152302595Y-91463809D01*
X164229023Y-91892380D02*
X163895690Y-91416190D01*
X163657595Y-91892380D02*
X163657595Y-90892380D01*
X164038547Y-90892380D01*
X164133785Y-90940000D01*
X164181404Y-90987619D01*
X164229023Y-91082857D01*
X164229023Y-91225714D01*
X164181404Y-91320952D01*
X164133785Y-91368571D01*
X164038547Y-91416190D01*
X163657595Y-91416190D01*
X164609976Y-91844761D02*
X164752833Y-91892380D01*
X164990928Y-91892380D01*
X165086166Y-91844761D01*
X165133785Y-91797142D01*
X165181404Y-91701904D01*
X165181404Y-91606666D01*
X165133785Y-91511428D01*
X165086166Y-91463809D01*
X164990928Y-91416190D01*
X164800452Y-91368571D01*
X164705214Y-91320952D01*
X164657595Y-91273333D01*
X164609976Y-91178095D01*
X164609976Y-91082857D01*
X164657595Y-90987619D01*
X164705214Y-90940000D01*
X164800452Y-90892380D01*
X165038547Y-90892380D01*
X165181404Y-90940000D01*
X165467119Y-90892380D02*
X166038547Y-90892380D01*
X165752833Y-91892380D02*
X165752833Y-90892380D01*
X151969261Y-93432380D02*
X151493071Y-93432380D01*
X151445452Y-93908571D01*
X151493071Y-93860952D01*
X151588309Y-93813333D01*
X151826404Y-93813333D01*
X151921642Y-93860952D01*
X151969261Y-93908571D01*
X152016880Y-94003809D01*
X152016880Y-94241904D01*
X151969261Y-94337142D01*
X151921642Y-94384761D01*
X151826404Y-94432380D01*
X151588309Y-94432380D01*
X151493071Y-94384761D01*
X151445452Y-94337142D01*
X152302595Y-93432380D02*
X152635928Y-94432380D01*
X152969261Y-93432380D01*
X164181404Y-93480000D02*
X164086166Y-93432380D01*
X163943309Y-93432380D01*
X163800452Y-93480000D01*
X163705214Y-93575238D01*
X163657595Y-93670476D01*
X163609976Y-93860952D01*
X163609976Y-94003809D01*
X163657595Y-94194285D01*
X163705214Y-94289523D01*
X163800452Y-94384761D01*
X163943309Y-94432380D01*
X164038547Y-94432380D01*
X164181404Y-94384761D01*
X164229023Y-94337142D01*
X164229023Y-94003809D01*
X164038547Y-94003809D01*
X164657595Y-94432380D02*
X164657595Y-93432380D01*
X165229023Y-94432380D01*
X165229023Y-93432380D01*
X165705214Y-94432380D02*
X165705214Y-93432380D01*
X165943309Y-93432380D01*
X166086166Y-93480000D01*
X166181404Y-93575238D01*
X166229023Y-93670476D01*
X166276642Y-93860952D01*
X166276642Y-94003809D01*
X166229023Y-94194285D01*
X166181404Y-94289523D01*
X166086166Y-94384761D01*
X165943309Y-94432380D01*
X165705214Y-94432380D01*
X162895595Y-109291428D02*
X163657500Y-109291428D01*
X164657500Y-109672380D02*
X164086071Y-109672380D01*
X164371785Y-109672380D02*
X164371785Y-108672380D01*
X164276547Y-108815238D01*
X164181309Y-108910476D01*
X164086071Y-108958095D01*
X165038452Y-108767619D02*
X165086071Y-108720000D01*
X165181309Y-108672380D01*
X165419404Y-108672380D01*
X165514642Y-108720000D01*
X165562261Y-108767619D01*
X165609880Y-108862857D01*
X165609880Y-108958095D01*
X165562261Y-109100952D01*
X164990833Y-109672380D01*
X165609880Y-109672380D01*
X165895595Y-108672380D02*
X166228928Y-109672380D01*
X166562261Y-108672380D01*
X163419404Y-104592380D02*
X162847976Y-104592380D01*
X163133690Y-104592380D02*
X163133690Y-103592380D01*
X163038452Y-103735238D01*
X162943214Y-103830476D01*
X162847976Y-103878095D01*
X163800357Y-103687619D02*
X163847976Y-103640000D01*
X163943214Y-103592380D01*
X164181309Y-103592380D01*
X164276547Y-103640000D01*
X164324166Y-103687619D01*
X164371785Y-103782857D01*
X164371785Y-103878095D01*
X164324166Y-104020952D01*
X163752738Y-104592380D01*
X164371785Y-104592380D01*
X164657500Y-103592380D02*
X164990833Y-104592380D01*
X165324166Y-103592380D01*
X153239261Y-101052380D02*
X152763071Y-101052380D01*
X152715452Y-101528571D01*
X152763071Y-101480952D01*
X152858309Y-101433333D01*
X153096404Y-101433333D01*
X153191642Y-101480952D01*
X153239261Y-101528571D01*
X153286880Y-101623809D01*
X153286880Y-101861904D01*
X153239261Y-101957142D01*
X153191642Y-102004761D01*
X153096404Y-102052380D01*
X152858309Y-102052380D01*
X152763071Y-102004761D01*
X152715452Y-101957142D01*
X153572595Y-101052380D02*
X153905928Y-102052380D01*
X154239261Y-101052380D01*
X151524976Y-106751428D02*
X152286880Y-106751428D01*
X153239261Y-106132380D02*
X152763071Y-106132380D01*
X152715452Y-106608571D01*
X152763071Y-106560952D01*
X152858309Y-106513333D01*
X153096404Y-106513333D01*
X153191642Y-106560952D01*
X153239261Y-106608571D01*
X153286880Y-106703809D01*
X153286880Y-106941904D01*
X153239261Y-107037142D01*
X153191642Y-107084761D01*
X153096404Y-107132380D01*
X152858309Y-107132380D01*
X152763071Y-107084761D01*
X152715452Y-107037142D01*
X153572595Y-106132380D02*
X153905928Y-107132380D01*
X154239261Y-106132380D01*
X152429738Y-112212380D02*
X152096404Y-111736190D01*
X151858309Y-112212380D02*
X151858309Y-111212380D01*
X152239261Y-111212380D01*
X152334500Y-111260000D01*
X152382119Y-111307619D01*
X152429738Y-111402857D01*
X152429738Y-111545714D01*
X152382119Y-111640952D01*
X152334500Y-111688571D01*
X152239261Y-111736190D01*
X151858309Y-111736190D01*
X152810690Y-112164761D02*
X152953547Y-112212380D01*
X153191642Y-112212380D01*
X153286880Y-112164761D01*
X153334500Y-112117142D01*
X153382119Y-112021904D01*
X153382119Y-111926666D01*
X153334500Y-111831428D01*
X153286880Y-111783809D01*
X153191642Y-111736190D01*
X153001166Y-111688571D01*
X152905928Y-111640952D01*
X152858309Y-111593333D01*
X152810690Y-111498095D01*
X152810690Y-111402857D01*
X152858309Y-111307619D01*
X152905928Y-111260000D01*
X153001166Y-111212380D01*
X153239261Y-111212380D01*
X153382119Y-111260000D01*
X153667833Y-111212380D02*
X154239261Y-111212380D01*
X153953547Y-112212380D02*
X153953547Y-111212380D01*
X152048785Y-113800000D02*
X151953547Y-113752380D01*
X151810690Y-113752380D01*
X151667833Y-113800000D01*
X151572595Y-113895238D01*
X151524976Y-113990476D01*
X151477357Y-114180952D01*
X151477357Y-114323809D01*
X151524976Y-114514285D01*
X151572595Y-114609523D01*
X151667833Y-114704761D01*
X151810690Y-114752380D01*
X151905928Y-114752380D01*
X152048785Y-114704761D01*
X152096404Y-114657142D01*
X152096404Y-114323809D01*
X151905928Y-114323809D01*
X152524976Y-114752380D02*
X152524976Y-113752380D01*
X153096404Y-114752380D01*
X153096404Y-113752380D01*
X153572595Y-114752380D02*
X153572595Y-113752380D01*
X153810690Y-113752380D01*
X153953547Y-113800000D01*
X154048785Y-113895238D01*
X154096404Y-113990476D01*
X154144023Y-114180952D01*
X154144023Y-114323809D01*
X154096404Y-114514285D01*
X154048785Y-114609523D01*
X153953547Y-114704761D01*
X153810690Y-114752380D01*
X153572595Y-114752380D01*
X163419404Y-113800000D02*
X163324166Y-113752380D01*
X163181309Y-113752380D01*
X163038452Y-113800000D01*
X162943214Y-113895238D01*
X162895595Y-113990476D01*
X162847976Y-114180952D01*
X162847976Y-114323809D01*
X162895595Y-114514285D01*
X162943214Y-114609523D01*
X163038452Y-114704761D01*
X163181309Y-114752380D01*
X163276547Y-114752380D01*
X163419404Y-114704761D01*
X163467023Y-114657142D01*
X163467023Y-114323809D01*
X163276547Y-114323809D01*
X163895595Y-114752380D02*
X163895595Y-113752380D01*
X164467023Y-114752380D01*
X164467023Y-113752380D01*
X164943214Y-114752380D02*
X164943214Y-113752380D01*
X165181309Y-113752380D01*
X165324166Y-113800000D01*
X165419404Y-113895238D01*
X165467023Y-113990476D01*
X165514642Y-114180952D01*
X165514642Y-114323809D01*
X165467023Y-114514285D01*
X165419404Y-114609523D01*
X165324166Y-114704761D01*
X165181309Y-114752380D01*
X164943214Y-114752380D01*
X129517142Y-133802380D02*
X129421904Y-133754761D01*
X129374285Y-133707142D01*
X129326666Y-133611904D01*
X129326666Y-133326190D01*
X129374285Y-133230952D01*
X129421904Y-133183333D01*
X129517142Y-133135714D01*
X129660000Y-133135714D01*
X129755238Y-133183333D01*
X129802857Y-133230952D01*
X129850476Y-133326190D01*
X129850476Y-133611904D01*
X129802857Y-133707142D01*
X129755238Y-133754761D01*
X129660000Y-133802380D01*
X129517142Y-133802380D01*
X130279047Y-133135714D02*
X130279047Y-134135714D01*
X130279047Y-133183333D02*
X130374285Y-133135714D01*
X130564761Y-133135714D01*
X130660000Y-133183333D01*
X130707619Y-133230952D01*
X130755238Y-133326190D01*
X130755238Y-133611904D01*
X130707619Y-133707142D01*
X130660000Y-133754761D01*
X130564761Y-133802380D01*
X130374285Y-133802380D01*
X130279047Y-133754761D01*
X131564761Y-133754761D02*
X131469523Y-133802380D01*
X131279047Y-133802380D01*
X131183809Y-133754761D01*
X131136190Y-133659523D01*
X131136190Y-133278571D01*
X131183809Y-133183333D01*
X131279047Y-133135714D01*
X131469523Y-133135714D01*
X131564761Y-133183333D01*
X131612380Y-133278571D01*
X131612380Y-133373809D01*
X131136190Y-133469047D01*
X132040952Y-133135714D02*
X132040952Y-133802380D01*
X132040952Y-133230952D02*
X132088571Y-133183333D01*
X132183809Y-133135714D01*
X132326666Y-133135714D01*
X132421904Y-133183333D01*
X132469523Y-133278571D01*
X132469523Y-133802380D01*
X132898095Y-133754761D02*
X132993333Y-133802380D01*
X133183809Y-133802380D01*
X133279047Y-133754761D01*
X133326666Y-133659523D01*
X133326666Y-133611904D01*
X133279047Y-133516666D01*
X133183809Y-133469047D01*
X133040952Y-133469047D01*
X132945714Y-133421428D01*
X132898095Y-133326190D01*
X132898095Y-133278571D01*
X132945714Y-133183333D01*
X133040952Y-133135714D01*
X133183809Y-133135714D01*
X133279047Y-133183333D01*
X133898095Y-133802380D02*
X133802857Y-133754761D01*
X133755238Y-133707142D01*
X133707619Y-133611904D01*
X133707619Y-133326190D01*
X133755238Y-133230952D01*
X133802857Y-133183333D01*
X133898095Y-133135714D01*
X134040952Y-133135714D01*
X134136190Y-133183333D01*
X134183809Y-133230952D01*
X134231428Y-133326190D01*
X134231428Y-133611904D01*
X134183809Y-133707142D01*
X134136190Y-133754761D01*
X134040952Y-133802380D01*
X133898095Y-133802380D01*
X135088571Y-133135714D02*
X135088571Y-133802380D01*
X134660000Y-133135714D02*
X134660000Y-133659523D01*
X134707619Y-133754761D01*
X134802857Y-133802380D01*
X134945714Y-133802380D01*
X135040952Y-133754761D01*
X135088571Y-133707142D01*
X135564761Y-133802380D02*
X135564761Y-133135714D01*
X135564761Y-133326190D02*
X135612380Y-133230952D01*
X135660000Y-133183333D01*
X135755238Y-133135714D01*
X135850476Y-133135714D01*
X136612380Y-133754761D02*
X136517142Y-133802380D01*
X136326666Y-133802380D01*
X136231428Y-133754761D01*
X136183809Y-133707142D01*
X136136190Y-133611904D01*
X136136190Y-133326190D01*
X136183809Y-133230952D01*
X136231428Y-133183333D01*
X136326666Y-133135714D01*
X136517142Y-133135714D01*
X136612380Y-133183333D01*
X137421904Y-133754761D02*
X137326666Y-133802380D01*
X137136190Y-133802380D01*
X137040952Y-133754761D01*
X136993333Y-133659523D01*
X136993333Y-133278571D01*
X137040952Y-133183333D01*
X137136190Y-133135714D01*
X137326666Y-133135714D01*
X137421904Y-133183333D01*
X137469523Y-133278571D01*
X137469523Y-133373809D01*
X136993333Y-133469047D01*
X138660000Y-133802380D02*
X138660000Y-132802380D01*
X139088571Y-133802380D02*
X139088571Y-133278571D01*
X139040952Y-133183333D01*
X138945714Y-133135714D01*
X138802857Y-133135714D01*
X138707619Y-133183333D01*
X138660000Y-133230952D01*
X139993333Y-133802380D02*
X139993333Y-133278571D01*
X139945714Y-133183333D01*
X139850476Y-133135714D01*
X139660000Y-133135714D01*
X139564761Y-133183333D01*
X139993333Y-133754761D02*
X139898095Y-133802380D01*
X139660000Y-133802380D01*
X139564761Y-133754761D01*
X139517142Y-133659523D01*
X139517142Y-133564285D01*
X139564761Y-133469047D01*
X139660000Y-133421428D01*
X139898095Y-133421428D01*
X139993333Y-133373809D01*
X140469523Y-133802380D02*
X140469523Y-133135714D01*
X140469523Y-133326190D02*
X140517142Y-133230952D01*
X140564761Y-133183333D01*
X140660000Y-133135714D01*
X140755238Y-133135714D01*
X141517142Y-133802380D02*
X141517142Y-132802380D01*
X141517142Y-133754761D02*
X141421904Y-133802380D01*
X141231428Y-133802380D01*
X141136190Y-133754761D01*
X141088571Y-133707142D01*
X141040952Y-133611904D01*
X141040952Y-133326190D01*
X141088571Y-133230952D01*
X141136190Y-133183333D01*
X141231428Y-133135714D01*
X141421904Y-133135714D01*
X141517142Y-133183333D01*
X141898095Y-133135714D02*
X142088571Y-133802380D01*
X142279047Y-133326190D01*
X142469523Y-133802380D01*
X142660000Y-133135714D01*
X143469523Y-133802380D02*
X143469523Y-133278571D01*
X143421904Y-133183333D01*
X143326666Y-133135714D01*
X143136190Y-133135714D01*
X143040952Y-133183333D01*
X143469523Y-133754761D02*
X143374285Y-133802380D01*
X143136190Y-133802380D01*
X143040952Y-133754761D01*
X142993333Y-133659523D01*
X142993333Y-133564285D01*
X143040952Y-133469047D01*
X143136190Y-133421428D01*
X143374285Y-133421428D01*
X143469523Y-133373809D01*
X143945714Y-133802380D02*
X143945714Y-133135714D01*
X143945714Y-133326190D02*
X143993333Y-133230952D01*
X144040952Y-133183333D01*
X144136190Y-133135714D01*
X144231428Y-133135714D01*
X144945714Y-133754761D02*
X144850476Y-133802380D01*
X144660000Y-133802380D01*
X144564761Y-133754761D01*
X144517142Y-133659523D01*
X144517142Y-133278571D01*
X144564761Y-133183333D01*
X144660000Y-133135714D01*
X144850476Y-133135714D01*
X144945714Y-133183333D01*
X144993333Y-133278571D01*
X144993333Y-133373809D01*
X144517142Y-133469047D01*
X82377333Y-132152380D02*
X82377333Y-131152380D01*
X82805904Y-132104761D02*
X82948761Y-132152380D01*
X83186857Y-132152380D01*
X83282095Y-132104761D01*
X83329714Y-132057142D01*
X83377333Y-131961904D01*
X83377333Y-131866666D01*
X83329714Y-131771428D01*
X83282095Y-131723809D01*
X83186857Y-131676190D01*
X82996380Y-131628571D01*
X82901142Y-131580952D01*
X82853523Y-131533333D01*
X82805904Y-131438095D01*
X82805904Y-131342857D01*
X82853523Y-131247619D01*
X82901142Y-131200000D01*
X82996380Y-131152380D01*
X83234476Y-131152380D01*
X83377333Y-131200000D01*
X83758285Y-131866666D02*
X84234476Y-131866666D01*
X83663047Y-132152380D02*
X83996380Y-131152380D01*
X84329714Y-132152380D01*
X85377333Y-131104761D02*
X84520190Y-132390476D01*
X85710666Y-131628571D02*
X86044000Y-131628571D01*
X86186857Y-132152380D02*
X85710666Y-132152380D01*
X85710666Y-131152380D01*
X86186857Y-131152380D01*
X87186857Y-132057142D02*
X87139238Y-132104761D01*
X86996380Y-132152380D01*
X86901142Y-132152380D01*
X86758285Y-132104761D01*
X86663047Y-132009523D01*
X86615428Y-131914285D01*
X86567809Y-131723809D01*
X86567809Y-131580952D01*
X86615428Y-131390476D01*
X86663047Y-131295238D01*
X86758285Y-131200000D01*
X86901142Y-131152380D01*
X86996380Y-131152380D01*
X87139238Y-131200000D01*
X87186857Y-131247619D01*
X88139238Y-132152380D02*
X87567809Y-132152380D01*
X87853523Y-132152380D02*
X87853523Y-131152380D01*
X87758285Y-131295238D01*
X87663047Y-131390476D01*
X87567809Y-131438095D01*
X88710666Y-131580952D02*
X88615428Y-131533333D01*
X88567809Y-131485714D01*
X88520190Y-131390476D01*
X88520190Y-131342857D01*
X88567809Y-131247619D01*
X88615428Y-131200000D01*
X88710666Y-131152380D01*
X88901142Y-131152380D01*
X88996380Y-131200000D01*
X89044000Y-131247619D01*
X89091619Y-131342857D01*
X89091619Y-131390476D01*
X89044000Y-131485714D01*
X88996380Y-131533333D01*
X88901142Y-131580952D01*
X88710666Y-131580952D01*
X88615428Y-131628571D01*
X88567809Y-131676190D01*
X88520190Y-131771428D01*
X88520190Y-131961904D01*
X88567809Y-132057142D01*
X88615428Y-132104761D01*
X88710666Y-132152380D01*
X88901142Y-132152380D01*
X88996380Y-132104761D01*
X89044000Y-132057142D01*
X89091619Y-131961904D01*
X89091619Y-131771428D01*
X89044000Y-131676190D01*
X88996380Y-131628571D01*
X88901142Y-131580952D01*
X89424952Y-131152380D02*
X90044000Y-131152380D01*
X89710666Y-131533333D01*
X89853523Y-131533333D01*
X89948761Y-131580952D01*
X89996380Y-131628571D01*
X90044000Y-131723809D01*
X90044000Y-131961904D01*
X89996380Y-132057142D01*
X89948761Y-132104761D01*
X89853523Y-132152380D01*
X89567809Y-132152380D01*
X89472571Y-132104761D01*
X89424952Y-132057142D01*
X90901142Y-131485714D02*
X90901142Y-132152380D01*
X90663047Y-131104761D02*
X90424952Y-131819047D01*
X91044000Y-131819047D01*
X92186857Y-132152380D02*
X92186857Y-131152380D01*
X92567809Y-131152380D01*
X92663047Y-131200000D01*
X92710666Y-131247619D01*
X92758285Y-131342857D01*
X92758285Y-131485714D01*
X92710666Y-131580952D01*
X92663047Y-131628571D01*
X92567809Y-131676190D01*
X92186857Y-131676190D01*
X93377333Y-131152380D02*
X93567809Y-131152380D01*
X93663047Y-131200000D01*
X93758285Y-131295238D01*
X93805904Y-131485714D01*
X93805904Y-131819047D01*
X93758285Y-132009523D01*
X93663047Y-132104761D01*
X93567809Y-132152380D01*
X93377333Y-132152380D01*
X93282095Y-132104761D01*
X93186857Y-132009523D01*
X93139238Y-131819047D01*
X93139238Y-131485714D01*
X93186857Y-131295238D01*
X93282095Y-131200000D01*
X93377333Y-131152380D01*
X94186857Y-132104761D02*
X94329714Y-132152380D01*
X94567809Y-132152380D01*
X94663047Y-132104761D01*
X94710666Y-132057142D01*
X94758285Y-131961904D01*
X94758285Y-131866666D01*
X94710666Y-131771428D01*
X94663047Y-131723809D01*
X94567809Y-131676190D01*
X94377333Y-131628571D01*
X94282095Y-131580952D01*
X94234476Y-131533333D01*
X94186857Y-131438095D01*
X94186857Y-131342857D01*
X94234476Y-131247619D01*
X94282095Y-131200000D01*
X94377333Y-131152380D01*
X94615428Y-131152380D01*
X94758285Y-131200000D01*
X95043999Y-131152380D02*
X95615428Y-131152380D01*
X95329714Y-132152380D02*
X95329714Y-131152380D01*
X96710666Y-132152380D02*
X96710666Y-131152380D01*
X96948761Y-131152380D01*
X97091619Y-131200000D01*
X97186857Y-131295238D01*
X97234476Y-131390476D01*
X97282095Y-131580952D01*
X97282095Y-131723809D01*
X97234476Y-131914285D01*
X97186857Y-132009523D01*
X97091619Y-132104761D01*
X96948761Y-132152380D01*
X96710666Y-132152380D01*
X97710666Y-132152380D02*
X97710666Y-131485714D01*
X97710666Y-131152380D02*
X97663047Y-131200000D01*
X97710666Y-131247619D01*
X97758285Y-131200000D01*
X97710666Y-131152380D01*
X97710666Y-131247619D01*
X98615428Y-132152380D02*
X98615428Y-131628571D01*
X98567809Y-131533333D01*
X98472571Y-131485714D01*
X98282095Y-131485714D01*
X98186857Y-131533333D01*
X98615428Y-132104761D02*
X98520190Y-132152380D01*
X98282095Y-132152380D01*
X98186857Y-132104761D01*
X98139238Y-132009523D01*
X98139238Y-131914285D01*
X98186857Y-131819047D01*
X98282095Y-131771428D01*
X98520190Y-131771428D01*
X98615428Y-131723809D01*
X99520190Y-131485714D02*
X99520190Y-132295238D01*
X99472571Y-132390476D01*
X99424952Y-132438095D01*
X99329714Y-132485714D01*
X99186857Y-132485714D01*
X99091619Y-132438095D01*
X99520190Y-132104761D02*
X99424952Y-132152380D01*
X99234476Y-132152380D01*
X99139238Y-132104761D01*
X99091619Y-132057142D01*
X99043999Y-131961904D01*
X99043999Y-131676190D01*
X99091619Y-131580952D01*
X99139238Y-131533333D01*
X99234476Y-131485714D01*
X99424952Y-131485714D01*
X99520190Y-131533333D01*
X99996380Y-131485714D02*
X99996380Y-132152380D01*
X99996380Y-131580952D02*
X100043999Y-131533333D01*
X100139238Y-131485714D01*
X100282095Y-131485714D01*
X100377333Y-131533333D01*
X100424952Y-131628571D01*
X100424952Y-132152380D01*
X101043999Y-132152380D02*
X100948761Y-132104761D01*
X100901142Y-132057142D01*
X100853523Y-131961904D01*
X100853523Y-131676190D01*
X100901142Y-131580952D01*
X100948761Y-131533333D01*
X101043999Y-131485714D01*
X101186857Y-131485714D01*
X101282095Y-131533333D01*
X101329714Y-131580952D01*
X101377333Y-131676190D01*
X101377333Y-131961904D01*
X101329714Y-132057142D01*
X101282095Y-132104761D01*
X101186857Y-132152380D01*
X101043999Y-132152380D01*
X101758285Y-132104761D02*
X101853523Y-132152380D01*
X102043999Y-132152380D01*
X102139238Y-132104761D01*
X102186857Y-132009523D01*
X102186857Y-131961904D01*
X102139238Y-131866666D01*
X102043999Y-131819047D01*
X101901142Y-131819047D01*
X101805904Y-131771428D01*
X101758285Y-131676190D01*
X101758285Y-131628571D01*
X101805904Y-131533333D01*
X101901142Y-131485714D01*
X102043999Y-131485714D01*
X102139238Y-131533333D01*
X102472571Y-131485714D02*
X102853523Y-131485714D01*
X102615428Y-131152380D02*
X102615428Y-132009523D01*
X102663047Y-132104761D01*
X102758285Y-132152380D01*
X102853523Y-132152380D01*
X103186857Y-132152380D02*
X103186857Y-131485714D01*
X103186857Y-131152380D02*
X103139238Y-131200000D01*
X103186857Y-131247619D01*
X103234476Y-131200000D01*
X103186857Y-131152380D01*
X103186857Y-131247619D01*
X104091619Y-132104761D02*
X103996380Y-132152380D01*
X103805904Y-132152380D01*
X103710666Y-132104761D01*
X103663047Y-132057142D01*
X103615428Y-131961904D01*
X103615428Y-131676190D01*
X103663047Y-131580952D01*
X103710666Y-131533333D01*
X103805904Y-131485714D01*
X103996380Y-131485714D01*
X104091619Y-131533333D01*
X105710666Y-132104761D02*
X105615428Y-132152380D01*
X105424952Y-132152380D01*
X105329714Y-132104761D01*
X105282095Y-132057142D01*
X105234476Y-131961904D01*
X105234476Y-131676190D01*
X105282095Y-131580952D01*
X105329714Y-131533333D01*
X105424952Y-131485714D01*
X105615428Y-131485714D01*
X105710666Y-131533333D01*
X106567809Y-132152380D02*
X106567809Y-131628571D01*
X106520190Y-131533333D01*
X106424952Y-131485714D01*
X106234476Y-131485714D01*
X106139238Y-131533333D01*
X106567809Y-132104761D02*
X106472571Y-132152380D01*
X106234476Y-132152380D01*
X106139238Y-132104761D01*
X106091619Y-132009523D01*
X106091619Y-131914285D01*
X106139238Y-131819047D01*
X106234476Y-131771428D01*
X106472571Y-131771428D01*
X106567809Y-131723809D01*
X107043999Y-132152380D02*
X107043999Y-131485714D01*
X107043999Y-131676190D02*
X107091619Y-131580952D01*
X107139238Y-131533333D01*
X107234476Y-131485714D01*
X107329714Y-131485714D01*
X108091619Y-132152380D02*
X108091619Y-131152380D01*
X108091619Y-132104761D02*
X107996380Y-132152380D01*
X107805904Y-132152380D01*
X107710666Y-132104761D01*
X107663047Y-132057142D01*
X107615428Y-131961904D01*
X107615428Y-131676190D01*
X107663047Y-131580952D01*
X107710666Y-131533333D01*
X107805904Y-131485714D01*
X107996380Y-131485714D01*
X108091619Y-131533333D01*
X109329714Y-132152380D02*
X109329714Y-131485714D01*
X109329714Y-131676190D02*
X109377333Y-131580952D01*
X109424952Y-131533333D01*
X109520190Y-131485714D01*
X109615428Y-131485714D01*
X110329714Y-132104761D02*
X110234476Y-132152380D01*
X110043999Y-132152380D01*
X109948761Y-132104761D01*
X109901142Y-132009523D01*
X109901142Y-131628571D01*
X109948761Y-131533333D01*
X110043999Y-131485714D01*
X110234476Y-131485714D01*
X110329714Y-131533333D01*
X110377333Y-131628571D01*
X110377333Y-131723809D01*
X109901142Y-131819047D01*
X110710666Y-131485714D02*
X110948761Y-132152380D01*
X111186857Y-131485714D01*
X112282095Y-131247619D02*
X112329714Y-131200000D01*
X112424952Y-131152380D01*
X112663047Y-131152380D01*
X112758285Y-131200000D01*
X112805904Y-131247619D01*
X112853523Y-131342857D01*
X112853523Y-131438095D01*
X112805904Y-131580952D01*
X112234476Y-132152380D01*
X112853523Y-132152380D01*
X113282095Y-132152380D02*
X113282095Y-131152380D01*
X113282095Y-131533333D02*
X113377333Y-131485714D01*
X113567809Y-131485714D01*
X113663047Y-131533333D01*
X113710666Y-131580952D01*
X113758285Y-131676190D01*
X113758285Y-131961904D01*
X113710666Y-132057142D01*
X113663047Y-132104761D01*
X113567809Y-132152380D01*
X113377333Y-132152380D01*
X113282095Y-132104761D01*
X86258285Y-133707142D02*
X86210666Y-133754761D01*
X86067809Y-133802380D01*
X85972571Y-133802380D01*
X85829714Y-133754761D01*
X85734476Y-133659523D01*
X85686857Y-133564285D01*
X85639238Y-133373809D01*
X85639238Y-133230952D01*
X85686857Y-133040476D01*
X85734476Y-132945238D01*
X85829714Y-132850000D01*
X85972571Y-132802380D01*
X86067809Y-132802380D01*
X86210666Y-132850000D01*
X86258285Y-132897619D01*
X86829714Y-133802380D02*
X86734476Y-133754761D01*
X86686857Y-133707142D01*
X86639238Y-133611904D01*
X86639238Y-133326190D01*
X86686857Y-133230952D01*
X86734476Y-133183333D01*
X86829714Y-133135714D01*
X86972571Y-133135714D01*
X87067809Y-133183333D01*
X87115428Y-133230952D01*
X87163047Y-133326190D01*
X87163047Y-133611904D01*
X87115428Y-133707142D01*
X87067809Y-133754761D01*
X86972571Y-133802380D01*
X86829714Y-133802380D01*
X87591619Y-133135714D02*
X87591619Y-134135714D01*
X87591619Y-133183333D02*
X87686857Y-133135714D01*
X87877333Y-133135714D01*
X87972571Y-133183333D01*
X88020190Y-133230952D01*
X88067809Y-133326190D01*
X88067809Y-133611904D01*
X88020190Y-133707142D01*
X87972571Y-133754761D01*
X87877333Y-133802380D01*
X87686857Y-133802380D01*
X87591619Y-133754761D01*
X88401142Y-133135714D02*
X88639238Y-133802380D01*
X88877333Y-133135714D02*
X88639238Y-133802380D01*
X88543999Y-134040476D01*
X88496380Y-134088095D01*
X88401142Y-134135714D01*
X89258285Y-133802380D02*
X89258285Y-133135714D01*
X89258285Y-133326190D02*
X89305904Y-133230952D01*
X89353523Y-133183333D01*
X89448761Y-133135714D01*
X89543999Y-133135714D01*
X89877333Y-133802380D02*
X89877333Y-133135714D01*
X89877333Y-132802380D02*
X89829714Y-132850000D01*
X89877333Y-132897619D01*
X89924952Y-132850000D01*
X89877333Y-132802380D01*
X89877333Y-132897619D01*
X90782095Y-133135714D02*
X90782095Y-133945238D01*
X90734476Y-134040476D01*
X90686857Y-134088095D01*
X90591619Y-134135714D01*
X90448761Y-134135714D01*
X90353523Y-134088095D01*
X90782095Y-133754761D02*
X90686857Y-133802380D01*
X90496380Y-133802380D01*
X90401142Y-133754761D01*
X90353523Y-133707142D01*
X90305904Y-133611904D01*
X90305904Y-133326190D01*
X90353523Y-133230952D01*
X90401142Y-133183333D01*
X90496380Y-133135714D01*
X90686857Y-133135714D01*
X90782095Y-133183333D01*
X91258285Y-133802380D02*
X91258285Y-132802380D01*
X91686857Y-133802380D02*
X91686857Y-133278571D01*
X91639238Y-133183333D01*
X91543999Y-133135714D01*
X91401142Y-133135714D01*
X91305904Y-133183333D01*
X91258285Y-133230952D01*
X92020190Y-133135714D02*
X92401142Y-133135714D01*
X92163047Y-132802380D02*
X92163047Y-133659523D01*
X92210666Y-133754761D01*
X92305904Y-133802380D01*
X92401142Y-133802380D01*
X93782095Y-134183333D02*
X93734476Y-134135714D01*
X93639238Y-133992857D01*
X93591619Y-133897619D01*
X93543999Y-133754761D01*
X93496380Y-133516666D01*
X93496380Y-133326190D01*
X93543999Y-133088095D01*
X93591619Y-132945238D01*
X93639238Y-132850000D01*
X93734476Y-132707142D01*
X93782095Y-132659523D01*
X94591619Y-133754761D02*
X94496380Y-133802380D01*
X94305904Y-133802380D01*
X94210666Y-133754761D01*
X94163047Y-133707142D01*
X94115428Y-133611904D01*
X94115428Y-133326190D01*
X94163047Y-133230952D01*
X94210666Y-133183333D01*
X94305904Y-133135714D01*
X94496380Y-133135714D01*
X94591619Y-133183333D01*
X94924952Y-134183333D02*
X94972571Y-134135714D01*
X95067809Y-133992857D01*
X95115428Y-133897619D01*
X95163047Y-133754761D01*
X95210666Y-133516666D01*
X95210666Y-133326190D01*
X95163047Y-133088095D01*
X95115428Y-132945238D01*
X95067809Y-132850000D01*
X94972571Y-132707142D01*
X94924952Y-132659523D01*
X96401142Y-132897619D02*
X96448761Y-132850000D01*
X96543999Y-132802380D01*
X96782095Y-132802380D01*
X96877333Y-132850000D01*
X96924952Y-132897619D01*
X96972571Y-132992857D01*
X96972571Y-133088095D01*
X96924952Y-133230952D01*
X96353523Y-133802380D01*
X96972571Y-133802380D01*
X97591619Y-132802380D02*
X97686857Y-132802380D01*
X97782095Y-132850000D01*
X97829714Y-132897619D01*
X97877333Y-132992857D01*
X97924952Y-133183333D01*
X97924952Y-133421428D01*
X97877333Y-133611904D01*
X97829714Y-133707142D01*
X97782095Y-133754761D01*
X97686857Y-133802380D01*
X97591619Y-133802380D01*
X97496380Y-133754761D01*
X97448761Y-133707142D01*
X97401142Y-133611904D01*
X97353523Y-133421428D01*
X97353523Y-133183333D01*
X97401142Y-132992857D01*
X97448761Y-132897619D01*
X97496380Y-132850000D01*
X97591619Y-132802380D01*
X98305904Y-132897619D02*
X98353523Y-132850000D01*
X98448761Y-132802380D01*
X98686857Y-132802380D01*
X98782095Y-132850000D01*
X98829714Y-132897619D01*
X98877333Y-132992857D01*
X98877333Y-133088095D01*
X98829714Y-133230952D01*
X98258285Y-133802380D01*
X98877333Y-133802380D01*
X99258285Y-132897619D02*
X99305904Y-132850000D01*
X99401142Y-132802380D01*
X99639238Y-132802380D01*
X99734476Y-132850000D01*
X99782095Y-132897619D01*
X99829714Y-132992857D01*
X99829714Y-133088095D01*
X99782095Y-133230952D01*
X99210666Y-133802380D01*
X99829714Y-133802380D01*
X101020190Y-133802380D02*
X101020190Y-132802380D01*
X101353523Y-133516666D01*
X101686857Y-132802380D01*
X101686857Y-133802380D01*
X102591619Y-133802380D02*
X102591619Y-133278571D01*
X102543999Y-133183333D01*
X102448761Y-133135714D01*
X102258285Y-133135714D01*
X102163047Y-133183333D01*
X102591619Y-133754761D02*
X102496380Y-133802380D01*
X102258285Y-133802380D01*
X102163047Y-133754761D01*
X102115428Y-133659523D01*
X102115428Y-133564285D01*
X102163047Y-133469047D01*
X102258285Y-133421428D01*
X102496380Y-133421428D01*
X102591619Y-133373809D01*
X103067809Y-133802380D02*
X103067809Y-133135714D01*
X103067809Y-133326190D02*
X103115428Y-133230952D01*
X103163047Y-133183333D01*
X103258285Y-133135714D01*
X103353523Y-133135714D01*
X103686857Y-133802380D02*
X103686857Y-133135714D01*
X103686857Y-132802380D02*
X103639238Y-132850000D01*
X103686857Y-132897619D01*
X103734476Y-132850000D01*
X103686857Y-132802380D01*
X103686857Y-132897619D01*
X104305904Y-133802380D02*
X104210666Y-133754761D01*
X104163047Y-133707142D01*
X104115428Y-133611904D01*
X104115428Y-133326190D01*
X104163047Y-133230952D01*
X104210666Y-133183333D01*
X104305904Y-133135714D01*
X104448761Y-133135714D01*
X104543999Y-133183333D01*
X104591619Y-133230952D01*
X104639238Y-133326190D01*
X104639238Y-133611904D01*
X104591619Y-133707142D01*
X104543999Y-133754761D01*
X104448761Y-133802380D01*
X104305904Y-133802380D01*
X106353523Y-132850000D02*
X106258285Y-132802380D01*
X106115428Y-132802380D01*
X105972571Y-132850000D01*
X105877333Y-132945238D01*
X105829714Y-133040476D01*
X105782095Y-133230952D01*
X105782095Y-133373809D01*
X105829714Y-133564285D01*
X105877333Y-133659523D01*
X105972571Y-133754761D01*
X106115428Y-133802380D01*
X106210666Y-133802380D01*
X106353523Y-133754761D01*
X106401142Y-133707142D01*
X106401142Y-133373809D01*
X106210666Y-133373809D01*
X106972571Y-133802380D02*
X106877333Y-133754761D01*
X106829714Y-133707142D01*
X106782095Y-133611904D01*
X106782095Y-133326190D01*
X106829714Y-133230952D01*
X106877333Y-133183333D01*
X106972571Y-133135714D01*
X107115428Y-133135714D01*
X107210666Y-133183333D01*
X107258285Y-133230952D01*
X107305904Y-133326190D01*
X107305904Y-133611904D01*
X107258285Y-133707142D01*
X107210666Y-133754761D01*
X107115428Y-133802380D01*
X106972571Y-133802380D01*
X108115428Y-133754761D02*
X108020190Y-133802380D01*
X107829714Y-133802380D01*
X107734476Y-133754761D01*
X107686857Y-133659523D01*
X107686857Y-133278571D01*
X107734476Y-133183333D01*
X107829714Y-133135714D01*
X108020190Y-133135714D01*
X108115428Y-133183333D01*
X108163047Y-133278571D01*
X108163047Y-133373809D01*
X107686857Y-133469047D01*
X109020190Y-133135714D02*
X109020190Y-133945238D01*
X108972571Y-134040476D01*
X108924952Y-134088095D01*
X108829714Y-134135714D01*
X108686857Y-134135714D01*
X108591619Y-134088095D01*
X109020190Y-133754761D02*
X108924952Y-133802380D01*
X108734476Y-133802380D01*
X108639238Y-133754761D01*
X108591619Y-133707142D01*
X108543999Y-133611904D01*
X108543999Y-133326190D01*
X108591619Y-133230952D01*
X108639238Y-133183333D01*
X108734476Y-133135714D01*
X108924952Y-133135714D01*
X109020190Y-133183333D01*
X109877333Y-133754761D02*
X109782095Y-133802380D01*
X109591619Y-133802380D01*
X109496380Y-133754761D01*
X109448761Y-133659523D01*
X109448761Y-133278571D01*
X109496380Y-133183333D01*
X109591619Y-133135714D01*
X109782095Y-133135714D01*
X109877333Y-133183333D01*
X109924952Y-133278571D01*
X109924952Y-133373809D01*
X109448761Y-133469047D01*
X110496380Y-133802380D02*
X110401142Y-133754761D01*
X110353523Y-133659523D01*
X110353523Y-132802380D01*
X81829714Y-135452380D02*
X81829714Y-134452380D01*
X82258285Y-135452380D02*
X82258285Y-134928571D01*
X82210666Y-134833333D01*
X82115428Y-134785714D01*
X81972571Y-134785714D01*
X81877333Y-134833333D01*
X81829714Y-134880952D01*
X82591619Y-134785714D02*
X82972571Y-134785714D01*
X82734476Y-134452380D02*
X82734476Y-135309523D01*
X82782095Y-135404761D01*
X82877333Y-135452380D01*
X82972571Y-135452380D01*
X83163047Y-134785714D02*
X83544000Y-134785714D01*
X83305904Y-134452380D02*
X83305904Y-135309523D01*
X83353523Y-135404761D01*
X83448761Y-135452380D01*
X83544000Y-135452380D01*
X83877333Y-134785714D02*
X83877333Y-135785714D01*
X83877333Y-134833333D02*
X83972571Y-134785714D01*
X84163047Y-134785714D01*
X84258285Y-134833333D01*
X84305904Y-134880952D01*
X84353523Y-134976190D01*
X84353523Y-135261904D01*
X84305904Y-135357142D01*
X84258285Y-135404761D01*
X84163047Y-135452380D01*
X83972571Y-135452380D01*
X83877333Y-135404761D01*
X84734476Y-135404761D02*
X84829714Y-135452380D01*
X85020190Y-135452380D01*
X85115428Y-135404761D01*
X85163047Y-135309523D01*
X85163047Y-135261904D01*
X85115428Y-135166666D01*
X85020190Y-135119047D01*
X84877333Y-135119047D01*
X84782095Y-135071428D01*
X84734476Y-134976190D01*
X84734476Y-134928571D01*
X84782095Y-134833333D01*
X84877333Y-134785714D01*
X85020190Y-134785714D01*
X85115428Y-134833333D01*
X85591619Y-135357142D02*
X85639238Y-135404761D01*
X85591619Y-135452380D01*
X85544000Y-135404761D01*
X85591619Y-135357142D01*
X85591619Y-135452380D01*
X85591619Y-134833333D02*
X85639238Y-134880952D01*
X85591619Y-134928571D01*
X85544000Y-134880952D01*
X85591619Y-134833333D01*
X85591619Y-134928571D01*
X86782095Y-134404761D02*
X85924952Y-135690476D01*
X87829714Y-134404761D02*
X86972571Y-135690476D01*
X88591619Y-134785714D02*
X88591619Y-135595238D01*
X88544000Y-135690476D01*
X88496380Y-135738095D01*
X88401142Y-135785714D01*
X88258285Y-135785714D01*
X88163047Y-135738095D01*
X88591619Y-135404761D02*
X88496380Y-135452380D01*
X88305904Y-135452380D01*
X88210666Y-135404761D01*
X88163047Y-135357142D01*
X88115428Y-135261904D01*
X88115428Y-134976190D01*
X88163047Y-134880952D01*
X88210666Y-134833333D01*
X88305904Y-134785714D01*
X88496380Y-134785714D01*
X88591619Y-134833333D01*
X89067809Y-135452380D02*
X89067809Y-134785714D01*
X89067809Y-134452380D02*
X89020190Y-134500000D01*
X89067809Y-134547619D01*
X89115428Y-134500000D01*
X89067809Y-134452380D01*
X89067809Y-134547619D01*
X89401142Y-134785714D02*
X89782095Y-134785714D01*
X89544000Y-134452380D02*
X89544000Y-135309523D01*
X89591619Y-135404761D01*
X89686857Y-135452380D01*
X89782095Y-135452380D01*
X90115428Y-135452380D02*
X90115428Y-134452380D01*
X90544000Y-135452380D02*
X90544000Y-134928571D01*
X90496380Y-134833333D01*
X90401142Y-134785714D01*
X90258285Y-134785714D01*
X90163047Y-134833333D01*
X90115428Y-134880952D01*
X91448761Y-134785714D02*
X91448761Y-135452380D01*
X91020190Y-134785714D02*
X91020190Y-135309523D01*
X91067809Y-135404761D01*
X91163047Y-135452380D01*
X91305904Y-135452380D01*
X91401142Y-135404761D01*
X91448761Y-135357142D01*
X91924952Y-135452380D02*
X91924952Y-134452380D01*
X91924952Y-134833333D02*
X92020190Y-134785714D01*
X92210666Y-134785714D01*
X92305904Y-134833333D01*
X92353523Y-134880952D01*
X92401142Y-134976190D01*
X92401142Y-135261904D01*
X92353523Y-135357142D01*
X92305904Y-135404761D01*
X92210666Y-135452380D01*
X92020190Y-135452380D01*
X91924952Y-135404761D01*
X92829714Y-135357142D02*
X92877333Y-135404761D01*
X92829714Y-135452380D01*
X92782095Y-135404761D01*
X92829714Y-135357142D01*
X92829714Y-135452380D01*
X93734476Y-135404761D02*
X93639238Y-135452380D01*
X93448761Y-135452380D01*
X93353523Y-135404761D01*
X93305904Y-135357142D01*
X93258285Y-135261904D01*
X93258285Y-134976190D01*
X93305904Y-134880952D01*
X93353523Y-134833333D01*
X93448761Y-134785714D01*
X93639238Y-134785714D01*
X93734476Y-134833333D01*
X94305904Y-135452380D02*
X94210666Y-135404761D01*
X94163047Y-135357142D01*
X94115428Y-135261904D01*
X94115428Y-134976190D01*
X94163047Y-134880952D01*
X94210666Y-134833333D01*
X94305904Y-134785714D01*
X94448761Y-134785714D01*
X94544000Y-134833333D01*
X94591619Y-134880952D01*
X94639238Y-134976190D01*
X94639238Y-135261904D01*
X94591619Y-135357142D01*
X94544000Y-135404761D01*
X94448761Y-135452380D01*
X94305904Y-135452380D01*
X95067809Y-135452380D02*
X95067809Y-134785714D01*
X95067809Y-134880952D02*
X95115428Y-134833333D01*
X95210666Y-134785714D01*
X95353523Y-134785714D01*
X95448761Y-134833333D01*
X95496380Y-134928571D01*
X95496380Y-135452380D01*
X95496380Y-134928571D02*
X95544000Y-134833333D01*
X95639238Y-134785714D01*
X95782095Y-134785714D01*
X95877333Y-134833333D01*
X95924952Y-134928571D01*
X95924952Y-135452380D01*
X97115428Y-134404761D02*
X96258285Y-135690476D01*
X97448761Y-135452380D02*
X97448761Y-134785714D01*
X97448761Y-134880952D02*
X97496380Y-134833333D01*
X97591619Y-134785714D01*
X97734476Y-134785714D01*
X97829714Y-134833333D01*
X97877333Y-134928571D01*
X97877333Y-135452380D01*
X97877333Y-134928571D02*
X97924952Y-134833333D01*
X98020190Y-134785714D01*
X98163047Y-134785714D01*
X98258285Y-134833333D01*
X98305904Y-134928571D01*
X98305904Y-135452380D01*
X99210666Y-134785714D02*
X99210666Y-135595238D01*
X99163047Y-135690476D01*
X99115428Y-135738095D01*
X99020190Y-135785714D01*
X98877333Y-135785714D01*
X98782095Y-135738095D01*
X99210666Y-135404761D02*
X99115428Y-135452380D01*
X98924952Y-135452380D01*
X98829714Y-135404761D01*
X98782095Y-135357142D01*
X98734476Y-135261904D01*
X98734476Y-134976190D01*
X98782095Y-134880952D01*
X98829714Y-134833333D01*
X98924952Y-134785714D01*
X99115428Y-134785714D01*
X99210666Y-134833333D01*
X99829714Y-135452380D02*
X99734476Y-135404761D01*
X99686857Y-135357142D01*
X99639238Y-135261904D01*
X99639238Y-134976190D01*
X99686857Y-134880952D01*
X99734476Y-134833333D01*
X99829714Y-134785714D01*
X99972571Y-134785714D01*
X100067809Y-134833333D01*
X100115428Y-134880952D01*
X100163047Y-134976190D01*
X100163047Y-135261904D01*
X100115428Y-135357142D01*
X100067809Y-135404761D01*
X99972571Y-135452380D01*
X99829714Y-135452380D01*
X100972571Y-135404761D02*
X100877333Y-135452380D01*
X100686857Y-135452380D01*
X100591619Y-135404761D01*
X100544000Y-135309523D01*
X100544000Y-134928571D01*
X100591619Y-134833333D01*
X100686857Y-134785714D01*
X100877333Y-134785714D01*
X100972571Y-134833333D01*
X101020190Y-134928571D01*
X101020190Y-135023809D01*
X100544000Y-135119047D01*
X101877333Y-134785714D02*
X101877333Y-135595238D01*
X101829714Y-135690476D01*
X101782095Y-135738095D01*
X101686857Y-135785714D01*
X101544000Y-135785714D01*
X101448761Y-135738095D01*
X101877333Y-135404761D02*
X101782095Y-135452380D01*
X101591619Y-135452380D01*
X101496380Y-135404761D01*
X101448761Y-135357142D01*
X101401142Y-135261904D01*
X101401142Y-134976190D01*
X101448761Y-134880952D01*
X101496380Y-134833333D01*
X101591619Y-134785714D01*
X101782095Y-134785714D01*
X101877333Y-134833333D01*
X102734476Y-135404761D02*
X102639238Y-135452380D01*
X102448761Y-135452380D01*
X102353523Y-135404761D01*
X102305904Y-135309523D01*
X102305904Y-134928571D01*
X102353523Y-134833333D01*
X102448761Y-134785714D01*
X102639238Y-134785714D01*
X102734476Y-134833333D01*
X102782095Y-134928571D01*
X102782095Y-135023809D01*
X102305904Y-135119047D01*
X103353523Y-135452380D02*
X103258285Y-135404761D01*
X103210666Y-135309523D01*
X103210666Y-134452380D01*
X104448761Y-134404761D02*
X103591619Y-135690476D01*
X105163047Y-135404761D02*
X105067809Y-135452380D01*
X104877333Y-135452380D01*
X104782095Y-135404761D01*
X104734476Y-135309523D01*
X104734476Y-134928571D01*
X104782095Y-134833333D01*
X104877333Y-134785714D01*
X105067809Y-134785714D01*
X105163047Y-134833333D01*
X105210666Y-134928571D01*
X105210666Y-135023809D01*
X104734476Y-135119047D01*
X106067809Y-135404761D02*
X105972571Y-135452380D01*
X105782095Y-135452380D01*
X105686857Y-135404761D01*
X105639238Y-135357142D01*
X105591619Y-135261904D01*
X105591619Y-134976190D01*
X105639238Y-134880952D01*
X105686857Y-134833333D01*
X105782095Y-134785714D01*
X105972571Y-134785714D01*
X106067809Y-134833333D01*
X107020190Y-135452380D02*
X106448761Y-135452380D01*
X106734476Y-135452380D02*
X106734476Y-134452380D01*
X106639238Y-134595238D01*
X106544000Y-134690476D01*
X106448761Y-134738095D01*
X107591619Y-134880952D02*
X107496380Y-134833333D01*
X107448761Y-134785714D01*
X107401142Y-134690476D01*
X107401142Y-134642857D01*
X107448761Y-134547619D01*
X107496380Y-134500000D01*
X107591619Y-134452380D01*
X107782095Y-134452380D01*
X107877333Y-134500000D01*
X107924952Y-134547619D01*
X107972571Y-134642857D01*
X107972571Y-134690476D01*
X107924952Y-134785714D01*
X107877333Y-134833333D01*
X107782095Y-134880952D01*
X107591619Y-134880952D01*
X107496380Y-134928571D01*
X107448761Y-134976190D01*
X107401142Y-135071428D01*
X107401142Y-135261904D01*
X107448761Y-135357142D01*
X107496380Y-135404761D01*
X107591619Y-135452380D01*
X107782095Y-135452380D01*
X107877333Y-135404761D01*
X107924952Y-135357142D01*
X107972571Y-135261904D01*
X107972571Y-135071428D01*
X107924952Y-134976190D01*
X107877333Y-134928571D01*
X107782095Y-134880952D01*
X108305904Y-134452380D02*
X108924952Y-134452380D01*
X108591619Y-134833333D01*
X108734476Y-134833333D01*
X108829714Y-134880952D01*
X108877333Y-134928571D01*
X108924952Y-135023809D01*
X108924952Y-135261904D01*
X108877333Y-135357142D01*
X108829714Y-135404761D01*
X108734476Y-135452380D01*
X108448761Y-135452380D01*
X108353523Y-135404761D01*
X108305904Y-135357142D01*
X109782095Y-134785714D02*
X109782095Y-135452380D01*
X109544000Y-134404761D02*
X109305904Y-135119047D01*
X109924952Y-135119047D01*
X110305904Y-135071428D02*
X111067809Y-135071428D01*
X111544000Y-134785714D02*
X111544000Y-135785714D01*
X111544000Y-134833333D02*
X111639238Y-134785714D01*
X111829714Y-134785714D01*
X111924952Y-134833333D01*
X111972571Y-134880952D01*
X112020190Y-134976190D01*
X112020190Y-135261904D01*
X111972571Y-135357142D01*
X111924952Y-135404761D01*
X111829714Y-135452380D01*
X111639238Y-135452380D01*
X111544000Y-135404761D01*
X112591619Y-135452380D02*
X112496380Y-135404761D01*
X112448761Y-135357142D01*
X112401142Y-135261904D01*
X112401142Y-134976190D01*
X112448761Y-134880952D01*
X112496380Y-134833333D01*
X112591619Y-134785714D01*
X112734476Y-134785714D01*
X112829714Y-134833333D01*
X112877333Y-134880952D01*
X112924952Y-134976190D01*
X112924952Y-135261904D01*
X112877333Y-135357142D01*
X112829714Y-135404761D01*
X112734476Y-135452380D01*
X112591619Y-135452380D01*
X113305904Y-135404761D02*
X113401142Y-135452380D01*
X113591619Y-135452380D01*
X113686857Y-135404761D01*
X113734476Y-135309523D01*
X113734476Y-135261904D01*
X113686857Y-135166666D01*
X113591619Y-135119047D01*
X113448761Y-135119047D01*
X113353523Y-135071428D01*
X113305904Y-134976190D01*
X113305904Y-134928571D01*
X113353523Y-134833333D01*
X113448761Y-134785714D01*
X113591619Y-134785714D01*
X113686857Y-134833333D01*
X114020190Y-134785714D02*
X114401142Y-134785714D01*
X114163047Y-134452380D02*
X114163047Y-135309523D01*
X114210666Y-135404761D01*
X114305904Y-135452380D01*
X114401142Y-135452380D01*
D12*
X101798571Y-58670000D02*
X102512857Y-58670000D01*
X101655714Y-59098571D02*
X102155714Y-57598571D01*
X102655714Y-59098571D01*
X103227142Y-59098571D02*
X103512857Y-59098571D01*
X103655714Y-59027142D01*
X103727142Y-58955714D01*
X103870000Y-58741428D01*
X103941428Y-58455714D01*
X103941428Y-57884285D01*
X103870000Y-57741428D01*
X103798571Y-57670000D01*
X103655714Y-57598571D01*
X103370000Y-57598571D01*
X103227142Y-57670000D01*
X103155714Y-57741428D01*
X103084285Y-57884285D01*
X103084285Y-58241428D01*
X103155714Y-58384285D01*
X103227142Y-58455714D01*
X103370000Y-58527142D01*
X103655714Y-58527142D01*
X103798571Y-58455714D01*
X103870000Y-58384285D01*
X103941428Y-58241428D01*
X101798571Y-61210000D02*
X102512857Y-61210000D01*
X101655714Y-61638571D02*
X102155714Y-60138571D01*
X102655714Y-61638571D01*
X103370000Y-60781428D02*
X103227142Y-60710000D01*
X103155714Y-60638571D01*
X103084285Y-60495714D01*
X103084285Y-60424285D01*
X103155714Y-60281428D01*
X103227142Y-60210000D01*
X103370000Y-60138571D01*
X103655714Y-60138571D01*
X103798571Y-60210000D01*
X103870000Y-60281428D01*
X103941428Y-60424285D01*
X103941428Y-60495714D01*
X103870000Y-60638571D01*
X103798571Y-60710000D01*
X103655714Y-60781428D01*
X103370000Y-60781428D01*
X103227142Y-60852857D01*
X103155714Y-60924285D01*
X103084285Y-61067142D01*
X103084285Y-61352857D01*
X103155714Y-61495714D01*
X103227142Y-61567142D01*
X103370000Y-61638571D01*
X103655714Y-61638571D01*
X103798571Y-61567142D01*
X103870000Y-61495714D01*
X103941428Y-61352857D01*
X103941428Y-61067142D01*
X103870000Y-60924285D01*
X103798571Y-60852857D01*
X103655714Y-60781428D01*
X101798571Y-63750000D02*
X102512857Y-63750000D01*
X101655714Y-64178571D02*
X102155714Y-62678571D01*
X102655714Y-64178571D01*
X103012857Y-62678571D02*
X104012857Y-62678571D01*
X103370000Y-64178571D01*
X101798571Y-66290000D02*
X102512857Y-66290000D01*
X101655714Y-66718571D02*
X102155714Y-65218571D01*
X102655714Y-66718571D01*
X103798571Y-65218571D02*
X103512857Y-65218571D01*
X103370000Y-65290000D01*
X103298571Y-65361428D01*
X103155714Y-65575714D01*
X103084285Y-65861428D01*
X103084285Y-66432857D01*
X103155714Y-66575714D01*
X103227142Y-66647142D01*
X103370000Y-66718571D01*
X103655714Y-66718571D01*
X103798571Y-66647142D01*
X103870000Y-66575714D01*
X103941428Y-66432857D01*
X103941428Y-66075714D01*
X103870000Y-65932857D01*
X103798571Y-65861428D01*
X103655714Y-65790000D01*
X103370000Y-65790000D01*
X103227142Y-65861428D01*
X103155714Y-65932857D01*
X103084285Y-66075714D01*
X101798571Y-68830000D02*
X102512857Y-68830000D01*
X101655714Y-69258571D02*
X102155714Y-67758571D01*
X102655714Y-69258571D01*
X103870000Y-67758571D02*
X103155714Y-67758571D01*
X103084285Y-68472857D01*
X103155714Y-68401428D01*
X103298571Y-68330000D01*
X103655714Y-68330000D01*
X103798571Y-68401428D01*
X103870000Y-68472857D01*
X103941428Y-68615714D01*
X103941428Y-68972857D01*
X103870000Y-69115714D01*
X103798571Y-69187142D01*
X103655714Y-69258571D01*
X103298571Y-69258571D01*
X103155714Y-69187142D01*
X103084285Y-69115714D01*
X101798571Y-71370000D02*
X102512857Y-71370000D01*
X101655714Y-71798571D02*
X102155714Y-70298571D01*
X102655714Y-71798571D01*
X103798571Y-70798571D02*
X103798571Y-71798571D01*
X103441428Y-70227142D02*
X103084285Y-71298571D01*
X104012857Y-71298571D01*
X101798571Y-73910000D02*
X102512857Y-73910000D01*
X101655714Y-74338571D02*
X102155714Y-72838571D01*
X102655714Y-74338571D01*
X103012857Y-72838571D02*
X103941428Y-72838571D01*
X103441428Y-73410000D01*
X103655714Y-73410000D01*
X103798571Y-73481428D01*
X103870000Y-73552857D01*
X103941428Y-73695714D01*
X103941428Y-74052857D01*
X103870000Y-74195714D01*
X103798571Y-74267142D01*
X103655714Y-74338571D01*
X103227142Y-74338571D01*
X103084285Y-74267142D01*
X103012857Y-74195714D01*
X101798571Y-76450000D02*
X102512857Y-76450000D01*
X101655714Y-76878571D02*
X102155714Y-75378571D01*
X102655714Y-76878571D01*
X103084285Y-75521428D02*
X103155714Y-75450000D01*
X103298571Y-75378571D01*
X103655714Y-75378571D01*
X103798571Y-75450000D01*
X103870000Y-75521428D01*
X103941428Y-75664285D01*
X103941428Y-75807142D01*
X103870000Y-76021428D01*
X103012857Y-76878571D01*
X103941428Y-76878571D01*
X101798571Y-79040800D02*
X102512857Y-79040800D01*
X101655714Y-79469371D02*
X102155714Y-77969371D01*
X102655714Y-79469371D01*
X103941428Y-79469371D02*
X103084285Y-79469371D01*
X103512857Y-79469371D02*
X103512857Y-77969371D01*
X103370000Y-78183657D01*
X103227142Y-78326514D01*
X103084285Y-78397942D01*
X101849371Y-81580800D02*
X102563657Y-81580800D01*
X101706514Y-82009371D02*
X102206514Y-80509371D01*
X102706514Y-82009371D01*
X103492228Y-80509371D02*
X103635085Y-80509371D01*
X103777942Y-80580800D01*
X103849371Y-80652228D01*
X103920800Y-80795085D01*
X103992228Y-81080800D01*
X103992228Y-81437942D01*
X103920800Y-81723657D01*
X103849371Y-81866514D01*
X103777942Y-81937942D01*
X103635085Y-82009371D01*
X103492228Y-82009371D01*
X103349371Y-81937942D01*
X103277942Y-81866514D01*
X103206514Y-81723657D01*
X103135085Y-81437942D01*
X103135085Y-81080800D01*
X103206514Y-80795085D01*
X103277942Y-80652228D01*
X103349371Y-80580800D01*
X103492228Y-80509371D01*
D13*
X160821619Y-64857523D02*
X159821619Y-65095619D01*
X160535904Y-65286095D01*
X159821619Y-65476571D01*
X160821619Y-65714666D01*
X159821619Y-66095619D02*
X160488285Y-66095619D01*
X160297809Y-66095619D02*
X160393047Y-66143238D01*
X160440666Y-66190857D01*
X160488285Y-66286095D01*
X160488285Y-66381333D01*
X159821619Y-66714666D02*
X160488285Y-66714666D01*
X160821619Y-66714666D02*
X160774000Y-66667047D01*
X160726380Y-66714666D01*
X160774000Y-66762285D01*
X160821619Y-66714666D01*
X160726380Y-66714666D01*
X160488285Y-67048000D02*
X160488285Y-67428952D01*
X160821619Y-67190857D02*
X159964476Y-67190857D01*
X159869238Y-67238476D01*
X159821619Y-67333714D01*
X159821619Y-67428952D01*
X159869238Y-68143238D02*
X159821619Y-68048000D01*
X159821619Y-67857523D01*
X159869238Y-67762285D01*
X159964476Y-67714666D01*
X160345428Y-67714666D01*
X160440666Y-67762285D01*
X160488285Y-67857523D01*
X160488285Y-68048000D01*
X160440666Y-68143238D01*
X160345428Y-68190857D01*
X160250190Y-68190857D01*
X160154952Y-67714666D01*
X159821619Y-70096190D02*
X160297809Y-69762857D01*
X159821619Y-69524761D02*
X160821619Y-69524761D01*
X160821619Y-69905714D01*
X160774000Y-70000952D01*
X160726380Y-70048571D01*
X160631142Y-70096190D01*
X160488285Y-70096190D01*
X160393047Y-70048571D01*
X160345428Y-70000952D01*
X160297809Y-69905714D01*
X160297809Y-69524761D01*
X159869238Y-70905714D02*
X159821619Y-70810476D01*
X159821619Y-70620000D01*
X159869238Y-70524761D01*
X159964476Y-70477142D01*
X160345428Y-70477142D01*
X160440666Y-70524761D01*
X160488285Y-70620000D01*
X160488285Y-70810476D01*
X160440666Y-70905714D01*
X160345428Y-70953333D01*
X160250190Y-70953333D01*
X160154952Y-70477142D01*
X159821619Y-71810476D02*
X160345428Y-71810476D01*
X160440666Y-71762857D01*
X160488285Y-71667619D01*
X160488285Y-71477142D01*
X160440666Y-71381904D01*
X159869238Y-71810476D02*
X159821619Y-71715238D01*
X159821619Y-71477142D01*
X159869238Y-71381904D01*
X159964476Y-71334285D01*
X160059714Y-71334285D01*
X160154952Y-71381904D01*
X160202571Y-71477142D01*
X160202571Y-71715238D01*
X160250190Y-71810476D01*
X159821619Y-72715238D02*
X160821619Y-72715238D01*
X159869238Y-72715238D02*
X159821619Y-72620000D01*
X159821619Y-72429523D01*
X159869238Y-72334285D01*
X159916857Y-72286666D01*
X160012095Y-72239047D01*
X160297809Y-72239047D01*
X160393047Y-72286666D01*
X160440666Y-72334285D01*
X160488285Y-72429523D01*
X160488285Y-72620000D01*
X160440666Y-72715238D01*
D14*
%TO.C,JMPR*%
X93412000Y-82814000D02*
X96072000Y-82814000D01*
X93412000Y-59894000D02*
X93412000Y-82814000D01*
X96072000Y-59894000D02*
X96072000Y-82814000D01*
X93412000Y-59894000D02*
X96072000Y-59894000D01*
X93412000Y-58624000D02*
X93412000Y-57294000D01*
X93412000Y-57294000D02*
X94742000Y-57294000D01*
%TO.C,U4*%
X129493500Y-121408500D02*
X131143500Y-121408500D01*
X129493500Y-95888500D02*
X129493500Y-121408500D01*
X134793500Y-95888500D02*
X129493500Y-95888500D01*
X134793500Y-121408500D02*
X134793500Y-95888500D01*
X133143500Y-121408500D02*
X134793500Y-121408500D01*
X131143500Y-121408500D02*
G75*
G02*
X133143500Y-121408500I1000000J0D01*
G01*
%TO.C,RN5*%
X148974000Y-68562400D02*
X146174000Y-68562400D01*
X146174000Y-68562400D02*
X146174000Y-89222400D01*
X146174000Y-89222400D02*
X148974000Y-89222400D01*
X148974000Y-89222400D02*
X148974000Y-68562400D01*
X148974000Y-71272400D02*
X146174000Y-71272400D01*
%TO.C,RN4*%
X144300400Y-68613200D02*
X141500400Y-68613200D01*
X141500400Y-68613200D02*
X141500400Y-89273200D01*
X141500400Y-89273200D02*
X144300400Y-89273200D01*
X144300400Y-89273200D02*
X144300400Y-68613200D01*
X144300400Y-71323200D02*
X141500400Y-71323200D01*
%TO.C,RN3*%
X135918400Y-68562400D02*
X133118400Y-68562400D01*
X133118400Y-68562400D02*
X133118400Y-89222400D01*
X133118400Y-89222400D02*
X135918400Y-89222400D01*
X135918400Y-89222400D02*
X135918400Y-68562400D01*
X135918400Y-71272400D02*
X133118400Y-71272400D01*
%TO.C,RN2*%
X140642800Y-68613200D02*
X137842800Y-68613200D01*
X137842800Y-68613200D02*
X137842800Y-89273200D01*
X137842800Y-89273200D02*
X140642800Y-89273200D01*
X140642800Y-89273200D02*
X140642800Y-68613200D01*
X140642800Y-71323200D02*
X137842800Y-71323200D01*
%TO.C,RN1*%
X89695480Y-56964760D02*
X86895480Y-56964760D01*
X86895480Y-56964760D02*
X86895480Y-80164760D01*
X86895480Y-80164760D02*
X89695480Y-80164760D01*
X89695480Y-80164760D02*
X89695480Y-56964760D01*
X89695480Y-59674760D02*
X86895480Y-59674760D01*
%TO.C,R6*%
X91827600Y-91492400D02*
X91827600Y-94232400D01*
X91827600Y-94232400D02*
X98367600Y-94232400D01*
X98367600Y-94232400D02*
X98367600Y-91492400D01*
X98367600Y-91492400D02*
X91827600Y-91492400D01*
X91057600Y-92862400D02*
X91827600Y-92862400D01*
X99137600Y-92862400D02*
X98367600Y-92862400D01*
%TO.C,R5*%
X98367600Y-100430000D02*
X98367600Y-97690000D01*
X98367600Y-97690000D02*
X91827600Y-97690000D01*
X91827600Y-97690000D02*
X91827600Y-100430000D01*
X91827600Y-100430000D02*
X98367600Y-100430000D01*
X99137600Y-99060000D02*
X98367600Y-99060000D01*
X91057600Y-99060000D02*
X91827600Y-99060000D01*
%TO.C,R4*%
X98367600Y-97331200D02*
X98367600Y-94591200D01*
X98367600Y-94591200D02*
X91827600Y-94591200D01*
X91827600Y-94591200D02*
X91827600Y-97331200D01*
X91827600Y-97331200D02*
X98367600Y-97331200D01*
X99137600Y-95961200D02*
X98367600Y-95961200D01*
X91057600Y-95961200D02*
X91827600Y-95961200D01*
%TO.C,R3*%
X83237400Y-78494640D02*
X85977400Y-78494640D01*
X85977400Y-78494640D02*
X85977400Y-71954640D01*
X85977400Y-71954640D02*
X83237400Y-71954640D01*
X83237400Y-71954640D02*
X83237400Y-78494640D01*
X84607400Y-79264640D02*
X84607400Y-78494640D01*
X84607400Y-71184640D02*
X84607400Y-71954640D01*
%TO.C,R2*%
X83237400Y-66094360D02*
X85977400Y-66094360D01*
X85977400Y-66094360D02*
X85977400Y-59554360D01*
X85977400Y-59554360D02*
X83237400Y-59554360D01*
X83237400Y-59554360D02*
X83237400Y-66094360D01*
X84607400Y-66864360D02*
X84607400Y-66094360D01*
X84607400Y-58784360D02*
X84607400Y-59554360D01*
%TO.C,R1*%
X85052840Y-111619280D02*
X82312840Y-111619280D01*
X82312840Y-111619280D02*
X82312840Y-118159280D01*
X82312840Y-118159280D02*
X85052840Y-118159280D01*
X85052840Y-118159280D02*
X85052840Y-111619280D01*
X83682840Y-110849280D02*
X83682840Y-111619280D01*
X83682840Y-118929280D02*
X83682840Y-118159280D01*
%TO.C,Q2*%
X101050878Y-116627122D02*
G75*
G03*
X96612400Y-118465600I-1838478J-1838478D01*
G01*
X101050878Y-120304078D02*
G75*
G02*
X96612400Y-118465600I-1838478J1838478D01*
G01*
X101062400Y-120265600D02*
X101062400Y-116665600D01*
%TO.C,Q1*%
X101254078Y-109464322D02*
G75*
G03*
X96815600Y-111302800I-1838478J-1838478D01*
G01*
X101254078Y-113141278D02*
G75*
G02*
X96815600Y-111302800I-1838478J1838478D01*
G01*
X101265600Y-113102800D02*
X101265600Y-109502800D01*
%TO.C,J0*%
X164354000Y-153001000D02*
X164354000Y-147441000D01*
X164354000Y-147441000D02*
X158834000Y-147441000D01*
X158834000Y-147441000D02*
X158834000Y-148441000D01*
X69834000Y-153001000D02*
X69834000Y-147441000D01*
X69834000Y-147441000D02*
X75354000Y-147441000D01*
X75354000Y-147441000D02*
X75354000Y-148441000D01*
X158835000Y-148441000D02*
X157559000Y-148441000D01*
X155369000Y-148441000D02*
X154793000Y-148441000D01*
X153054000Y-148441000D02*
X152253000Y-148441000D01*
X150514000Y-148441000D02*
X149713000Y-148441000D01*
X147974000Y-148441000D02*
X147173000Y-148441000D01*
X145434000Y-148441000D02*
X144633000Y-148441000D01*
X142894000Y-148441000D02*
X142093000Y-148441000D01*
X140354000Y-148441000D02*
X139553000Y-148441000D01*
X137814000Y-148441000D02*
X137013000Y-148441000D01*
X135274000Y-148441000D02*
X134473000Y-148441000D01*
X132734000Y-148441000D02*
X131933000Y-148441000D01*
X130194000Y-148441000D02*
X129393000Y-148441000D01*
X127654000Y-148441000D02*
X126853000Y-148441000D01*
X125114000Y-148441000D02*
X124313000Y-148441000D01*
X122574000Y-148441000D02*
X121773000Y-148441000D01*
X120034000Y-148441000D02*
X119233000Y-148441000D01*
X117494000Y-148441000D02*
X116693000Y-148441000D01*
X114954000Y-148441000D02*
X114153000Y-148441000D01*
X112414000Y-148441000D02*
X111613000Y-148441000D01*
X109874000Y-148441000D02*
X109073000Y-148441000D01*
X107334000Y-148441000D02*
X106533000Y-148441000D01*
X104794000Y-148441000D02*
X103993000Y-148441000D01*
X102254000Y-148441000D02*
X101453000Y-148441000D01*
X99714000Y-148441000D02*
X98913000Y-148441000D01*
X97174000Y-148441000D02*
X96373000Y-148441000D01*
X94634000Y-148441000D02*
X93833000Y-148441000D01*
X92094000Y-148441000D02*
X91293000Y-148441000D01*
X89554000Y-148441000D02*
X88753000Y-148441000D01*
X87014000Y-148441000D02*
X86213000Y-148441000D01*
X84474000Y-148441000D02*
X83673000Y-148441000D01*
X81934000Y-148441000D02*
X81133000Y-148441000D01*
X79394000Y-148441000D02*
X78593000Y-148441000D01*
X76854000Y-148441000D02*
X75354000Y-148441000D01*
X157559000Y-147701000D02*
X158159000Y-148001000D01*
X158159000Y-148001000D02*
X158159000Y-147401000D01*
X158159000Y-147401000D02*
X157559000Y-147701000D01*
%TO.C,U3*%
X75676000Y-74990000D02*
X77326000Y-74990000D01*
X77326000Y-74990000D02*
X77326000Y-57090000D01*
X77326000Y-57090000D02*
X72026000Y-57090000D01*
X72026000Y-57090000D02*
X72026000Y-74990000D01*
X72026000Y-74990000D02*
X73676000Y-74990000D01*
X73676000Y-74990000D02*
G75*
G02*
X75676000Y-74990000I1000000J0D01*
G01*
%TO.C,U5*%
X107205000Y-85086500D02*
X112665000Y-85086500D01*
X107205000Y-54486500D02*
X107205000Y-85086500D01*
X120125000Y-54486500D02*
X107205000Y-54486500D01*
X120125000Y-85086500D02*
X120125000Y-54486500D01*
X114665000Y-85086500D02*
X120125000Y-85086500D01*
X112665000Y-85086500D02*
G75*
G02*
X114665000Y-85086500I1000000J0D01*
G01*
%TO.C,C4*%
X130127000Y-122659000D02*
X130127000Y-125499000D01*
X130127000Y-125499000D02*
X134167000Y-125499000D01*
X134167000Y-125499000D02*
X134167000Y-122659000D01*
X134167000Y-122659000D02*
X130127000Y-122659000D01*
X129437000Y-124079000D02*
X130127000Y-124079000D01*
X134857000Y-124079000D02*
X134167000Y-124079000D01*
%TO.C,U9*%
X142135000Y-121408500D02*
X143785000Y-121408500D01*
X142135000Y-95888500D02*
X142135000Y-121408500D01*
X147435000Y-95888500D02*
X142135000Y-95888500D01*
X147435000Y-121408500D02*
X147435000Y-95888500D01*
X145785000Y-121408500D02*
X147435000Y-121408500D01*
X143785000Y-121408500D02*
G75*
G02*
X145785000Y-121408500I1000000J0D01*
G01*
%TO.C,C8*%
X147430000Y-124079000D02*
X146740000Y-124079000D01*
X142010000Y-124079000D02*
X142700000Y-124079000D01*
X146740000Y-122659000D02*
X142700000Y-122659000D01*
X146740000Y-125499000D02*
X146740000Y-122659000D01*
X142700000Y-125499000D02*
X146740000Y-125499000D01*
X142700000Y-122659000D02*
X142700000Y-125499000D01*
%TO.C,C7*%
X74417000Y-136240759D02*
X73787000Y-136240759D01*
X74102000Y-135925759D02*
X74102000Y-136555759D01*
X72665000Y-142667000D02*
X71861000Y-142667000D01*
X72896000Y-142627000D02*
X71630000Y-142627000D01*
X73065000Y-142587000D02*
X71461000Y-142587000D01*
X73203000Y-142547000D02*
X71323000Y-142547000D01*
X73322000Y-142507000D02*
X71204000Y-142507000D01*
X73428000Y-142467000D02*
X71098000Y-142467000D01*
X73525000Y-142427000D02*
X71001000Y-142427000D01*
X73613000Y-142387000D02*
X70913000Y-142387000D01*
X73695000Y-142347000D02*
X70831000Y-142347000D01*
X73772000Y-142307000D02*
X70754000Y-142307000D01*
X73844000Y-142267000D02*
X70682000Y-142267000D01*
X73913000Y-142227000D02*
X70613000Y-142227000D01*
X73977000Y-142187000D02*
X70549000Y-142187000D01*
X74039000Y-142147000D02*
X70487000Y-142147000D01*
X74097000Y-142107000D02*
X70429000Y-142107000D01*
X74153000Y-142067000D02*
X70373000Y-142067000D01*
X74207000Y-142027000D02*
X70319000Y-142027000D01*
X74258000Y-141987000D02*
X70268000Y-141987000D01*
X74307000Y-141947000D02*
X70219000Y-141947000D01*
X74355000Y-141907000D02*
X70171000Y-141907000D01*
X74400000Y-141867000D02*
X70126000Y-141867000D01*
X74445000Y-141827000D02*
X70081000Y-141827000D01*
X74487000Y-141787000D02*
X70039000Y-141787000D01*
X74528000Y-141747000D02*
X69998000Y-141747000D01*
X71223000Y-141707000D02*
X69958000Y-141707000D01*
X74568000Y-141707000D02*
X73303000Y-141707000D01*
X71223000Y-141667000D02*
X69920000Y-141667000D01*
X74606000Y-141667000D02*
X73303000Y-141667000D01*
X71223000Y-141627000D02*
X69883000Y-141627000D01*
X74643000Y-141627000D02*
X73303000Y-141627000D01*
X71223000Y-141587000D02*
X69847000Y-141587000D01*
X74679000Y-141587000D02*
X73303000Y-141587000D01*
X71223000Y-141547000D02*
X69813000Y-141547000D01*
X74713000Y-141547000D02*
X73303000Y-141547000D01*
X71223000Y-141507000D02*
X69779000Y-141507000D01*
X74747000Y-141507000D02*
X73303000Y-141507000D01*
X71223000Y-141467000D02*
X69747000Y-141467000D01*
X74779000Y-141467000D02*
X73303000Y-141467000D01*
X71223000Y-141427000D02*
X69715000Y-141427000D01*
X74811000Y-141427000D02*
X73303000Y-141427000D01*
X71223000Y-141387000D02*
X69685000Y-141387000D01*
X74841000Y-141387000D02*
X73303000Y-141387000D01*
X71223000Y-141347000D02*
X69656000Y-141347000D01*
X74870000Y-141347000D02*
X73303000Y-141347000D01*
X71223000Y-141307000D02*
X69627000Y-141307000D01*
X74899000Y-141307000D02*
X73303000Y-141307000D01*
X71223000Y-141267000D02*
X69599000Y-141267000D01*
X74927000Y-141267000D02*
X73303000Y-141267000D01*
X71223000Y-141227000D02*
X69573000Y-141227000D01*
X74953000Y-141227000D02*
X73303000Y-141227000D01*
X71223000Y-141187000D02*
X69547000Y-141187000D01*
X74979000Y-141187000D02*
X73303000Y-141187000D01*
X71223000Y-141147000D02*
X69521000Y-141147000D01*
X75005000Y-141147000D02*
X73303000Y-141147000D01*
X71223000Y-141107000D02*
X69497000Y-141107000D01*
X75029000Y-141107000D02*
X73303000Y-141107000D01*
X71223000Y-141067000D02*
X69473000Y-141067000D01*
X75053000Y-141067000D02*
X73303000Y-141067000D01*
X71223000Y-141027000D02*
X69451000Y-141027000D01*
X75075000Y-141027000D02*
X73303000Y-141027000D01*
X71223000Y-140987000D02*
X69429000Y-140987000D01*
X75097000Y-140987000D02*
X73303000Y-140987000D01*
X71223000Y-140947000D02*
X69407000Y-140947000D01*
X75119000Y-140947000D02*
X73303000Y-140947000D01*
X71223000Y-140907000D02*
X69387000Y-140907000D01*
X75139000Y-140907000D02*
X73303000Y-140907000D01*
X71223000Y-140867000D02*
X69367000Y-140867000D01*
X75159000Y-140867000D02*
X73303000Y-140867000D01*
X71223000Y-140827000D02*
X69347000Y-140827000D01*
X75179000Y-140827000D02*
X73303000Y-140827000D01*
X71223000Y-140787000D02*
X69329000Y-140787000D01*
X75197000Y-140787000D02*
X73303000Y-140787000D01*
X71223000Y-140747000D02*
X69311000Y-140747000D01*
X75215000Y-140747000D02*
X73303000Y-140747000D01*
X71223000Y-140707000D02*
X69293000Y-140707000D01*
X75233000Y-140707000D02*
X73303000Y-140707000D01*
X71223000Y-140667000D02*
X69277000Y-140667000D01*
X75249000Y-140667000D02*
X73303000Y-140667000D01*
X71223000Y-140627000D02*
X69261000Y-140627000D01*
X75265000Y-140627000D02*
X73303000Y-140627000D01*
X71223000Y-140587000D02*
X69245000Y-140587000D01*
X75281000Y-140587000D02*
X73303000Y-140587000D01*
X71223000Y-140547000D02*
X69230000Y-140547000D01*
X75296000Y-140547000D02*
X73303000Y-140547000D01*
X71223000Y-140507000D02*
X69216000Y-140507000D01*
X75310000Y-140507000D02*
X73303000Y-140507000D01*
X71223000Y-140467000D02*
X69202000Y-140467000D01*
X75324000Y-140467000D02*
X73303000Y-140467000D01*
X71223000Y-140427000D02*
X69189000Y-140427000D01*
X75337000Y-140427000D02*
X73303000Y-140427000D01*
X71223000Y-140387000D02*
X69177000Y-140387000D01*
X75349000Y-140387000D02*
X73303000Y-140387000D01*
X71223000Y-140347000D02*
X69165000Y-140347000D01*
X75361000Y-140347000D02*
X73303000Y-140347000D01*
X71223000Y-140307000D02*
X69153000Y-140307000D01*
X75373000Y-140307000D02*
X73303000Y-140307000D01*
X71223000Y-140267000D02*
X69142000Y-140267000D01*
X75384000Y-140267000D02*
X73303000Y-140267000D01*
X71223000Y-140227000D02*
X69132000Y-140227000D01*
X75394000Y-140227000D02*
X73303000Y-140227000D01*
X71223000Y-140187000D02*
X69122000Y-140187000D01*
X75404000Y-140187000D02*
X73303000Y-140187000D01*
X71223000Y-140147000D02*
X69113000Y-140147000D01*
X75413000Y-140147000D02*
X73303000Y-140147000D01*
X71223000Y-140106000D02*
X69104000Y-140106000D01*
X75422000Y-140106000D02*
X73303000Y-140106000D01*
X71223000Y-140066000D02*
X69096000Y-140066000D01*
X75430000Y-140066000D02*
X73303000Y-140066000D01*
X71223000Y-140026000D02*
X69088000Y-140026000D01*
X75438000Y-140026000D02*
X73303000Y-140026000D01*
X71223000Y-139986000D02*
X69081000Y-139986000D01*
X75445000Y-139986000D02*
X73303000Y-139986000D01*
X71223000Y-139946000D02*
X69074000Y-139946000D01*
X75452000Y-139946000D02*
X73303000Y-139946000D01*
X71223000Y-139906000D02*
X69068000Y-139906000D01*
X75458000Y-139906000D02*
X73303000Y-139906000D01*
X71223000Y-139866000D02*
X69062000Y-139866000D01*
X75464000Y-139866000D02*
X73303000Y-139866000D01*
X71223000Y-139826000D02*
X69057000Y-139826000D01*
X75469000Y-139826000D02*
X73303000Y-139826000D01*
X71223000Y-139786000D02*
X69052000Y-139786000D01*
X75474000Y-139786000D02*
X73303000Y-139786000D01*
X71223000Y-139746000D02*
X69048000Y-139746000D01*
X75478000Y-139746000D02*
X73303000Y-139746000D01*
X71223000Y-139706000D02*
X69045000Y-139706000D01*
X75481000Y-139706000D02*
X73303000Y-139706000D01*
X71223000Y-139666000D02*
X69041000Y-139666000D01*
X75485000Y-139666000D02*
X73303000Y-139666000D01*
X75487000Y-139626000D02*
X69039000Y-139626000D01*
X75490000Y-139586000D02*
X69036000Y-139586000D01*
X75491000Y-139546000D02*
X69035000Y-139546000D01*
X75493000Y-139506000D02*
X69033000Y-139506000D01*
X75493000Y-139466000D02*
X69033000Y-139466000D01*
X75493000Y-139426000D02*
X69033000Y-139426000D01*
X75533000Y-139426000D02*
G75*
G03*
X75533000Y-139426000I-3270000J0D01*
G01*
%TO.C,C6*%
X107775000Y-122659000D02*
X107775000Y-125499000D01*
X107775000Y-125499000D02*
X111815000Y-125499000D01*
X111815000Y-125499000D02*
X111815000Y-122659000D01*
X111815000Y-122659000D02*
X107775000Y-122659000D01*
X107085000Y-124079000D02*
X107775000Y-124079000D01*
X112505000Y-124079000D02*
X111815000Y-124079000D01*
%TO.C,C5*%
X107775000Y-86337000D02*
X107775000Y-89177000D01*
X107775000Y-89177000D02*
X111815000Y-89177000D01*
X111815000Y-89177000D02*
X111815000Y-86337000D01*
X111815000Y-86337000D02*
X107775000Y-86337000D01*
X107085000Y-87757000D02*
X107775000Y-87757000D01*
X112505000Y-87757000D02*
X111815000Y-87757000D01*
%TO.C,J4*%
X155642000Y-115630000D02*
X160842000Y-115630000D01*
X155642000Y-102870000D02*
X155642000Y-115630000D01*
X160842000Y-100270000D02*
X160842000Y-115630000D01*
X155642000Y-102870000D02*
X158242000Y-102870000D01*
X158242000Y-102870000D02*
X158242000Y-100270000D01*
X158242000Y-100270000D02*
X160842000Y-100270000D01*
X155642000Y-101600000D02*
X155642000Y-100270000D01*
X155642000Y-100270000D02*
X156972000Y-100270000D01*
%TO.C,J3*%
X155642000Y-72450000D02*
X158302000Y-72450000D01*
X155642000Y-67310000D02*
X155642000Y-72450000D01*
X158302000Y-67310000D02*
X158302000Y-72450000D01*
X155642000Y-67310000D02*
X158302000Y-67310000D01*
X155642000Y-66040000D02*
X155642000Y-64710000D01*
X155642000Y-64710000D02*
X156972000Y-64710000D01*
%TO.C,J2*%
X155642000Y-95310000D02*
X160842000Y-95310000D01*
X155642000Y-80010000D02*
X155642000Y-95310000D01*
X160842000Y-77410000D02*
X160842000Y-95310000D01*
X155642000Y-80010000D02*
X158242000Y-80010000D01*
X158242000Y-80010000D02*
X158242000Y-77410000D01*
X158242000Y-77410000D02*
X160842000Y-77410000D01*
X155642000Y-78740000D02*
X155642000Y-77410000D01*
X155642000Y-77410000D02*
X156972000Y-77410000D01*
%TO.C,U8*%
X141088000Y-54244000D02*
X142288000Y-54244000D01*
X141088000Y-55444000D02*
X141088000Y-54244000D01*
X151668000Y-54604000D02*
X141448000Y-54604000D01*
X141448000Y-54604000D02*
X141448000Y-67824000D01*
X141448000Y-67824000D02*
X151668000Y-67824000D01*
X151668000Y-67824000D02*
X151668000Y-54604000D01*
%TO.C,U7*%
X130166000Y-54244000D02*
X131366000Y-54244000D01*
X130166000Y-55444000D02*
X130166000Y-54244000D01*
X140746000Y-54604000D02*
X130526000Y-54604000D01*
X130526000Y-54604000D02*
X130526000Y-67824000D01*
X130526000Y-67824000D02*
X140746000Y-67824000D01*
X140746000Y-67824000D02*
X140746000Y-54604000D01*
%TO.C,U6*%
X107205000Y-121472000D02*
X112665000Y-121472000D01*
X107205000Y-90872000D02*
X107205000Y-121472000D01*
X120125000Y-90872000D02*
X107205000Y-90872000D01*
X120125000Y-121472000D02*
X120125000Y-90872000D01*
X114665000Y-121472000D02*
X120125000Y-121472000D01*
X112665000Y-121472000D02*
G75*
G02*
X114665000Y-121472000I1000000J0D01*
G01*
%TO.C,U2*%
X87812100Y-121408500D02*
X89462100Y-121408500D01*
X87812100Y-103508500D02*
X87812100Y-121408500D01*
X93112100Y-103508500D02*
X87812100Y-103508500D01*
X93112100Y-121408500D02*
X93112100Y-103508500D01*
X91462100Y-121408500D02*
X93112100Y-121408500D01*
X89462100Y-121408500D02*
G75*
G02*
X91462100Y-121408500I1000000J0D01*
G01*
%TO.C,U1*%
X73334100Y-121408500D02*
X74984100Y-121408500D01*
X73334100Y-95888500D02*
X73334100Y-121408500D01*
X78634100Y-95888500D02*
X73334100Y-95888500D01*
X78634100Y-121408500D02*
X78634100Y-95888500D01*
X76984100Y-121408500D02*
X78634100Y-121408500D01*
X74984100Y-121408500D02*
G75*
G02*
X76984100Y-121408500I1000000J0D01*
G01*
%TO.C,SW1*%
X96688667Y-59209000D02*
X96688667Y-57939000D01*
X98042000Y-58009000D02*
X96688667Y-58009000D01*
X98042000Y-58129000D02*
X96688667Y-58129000D01*
X98042000Y-58249000D02*
X96688667Y-58249000D01*
X98042000Y-58369000D02*
X96688667Y-58369000D01*
X98042000Y-58489000D02*
X96688667Y-58489000D01*
X98042000Y-58609000D02*
X96688667Y-58609000D01*
X98042000Y-58729000D02*
X96688667Y-58729000D01*
X98042000Y-58849000D02*
X96688667Y-58849000D01*
X98042000Y-58969000D02*
X96688667Y-58969000D01*
X98042000Y-59089000D02*
X96688667Y-59089000D01*
X93982000Y-59209000D02*
X98042000Y-59209000D01*
X93982000Y-57939000D02*
X93982000Y-59209000D01*
X98042000Y-57939000D02*
X93982000Y-57939000D01*
X98042000Y-59209000D02*
X98042000Y-57939000D01*
X96688667Y-61749000D02*
X96688667Y-60479000D01*
X98042000Y-60549000D02*
X96688667Y-60549000D01*
X98042000Y-60669000D02*
X96688667Y-60669000D01*
X98042000Y-60789000D02*
X96688667Y-60789000D01*
X98042000Y-60909000D02*
X96688667Y-60909000D01*
X98042000Y-61029000D02*
X96688667Y-61029000D01*
X98042000Y-61149000D02*
X96688667Y-61149000D01*
X98042000Y-61269000D02*
X96688667Y-61269000D01*
X98042000Y-61389000D02*
X96688667Y-61389000D01*
X98042000Y-61509000D02*
X96688667Y-61509000D01*
X98042000Y-61629000D02*
X96688667Y-61629000D01*
X93982000Y-61749000D02*
X98042000Y-61749000D01*
X93982000Y-60479000D02*
X93982000Y-61749000D01*
X98042000Y-60479000D02*
X93982000Y-60479000D01*
X98042000Y-61749000D02*
X98042000Y-60479000D01*
X96688667Y-64289000D02*
X96688667Y-63019000D01*
X98042000Y-63089000D02*
X96688667Y-63089000D01*
X98042000Y-63209000D02*
X96688667Y-63209000D01*
X98042000Y-63329000D02*
X96688667Y-63329000D01*
X98042000Y-63449000D02*
X96688667Y-63449000D01*
X98042000Y-63569000D02*
X96688667Y-63569000D01*
X98042000Y-63689000D02*
X96688667Y-63689000D01*
X98042000Y-63809000D02*
X96688667Y-63809000D01*
X98042000Y-63929000D02*
X96688667Y-63929000D01*
X98042000Y-64049000D02*
X96688667Y-64049000D01*
X98042000Y-64169000D02*
X96688667Y-64169000D01*
X93982000Y-64289000D02*
X98042000Y-64289000D01*
X93982000Y-63019000D02*
X93982000Y-64289000D01*
X98042000Y-63019000D02*
X93982000Y-63019000D01*
X98042000Y-64289000D02*
X98042000Y-63019000D01*
X96688667Y-66829000D02*
X96688667Y-65559000D01*
X98042000Y-65629000D02*
X96688667Y-65629000D01*
X98042000Y-65749000D02*
X96688667Y-65749000D01*
X98042000Y-65869000D02*
X96688667Y-65869000D01*
X98042000Y-65989000D02*
X96688667Y-65989000D01*
X98042000Y-66109000D02*
X96688667Y-66109000D01*
X98042000Y-66229000D02*
X96688667Y-66229000D01*
X98042000Y-66349000D02*
X96688667Y-66349000D01*
X98042000Y-66469000D02*
X96688667Y-66469000D01*
X98042000Y-66589000D02*
X96688667Y-66589000D01*
X98042000Y-66709000D02*
X96688667Y-66709000D01*
X93982000Y-66829000D02*
X98042000Y-66829000D01*
X93982000Y-65559000D02*
X93982000Y-66829000D01*
X98042000Y-65559000D02*
X93982000Y-65559000D01*
X98042000Y-66829000D02*
X98042000Y-65559000D01*
X96688667Y-69369000D02*
X96688667Y-68099000D01*
X98042000Y-68169000D02*
X96688667Y-68169000D01*
X98042000Y-68289000D02*
X96688667Y-68289000D01*
X98042000Y-68409000D02*
X96688667Y-68409000D01*
X98042000Y-68529000D02*
X96688667Y-68529000D01*
X98042000Y-68649000D02*
X96688667Y-68649000D01*
X98042000Y-68769000D02*
X96688667Y-68769000D01*
X98042000Y-68889000D02*
X96688667Y-68889000D01*
X98042000Y-69009000D02*
X96688667Y-69009000D01*
X98042000Y-69129000D02*
X96688667Y-69129000D01*
X98042000Y-69249000D02*
X96688667Y-69249000D01*
X93982000Y-69369000D02*
X98042000Y-69369000D01*
X93982000Y-68099000D02*
X93982000Y-69369000D01*
X98042000Y-68099000D02*
X93982000Y-68099000D01*
X98042000Y-69369000D02*
X98042000Y-68099000D01*
X96688667Y-71909000D02*
X96688667Y-70639000D01*
X98042000Y-70709000D02*
X96688667Y-70709000D01*
X98042000Y-70829000D02*
X96688667Y-70829000D01*
X98042000Y-70949000D02*
X96688667Y-70949000D01*
X98042000Y-71069000D02*
X96688667Y-71069000D01*
X98042000Y-71189000D02*
X96688667Y-71189000D01*
X98042000Y-71309000D02*
X96688667Y-71309000D01*
X98042000Y-71429000D02*
X96688667Y-71429000D01*
X98042000Y-71549000D02*
X96688667Y-71549000D01*
X98042000Y-71669000D02*
X96688667Y-71669000D01*
X98042000Y-71789000D02*
X96688667Y-71789000D01*
X93982000Y-71909000D02*
X98042000Y-71909000D01*
X93982000Y-70639000D02*
X93982000Y-71909000D01*
X98042000Y-70639000D02*
X93982000Y-70639000D01*
X98042000Y-71909000D02*
X98042000Y-70639000D01*
X96688667Y-74449000D02*
X96688667Y-73179000D01*
X98042000Y-73249000D02*
X96688667Y-73249000D01*
X98042000Y-73369000D02*
X96688667Y-73369000D01*
X98042000Y-73489000D02*
X96688667Y-73489000D01*
X98042000Y-73609000D02*
X96688667Y-73609000D01*
X98042000Y-73729000D02*
X96688667Y-73729000D01*
X98042000Y-73849000D02*
X96688667Y-73849000D01*
X98042000Y-73969000D02*
X96688667Y-73969000D01*
X98042000Y-74089000D02*
X96688667Y-74089000D01*
X98042000Y-74209000D02*
X96688667Y-74209000D01*
X98042000Y-74329000D02*
X96688667Y-74329000D01*
X93982000Y-74449000D02*
X98042000Y-74449000D01*
X93982000Y-73179000D02*
X93982000Y-74449000D01*
X98042000Y-73179000D02*
X93982000Y-73179000D01*
X98042000Y-74449000D02*
X98042000Y-73179000D01*
X96688667Y-76989000D02*
X96688667Y-75719000D01*
X98042000Y-75789000D02*
X96688667Y-75789000D01*
X98042000Y-75909000D02*
X96688667Y-75909000D01*
X98042000Y-76029000D02*
X96688667Y-76029000D01*
X98042000Y-76149000D02*
X96688667Y-76149000D01*
X98042000Y-76269000D02*
X96688667Y-76269000D01*
X98042000Y-76389000D02*
X96688667Y-76389000D01*
X98042000Y-76509000D02*
X96688667Y-76509000D01*
X98042000Y-76629000D02*
X96688667Y-76629000D01*
X98042000Y-76749000D02*
X96688667Y-76749000D01*
X98042000Y-76869000D02*
X96688667Y-76869000D01*
X93982000Y-76989000D02*
X98042000Y-76989000D01*
X93982000Y-75719000D02*
X93982000Y-76989000D01*
X98042000Y-75719000D02*
X93982000Y-75719000D01*
X98042000Y-76989000D02*
X98042000Y-75719000D01*
X96688667Y-79529000D02*
X96688667Y-78259000D01*
X98042000Y-78329000D02*
X96688667Y-78329000D01*
X98042000Y-78449000D02*
X96688667Y-78449000D01*
X98042000Y-78569000D02*
X96688667Y-78569000D01*
X98042000Y-78689000D02*
X96688667Y-78689000D01*
X98042000Y-78809000D02*
X96688667Y-78809000D01*
X98042000Y-78929000D02*
X96688667Y-78929000D01*
X98042000Y-79049000D02*
X96688667Y-79049000D01*
X98042000Y-79169000D02*
X96688667Y-79169000D01*
X98042000Y-79289000D02*
X96688667Y-79289000D01*
X98042000Y-79409000D02*
X96688667Y-79409000D01*
X93982000Y-79529000D02*
X98042000Y-79529000D01*
X93982000Y-78259000D02*
X93982000Y-79529000D01*
X98042000Y-78259000D02*
X93982000Y-78259000D01*
X98042000Y-79529000D02*
X98042000Y-78259000D01*
X96688667Y-82069000D02*
X96688667Y-80799000D01*
X98042000Y-80869000D02*
X96688667Y-80869000D01*
X98042000Y-80989000D02*
X96688667Y-80989000D01*
X98042000Y-81109000D02*
X96688667Y-81109000D01*
X98042000Y-81229000D02*
X96688667Y-81229000D01*
X98042000Y-81349000D02*
X96688667Y-81349000D01*
X98042000Y-81469000D02*
X96688667Y-81469000D01*
X98042000Y-81589000D02*
X96688667Y-81589000D01*
X98042000Y-81709000D02*
X96688667Y-81709000D01*
X98042000Y-81829000D02*
X96688667Y-81829000D01*
X98042000Y-81949000D02*
X96688667Y-81949000D01*
X93982000Y-82069000D02*
X98042000Y-82069000D01*
X93982000Y-80799000D02*
X93982000Y-82069000D01*
X98042000Y-80799000D02*
X93982000Y-80799000D01*
X98042000Y-82069000D02*
X98042000Y-80799000D01*
X101202000Y-84094000D02*
X101202000Y-82711000D01*
X101202000Y-84094000D02*
X99818000Y-84094000D01*
X91062000Y-83854000D02*
X91062000Y-56154000D01*
X100962000Y-83854000D02*
X100962000Y-56154000D01*
X100962000Y-56154000D02*
X91062000Y-56154000D01*
X100962000Y-83854000D02*
X91062000Y-83854000D01*
%TO.C,C3*%
X67310000Y-63644000D02*
X67310000Y-64334000D01*
X67310000Y-69064000D02*
X67310000Y-68374000D01*
X65890000Y-64334000D02*
X65890000Y-68374000D01*
X68730000Y-64334000D02*
X65890000Y-64334000D01*
X68730000Y-68374000D02*
X68730000Y-64334000D01*
X65890000Y-68374000D02*
X68730000Y-68374000D01*
%TO.C,C2*%
X93082100Y-124079000D02*
X92392100Y-124079000D01*
X87662100Y-124079000D02*
X88352100Y-124079000D01*
X92392100Y-122659000D02*
X88352100Y-122659000D01*
X92392100Y-125499000D02*
X92392100Y-122659000D01*
X88352100Y-125499000D02*
X92392100Y-125499000D01*
X88352100Y-122659000D02*
X88352100Y-125499000D01*
%TO.C,C1*%
X78604100Y-124079000D02*
X77914100Y-124079000D01*
X73184100Y-124079000D02*
X73874100Y-124079000D01*
X77914100Y-122659000D02*
X73874100Y-122659000D01*
X77914100Y-125499000D02*
X77914100Y-122659000D01*
X73874100Y-125499000D02*
X77914100Y-125499000D01*
X73874100Y-122659000D02*
X73874100Y-125499000D01*
%TO.C,JMPR*%
D13*
X93374388Y-55561780D02*
X93374388Y-56276066D01*
X93326769Y-56418923D01*
X93231531Y-56514161D01*
X93088674Y-56561780D01*
X92993436Y-56561780D01*
X93850579Y-56561780D02*
X93850579Y-55561780D01*
X94183912Y-56276066D01*
X94517245Y-55561780D01*
X94517245Y-56561780D01*
X94993436Y-56561780D02*
X94993436Y-55561780D01*
X95374388Y-55561780D01*
X95469626Y-55609400D01*
X95517245Y-55657019D01*
X95564864Y-55752257D01*
X95564864Y-55895114D01*
X95517245Y-55990352D01*
X95469626Y-56037971D01*
X95374388Y-56085590D01*
X94993436Y-56085590D01*
X96564864Y-56561780D02*
X96231531Y-56085590D01*
X95993436Y-56561780D02*
X95993436Y-55561780D01*
X96374388Y-55561780D01*
X96469626Y-55609400D01*
X96517245Y-55657019D01*
X96564864Y-55752257D01*
X96564864Y-55895114D01*
X96517245Y-55990352D01*
X96469626Y-56037971D01*
X96374388Y-56085590D01*
X95993436Y-56085590D01*
%TO.C,U4*%
X137541095Y-119594380D02*
X137541095Y-120403904D01*
X137588714Y-120499142D01*
X137636333Y-120546761D01*
X137731571Y-120594380D01*
X137922047Y-120594380D01*
X138017285Y-120546761D01*
X138064904Y-120499142D01*
X138112523Y-120403904D01*
X138112523Y-119594380D01*
X139017285Y-119927714D02*
X139017285Y-120594380D01*
X138779190Y-119546761D02*
X138541095Y-120261047D01*
X139160142Y-120261047D01*
X128881595Y-94340880D02*
X129548261Y-94340880D01*
X129119690Y-95340880D01*
X130357785Y-94674214D02*
X130357785Y-95340880D01*
X130119690Y-94293261D02*
X129881595Y-95007547D01*
X130500642Y-95007547D01*
X130881595Y-95340880D02*
X130881595Y-94340880D01*
X130881595Y-94817071D02*
X131453023Y-94817071D01*
X131453023Y-95340880D02*
X131453023Y-94340880D01*
X132500642Y-95245642D02*
X132453023Y-95293261D01*
X132310166Y-95340880D01*
X132214928Y-95340880D01*
X132072071Y-95293261D01*
X131976833Y-95198023D01*
X131929214Y-95102785D01*
X131881595Y-94912309D01*
X131881595Y-94769452D01*
X131929214Y-94578976D01*
X131976833Y-94483738D01*
X132072071Y-94388500D01*
X132214928Y-94340880D01*
X132310166Y-94340880D01*
X132453023Y-94388500D01*
X132500642Y-94436119D01*
X132833976Y-94340880D02*
X133453023Y-94340880D01*
X133119690Y-94721833D01*
X133262547Y-94721833D01*
X133357785Y-94769452D01*
X133405404Y-94817071D01*
X133453023Y-94912309D01*
X133453023Y-95150404D01*
X133405404Y-95245642D01*
X133357785Y-95293261D01*
X133262547Y-95340880D01*
X132976833Y-95340880D01*
X132881595Y-95293261D01*
X132833976Y-95245642D01*
X133786357Y-94340880D02*
X134453023Y-94340880D01*
X134024452Y-95340880D01*
X135262547Y-94674214D02*
X135262547Y-95340880D01*
X135024452Y-94293261D02*
X134786357Y-95007547D01*
X135405404Y-95007547D01*
%TO.C,RN5*%
X150332700Y-84886396D02*
X149856510Y-85219729D01*
X150332700Y-85457824D02*
X149332700Y-85457824D01*
X149332700Y-85076872D01*
X149380320Y-84981634D01*
X149427939Y-84934015D01*
X149523177Y-84886396D01*
X149666034Y-84886396D01*
X149761272Y-84934015D01*
X149808891Y-84981634D01*
X149856510Y-85076872D01*
X149856510Y-85457824D01*
X150332700Y-84457824D02*
X149332700Y-84457824D01*
X150332700Y-83886396D01*
X149332700Y-83886396D01*
X149332700Y-82934015D02*
X149332700Y-83410205D01*
X149808891Y-83457824D01*
X149761272Y-83410205D01*
X149713653Y-83314967D01*
X149713653Y-83076872D01*
X149761272Y-82981634D01*
X149808891Y-82934015D01*
X149904129Y-82886396D01*
X150142224Y-82886396D01*
X150237462Y-82934015D01*
X150285081Y-82981634D01*
X150332700Y-83076872D01*
X150332700Y-83314967D01*
X150285081Y-83410205D01*
X150237462Y-83457824D01*
X149368260Y-81534474D02*
X149368260Y-80915426D01*
X149749213Y-81248760D01*
X149749213Y-81105902D01*
X149796832Y-81010664D01*
X149844451Y-80963045D01*
X149939689Y-80915426D01*
X150177784Y-80915426D01*
X150273022Y-80963045D01*
X150320641Y-81010664D01*
X150368260Y-81105902D01*
X150368260Y-81391617D01*
X150320641Y-81486855D01*
X150273022Y-81534474D01*
X149368260Y-80582093D02*
X149368260Y-79963045D01*
X149749213Y-80296379D01*
X149749213Y-80153521D01*
X149796832Y-80058283D01*
X149844451Y-80010664D01*
X149939689Y-79963045D01*
X150177784Y-79963045D01*
X150273022Y-80010664D01*
X150320641Y-80058283D01*
X150368260Y-80153521D01*
X150368260Y-80439236D01*
X150320641Y-80534474D01*
X150273022Y-80582093D01*
X149368260Y-79343998D02*
X149368260Y-79248760D01*
X149415880Y-79153521D01*
X149463499Y-79105902D01*
X149558737Y-79058283D01*
X149749213Y-79010664D01*
X149987308Y-79010664D01*
X150177784Y-79058283D01*
X150273022Y-79105902D01*
X150320641Y-79153521D01*
X150368260Y-79248760D01*
X150368260Y-79343998D01*
X150320641Y-79439236D01*
X150273022Y-79486855D01*
X150177784Y-79534474D01*
X149987308Y-79582093D01*
X149749213Y-79582093D01*
X149558737Y-79534474D01*
X149463499Y-79486855D01*
X149415880Y-79439236D01*
X149368260Y-79343998D01*
%TO.C,RN4*%
X145689580Y-84921956D02*
X145213390Y-85255289D01*
X145689580Y-85493384D02*
X144689580Y-85493384D01*
X144689580Y-85112432D01*
X144737200Y-85017194D01*
X144784819Y-84969575D01*
X144880057Y-84921956D01*
X145022914Y-84921956D01*
X145118152Y-84969575D01*
X145165771Y-85017194D01*
X145213390Y-85112432D01*
X145213390Y-85493384D01*
X145689580Y-84493384D02*
X144689580Y-84493384D01*
X145689580Y-83921956D01*
X144689580Y-83921956D01*
X145022914Y-83017194D02*
X145689580Y-83017194D01*
X144641961Y-83255289D02*
X145356247Y-83493384D01*
X145356247Y-82874337D01*
X144659100Y-81570034D02*
X144659100Y-80950986D01*
X145040053Y-81284320D01*
X145040053Y-81141462D01*
X145087672Y-81046224D01*
X145135291Y-80998605D01*
X145230529Y-80950986D01*
X145468624Y-80950986D01*
X145563862Y-80998605D01*
X145611481Y-81046224D01*
X145659100Y-81141462D01*
X145659100Y-81427177D01*
X145611481Y-81522415D01*
X145563862Y-81570034D01*
X144659100Y-80617653D02*
X144659100Y-79998605D01*
X145040053Y-80331939D01*
X145040053Y-80189081D01*
X145087672Y-80093843D01*
X145135291Y-80046224D01*
X145230529Y-79998605D01*
X145468624Y-79998605D01*
X145563862Y-80046224D01*
X145611481Y-80093843D01*
X145659100Y-80189081D01*
X145659100Y-80474796D01*
X145611481Y-80570034D01*
X145563862Y-80617653D01*
X144659100Y-79379558D02*
X144659100Y-79284320D01*
X144706720Y-79189081D01*
X144754339Y-79141462D01*
X144849577Y-79093843D01*
X145040053Y-79046224D01*
X145278148Y-79046224D01*
X145468624Y-79093843D01*
X145563862Y-79141462D01*
X145611481Y-79189081D01*
X145659100Y-79284320D01*
X145659100Y-79379558D01*
X145611481Y-79474796D01*
X145563862Y-79522415D01*
X145468624Y-79570034D01*
X145278148Y-79617653D01*
X145040053Y-79617653D01*
X144849577Y-79570034D01*
X144754339Y-79522415D01*
X144706720Y-79474796D01*
X144659100Y-79379558D01*
%TO.C,RN3*%
X132633980Y-84886396D02*
X132157790Y-85219729D01*
X132633980Y-85457824D02*
X131633980Y-85457824D01*
X131633980Y-85076872D01*
X131681600Y-84981634D01*
X131729219Y-84934015D01*
X131824457Y-84886396D01*
X131967314Y-84886396D01*
X132062552Y-84934015D01*
X132110171Y-84981634D01*
X132157790Y-85076872D01*
X132157790Y-85457824D01*
X132633980Y-84457824D02*
X131633980Y-84457824D01*
X132633980Y-83886396D01*
X131633980Y-83886396D01*
X131633980Y-83505443D02*
X131633980Y-82886396D01*
X132014933Y-83219729D01*
X132014933Y-83076872D01*
X132062552Y-82981634D01*
X132110171Y-82934015D01*
X132205409Y-82886396D01*
X132443504Y-82886396D01*
X132538742Y-82934015D01*
X132586361Y-82981634D01*
X132633980Y-83076872D01*
X132633980Y-83362586D01*
X132586361Y-83457824D01*
X132538742Y-83505443D01*
X131570780Y-81448114D02*
X131570780Y-80829066D01*
X131951733Y-81162400D01*
X131951733Y-81019542D01*
X131999352Y-80924304D01*
X132046971Y-80876685D01*
X132142209Y-80829066D01*
X132380304Y-80829066D01*
X132475542Y-80876685D01*
X132523161Y-80924304D01*
X132570780Y-81019542D01*
X132570780Y-81305257D01*
X132523161Y-81400495D01*
X132475542Y-81448114D01*
X131570780Y-80495733D02*
X131570780Y-79876685D01*
X131951733Y-80210019D01*
X131951733Y-80067161D01*
X131999352Y-79971923D01*
X132046971Y-79924304D01*
X132142209Y-79876685D01*
X132380304Y-79876685D01*
X132475542Y-79924304D01*
X132523161Y-79971923D01*
X132570780Y-80067161D01*
X132570780Y-80352876D01*
X132523161Y-80448114D01*
X132475542Y-80495733D01*
X131570780Y-79257638D02*
X131570780Y-79162400D01*
X131618400Y-79067161D01*
X131666019Y-79019542D01*
X131761257Y-78971923D01*
X131951733Y-78924304D01*
X132189828Y-78924304D01*
X132380304Y-78971923D01*
X132475542Y-79019542D01*
X132523161Y-79067161D01*
X132570780Y-79162400D01*
X132570780Y-79257638D01*
X132523161Y-79352876D01*
X132475542Y-79400495D01*
X132380304Y-79448114D01*
X132189828Y-79495733D01*
X131951733Y-79495733D01*
X131761257Y-79448114D01*
X131666019Y-79400495D01*
X131618400Y-79352876D01*
X131570780Y-79257638D01*
%TO.C,RN2*%
X137343140Y-85059116D02*
X136866950Y-85392449D01*
X137343140Y-85630544D02*
X136343140Y-85630544D01*
X136343140Y-85249592D01*
X136390760Y-85154354D01*
X136438379Y-85106735D01*
X136533617Y-85059116D01*
X136676474Y-85059116D01*
X136771712Y-85106735D01*
X136819331Y-85154354D01*
X136866950Y-85249592D01*
X136866950Y-85630544D01*
X137343140Y-84630544D02*
X136343140Y-84630544D01*
X137343140Y-84059116D01*
X136343140Y-84059116D01*
X136438379Y-83630544D02*
X136390760Y-83582925D01*
X136343140Y-83487687D01*
X136343140Y-83249592D01*
X136390760Y-83154354D01*
X136438379Y-83106735D01*
X136533617Y-83059116D01*
X136628855Y-83059116D01*
X136771712Y-83106735D01*
X137343140Y-83678163D01*
X137343140Y-83059116D01*
X136295180Y-81498914D02*
X136295180Y-80879866D01*
X136676133Y-81213200D01*
X136676133Y-81070342D01*
X136723752Y-80975104D01*
X136771371Y-80927485D01*
X136866609Y-80879866D01*
X137104704Y-80879866D01*
X137199942Y-80927485D01*
X137247561Y-80975104D01*
X137295180Y-81070342D01*
X137295180Y-81356057D01*
X137247561Y-81451295D01*
X137199942Y-81498914D01*
X136295180Y-80546533D02*
X136295180Y-79927485D01*
X136676133Y-80260819D01*
X136676133Y-80117961D01*
X136723752Y-80022723D01*
X136771371Y-79975104D01*
X136866609Y-79927485D01*
X137104704Y-79927485D01*
X137199942Y-79975104D01*
X137247561Y-80022723D01*
X137295180Y-80117961D01*
X137295180Y-80403676D01*
X137247561Y-80498914D01*
X137199942Y-80546533D01*
X136295180Y-79308438D02*
X136295180Y-79213200D01*
X136342800Y-79117961D01*
X136390419Y-79070342D01*
X136485657Y-79022723D01*
X136676133Y-78975104D01*
X136914228Y-78975104D01*
X137104704Y-79022723D01*
X137199942Y-79070342D01*
X137247561Y-79117961D01*
X137295180Y-79213200D01*
X137295180Y-79308438D01*
X137247561Y-79403676D01*
X137199942Y-79451295D01*
X137104704Y-79498914D01*
X136914228Y-79546533D01*
X136676133Y-79546533D01*
X136485657Y-79498914D01*
X136390419Y-79451295D01*
X136342800Y-79403676D01*
X136295180Y-79308438D01*
%TO.C,RN1*%
X88849460Y-82945836D02*
X88373270Y-83279169D01*
X88849460Y-83517264D02*
X87849460Y-83517264D01*
X87849460Y-83136312D01*
X87897080Y-83041074D01*
X87944699Y-82993455D01*
X88039937Y-82945836D01*
X88182794Y-82945836D01*
X88278032Y-82993455D01*
X88325651Y-83041074D01*
X88373270Y-83136312D01*
X88373270Y-83517264D01*
X88849460Y-82517264D02*
X87849460Y-82517264D01*
X88849460Y-81945836D01*
X87849460Y-81945836D01*
X88849460Y-80945836D02*
X88849460Y-81517264D01*
X88849460Y-81231550D02*
X87849460Y-81231550D01*
X87992318Y-81326788D01*
X88087556Y-81422026D01*
X88135175Y-81517264D01*
X86866361Y-73675333D02*
X86913980Y-73532476D01*
X86913980Y-73294380D01*
X86866361Y-73199142D01*
X86818742Y-73151523D01*
X86723504Y-73103904D01*
X86628266Y-73103904D01*
X86533028Y-73151523D01*
X86485409Y-73199142D01*
X86437790Y-73294380D01*
X86390171Y-73484857D01*
X86342552Y-73580095D01*
X86294933Y-73627714D01*
X86199695Y-73675333D01*
X86104457Y-73675333D01*
X86009219Y-73627714D01*
X85961600Y-73580095D01*
X85913980Y-73484857D01*
X85913980Y-73246761D01*
X85961600Y-73103904D01*
X86913980Y-72675333D02*
X85913980Y-72675333D01*
X86913980Y-71722952D02*
X86913980Y-72199142D01*
X85913980Y-72199142D01*
X86913980Y-71342000D02*
X86913980Y-71151523D01*
X86866361Y-71056285D01*
X86818742Y-71008666D01*
X86675885Y-70913428D01*
X86485409Y-70865809D01*
X86104457Y-70865809D01*
X86009219Y-70913428D01*
X85961600Y-70961047D01*
X85913980Y-71056285D01*
X85913980Y-71246761D01*
X85961600Y-71342000D01*
X86009219Y-71389619D01*
X86104457Y-71437238D01*
X86342552Y-71437238D01*
X86437790Y-71389619D01*
X86485409Y-71342000D01*
X86533028Y-71246761D01*
X86533028Y-71056285D01*
X86485409Y-70961047D01*
X86437790Y-70913428D01*
X86342552Y-70865809D01*
X86533028Y-70437238D02*
X86533028Y-69675333D01*
X86342552Y-69056285D02*
X86294933Y-69151523D01*
X86247314Y-69199142D01*
X86152076Y-69246761D01*
X86104457Y-69246761D01*
X86009219Y-69199142D01*
X85961600Y-69151523D01*
X85913980Y-69056285D01*
X85913980Y-68865809D01*
X85961600Y-68770571D01*
X86009219Y-68722952D01*
X86104457Y-68675333D01*
X86152076Y-68675333D01*
X86247314Y-68722952D01*
X86294933Y-68770571D01*
X86342552Y-68865809D01*
X86342552Y-69056285D01*
X86390171Y-69151523D01*
X86437790Y-69199142D01*
X86533028Y-69246761D01*
X86723504Y-69246761D01*
X86818742Y-69199142D01*
X86866361Y-69151523D01*
X86913980Y-69056285D01*
X86913980Y-68865809D01*
X86866361Y-68770571D01*
X86818742Y-68722952D01*
X86723504Y-68675333D01*
X86533028Y-68675333D01*
X86437790Y-68722952D01*
X86390171Y-68770571D01*
X86342552Y-68865809D01*
X86913980Y-66961047D02*
X86913980Y-67532476D01*
X86913980Y-67246761D02*
X85913980Y-67246761D01*
X86056838Y-67342000D01*
X86152076Y-67437238D01*
X86199695Y-67532476D01*
X85913980Y-66342000D02*
X85913980Y-66246761D01*
X85961600Y-66151523D01*
X86009219Y-66103904D01*
X86104457Y-66056285D01*
X86294933Y-66008666D01*
X86533028Y-66008666D01*
X86723504Y-66056285D01*
X86818742Y-66103904D01*
X86866361Y-66151523D01*
X86913980Y-66246761D01*
X86913980Y-66342000D01*
X86866361Y-66437238D01*
X86818742Y-66484857D01*
X86723504Y-66532476D01*
X86533028Y-66580095D01*
X86294933Y-66580095D01*
X86104457Y-66532476D01*
X86009219Y-66484857D01*
X85961600Y-66437238D01*
X85913980Y-66342000D01*
X86913980Y-65580095D02*
X85913980Y-65580095D01*
X86913980Y-65008666D02*
X86342552Y-65437238D01*
X85913980Y-65008666D02*
X86485409Y-65580095D01*
%TO.C,R6*%
X87564933Y-93416380D02*
X87231600Y-92940190D01*
X86993504Y-93416380D02*
X86993504Y-92416380D01*
X87374457Y-92416380D01*
X87469695Y-92464000D01*
X87517314Y-92511619D01*
X87564933Y-92606857D01*
X87564933Y-92749714D01*
X87517314Y-92844952D01*
X87469695Y-92892571D01*
X87374457Y-92940190D01*
X86993504Y-92940190D01*
X88422076Y-92416380D02*
X88231600Y-92416380D01*
X88136361Y-92464000D01*
X88088742Y-92511619D01*
X87993504Y-92654476D01*
X87945885Y-92844952D01*
X87945885Y-93225904D01*
X87993504Y-93321142D01*
X88041123Y-93368761D01*
X88136361Y-93416380D01*
X88326838Y-93416380D01*
X88422076Y-93368761D01*
X88469695Y-93321142D01*
X88517314Y-93225904D01*
X88517314Y-92987809D01*
X88469695Y-92892571D01*
X88422076Y-92844952D01*
X88326838Y-92797333D01*
X88136361Y-92797333D01*
X88041123Y-92844952D01*
X87993504Y-92892571D01*
X87945885Y-92987809D01*
X101428704Y-92410019D02*
X101476323Y-92362400D01*
X101571561Y-92314780D01*
X101809657Y-92314780D01*
X101904895Y-92362400D01*
X101952514Y-92410019D01*
X102000133Y-92505257D01*
X102000133Y-92600495D01*
X101952514Y-92743352D01*
X101381085Y-93314780D01*
X102000133Y-93314780D01*
X102381085Y-92410019D02*
X102428704Y-92362400D01*
X102523942Y-92314780D01*
X102762038Y-92314780D01*
X102857276Y-92362400D01*
X102904895Y-92410019D01*
X102952514Y-92505257D01*
X102952514Y-92600495D01*
X102904895Y-92743352D01*
X102333466Y-93314780D01*
X102952514Y-93314780D01*
X103571561Y-92314780D02*
X103666800Y-92314780D01*
X103762038Y-92362400D01*
X103809657Y-92410019D01*
X103857276Y-92505257D01*
X103904895Y-92695733D01*
X103904895Y-92933828D01*
X103857276Y-93124304D01*
X103809657Y-93219542D01*
X103762038Y-93267161D01*
X103666800Y-93314780D01*
X103571561Y-93314780D01*
X103476323Y-93267161D01*
X103428704Y-93219542D01*
X103381085Y-93124304D01*
X103333466Y-92933828D01*
X103333466Y-92695733D01*
X103381085Y-92505257D01*
X103428704Y-92410019D01*
X103476323Y-92362400D01*
X103571561Y-92314780D01*
%TO.C,R5*%
X87666533Y-99715580D02*
X87333200Y-99239390D01*
X87095104Y-99715580D02*
X87095104Y-98715580D01*
X87476057Y-98715580D01*
X87571295Y-98763200D01*
X87618914Y-98810819D01*
X87666533Y-98906057D01*
X87666533Y-99048914D01*
X87618914Y-99144152D01*
X87571295Y-99191771D01*
X87476057Y-99239390D01*
X87095104Y-99239390D01*
X88571295Y-98715580D02*
X88095104Y-98715580D01*
X88047485Y-99191771D01*
X88095104Y-99144152D01*
X88190342Y-99096533D01*
X88428438Y-99096533D01*
X88523676Y-99144152D01*
X88571295Y-99191771D01*
X88618914Y-99287009D01*
X88618914Y-99525104D01*
X88571295Y-99620342D01*
X88523676Y-99667961D01*
X88428438Y-99715580D01*
X88190342Y-99715580D01*
X88095104Y-99667961D01*
X88047485Y-99620342D01*
X102090552Y-99461580D02*
X101519123Y-99461580D01*
X101804838Y-99461580D02*
X101804838Y-98461580D01*
X101709600Y-98604438D01*
X101614361Y-98699676D01*
X101519123Y-98747295D01*
X102519123Y-99461580D02*
X102519123Y-98461580D01*
X102614361Y-99080628D02*
X102900076Y-99461580D01*
X102900076Y-98794914D02*
X102519123Y-99175866D01*
%TO.C,R4*%
X87564933Y-96362780D02*
X87231600Y-95886590D01*
X86993504Y-96362780D02*
X86993504Y-95362780D01*
X87374457Y-95362780D01*
X87469695Y-95410400D01*
X87517314Y-95458019D01*
X87564933Y-95553257D01*
X87564933Y-95696114D01*
X87517314Y-95791352D01*
X87469695Y-95838971D01*
X87374457Y-95886590D01*
X86993504Y-95886590D01*
X88422076Y-95696114D02*
X88422076Y-96362780D01*
X88183980Y-95315161D02*
X87945885Y-96029447D01*
X88564933Y-96029447D01*
X102090552Y-96413580D02*
X101519123Y-96413580D01*
X101804838Y-96413580D02*
X101804838Y-95413580D01*
X101709600Y-95556438D01*
X101614361Y-95651676D01*
X101519123Y-95699295D01*
X102519123Y-96413580D02*
X102519123Y-95413580D01*
X102614361Y-96032628D02*
X102900076Y-96413580D01*
X102900076Y-95746914D02*
X102519123Y-96127866D01*
%TO.C,R3*%
X83002380Y-72963066D02*
X82526190Y-73296400D01*
X83002380Y-73534495D02*
X82002380Y-73534495D01*
X82002380Y-73153542D01*
X82050000Y-73058304D01*
X82097619Y-73010685D01*
X82192857Y-72963066D01*
X82335714Y-72963066D01*
X82430952Y-73010685D01*
X82478571Y-73058304D01*
X82526190Y-73153542D01*
X82526190Y-73534495D01*
X82002380Y-72629733D02*
X82002380Y-72010685D01*
X82383333Y-72344019D01*
X82383333Y-72201161D01*
X82430952Y-72105923D01*
X82478571Y-72058304D01*
X82573809Y-72010685D01*
X82811904Y-72010685D01*
X82907142Y-72058304D01*
X82954761Y-72105923D01*
X83002380Y-72201161D01*
X83002380Y-72486876D01*
X82954761Y-72582114D01*
X82907142Y-72629733D01*
X83002380Y-78319238D02*
X83002380Y-78890666D01*
X83002380Y-78604952D02*
X82002380Y-78604952D01*
X82145238Y-78700190D01*
X82240476Y-78795428D01*
X82288095Y-78890666D01*
X82002380Y-77700190D02*
X82002380Y-77604952D01*
X82050000Y-77509714D01*
X82097619Y-77462095D01*
X82192857Y-77414476D01*
X82383333Y-77366857D01*
X82621428Y-77366857D01*
X82811904Y-77414476D01*
X82907142Y-77462095D01*
X82954761Y-77509714D01*
X83002380Y-77604952D01*
X83002380Y-77700190D01*
X82954761Y-77795428D01*
X82907142Y-77843047D01*
X82811904Y-77890666D01*
X82621428Y-77938285D01*
X82383333Y-77938285D01*
X82192857Y-77890666D01*
X82097619Y-77843047D01*
X82050000Y-77795428D01*
X82002380Y-77700190D01*
X83002380Y-76938285D02*
X82002380Y-76938285D01*
X82621428Y-76843047D02*
X83002380Y-76557333D01*
X82335714Y-76557333D02*
X82716666Y-76938285D01*
%TO.C,R2*%
X82982060Y-60247826D02*
X82505870Y-60581160D01*
X82982060Y-60819255D02*
X81982060Y-60819255D01*
X81982060Y-60438302D01*
X82029680Y-60343064D01*
X82077299Y-60295445D01*
X82172537Y-60247826D01*
X82315394Y-60247826D01*
X82410632Y-60295445D01*
X82458251Y-60343064D01*
X82505870Y-60438302D01*
X82505870Y-60819255D01*
X82077299Y-59866874D02*
X82029680Y-59819255D01*
X81982060Y-59724017D01*
X81982060Y-59485921D01*
X82029680Y-59390683D01*
X82077299Y-59343064D01*
X82172537Y-59295445D01*
X82267775Y-59295445D01*
X82410632Y-59343064D01*
X82982060Y-59914493D01*
X82982060Y-59295445D01*
X82900780Y-65822438D02*
X82900780Y-66393866D01*
X82900780Y-66108152D02*
X81900780Y-66108152D01*
X82043638Y-66203390D01*
X82138876Y-66298628D01*
X82186495Y-66393866D01*
X81900780Y-65203390D02*
X81900780Y-65108152D01*
X81948400Y-65012914D01*
X81996019Y-64965295D01*
X82091257Y-64917676D01*
X82281733Y-64870057D01*
X82519828Y-64870057D01*
X82710304Y-64917676D01*
X82805542Y-64965295D01*
X82853161Y-65012914D01*
X82900780Y-65108152D01*
X82900780Y-65203390D01*
X82853161Y-65298628D01*
X82805542Y-65346247D01*
X82710304Y-65393866D01*
X82519828Y-65441485D01*
X82281733Y-65441485D01*
X82091257Y-65393866D01*
X81996019Y-65346247D01*
X81948400Y-65298628D01*
X81900780Y-65203390D01*
X82900780Y-64441485D02*
X81900780Y-64441485D01*
X82519828Y-64346247D02*
X82900780Y-64060533D01*
X82234114Y-64060533D02*
X82615066Y-64441485D01*
%TO.C,R1*%
X86505220Y-115055946D02*
X86029030Y-115389280D01*
X86505220Y-115627375D02*
X85505220Y-115627375D01*
X85505220Y-115246422D01*
X85552840Y-115151184D01*
X85600459Y-115103565D01*
X85695697Y-115055946D01*
X85838554Y-115055946D01*
X85933792Y-115103565D01*
X85981411Y-115151184D01*
X86029030Y-115246422D01*
X86029030Y-115627375D01*
X86505220Y-114103565D02*
X86505220Y-114674994D01*
X86505220Y-114389280D02*
X85505220Y-114389280D01*
X85648078Y-114484518D01*
X85743316Y-114579756D01*
X85790935Y-114674994D01*
X80860459Y-116151184D02*
X80812840Y-116103565D01*
X80765220Y-116008327D01*
X80765220Y-115770232D01*
X80812840Y-115674994D01*
X80860459Y-115627375D01*
X80955697Y-115579756D01*
X81050935Y-115579756D01*
X81193792Y-115627375D01*
X81765220Y-116198803D01*
X81765220Y-115579756D01*
X81765220Y-115151184D02*
X80765220Y-115151184D01*
X81765220Y-114579756D02*
X81193792Y-115008327D01*
X80765220Y-114579756D02*
X81336649Y-115151184D01*
X80860459Y-114198803D02*
X80812840Y-114151184D01*
X80765220Y-114055946D01*
X80765220Y-113817851D01*
X80812840Y-113722613D01*
X80860459Y-113674994D01*
X80955697Y-113627375D01*
X81050935Y-113627375D01*
X81193792Y-113674994D01*
X81765220Y-114246422D01*
X81765220Y-113627375D01*
%TO.C,Q2*%
X96200019Y-118560838D02*
X96152400Y-118656076D01*
X96057161Y-118751314D01*
X95914304Y-118894171D01*
X95866685Y-118989409D01*
X95866685Y-119084647D01*
X96104780Y-119037028D02*
X96057161Y-119132266D01*
X95961923Y-119227504D01*
X95771447Y-119275123D01*
X95438114Y-119275123D01*
X95247638Y-119227504D01*
X95152400Y-119132266D01*
X95104780Y-119037028D01*
X95104780Y-118846552D01*
X95152400Y-118751314D01*
X95247638Y-118656076D01*
X95438114Y-118608457D01*
X95771447Y-118608457D01*
X95961923Y-118656076D01*
X96057161Y-118751314D01*
X96104780Y-118846552D01*
X96104780Y-119037028D01*
X95200019Y-118227504D02*
X95152400Y-118179885D01*
X95104780Y-118084647D01*
X95104780Y-117846552D01*
X95152400Y-117751314D01*
X95200019Y-117703695D01*
X95295257Y-117656076D01*
X95390495Y-117656076D01*
X95533352Y-117703695D01*
X96104780Y-118275123D01*
X96104780Y-117656076D01*
X101930971Y-120322742D02*
X101978590Y-120179885D01*
X102026209Y-120132266D01*
X102121447Y-120084647D01*
X102264304Y-120084647D01*
X102359542Y-120132266D01*
X102407161Y-120179885D01*
X102454780Y-120275123D01*
X102454780Y-120656076D01*
X101454780Y-120656076D01*
X101454780Y-120322742D01*
X101502400Y-120227504D01*
X101550019Y-120179885D01*
X101645257Y-120132266D01*
X101740495Y-120132266D01*
X101835733Y-120179885D01*
X101883352Y-120227504D01*
X101930971Y-120322742D01*
X101930971Y-120656076D01*
X102359542Y-119084647D02*
X102407161Y-119132266D01*
X102454780Y-119275123D01*
X102454780Y-119370361D01*
X102407161Y-119513219D01*
X102311923Y-119608457D01*
X102216685Y-119656076D01*
X102026209Y-119703695D01*
X101883352Y-119703695D01*
X101692876Y-119656076D01*
X101597638Y-119608457D01*
X101502400Y-119513219D01*
X101454780Y-119370361D01*
X101454780Y-119275123D01*
X101502400Y-119132266D01*
X101550019Y-119084647D01*
X101454780Y-118751314D02*
X101454780Y-118132266D01*
X101835733Y-118465600D01*
X101835733Y-118322742D01*
X101883352Y-118227504D01*
X101930971Y-118179885D01*
X102026209Y-118132266D01*
X102264304Y-118132266D01*
X102359542Y-118179885D01*
X102407161Y-118227504D01*
X102454780Y-118322742D01*
X102454780Y-118608457D01*
X102407161Y-118703695D01*
X102359542Y-118751314D01*
X101454780Y-117798933D02*
X101454780Y-117179885D01*
X101835733Y-117513219D01*
X101835733Y-117370361D01*
X101883352Y-117275123D01*
X101930971Y-117227504D01*
X102026209Y-117179885D01*
X102264304Y-117179885D01*
X102359542Y-117227504D01*
X102407161Y-117275123D01*
X102454780Y-117370361D01*
X102454780Y-117656076D01*
X102407161Y-117751314D01*
X102359542Y-117798933D01*
X101454780Y-116846552D02*
X101454780Y-116179885D01*
X102454780Y-116608457D01*
%TO.C,Q1*%
X96403219Y-111398038D02*
X96355600Y-111493276D01*
X96260361Y-111588514D01*
X96117504Y-111731371D01*
X96069885Y-111826609D01*
X96069885Y-111921847D01*
X96307980Y-111874228D02*
X96260361Y-111969466D01*
X96165123Y-112064704D01*
X95974647Y-112112323D01*
X95641314Y-112112323D01*
X95450838Y-112064704D01*
X95355600Y-111969466D01*
X95307980Y-111874228D01*
X95307980Y-111683752D01*
X95355600Y-111588514D01*
X95450838Y-111493276D01*
X95641314Y-111445657D01*
X95974647Y-111445657D01*
X96165123Y-111493276D01*
X96260361Y-111588514D01*
X96307980Y-111683752D01*
X96307980Y-111874228D01*
X96307980Y-110493276D02*
X96307980Y-111064704D01*
X96307980Y-110778990D02*
X95307980Y-110778990D01*
X95450838Y-110874228D01*
X95546076Y-110969466D01*
X95593695Y-111064704D01*
X102134171Y-113159942D02*
X102181790Y-113017085D01*
X102229409Y-112969466D01*
X102324647Y-112921847D01*
X102467504Y-112921847D01*
X102562742Y-112969466D01*
X102610361Y-113017085D01*
X102657980Y-113112323D01*
X102657980Y-113493276D01*
X101657980Y-113493276D01*
X101657980Y-113159942D01*
X101705600Y-113064704D01*
X101753219Y-113017085D01*
X101848457Y-112969466D01*
X101943695Y-112969466D01*
X102038933Y-113017085D01*
X102086552Y-113064704D01*
X102134171Y-113159942D01*
X102134171Y-113493276D01*
X102562742Y-111921847D02*
X102610361Y-111969466D01*
X102657980Y-112112323D01*
X102657980Y-112207561D01*
X102610361Y-112350419D01*
X102515123Y-112445657D01*
X102419885Y-112493276D01*
X102229409Y-112540895D01*
X102086552Y-112540895D01*
X101896076Y-112493276D01*
X101800838Y-112445657D01*
X101705600Y-112350419D01*
X101657980Y-112207561D01*
X101657980Y-112112323D01*
X101705600Y-111969466D01*
X101753219Y-111921847D01*
X101657980Y-111588514D02*
X101657980Y-110969466D01*
X102038933Y-111302800D01*
X102038933Y-111159942D01*
X102086552Y-111064704D01*
X102134171Y-111017085D01*
X102229409Y-110969466D01*
X102467504Y-110969466D01*
X102562742Y-111017085D01*
X102610361Y-111064704D01*
X102657980Y-111159942D01*
X102657980Y-111445657D01*
X102610361Y-111540895D01*
X102562742Y-111588514D01*
X101657980Y-110636133D02*
X101657980Y-110017085D01*
X102038933Y-110350419D01*
X102038933Y-110207561D01*
X102086552Y-110112323D01*
X102134171Y-110064704D01*
X102229409Y-110017085D01*
X102467504Y-110017085D01*
X102562742Y-110064704D01*
X102610361Y-110112323D01*
X102657980Y-110207561D01*
X102657980Y-110493276D01*
X102610361Y-110588514D01*
X102562742Y-110636133D01*
X101657980Y-109683752D02*
X101657980Y-109017085D01*
X102657980Y-109445657D01*
%TO.C,J0*%
X161210666Y-146153380D02*
X161210666Y-146867666D01*
X161163047Y-147010523D01*
X161067809Y-147105761D01*
X160924952Y-147153380D01*
X160829714Y-147153380D01*
X161877333Y-146153380D02*
X161972571Y-146153380D01*
X162067809Y-146201000D01*
X162115428Y-146248619D01*
X162163047Y-146343857D01*
X162210666Y-146534333D01*
X162210666Y-146772428D01*
X162163047Y-146962904D01*
X162115428Y-147058142D01*
X162067809Y-147105761D01*
X161972571Y-147153380D01*
X161877333Y-147153380D01*
X161782095Y-147105761D01*
X161734476Y-147058142D01*
X161686857Y-146962904D01*
X161639238Y-146772428D01*
X161639238Y-146534333D01*
X161686857Y-146343857D01*
X161734476Y-146248619D01*
X161782095Y-146201000D01*
X161877333Y-146153380D01*
%TO.C,U3*%
X73914095Y-75442380D02*
X73914095Y-76251904D01*
X73961714Y-76347142D01*
X74009333Y-76394761D01*
X74104571Y-76442380D01*
X74295047Y-76442380D01*
X74390285Y-76394761D01*
X74437904Y-76347142D01*
X74485523Y-76251904D01*
X74485523Y-75442380D01*
X74866476Y-75442380D02*
X75485523Y-75442380D01*
X75152190Y-75823333D01*
X75295047Y-75823333D01*
X75390285Y-75870952D01*
X75437904Y-75918571D01*
X75485523Y-76013809D01*
X75485523Y-76251904D01*
X75437904Y-76347142D01*
X75390285Y-76394761D01*
X75295047Y-76442380D01*
X75009333Y-76442380D01*
X74914095Y-76394761D01*
X74866476Y-76347142D01*
X72914095Y-55542380D02*
X73580761Y-55542380D01*
X73152190Y-56542380D01*
X74390285Y-55875714D02*
X74390285Y-56542380D01*
X74152190Y-55494761D02*
X73914095Y-56209047D01*
X74533142Y-56209047D01*
X74818857Y-55542380D02*
X75437904Y-55542380D01*
X75104571Y-55923333D01*
X75247428Y-55923333D01*
X75342666Y-55970952D01*
X75390285Y-56018571D01*
X75437904Y-56113809D01*
X75437904Y-56351904D01*
X75390285Y-56447142D01*
X75342666Y-56494761D01*
X75247428Y-56542380D01*
X74961714Y-56542380D01*
X74866476Y-56494761D01*
X74818857Y-56447142D01*
X75818857Y-55637619D02*
X75866476Y-55590000D01*
X75961714Y-55542380D01*
X76199809Y-55542380D01*
X76295047Y-55590000D01*
X76342666Y-55637619D01*
X76390285Y-55732857D01*
X76390285Y-55828095D01*
X76342666Y-55970952D01*
X75771238Y-56542380D01*
X76390285Y-56542380D01*
%TO.C,U5*%
X116332095Y-85685380D02*
X116332095Y-86494904D01*
X116379714Y-86590142D01*
X116427333Y-86637761D01*
X116522571Y-86685380D01*
X116713047Y-86685380D01*
X116808285Y-86637761D01*
X116855904Y-86590142D01*
X116903523Y-86494904D01*
X116903523Y-85685380D01*
X117855904Y-85685380D02*
X117379714Y-85685380D01*
X117332095Y-86161571D01*
X117379714Y-86113952D01*
X117474952Y-86066333D01*
X117713047Y-86066333D01*
X117808285Y-86113952D01*
X117855904Y-86161571D01*
X117903523Y-86256809D01*
X117903523Y-86494904D01*
X117855904Y-86590142D01*
X117808285Y-86637761D01*
X117713047Y-86685380D01*
X117474952Y-86685380D01*
X117379714Y-86637761D01*
X117332095Y-86590142D01*
X111950714Y-53034119D02*
X111998333Y-52986500D01*
X112093571Y-52938880D01*
X112331666Y-52938880D01*
X112426904Y-52986500D01*
X112474523Y-53034119D01*
X112522142Y-53129357D01*
X112522142Y-53224595D01*
X112474523Y-53367452D01*
X111903095Y-53938880D01*
X112522142Y-53938880D01*
X112855476Y-52938880D02*
X113522142Y-52938880D01*
X113093571Y-53938880D01*
X113807857Y-52938880D02*
X114426904Y-52938880D01*
X114093571Y-53319833D01*
X114236428Y-53319833D01*
X114331666Y-53367452D01*
X114379285Y-53415071D01*
X114426904Y-53510309D01*
X114426904Y-53748404D01*
X114379285Y-53843642D01*
X114331666Y-53891261D01*
X114236428Y-53938880D01*
X113950714Y-53938880D01*
X113855476Y-53891261D01*
X113807857Y-53843642D01*
X114807857Y-53034119D02*
X114855476Y-52986500D01*
X114950714Y-52938880D01*
X115188809Y-52938880D01*
X115284047Y-52986500D01*
X115331666Y-53034119D01*
X115379285Y-53129357D01*
X115379285Y-53224595D01*
X115331666Y-53367452D01*
X114760238Y-53938880D01*
X115379285Y-53938880D01*
%TO.C,C4*%
X126071333Y-124817142D02*
X126023714Y-124864761D01*
X125880857Y-124912380D01*
X125785619Y-124912380D01*
X125642761Y-124864761D01*
X125547523Y-124769523D01*
X125499904Y-124674285D01*
X125452285Y-124483809D01*
X125452285Y-124340952D01*
X125499904Y-124150476D01*
X125547523Y-124055238D01*
X125642761Y-123960000D01*
X125785619Y-123912380D01*
X125880857Y-123912380D01*
X126023714Y-123960000D01*
X126071333Y-124007619D01*
X126928476Y-124245714D02*
X126928476Y-124912380D01*
X126690380Y-123864761D02*
X126452285Y-124579047D01*
X127071333Y-124579047D01*
X131027952Y-126951380D02*
X130456523Y-126951380D01*
X130742238Y-126951380D02*
X130742238Y-125951380D01*
X130647000Y-126094238D01*
X130551761Y-126189476D01*
X130456523Y-126237095D01*
X131647000Y-125951380D02*
X131742238Y-125951380D01*
X131837476Y-125999000D01*
X131885095Y-126046619D01*
X131932714Y-126141857D01*
X131980333Y-126332333D01*
X131980333Y-126570428D01*
X131932714Y-126760904D01*
X131885095Y-126856142D01*
X131837476Y-126903761D01*
X131742238Y-126951380D01*
X131647000Y-126951380D01*
X131551761Y-126903761D01*
X131504142Y-126856142D01*
X131456523Y-126760904D01*
X131408904Y-126570428D01*
X131408904Y-126332333D01*
X131456523Y-126141857D01*
X131504142Y-126046619D01*
X131551761Y-125999000D01*
X131647000Y-125951380D01*
X132599380Y-125951380D02*
X132694619Y-125951380D01*
X132789857Y-125999000D01*
X132837476Y-126046619D01*
X132885095Y-126141857D01*
X132932714Y-126332333D01*
X132932714Y-126570428D01*
X132885095Y-126760904D01*
X132837476Y-126856142D01*
X132789857Y-126903761D01*
X132694619Y-126951380D01*
X132599380Y-126951380D01*
X132504142Y-126903761D01*
X132456523Y-126856142D01*
X132408904Y-126760904D01*
X132361285Y-126570428D01*
X132361285Y-126332333D01*
X132408904Y-126141857D01*
X132456523Y-126046619D01*
X132504142Y-125999000D01*
X132599380Y-125951380D01*
X133361285Y-126284714D02*
X133361285Y-126951380D01*
X133361285Y-126379952D02*
X133408904Y-126332333D01*
X133504142Y-126284714D01*
X133647000Y-126284714D01*
X133742238Y-126332333D01*
X133789857Y-126427571D01*
X133789857Y-126951380D01*
%TO.C,U9*%
X150114095Y-119848380D02*
X150114095Y-120657904D01*
X150161714Y-120753142D01*
X150209333Y-120800761D01*
X150304571Y-120848380D01*
X150495047Y-120848380D01*
X150590285Y-120800761D01*
X150637904Y-120753142D01*
X150685523Y-120657904D01*
X150685523Y-119848380D01*
X151209333Y-120848380D02*
X151399809Y-120848380D01*
X151495047Y-120800761D01*
X151542666Y-120753142D01*
X151637904Y-120610285D01*
X151685523Y-120419809D01*
X151685523Y-120038857D01*
X151637904Y-119943619D01*
X151590285Y-119896000D01*
X151495047Y-119848380D01*
X151304571Y-119848380D01*
X151209333Y-119896000D01*
X151161714Y-119943619D01*
X151114095Y-120038857D01*
X151114095Y-120276952D01*
X151161714Y-120372190D01*
X151209333Y-120419809D01*
X151304571Y-120467428D01*
X151495047Y-120467428D01*
X151590285Y-120419809D01*
X151637904Y-120372190D01*
X151685523Y-120276952D01*
X141523095Y-94340880D02*
X142189761Y-94340880D01*
X141761190Y-95340880D01*
X142999285Y-94674214D02*
X142999285Y-95340880D01*
X142761190Y-94293261D02*
X142523095Y-95007547D01*
X143142142Y-95007547D01*
X143523095Y-95340880D02*
X143523095Y-94340880D01*
X143523095Y-94817071D02*
X144094523Y-94817071D01*
X144094523Y-95340880D02*
X144094523Y-94340880D01*
X145142142Y-95245642D02*
X145094523Y-95293261D01*
X144951666Y-95340880D01*
X144856428Y-95340880D01*
X144713571Y-95293261D01*
X144618333Y-95198023D01*
X144570714Y-95102785D01*
X144523095Y-94912309D01*
X144523095Y-94769452D01*
X144570714Y-94578976D01*
X144618333Y-94483738D01*
X144713571Y-94388500D01*
X144856428Y-94340880D01*
X144951666Y-94340880D01*
X145094523Y-94388500D01*
X145142142Y-94436119D01*
X145475476Y-94340880D02*
X146094523Y-94340880D01*
X145761190Y-94721833D01*
X145904047Y-94721833D01*
X145999285Y-94769452D01*
X146046904Y-94817071D01*
X146094523Y-94912309D01*
X146094523Y-95150404D01*
X146046904Y-95245642D01*
X145999285Y-95293261D01*
X145904047Y-95340880D01*
X145618333Y-95340880D01*
X145523095Y-95293261D01*
X145475476Y-95245642D01*
X146427857Y-94340880D02*
X147094523Y-94340880D01*
X146665952Y-95340880D01*
X147904047Y-94674214D02*
X147904047Y-95340880D01*
X147665952Y-94293261D02*
X147427857Y-95007547D01*
X148046904Y-95007547D01*
%TO.C,C8*%
X150709333Y-124817142D02*
X150661714Y-124864761D01*
X150518857Y-124912380D01*
X150423619Y-124912380D01*
X150280761Y-124864761D01*
X150185523Y-124769523D01*
X150137904Y-124674285D01*
X150090285Y-124483809D01*
X150090285Y-124340952D01*
X150137904Y-124150476D01*
X150185523Y-124055238D01*
X150280761Y-123960000D01*
X150423619Y-123912380D01*
X150518857Y-123912380D01*
X150661714Y-123960000D01*
X150709333Y-124007619D01*
X151280761Y-124340952D02*
X151185523Y-124293333D01*
X151137904Y-124245714D01*
X151090285Y-124150476D01*
X151090285Y-124102857D01*
X151137904Y-124007619D01*
X151185523Y-123960000D01*
X151280761Y-123912380D01*
X151471238Y-123912380D01*
X151566476Y-123960000D01*
X151614095Y-124007619D01*
X151661714Y-124102857D01*
X151661714Y-124150476D01*
X151614095Y-124245714D01*
X151566476Y-124293333D01*
X151471238Y-124340952D01*
X151280761Y-124340952D01*
X151185523Y-124388571D01*
X151137904Y-124436190D01*
X151090285Y-124531428D01*
X151090285Y-124721904D01*
X151137904Y-124817142D01*
X151185523Y-124864761D01*
X151280761Y-124912380D01*
X151471238Y-124912380D01*
X151566476Y-124864761D01*
X151614095Y-124817142D01*
X151661714Y-124721904D01*
X151661714Y-124531428D01*
X151614095Y-124436190D01*
X151566476Y-124388571D01*
X151471238Y-124340952D01*
X140257352Y-126791980D02*
X139685923Y-126791980D01*
X139971638Y-126791980D02*
X139971638Y-125791980D01*
X139876400Y-125934838D01*
X139781161Y-126030076D01*
X139685923Y-126077695D01*
X140876400Y-125791980D02*
X140971638Y-125791980D01*
X141066876Y-125839600D01*
X141114495Y-125887219D01*
X141162114Y-125982457D01*
X141209733Y-126172933D01*
X141209733Y-126411028D01*
X141162114Y-126601504D01*
X141114495Y-126696742D01*
X141066876Y-126744361D01*
X140971638Y-126791980D01*
X140876400Y-126791980D01*
X140781161Y-126744361D01*
X140733542Y-126696742D01*
X140685923Y-126601504D01*
X140638304Y-126411028D01*
X140638304Y-126172933D01*
X140685923Y-125982457D01*
X140733542Y-125887219D01*
X140781161Y-125839600D01*
X140876400Y-125791980D01*
X141828780Y-125791980D02*
X141924019Y-125791980D01*
X142019257Y-125839600D01*
X142066876Y-125887219D01*
X142114495Y-125982457D01*
X142162114Y-126172933D01*
X142162114Y-126411028D01*
X142114495Y-126601504D01*
X142066876Y-126696742D01*
X142019257Y-126744361D01*
X141924019Y-126791980D01*
X141828780Y-126791980D01*
X141733542Y-126744361D01*
X141685923Y-126696742D01*
X141638304Y-126601504D01*
X141590685Y-126411028D01*
X141590685Y-126172933D01*
X141638304Y-125982457D01*
X141685923Y-125887219D01*
X141733542Y-125839600D01*
X141828780Y-125791980D01*
X142590685Y-126125314D02*
X142590685Y-126791980D01*
X142590685Y-126220552D02*
X142638304Y-126172933D01*
X142733542Y-126125314D01*
X142876400Y-126125314D01*
X142971638Y-126172933D01*
X143019257Y-126268171D01*
X143019257Y-126791980D01*
%TO.C,C7*%
X77020142Y-139592666D02*
X77067761Y-139640285D01*
X77115380Y-139783142D01*
X77115380Y-139878380D01*
X77067761Y-140021238D01*
X76972523Y-140116476D01*
X76877285Y-140164095D01*
X76686809Y-140211714D01*
X76543952Y-140211714D01*
X76353476Y-140164095D01*
X76258238Y-140116476D01*
X76163000Y-140021238D01*
X76115380Y-139878380D01*
X76115380Y-139783142D01*
X76163000Y-139640285D01*
X76210619Y-139592666D01*
X76115380Y-139259333D02*
X76115380Y-138592666D01*
X77115380Y-139021238D01*
X68829180Y-140028419D02*
X68829180Y-140599847D01*
X68829180Y-140314133D02*
X67829180Y-140314133D01*
X67972038Y-140409371D01*
X68067276Y-140504609D01*
X68114895Y-140599847D01*
X67829180Y-139409371D02*
X67829180Y-139314133D01*
X67876800Y-139218895D01*
X67924419Y-139171276D01*
X68019657Y-139123657D01*
X68210133Y-139076038D01*
X68448228Y-139076038D01*
X68638704Y-139123657D01*
X68733942Y-139171276D01*
X68781561Y-139218895D01*
X68829180Y-139314133D01*
X68829180Y-139409371D01*
X68781561Y-139504609D01*
X68733942Y-139552228D01*
X68638704Y-139599847D01*
X68448228Y-139647466D01*
X68210133Y-139647466D01*
X68019657Y-139599847D01*
X67924419Y-139552228D01*
X67876800Y-139504609D01*
X67829180Y-139409371D01*
X67829180Y-138456990D02*
X67829180Y-138361752D01*
X67876800Y-138266514D01*
X67924419Y-138218895D01*
X68019657Y-138171276D01*
X68210133Y-138123657D01*
X68448228Y-138123657D01*
X68638704Y-138171276D01*
X68733942Y-138218895D01*
X68781561Y-138266514D01*
X68829180Y-138361752D01*
X68829180Y-138456990D01*
X68781561Y-138552228D01*
X68733942Y-138599847D01*
X68638704Y-138647466D01*
X68448228Y-138695085D01*
X68210133Y-138695085D01*
X68019657Y-138647466D01*
X67924419Y-138599847D01*
X67876800Y-138552228D01*
X67829180Y-138456990D01*
X68162514Y-137266514D02*
X68829180Y-137266514D01*
X68162514Y-137695085D02*
X68686323Y-137695085D01*
X68781561Y-137647466D01*
X68829180Y-137552228D01*
X68829180Y-137409371D01*
X68781561Y-137314133D01*
X68733942Y-137266514D01*
X68305371Y-136456990D02*
X68305371Y-136790323D01*
X68829180Y-136790323D02*
X67829180Y-136790323D01*
X67829180Y-136314133D01*
%TO.C,C6*%
X103846333Y-124944142D02*
X103798714Y-124991761D01*
X103655857Y-125039380D01*
X103560619Y-125039380D01*
X103417761Y-124991761D01*
X103322523Y-124896523D01*
X103274904Y-124801285D01*
X103227285Y-124610809D01*
X103227285Y-124467952D01*
X103274904Y-124277476D01*
X103322523Y-124182238D01*
X103417761Y-124087000D01*
X103560619Y-124039380D01*
X103655857Y-124039380D01*
X103798714Y-124087000D01*
X103846333Y-124134619D01*
X104703476Y-124039380D02*
X104513000Y-124039380D01*
X104417761Y-124087000D01*
X104370142Y-124134619D01*
X104274904Y-124277476D01*
X104227285Y-124467952D01*
X104227285Y-124848904D01*
X104274904Y-124944142D01*
X104322523Y-124991761D01*
X104417761Y-125039380D01*
X104608238Y-125039380D01*
X104703476Y-124991761D01*
X104751095Y-124944142D01*
X104798714Y-124848904D01*
X104798714Y-124610809D01*
X104751095Y-124515571D01*
X104703476Y-124467952D01*
X104608238Y-124420333D01*
X104417761Y-124420333D01*
X104322523Y-124467952D01*
X104274904Y-124515571D01*
X104227285Y-124610809D01*
X108675952Y-126951380D02*
X108104523Y-126951380D01*
X108390238Y-126951380D02*
X108390238Y-125951380D01*
X108295000Y-126094238D01*
X108199761Y-126189476D01*
X108104523Y-126237095D01*
X109295000Y-125951380D02*
X109390238Y-125951380D01*
X109485476Y-125999000D01*
X109533095Y-126046619D01*
X109580714Y-126141857D01*
X109628333Y-126332333D01*
X109628333Y-126570428D01*
X109580714Y-126760904D01*
X109533095Y-126856142D01*
X109485476Y-126903761D01*
X109390238Y-126951380D01*
X109295000Y-126951380D01*
X109199761Y-126903761D01*
X109152142Y-126856142D01*
X109104523Y-126760904D01*
X109056904Y-126570428D01*
X109056904Y-126332333D01*
X109104523Y-126141857D01*
X109152142Y-126046619D01*
X109199761Y-125999000D01*
X109295000Y-125951380D01*
X110247380Y-125951380D02*
X110342619Y-125951380D01*
X110437857Y-125999000D01*
X110485476Y-126046619D01*
X110533095Y-126141857D01*
X110580714Y-126332333D01*
X110580714Y-126570428D01*
X110533095Y-126760904D01*
X110485476Y-126856142D01*
X110437857Y-126903761D01*
X110342619Y-126951380D01*
X110247380Y-126951380D01*
X110152142Y-126903761D01*
X110104523Y-126856142D01*
X110056904Y-126760904D01*
X110009285Y-126570428D01*
X110009285Y-126332333D01*
X110056904Y-126141857D01*
X110104523Y-126046619D01*
X110152142Y-125999000D01*
X110247380Y-125951380D01*
X111009285Y-126284714D02*
X111009285Y-126951380D01*
X111009285Y-126379952D02*
X111056904Y-126332333D01*
X111152142Y-126284714D01*
X111295000Y-126284714D01*
X111390238Y-126332333D01*
X111437857Y-126427571D01*
X111437857Y-126951380D01*
%TO.C,C5*%
X103465333Y-87987142D02*
X103417714Y-88034761D01*
X103274857Y-88082380D01*
X103179619Y-88082380D01*
X103036761Y-88034761D01*
X102941523Y-87939523D01*
X102893904Y-87844285D01*
X102846285Y-87653809D01*
X102846285Y-87510952D01*
X102893904Y-87320476D01*
X102941523Y-87225238D01*
X103036761Y-87130000D01*
X103179619Y-87082380D01*
X103274857Y-87082380D01*
X103417714Y-87130000D01*
X103465333Y-87177619D01*
X104370095Y-87082380D02*
X103893904Y-87082380D01*
X103846285Y-87558571D01*
X103893904Y-87510952D01*
X103989142Y-87463333D01*
X104227238Y-87463333D01*
X104322476Y-87510952D01*
X104370095Y-87558571D01*
X104417714Y-87653809D01*
X104417714Y-87891904D01*
X104370095Y-87987142D01*
X104322476Y-88034761D01*
X104227238Y-88082380D01*
X103989142Y-88082380D01*
X103893904Y-88034761D01*
X103846285Y-87987142D01*
X102462152Y-89860380D02*
X101890723Y-89860380D01*
X102176438Y-89860380D02*
X102176438Y-88860380D01*
X102081200Y-89003238D01*
X101985961Y-89098476D01*
X101890723Y-89146095D01*
X103081200Y-88860380D02*
X103176438Y-88860380D01*
X103271676Y-88908000D01*
X103319295Y-88955619D01*
X103366914Y-89050857D01*
X103414533Y-89241333D01*
X103414533Y-89479428D01*
X103366914Y-89669904D01*
X103319295Y-89765142D01*
X103271676Y-89812761D01*
X103176438Y-89860380D01*
X103081200Y-89860380D01*
X102985961Y-89812761D01*
X102938342Y-89765142D01*
X102890723Y-89669904D01*
X102843104Y-89479428D01*
X102843104Y-89241333D01*
X102890723Y-89050857D01*
X102938342Y-88955619D01*
X102985961Y-88908000D01*
X103081200Y-88860380D01*
X104033580Y-88860380D02*
X104128819Y-88860380D01*
X104224057Y-88908000D01*
X104271676Y-88955619D01*
X104319295Y-89050857D01*
X104366914Y-89241333D01*
X104366914Y-89479428D01*
X104319295Y-89669904D01*
X104271676Y-89765142D01*
X104224057Y-89812761D01*
X104128819Y-89860380D01*
X104033580Y-89860380D01*
X103938342Y-89812761D01*
X103890723Y-89765142D01*
X103843104Y-89669904D01*
X103795485Y-89479428D01*
X103795485Y-89241333D01*
X103843104Y-89050857D01*
X103890723Y-88955619D01*
X103938342Y-88908000D01*
X104033580Y-88860380D01*
X104795485Y-89193714D02*
X104795485Y-89860380D01*
X104795485Y-89288952D02*
X104843104Y-89241333D01*
X104938342Y-89193714D01*
X105081200Y-89193714D01*
X105176438Y-89241333D01*
X105224057Y-89336571D01*
X105224057Y-89860380D01*
%TO.C,J4*%
X157908666Y-98722380D02*
X157908666Y-99436666D01*
X157861047Y-99579523D01*
X157765809Y-99674761D01*
X157622952Y-99722380D01*
X157527714Y-99722380D01*
X158813428Y-99055714D02*
X158813428Y-99722380D01*
X158575333Y-98674761D02*
X158337238Y-99389047D01*
X158956285Y-99389047D01*
%TO.C,J3*%
X156638666Y-63162380D02*
X156638666Y-63876666D01*
X156591047Y-64019523D01*
X156495809Y-64114761D01*
X156352952Y-64162380D01*
X156257714Y-64162380D01*
X157019619Y-63162380D02*
X157638666Y-63162380D01*
X157305333Y-63543333D01*
X157448190Y-63543333D01*
X157543428Y-63590952D01*
X157591047Y-63638571D01*
X157638666Y-63733809D01*
X157638666Y-63971904D01*
X157591047Y-64067142D01*
X157543428Y-64114761D01*
X157448190Y-64162380D01*
X157162476Y-64162380D01*
X157067238Y-64114761D01*
X157019619Y-64067142D01*
%TO.C,J2*%
X157908666Y-75862380D02*
X157908666Y-76576666D01*
X157861047Y-76719523D01*
X157765809Y-76814761D01*
X157622952Y-76862380D01*
X157527714Y-76862380D01*
X158337238Y-75957619D02*
X158384857Y-75910000D01*
X158480095Y-75862380D01*
X158718190Y-75862380D01*
X158813428Y-75910000D01*
X158861047Y-75957619D01*
X158908666Y-76052857D01*
X158908666Y-76148095D01*
X158861047Y-76290952D01*
X158289619Y-76862380D01*
X158908666Y-76862380D01*
%TO.C,U8*%
X145796095Y-53046380D02*
X145796095Y-53855904D01*
X145843714Y-53951142D01*
X145891333Y-53998761D01*
X145986571Y-54046380D01*
X146177047Y-54046380D01*
X146272285Y-53998761D01*
X146319904Y-53951142D01*
X146367523Y-53855904D01*
X146367523Y-53046380D01*
X146986571Y-53474952D02*
X146891333Y-53427333D01*
X146843714Y-53379714D01*
X146796095Y-53284476D01*
X146796095Y-53236857D01*
X146843714Y-53141619D01*
X146891333Y-53094000D01*
X146986571Y-53046380D01*
X147177047Y-53046380D01*
X147272285Y-53094000D01*
X147319904Y-53141619D01*
X147367523Y-53236857D01*
X147367523Y-53284476D01*
X147319904Y-53379714D01*
X147272285Y-53427333D01*
X147177047Y-53474952D01*
X146986571Y-53474952D01*
X146891333Y-53522571D01*
X146843714Y-53570190D01*
X146796095Y-53665428D01*
X146796095Y-53855904D01*
X146843714Y-53951142D01*
X146891333Y-53998761D01*
X146986571Y-54046380D01*
X147177047Y-54046380D01*
X147272285Y-53998761D01*
X147319904Y-53951142D01*
X147367523Y-53855904D01*
X147367523Y-53665428D01*
X147319904Y-53570190D01*
X147272285Y-53522571D01*
X147177047Y-53474952D01*
%TO.C,U7*%
X134874095Y-53046380D02*
X134874095Y-53855904D01*
X134921714Y-53951142D01*
X134969333Y-53998761D01*
X135064571Y-54046380D01*
X135255047Y-54046380D01*
X135350285Y-53998761D01*
X135397904Y-53951142D01*
X135445523Y-53855904D01*
X135445523Y-53046380D01*
X135826476Y-53046380D02*
X136493142Y-53046380D01*
X136064571Y-54046380D01*
%TO.C,U6*%
X116078095Y-122007380D02*
X116078095Y-122816904D01*
X116125714Y-122912142D01*
X116173333Y-122959761D01*
X116268571Y-123007380D01*
X116459047Y-123007380D01*
X116554285Y-122959761D01*
X116601904Y-122912142D01*
X116649523Y-122816904D01*
X116649523Y-122007380D01*
X117554285Y-122007380D02*
X117363809Y-122007380D01*
X117268571Y-122055000D01*
X117220952Y-122102619D01*
X117125714Y-122245476D01*
X117078095Y-122435952D01*
X117078095Y-122816904D01*
X117125714Y-122912142D01*
X117173333Y-122959761D01*
X117268571Y-123007380D01*
X117459047Y-123007380D01*
X117554285Y-122959761D01*
X117601904Y-122912142D01*
X117649523Y-122816904D01*
X117649523Y-122578809D01*
X117601904Y-122483571D01*
X117554285Y-122435952D01*
X117459047Y-122388333D01*
X117268571Y-122388333D01*
X117173333Y-122435952D01*
X117125714Y-122483571D01*
X117078095Y-122578809D01*
X111950714Y-89419619D02*
X111998333Y-89372000D01*
X112093571Y-89324380D01*
X112331666Y-89324380D01*
X112426904Y-89372000D01*
X112474523Y-89419619D01*
X112522142Y-89514857D01*
X112522142Y-89610095D01*
X112474523Y-89752952D01*
X111903095Y-90324380D01*
X112522142Y-90324380D01*
X112855476Y-89324380D02*
X113522142Y-89324380D01*
X113093571Y-90324380D01*
X113807857Y-89324380D02*
X114426904Y-89324380D01*
X114093571Y-89705333D01*
X114236428Y-89705333D01*
X114331666Y-89752952D01*
X114379285Y-89800571D01*
X114426904Y-89895809D01*
X114426904Y-90133904D01*
X114379285Y-90229142D01*
X114331666Y-90276761D01*
X114236428Y-90324380D01*
X113950714Y-90324380D01*
X113855476Y-90276761D01*
X113807857Y-90229142D01*
X114807857Y-89419619D02*
X114855476Y-89372000D01*
X114950714Y-89324380D01*
X115188809Y-89324380D01*
X115284047Y-89372000D01*
X115331666Y-89419619D01*
X115379285Y-89514857D01*
X115379285Y-89610095D01*
X115331666Y-89752952D01*
X114760238Y-90324380D01*
X115379285Y-90324380D01*
%TO.C,U2*%
X95758095Y-120356380D02*
X95758095Y-121165904D01*
X95805714Y-121261142D01*
X95853333Y-121308761D01*
X95948571Y-121356380D01*
X96139047Y-121356380D01*
X96234285Y-121308761D01*
X96281904Y-121261142D01*
X96329523Y-121165904D01*
X96329523Y-120356380D01*
X96758095Y-120451619D02*
X96805714Y-120404000D01*
X96900952Y-120356380D01*
X97139047Y-120356380D01*
X97234285Y-120404000D01*
X97281904Y-120451619D01*
X97329523Y-120546857D01*
X97329523Y-120642095D01*
X97281904Y-120784952D01*
X96710476Y-121356380D01*
X97329523Y-121356380D01*
X87819242Y-101960880D02*
X88485909Y-101960880D01*
X88057338Y-102960880D01*
X89295433Y-102294214D02*
X89295433Y-102960880D01*
X89057338Y-101913261D02*
X88819242Y-102627547D01*
X89438290Y-102627547D01*
X90295433Y-102960880D02*
X89819242Y-102960880D01*
X89819242Y-101960880D01*
X90581147Y-102913261D02*
X90724004Y-102960880D01*
X90962100Y-102960880D01*
X91057338Y-102913261D01*
X91104957Y-102865642D01*
X91152576Y-102770404D01*
X91152576Y-102675166D01*
X91104957Y-102579928D01*
X91057338Y-102532309D01*
X90962100Y-102484690D01*
X90771623Y-102437071D01*
X90676385Y-102389452D01*
X90628766Y-102341833D01*
X90581147Y-102246595D01*
X90581147Y-102151357D01*
X90628766Y-102056119D01*
X90676385Y-102008500D01*
X90771623Y-101960880D01*
X91009719Y-101960880D01*
X91152576Y-102008500D01*
X91724004Y-102389452D02*
X91628766Y-102341833D01*
X91581147Y-102294214D01*
X91533528Y-102198976D01*
X91533528Y-102151357D01*
X91581147Y-102056119D01*
X91628766Y-102008500D01*
X91724004Y-101960880D01*
X91914480Y-101960880D01*
X92009719Y-102008500D01*
X92057338Y-102056119D01*
X92104957Y-102151357D01*
X92104957Y-102198976D01*
X92057338Y-102294214D01*
X92009719Y-102341833D01*
X91914480Y-102389452D01*
X91724004Y-102389452D01*
X91628766Y-102437071D01*
X91581147Y-102484690D01*
X91533528Y-102579928D01*
X91533528Y-102770404D01*
X91581147Y-102865642D01*
X91628766Y-102913261D01*
X91724004Y-102960880D01*
X91914480Y-102960880D01*
X92009719Y-102913261D01*
X92057338Y-102865642D01*
X92104957Y-102770404D01*
X92104957Y-102579928D01*
X92057338Y-102484690D01*
X92009719Y-102437071D01*
X91914480Y-102389452D01*
X92962100Y-101960880D02*
X92771623Y-101960880D01*
X92676385Y-102008500D01*
X92628766Y-102056119D01*
X92533528Y-102198976D01*
X92485909Y-102389452D01*
X92485909Y-102770404D01*
X92533528Y-102865642D01*
X92581147Y-102913261D01*
X92676385Y-102960880D01*
X92866861Y-102960880D01*
X92962100Y-102913261D01*
X93009719Y-102865642D01*
X93057338Y-102770404D01*
X93057338Y-102532309D01*
X93009719Y-102437071D01*
X92962100Y-102389452D01*
X92866861Y-102341833D01*
X92676385Y-102341833D01*
X92581147Y-102389452D01*
X92533528Y-102437071D01*
X92485909Y-102532309D01*
%TO.C,U1*%
X69380195Y-119721380D02*
X69380195Y-120530904D01*
X69427814Y-120626142D01*
X69475433Y-120673761D01*
X69570671Y-120721380D01*
X69761147Y-120721380D01*
X69856385Y-120673761D01*
X69904004Y-120626142D01*
X69951623Y-120530904D01*
X69951623Y-119721380D01*
X70951623Y-120721380D02*
X70380195Y-120721380D01*
X70665909Y-120721380D02*
X70665909Y-119721380D01*
X70570671Y-119864238D01*
X70475433Y-119959476D01*
X70380195Y-120007095D01*
X72865052Y-94340880D02*
X73531719Y-94340880D01*
X73103147Y-95340880D01*
X74341242Y-94674214D02*
X74341242Y-95340880D01*
X74103147Y-94293261D02*
X73865052Y-95007547D01*
X74484100Y-95007547D01*
X75341242Y-95340880D02*
X74865052Y-95340880D01*
X74865052Y-94340880D01*
X75626957Y-95293261D02*
X75769814Y-95340880D01*
X76007909Y-95340880D01*
X76103147Y-95293261D01*
X76150766Y-95245642D01*
X76198385Y-95150404D01*
X76198385Y-95055166D01*
X76150766Y-94959928D01*
X76103147Y-94912309D01*
X76007909Y-94864690D01*
X75817433Y-94817071D01*
X75722195Y-94769452D01*
X75674576Y-94721833D01*
X75626957Y-94626595D01*
X75626957Y-94531357D01*
X75674576Y-94436119D01*
X75722195Y-94388500D01*
X75817433Y-94340880D01*
X76055528Y-94340880D01*
X76198385Y-94388500D01*
X77055528Y-94340880D02*
X76865052Y-94340880D01*
X76769814Y-94388500D01*
X76722195Y-94436119D01*
X76626957Y-94578976D01*
X76579338Y-94769452D01*
X76579338Y-95150404D01*
X76626957Y-95245642D01*
X76674576Y-95293261D01*
X76769814Y-95340880D01*
X76960290Y-95340880D01*
X77055528Y-95293261D01*
X77103147Y-95245642D01*
X77150766Y-95150404D01*
X77150766Y-94912309D01*
X77103147Y-94817071D01*
X77055528Y-94769452D01*
X76960290Y-94721833D01*
X76769814Y-94721833D01*
X76674576Y-94769452D01*
X76626957Y-94817071D01*
X76579338Y-94912309D01*
X77722195Y-94769452D02*
X77626957Y-94721833D01*
X77579338Y-94674214D01*
X77531719Y-94578976D01*
X77531719Y-94531357D01*
X77579338Y-94436119D01*
X77626957Y-94388500D01*
X77722195Y-94340880D01*
X77912671Y-94340880D01*
X78007909Y-94388500D01*
X78055528Y-94436119D01*
X78103147Y-94531357D01*
X78103147Y-94578976D01*
X78055528Y-94674214D01*
X78007909Y-94721833D01*
X77912671Y-94769452D01*
X77722195Y-94769452D01*
X77626957Y-94817071D01*
X77579338Y-94864690D01*
X77531719Y-94959928D01*
X77531719Y-95150404D01*
X77579338Y-95245642D01*
X77626957Y-95293261D01*
X77722195Y-95340880D01*
X77912671Y-95340880D01*
X78007909Y-95293261D01*
X78055528Y-95245642D01*
X78103147Y-95150404D01*
X78103147Y-94959928D01*
X78055528Y-94864690D01*
X78007909Y-94817071D01*
X77912671Y-94769452D01*
X78674576Y-94769452D02*
X78579338Y-94721833D01*
X78531719Y-94674214D01*
X78484100Y-94578976D01*
X78484100Y-94531357D01*
X78531719Y-94436119D01*
X78579338Y-94388500D01*
X78674576Y-94340880D01*
X78865052Y-94340880D01*
X78960290Y-94388500D01*
X79007909Y-94436119D01*
X79055528Y-94531357D01*
X79055528Y-94578976D01*
X79007909Y-94674214D01*
X78960290Y-94721833D01*
X78865052Y-94769452D01*
X78674576Y-94769452D01*
X78579338Y-94817071D01*
X78531719Y-94864690D01*
X78484100Y-94959928D01*
X78484100Y-95150404D01*
X78531719Y-95245642D01*
X78579338Y-95293261D01*
X78674576Y-95340880D01*
X78865052Y-95340880D01*
X78960290Y-95293261D01*
X79007909Y-95245642D01*
X79055528Y-95150404D01*
X79055528Y-94959928D01*
X79007909Y-94864690D01*
X78960290Y-94817071D01*
X78865052Y-94769452D01*
%TO.C,SW1*%
X99377666Y-85585261D02*
X99520523Y-85632880D01*
X99758619Y-85632880D01*
X99853857Y-85585261D01*
X99901476Y-85537642D01*
X99949095Y-85442404D01*
X99949095Y-85347166D01*
X99901476Y-85251928D01*
X99853857Y-85204309D01*
X99758619Y-85156690D01*
X99568142Y-85109071D01*
X99472904Y-85061452D01*
X99425285Y-85013833D01*
X99377666Y-84918595D01*
X99377666Y-84823357D01*
X99425285Y-84728119D01*
X99472904Y-84680500D01*
X99568142Y-84632880D01*
X99806238Y-84632880D01*
X99949095Y-84680500D01*
X100282428Y-84632880D02*
X100520523Y-85632880D01*
X100711000Y-84918595D01*
X100901476Y-85632880D01*
X101139571Y-84632880D01*
X102044333Y-85632880D02*
X101472904Y-85632880D01*
X101758619Y-85632880D02*
X101758619Y-84632880D01*
X101663380Y-84775738D01*
X101568142Y-84870976D01*
X101472904Y-84918595D01*
%TO.C,C3*%
X67143333Y-72493142D02*
X67095714Y-72540761D01*
X66952857Y-72588380D01*
X66857619Y-72588380D01*
X66714761Y-72540761D01*
X66619523Y-72445523D01*
X66571904Y-72350285D01*
X66524285Y-72159809D01*
X66524285Y-72016952D01*
X66571904Y-71826476D01*
X66619523Y-71731238D01*
X66714761Y-71636000D01*
X66857619Y-71588380D01*
X66952857Y-71588380D01*
X67095714Y-71636000D01*
X67143333Y-71683619D01*
X67476666Y-71588380D02*
X68095714Y-71588380D01*
X67762380Y-71969333D01*
X67905238Y-71969333D01*
X68000476Y-72016952D01*
X68048095Y-72064571D01*
X68095714Y-72159809D01*
X68095714Y-72397904D01*
X68048095Y-72493142D01*
X68000476Y-72540761D01*
X67905238Y-72588380D01*
X67619523Y-72588380D01*
X67524285Y-72540761D01*
X67476666Y-72493142D01*
X65476380Y-65431847D02*
X65476380Y-66003276D01*
X65476380Y-65717561D02*
X64476380Y-65717561D01*
X64619238Y-65812800D01*
X64714476Y-65908038D01*
X64762095Y-66003276D01*
X64476380Y-64812800D02*
X64476380Y-64717561D01*
X64524000Y-64622323D01*
X64571619Y-64574704D01*
X64666857Y-64527085D01*
X64857333Y-64479466D01*
X65095428Y-64479466D01*
X65285904Y-64527085D01*
X65381142Y-64574704D01*
X65428761Y-64622323D01*
X65476380Y-64717561D01*
X65476380Y-64812800D01*
X65428761Y-64908038D01*
X65381142Y-64955657D01*
X65285904Y-65003276D01*
X65095428Y-65050895D01*
X64857333Y-65050895D01*
X64666857Y-65003276D01*
X64571619Y-64955657D01*
X64524000Y-64908038D01*
X64476380Y-64812800D01*
X64476380Y-63860419D02*
X64476380Y-63765180D01*
X64524000Y-63669942D01*
X64571619Y-63622323D01*
X64666857Y-63574704D01*
X64857333Y-63527085D01*
X65095428Y-63527085D01*
X65285904Y-63574704D01*
X65381142Y-63622323D01*
X65428761Y-63669942D01*
X65476380Y-63765180D01*
X65476380Y-63860419D01*
X65428761Y-63955657D01*
X65381142Y-64003276D01*
X65285904Y-64050895D01*
X65095428Y-64098514D01*
X64857333Y-64098514D01*
X64666857Y-64050895D01*
X64571619Y-64003276D01*
X64524000Y-63955657D01*
X64476380Y-63860419D01*
X64809714Y-63098514D02*
X65476380Y-63098514D01*
X64904952Y-63098514D02*
X64857333Y-63050895D01*
X64809714Y-62955657D01*
X64809714Y-62812800D01*
X64857333Y-62717561D01*
X64952571Y-62669942D01*
X65476380Y-62669942D01*
%TO.C,C2*%
X96099333Y-125071142D02*
X96051714Y-125118761D01*
X95908857Y-125166380D01*
X95813619Y-125166380D01*
X95670761Y-125118761D01*
X95575523Y-125023523D01*
X95527904Y-124928285D01*
X95480285Y-124737809D01*
X95480285Y-124594952D01*
X95527904Y-124404476D01*
X95575523Y-124309238D01*
X95670761Y-124214000D01*
X95813619Y-124166380D01*
X95908857Y-124166380D01*
X96051714Y-124214000D01*
X96099333Y-124261619D01*
X96480285Y-124261619D02*
X96527904Y-124214000D01*
X96623142Y-124166380D01*
X96861238Y-124166380D01*
X96956476Y-124214000D01*
X97004095Y-124261619D01*
X97051714Y-124356857D01*
X97051714Y-124452095D01*
X97004095Y-124594952D01*
X96432666Y-125166380D01*
X97051714Y-125166380D01*
X92200552Y-126741180D02*
X91629123Y-126741180D01*
X91914838Y-126741180D02*
X91914838Y-125741180D01*
X91819600Y-125884038D01*
X91724361Y-125979276D01*
X91629123Y-126026895D01*
X92819600Y-125741180D02*
X92914838Y-125741180D01*
X93010076Y-125788800D01*
X93057695Y-125836419D01*
X93105314Y-125931657D01*
X93152933Y-126122133D01*
X93152933Y-126360228D01*
X93105314Y-126550704D01*
X93057695Y-126645942D01*
X93010076Y-126693561D01*
X92914838Y-126741180D01*
X92819600Y-126741180D01*
X92724361Y-126693561D01*
X92676742Y-126645942D01*
X92629123Y-126550704D01*
X92581504Y-126360228D01*
X92581504Y-126122133D01*
X92629123Y-125931657D01*
X92676742Y-125836419D01*
X92724361Y-125788800D01*
X92819600Y-125741180D01*
X93771980Y-125741180D02*
X93867219Y-125741180D01*
X93962457Y-125788800D01*
X94010076Y-125836419D01*
X94057695Y-125931657D01*
X94105314Y-126122133D01*
X94105314Y-126360228D01*
X94057695Y-126550704D01*
X94010076Y-126645942D01*
X93962457Y-126693561D01*
X93867219Y-126741180D01*
X93771980Y-126741180D01*
X93676742Y-126693561D01*
X93629123Y-126645942D01*
X93581504Y-126550704D01*
X93533885Y-126360228D01*
X93533885Y-126122133D01*
X93581504Y-125931657D01*
X93629123Y-125836419D01*
X93676742Y-125788800D01*
X93771980Y-125741180D01*
X94533885Y-126074514D02*
X94533885Y-126741180D01*
X94533885Y-126169752D02*
X94581504Y-126122133D01*
X94676742Y-126074514D01*
X94819600Y-126074514D01*
X94914838Y-126122133D01*
X94962457Y-126217371D01*
X94962457Y-126741180D01*
%TO.C,C1*%
X69945433Y-124753642D02*
X69897814Y-124801261D01*
X69754957Y-124848880D01*
X69659719Y-124848880D01*
X69516861Y-124801261D01*
X69421623Y-124706023D01*
X69374004Y-124610785D01*
X69326385Y-124420309D01*
X69326385Y-124277452D01*
X69374004Y-124086976D01*
X69421623Y-123991738D01*
X69516861Y-123896500D01*
X69659719Y-123848880D01*
X69754957Y-123848880D01*
X69897814Y-123896500D01*
X69945433Y-123944119D01*
X70897814Y-124848880D02*
X70326385Y-124848880D01*
X70612100Y-124848880D02*
X70612100Y-123848880D01*
X70516861Y-123991738D01*
X70421623Y-124086976D01*
X70326385Y-124134595D01*
X78281352Y-127147580D02*
X77709923Y-127147580D01*
X77995638Y-127147580D02*
X77995638Y-126147580D01*
X77900400Y-126290438D01*
X77805161Y-126385676D01*
X77709923Y-126433295D01*
X78900400Y-126147580D02*
X78995638Y-126147580D01*
X79090876Y-126195200D01*
X79138495Y-126242819D01*
X79186114Y-126338057D01*
X79233733Y-126528533D01*
X79233733Y-126766628D01*
X79186114Y-126957104D01*
X79138495Y-127052342D01*
X79090876Y-127099961D01*
X78995638Y-127147580D01*
X78900400Y-127147580D01*
X78805161Y-127099961D01*
X78757542Y-127052342D01*
X78709923Y-126957104D01*
X78662304Y-126766628D01*
X78662304Y-126528533D01*
X78709923Y-126338057D01*
X78757542Y-126242819D01*
X78805161Y-126195200D01*
X78900400Y-126147580D01*
X79852780Y-126147580D02*
X79948019Y-126147580D01*
X80043257Y-126195200D01*
X80090876Y-126242819D01*
X80138495Y-126338057D01*
X80186114Y-126528533D01*
X80186114Y-126766628D01*
X80138495Y-126957104D01*
X80090876Y-127052342D01*
X80043257Y-127099961D01*
X79948019Y-127147580D01*
X79852780Y-127147580D01*
X79757542Y-127099961D01*
X79709923Y-127052342D01*
X79662304Y-126957104D01*
X79614685Y-126766628D01*
X79614685Y-126528533D01*
X79662304Y-126338057D01*
X79709923Y-126242819D01*
X79757542Y-126195200D01*
X79852780Y-126147580D01*
X80614685Y-126480914D02*
X80614685Y-127147580D01*
X80614685Y-126576152D02*
X80662304Y-126528533D01*
X80757542Y-126480914D01*
X80900400Y-126480914D01*
X80995638Y-126528533D01*
X81043257Y-126623771D01*
X81043257Y-127147580D01*
%TD*%
M02*
