%TF.GenerationSoftware,KiCad,Pcbnew,(5.1.12)-1*%
%TF.CreationDate,2022-05-27T21:16:08+02:00*%
%TF.ProjectId,ec1834-post,65633138-3334-42d7-906f-73742e6b6963,2b*%
%TF.SameCoordinates,Original*%
%TF.FileFunction,Other,User*%
%FSLAX46Y46*%
G04 Gerber Fmt 4.6, Leading zero omitted, Abs format (unit mm)*
G04 Created by KiCad (PCBNEW (5.1.12)-1) date 2022-05-27 21:16:08*
%MOMM*%
%LPD*%
G01*
G04 APERTURE LIST*
%ADD10C,0.050000*%
G04 APERTURE END LIST*
D10*
%TO.C,JMPR*%
X92942000Y-56824000D02*
X92942000Y-83274000D01*
X92942000Y-83274000D02*
X96542000Y-83274000D01*
X96542000Y-83274000D02*
X96542000Y-56824000D01*
X96542000Y-56824000D02*
X92942000Y-56824000D01*
%TO.C,U4*%
X127253500Y-121628500D02*
X137053500Y-121628500D01*
X127253500Y-95678500D02*
X127253500Y-121628500D01*
X137053500Y-95678500D02*
X127253500Y-95678500D01*
X137053500Y-121628500D02*
X137053500Y-95678500D01*
%TO.C,RN5*%
X149224000Y-68302400D02*
X145924000Y-68302400D01*
X145924000Y-68302400D02*
X145924000Y-89502400D01*
X145924000Y-89502400D02*
X149224000Y-89502400D01*
X149224000Y-89502400D02*
X149224000Y-68302400D01*
%TO.C,RN4*%
X144550400Y-68353200D02*
X141250400Y-68353200D01*
X141250400Y-68353200D02*
X141250400Y-89553200D01*
X141250400Y-89553200D02*
X144550400Y-89553200D01*
X144550400Y-89553200D02*
X144550400Y-68353200D01*
%TO.C,RN3*%
X136168400Y-68302400D02*
X132868400Y-68302400D01*
X132868400Y-68302400D02*
X132868400Y-89502400D01*
X132868400Y-89502400D02*
X136168400Y-89502400D01*
X136168400Y-89502400D02*
X136168400Y-68302400D01*
%TO.C,RN2*%
X140892800Y-68353200D02*
X137592800Y-68353200D01*
X137592800Y-68353200D02*
X137592800Y-89553200D01*
X137592800Y-89553200D02*
X140892800Y-89553200D01*
X140892800Y-89553200D02*
X140892800Y-68353200D01*
%TO.C,RN1*%
X89945480Y-56704760D02*
X86645480Y-56704760D01*
X86645480Y-56704760D02*
X86645480Y-80454760D01*
X86645480Y-80454760D02*
X89945480Y-80454760D01*
X89945480Y-80454760D02*
X89945480Y-56704760D01*
%TO.C,R6*%
X88967600Y-91362400D02*
X88967600Y-94362400D01*
X88967600Y-94362400D02*
X101227600Y-94362400D01*
X101227600Y-94362400D02*
X101227600Y-91362400D01*
X101227600Y-91362400D02*
X88967600Y-91362400D01*
%TO.C,R5*%
X101227600Y-100560000D02*
X101227600Y-97560000D01*
X101227600Y-97560000D02*
X88967600Y-97560000D01*
X88967600Y-97560000D02*
X88967600Y-100560000D01*
X88967600Y-100560000D02*
X101227600Y-100560000D01*
%TO.C,R4*%
X101227600Y-97461200D02*
X101227600Y-94461200D01*
X101227600Y-94461200D02*
X88967600Y-94461200D01*
X88967600Y-94461200D02*
X88967600Y-97461200D01*
X88967600Y-97461200D02*
X101227600Y-97461200D01*
%TO.C,R3*%
X83107400Y-81354640D02*
X86107400Y-81354640D01*
X86107400Y-81354640D02*
X86107400Y-69094640D01*
X86107400Y-69094640D02*
X83107400Y-69094640D01*
X83107400Y-69094640D02*
X83107400Y-81354640D01*
%TO.C,R2*%
X83107400Y-68954360D02*
X86107400Y-68954360D01*
X86107400Y-68954360D02*
X86107400Y-56694360D01*
X86107400Y-56694360D02*
X83107400Y-56694360D01*
X83107400Y-56694360D02*
X83107400Y-68954360D01*
%TO.C,R1*%
X85182840Y-108759280D02*
X82182840Y-108759280D01*
X82182840Y-108759280D02*
X82182840Y-121019280D01*
X82182840Y-121019280D02*
X85182840Y-121019280D01*
X85182840Y-121019280D02*
X85182840Y-108759280D01*
%TO.C,Q2*%
X96482400Y-121195600D02*
X96482400Y-115735600D01*
X96482400Y-121195600D02*
X101222400Y-121195600D01*
X101222400Y-115735600D02*
X96482400Y-115735600D01*
X101222400Y-115735600D02*
X101222400Y-121195600D01*
%TO.C,Q1*%
X96685600Y-114032800D02*
X96685600Y-108572800D01*
X96685600Y-114032800D02*
X101425600Y-114032800D01*
X101425600Y-108572800D02*
X96685600Y-108572800D01*
X101425600Y-108572800D02*
X101425600Y-114032800D01*
%TO.C,J0*%
X164594000Y-160931000D02*
X164594000Y-147201000D01*
X164594000Y-147201000D02*
X157734000Y-147201000D01*
X157734000Y-147201000D02*
X157734000Y-141341000D01*
X157734000Y-141341000D02*
X76444000Y-141341000D01*
X76444000Y-141341000D02*
X76444000Y-147201000D01*
X76444000Y-147201000D02*
X69594000Y-147201000D01*
X69594000Y-147201000D02*
X69594000Y-160931000D01*
X69594000Y-160931000D02*
X164594000Y-160931000D01*
%TO.C,U3*%
X79586000Y-75210000D02*
X79586000Y-56860000D01*
X79586000Y-56860000D02*
X69786000Y-56860000D01*
X69786000Y-56860000D02*
X69786000Y-75210000D01*
X69786000Y-75210000D02*
X79586000Y-75210000D01*
%TO.C,U5*%
X104985000Y-85306500D02*
X122335000Y-85306500D01*
X104985000Y-54256500D02*
X104985000Y-85306500D01*
X122335000Y-54256500D02*
X104985000Y-54256500D01*
X122335000Y-85306500D02*
X122335000Y-54256500D01*
%TO.C,C4*%
X127347000Y-122529000D02*
X127347000Y-125629000D01*
X127347000Y-125629000D02*
X136947000Y-125629000D01*
X136947000Y-125629000D02*
X136947000Y-122529000D01*
X136947000Y-122529000D02*
X127347000Y-122529000D01*
%TO.C,U9*%
X139895000Y-121628500D02*
X149695000Y-121628500D01*
X139895000Y-95678500D02*
X139895000Y-121628500D01*
X149695000Y-95678500D02*
X139895000Y-95678500D01*
X149695000Y-121628500D02*
X149695000Y-95678500D01*
%TO.C,C8*%
X149520000Y-122529000D02*
X139920000Y-122529000D01*
X149520000Y-125629000D02*
X149520000Y-122529000D01*
X139920000Y-125629000D02*
X149520000Y-125629000D01*
X139920000Y-122529000D02*
X139920000Y-125629000D01*
%TO.C,C7*%
X75663000Y-139426000D02*
G75*
G03*
X75663000Y-139426000I-3400000J0D01*
G01*
%TO.C,C6*%
X104995000Y-122529000D02*
X104995000Y-125629000D01*
X104995000Y-125629000D02*
X114595000Y-125629000D01*
X114595000Y-125629000D02*
X114595000Y-122529000D01*
X114595000Y-122529000D02*
X104995000Y-122529000D01*
%TO.C,C5*%
X104995000Y-86207000D02*
X104995000Y-89307000D01*
X104995000Y-89307000D02*
X114595000Y-89307000D01*
X114595000Y-89307000D02*
X114595000Y-86207000D01*
X114595000Y-86207000D02*
X104995000Y-86207000D01*
%TO.C,J4*%
X155172000Y-99800000D02*
X155172000Y-116100000D01*
X155172000Y-116100000D02*
X161322000Y-116100000D01*
X161322000Y-116100000D02*
X161322000Y-99800000D01*
X161322000Y-99800000D02*
X155172000Y-99800000D01*
%TO.C,J3*%
X155172000Y-64240000D02*
X155172000Y-72890000D01*
X155172000Y-72890000D02*
X158772000Y-72890000D01*
X158772000Y-72890000D02*
X158772000Y-64240000D01*
X158772000Y-64240000D02*
X155172000Y-64240000D01*
%TO.C,J2*%
X155172000Y-76940000D02*
X155172000Y-95790000D01*
X155172000Y-95790000D02*
X161322000Y-95790000D01*
X161322000Y-95790000D02*
X161322000Y-76940000D01*
X161322000Y-76940000D02*
X155172000Y-76940000D01*
%TO.C,U8*%
X151808000Y-54464000D02*
X151808000Y-67964000D01*
X151808000Y-67964000D02*
X141308000Y-67964000D01*
X141308000Y-67964000D02*
X141308000Y-54464000D01*
X141308000Y-54464000D02*
X151808000Y-54464000D01*
%TO.C,U7*%
X140886000Y-54464000D02*
X140886000Y-67964000D01*
X140886000Y-67964000D02*
X130386000Y-67964000D01*
X130386000Y-67964000D02*
X130386000Y-54464000D01*
X130386000Y-54464000D02*
X140886000Y-54464000D01*
%TO.C,U6*%
X104985000Y-121692000D02*
X122335000Y-121692000D01*
X104985000Y-90642000D02*
X104985000Y-121692000D01*
X122335000Y-90642000D02*
X104985000Y-90642000D01*
X122335000Y-121692000D02*
X122335000Y-90642000D01*
%TO.C,U2*%
X85572100Y-121628500D02*
X95372100Y-121628500D01*
X85572100Y-103278500D02*
X85572100Y-121628500D01*
X95372100Y-103278500D02*
X85572100Y-103278500D01*
X95372100Y-121628500D02*
X95372100Y-103278500D01*
%TO.C,U1*%
X71094100Y-121628500D02*
X80894100Y-121628500D01*
X71094100Y-95678500D02*
X71094100Y-121628500D01*
X80894100Y-95678500D02*
X71094100Y-95678500D01*
X80894100Y-121628500D02*
X80894100Y-95678500D01*
%TO.C,SW1*%
X90872000Y-84134000D02*
X101172000Y-84134000D01*
X90872000Y-55884000D02*
X90872000Y-84134000D01*
X101172000Y-55884000D02*
X90872000Y-55884000D01*
X101172000Y-84134000D02*
X101172000Y-55884000D01*
%TO.C,C3*%
X65760000Y-61554000D02*
X65760000Y-71154000D01*
X68860000Y-61554000D02*
X65760000Y-61554000D01*
X68860000Y-71154000D02*
X68860000Y-61554000D01*
X65760000Y-71154000D02*
X68860000Y-71154000D01*
%TO.C,C2*%
X95172100Y-122529000D02*
X85572100Y-122529000D01*
X95172100Y-125629000D02*
X95172100Y-122529000D01*
X85572100Y-125629000D02*
X95172100Y-125629000D01*
X85572100Y-122529000D02*
X85572100Y-125629000D01*
%TO.C,C1*%
X80694100Y-122529000D02*
X71094100Y-122529000D01*
X80694100Y-125629000D02*
X80694100Y-122529000D01*
X71094100Y-125629000D02*
X80694100Y-125629000D01*
X71094100Y-122529000D02*
X71094100Y-125629000D01*
%TD*%
M02*
