M48
; DRILL file {KiCad (5.1.12)-1} date 05/03/22 20:15:32
; FORMAT={-:-/ absolute / inch / decimal}
; #@! TF.CreationDate,2022-05-03T20:15:32+02:00
; #@! TF.GenerationSoftware,Kicad,Pcbnew,(5.1.12)-1
; #@! TF.FileFunction,Plated,1,2,PTH
FMAT,2
INCH
T1C0.0250
T2C0.0315
T3C0.0394
%
G90
G05
T1
X2.385Y-4.95
X2.3976Y-4.75
X2.4024Y-5.6476
X2.4025Y-3.8825
X2.4025Y-5.45
X2.4025Y-5.5
X2.405Y-5.69
X2.4225Y-4.9825
X2.435Y-5.2525
X2.435Y-5.35
X2.4375Y-5.4
X2.4425Y-5.05
X2.4425Y-5.14
X2.4425Y-5.1825
X2.4574Y-4.4425
X2.4574Y-4.5475
X2.4574Y-4.75
X2.49Y-2.515
X2.49Y-2.555
X2.49Y-2.5975
X2.495Y-4.95
X2.5319Y-5.35
X2.5319Y-5.45
X2.5325Y-5.05
X2.5325Y-5.15
X2.5325Y-5.2525
X2.5675Y-5.5
X2.6Y-5.65
X2.6532Y-3.35
X2.66Y-2.9175
X2.66Y-5.55
X2.6608Y-2.9642
X2.6618Y-3.0075
X2.6618Y-3.05
X2.6658Y-3.5975
X2.6658Y-3.65
X2.672Y-3.1505
X2.6831Y-3.41
X2.6831Y-4.2375
X2.7216Y-3.041
X2.7491Y-3.0734
X2.76Y-4.5725
X2.7625Y-4.6675
X2.765Y-4.75
X2.7722Y-3.1091
X2.785Y-5.7575
X2.8124Y-3.175
X2.8125Y-3.1225
X2.8299Y-3.65
X2.83Y-3.6025
X2.8512Y-5.0812
X2.88Y-5.05
X2.9075Y-4.9825
X2.9513Y-5.8137
X2.9525Y-4.9825
X2.995Y-4.9825
X3.0275Y-4.51
X3.0401Y-4.9756
X3.1395Y-5.264
X3.1575Y-2.0875
X3.1575Y-2.1825
X3.1715Y-5.2939
X3.18Y-2.96
X3.18Y-3.1525
X3.1915Y-4.9475
X3.2025Y-2.0875
X3.2025Y-2.2
X3.214Y-5.2987
X3.2325Y-3.465
X3.234Y-4.9475
X3.2562Y-5.316
X3.2765Y-4.9475
X3.2825Y-2.3525
X3.295Y-5.3333
X3.3375Y-5.3333
X3.3665Y-4.9475
X3.3799Y-5.3333
X3.3925Y-3.465
X3.46Y-5.3333
X3.475Y-1.9975
X3.4899Y-3.8201
X3.4939Y-4.3713
X3.53Y-4.9926
X3.555Y-3.85
X3.5724Y-4.9894
X3.6025Y-5.265
X3.645Y-4.6725
X3.645Y-5.265
X3.725Y-2.1647
X3.775Y-2.155
X3.815Y-2.135
X3.8224Y-4.3275
X3.825Y-2.345
X3.835Y-4.9825
X3.835Y-5.264
X3.86Y-5.5
X3.865Y-2.265
X3.895Y-5.264
X3.91Y-5.5
X3.95Y-4.985
X3.9525Y-5.264
X4.2575Y-2.1724
X4.29Y-1.9975
X4.31Y-3.2775
X4.31Y-3.315
X4.33Y-1.9975
X4.37Y-1.9975
X4.86Y-5.52
X4.88Y-3.635
X4.8834Y-3.4509
X4.9175Y-3.6025
X4.9474Y-5.0426
X4.96Y-5.55
X4.9874Y-5.0426
X5.0Y-3.0075
X5.0274Y-5.0426
X5.035Y-3.0925
X5.0548Y-5.2467
X5.06Y-5.49
X5.0955Y-5.2294
X5.1199Y-3.0022
X5.1375Y-5.212
X5.145Y-3.2325
X5.145Y-4.175
X5.1525Y-2.975
X5.17Y-4.2425
X5.1825Y-3.2
X5.1875Y-5.1947
X5.2175Y-3.8225
X5.2179Y-3.1544
X5.2325Y-5.1774
X5.255Y-4.09
X5.2575Y-3.8525
X5.2575Y-3.99
X5.26Y-3.1375
X5.275Y-5.1597
X5.28Y-4.39
X5.28Y-4.49
X5.325Y-5.1425
X5.365Y-5.1075
X5.3975Y-5.1425
X5.3989Y-5.8961
X5.4475Y-5.1425
X5.485Y-5.1675
X5.515Y-1.9975
X5.61Y-4.47
X5.62Y-4.67
X5.645Y-4.265
X5.66Y-4.06
X5.665Y-4.985
X5.665Y-5.12
X5.71Y-4.985
X5.71Y-5.12
X5.7575Y-5.9398
X5.765Y-4.985
X5.765Y-5.12
X5.81Y-4.985
X5.81Y-5.12
X5.925Y-3.44
X5.97Y-3.44
X6.0075Y-2.165
X6.0125Y-3.44
X6.0136Y-2.0789
X6.055Y-3.44
X6.0625Y-3.25
X6.0625Y-5.94
X6.075Y-5.49
X6.125Y-5.505
X6.175Y-5.505
X6.25Y-4.79
X6.27Y-5.01
X6.28Y-3.86
X6.3Y-4.79
X6.31Y-5.05
X6.35Y-4.79
X6.35Y-5.02
X6.35Y-5.33
X6.35Y-5.37
X6.395Y-3.575
X6.41Y-3.49
X6.49Y-3.86
X6.49Y-5.11
X6.49Y-5.1525
T2
X2.65Y-2.4647
X2.65Y-2.76
X2.79Y-2.3
X2.79Y-2.4
X2.79Y-2.5
X2.79Y-2.6
X2.79Y-2.7
X2.79Y-2.8
X2.79Y-2.9
X2.8403Y-4.885
X2.8415Y-3.8275
X2.8415Y-3.9275
X2.8415Y-4.0275
X2.8415Y-4.1275
X2.8415Y-4.2275
X2.8415Y-4.3275
X2.8415Y-4.4275
X2.8415Y-4.5275
X2.8415Y-4.6275
X2.8415Y-4.7275
X2.845Y-5.44
X2.845Y-5.5384
X3.09Y-2.3
X3.09Y-2.4
X3.09Y-2.5
X3.09Y-2.6
X3.09Y-2.7
X3.09Y-2.8
X3.09Y-2.9
X3.1356Y-4.885
X3.1415Y-3.8275
X3.1415Y-3.9275
X3.1415Y-4.0275
X3.1415Y-4.1275
X3.1415Y-4.2275
X3.1415Y-4.3275
X3.1415Y-4.4275
X3.1415Y-4.5275
X3.1415Y-4.6275
X3.1415Y-4.7275
X3.2965Y-4.4275
X3.2965Y-4.7275
X3.4103Y-4.885
X3.4115Y-4.1275
X3.4115Y-4.2275
X3.4115Y-4.3275
X3.4115Y-4.4275
X3.4115Y-4.5275
X3.4115Y-4.6275
X3.4115Y-4.7275
X3.475Y-2.265
X3.475Y-2.365
X3.475Y-2.465
X3.475Y-2.565
X3.475Y-2.665
X3.475Y-2.765
X3.475Y-2.865
X3.475Y-2.965
X3.475Y-3.065
X3.475Y-3.165
X3.475Y-3.265
X3.63Y-2.3061
X3.63Y-2.4061
X3.63Y-2.5061
X3.63Y-2.6061
X3.63Y-2.7061
X3.63Y-2.8061
X3.63Y-2.9061
X3.63Y-3.0061
X3.63Y-3.1061
X3.63Y-3.2061
X3.7056Y-4.885
X3.7115Y-4.1275
X3.7115Y-4.2275
X3.7115Y-4.3275
X3.7115Y-4.4275
X3.7115Y-4.5275
X3.7115Y-4.6275
X3.7115Y-4.7275
X3.93Y-2.3061
X3.93Y-2.4061
X3.93Y-2.5061
X3.93Y-2.6061
X3.93Y-2.7061
X3.93Y-2.8061
X3.93Y-2.9061
X3.93Y-3.0061
X3.93Y-3.1061
X3.93Y-3.2061
X4.175Y-2.1975
X4.175Y-2.2975
X4.175Y-2.3975
X4.175Y-2.4975
X4.175Y-2.5975
X4.175Y-2.6975
X4.175Y-2.7975
X4.175Y-2.8975
X4.175Y-2.9975
X4.175Y-3.0975
X4.175Y-3.1975
X4.175Y-3.2975
X4.175Y-3.455
X4.175Y-3.63
X4.175Y-3.73
X4.175Y-3.83
X4.175Y-3.93
X4.175Y-4.03
X4.175Y-4.13
X4.175Y-4.23
X4.175Y-4.33
X4.175Y-4.43
X4.175Y-4.53
X4.175Y-4.63
X4.175Y-4.73
X4.175Y-4.885
X4.4703Y-3.455
X4.4703Y-4.885
X4.775Y-2.1975
X4.775Y-2.2975
X4.775Y-2.3975
X4.775Y-2.4975
X4.775Y-2.5975
X4.775Y-2.6975
X4.775Y-2.7975
X4.775Y-2.8975
X4.775Y-2.9975
X4.775Y-3.0975
X4.775Y-3.1975
X4.775Y-3.2975
X4.775Y-3.63
X4.775Y-3.73
X4.775Y-3.83
X4.775Y-3.93
X4.775Y-4.03
X4.775Y-4.13
X4.775Y-4.23
X4.775Y-4.33
X4.775Y-4.43
X4.775Y-4.53
X4.775Y-4.63
X4.775Y-4.73
X5.0525Y-3.8275
X5.0525Y-3.9275
X5.0525Y-4.0275
X5.0525Y-4.1275
X5.0525Y-4.2275
X5.0525Y-4.3275
X5.0525Y-4.4275
X5.0525Y-4.5275
X5.0525Y-4.6275
X5.0525Y-4.7275
X5.055Y-4.885
X5.195Y-2.78
X5.3503Y-4.885
X5.3525Y-3.8275
X5.3525Y-3.9275
X5.3525Y-4.0275
X5.3525Y-4.1275
X5.3525Y-4.2275
X5.3525Y-4.3275
X5.3525Y-4.4275
X5.3525Y-4.5275
X5.3525Y-4.6275
X5.3525Y-4.7275
X5.495Y-2.78
X5.55Y-4.885
X5.5502Y-3.8275
X5.5502Y-3.9275
X5.5502Y-4.0275
X5.5502Y-4.1275
X5.5502Y-4.2275
X5.5502Y-4.3275
X5.5502Y-4.4275
X5.5502Y-4.5275
X5.5502Y-4.6275
X5.5502Y-4.7275
X5.615Y-2.78
X5.8453Y-4.885
X5.8502Y-3.8275
X5.8502Y-3.9275
X5.8502Y-4.0275
X5.8502Y-4.1275
X5.8502Y-4.2275
X5.8502Y-4.3275
X5.8502Y-4.4275
X5.8502Y-4.5275
X5.8502Y-4.6275
X5.8502Y-4.7275
X5.915Y-2.78
T3
X3.06Y-5.615
X3.06Y-5.815
X3.16Y-5.615
X3.16Y-5.815
X3.26Y-5.615
X3.26Y-5.815
X3.36Y-5.615
X3.36Y-5.815
X3.46Y-5.615
X3.46Y-5.815
X3.56Y-5.615
X3.56Y-5.815
X3.66Y-5.615
X3.66Y-5.815
X3.76Y-5.615
X3.76Y-5.815
X3.86Y-5.615
X3.86Y-5.815
X3.96Y-5.615
X3.96Y-5.815
X4.06Y-5.615
X4.06Y-5.815
X4.16Y-5.615
X4.16Y-5.815
X4.26Y-5.615
X4.26Y-5.815
X4.36Y-5.615
X4.36Y-5.815
X4.46Y-5.615
X4.46Y-5.815
X4.56Y-5.615
X4.56Y-5.815
X4.66Y-5.615
X4.66Y-5.815
X4.76Y-5.615
X4.76Y-5.815
X4.86Y-5.615
X4.86Y-5.815
X4.96Y-5.615
X4.96Y-5.815
X5.06Y-5.615
X5.06Y-5.815
X5.16Y-5.615
X5.16Y-5.815
X5.19Y-2.21
X5.19Y-2.31
X5.19Y-2.41
X5.19Y-2.51
X5.19Y-2.61
X5.26Y-5.615
X5.26Y-5.815
X5.36Y-5.615
X5.36Y-5.815
X5.46Y-5.615
X5.46Y-5.815
X5.49Y-2.21
X5.49Y-2.31
X5.49Y-2.41
X5.49Y-2.51
X5.49Y-2.61
X5.56Y-5.615
X5.56Y-5.815
X5.62Y-2.21
X5.62Y-2.31
X5.62Y-2.41
X5.62Y-2.51
X5.62Y-2.61
X5.66Y-5.615
X5.66Y-5.815
X5.76Y-5.615
X5.76Y-5.815
X5.86Y-5.615
X5.86Y-5.815
X5.92Y-2.21
X5.92Y-2.31
X5.92Y-2.41
X5.92Y-2.51
X5.92Y-2.61
X5.96Y-5.615
X5.96Y-5.815
X6.06Y-5.615
X6.06Y-5.815
X6.16Y-5.615
X6.16Y-5.815
X6.18Y-2.6
X6.18Y-2.7
X6.18Y-2.8
X6.18Y-3.1
X6.18Y-3.2
X6.18Y-3.3
X6.18Y-3.4
X6.18Y-3.5
X6.18Y-3.6
X6.18Y-3.7
X6.18Y-4.0
X6.18Y-4.1
X6.18Y-4.2
X6.18Y-4.3
X6.18Y-4.4
X6.18Y-4.5
X6.28Y-3.1
X6.28Y-3.2
X6.28Y-3.3
X6.28Y-3.4
X6.28Y-3.5
X6.28Y-3.6
X6.28Y-3.7
X6.28Y-4.0
X6.28Y-4.1
X6.28Y-4.2
X6.28Y-4.3
X6.28Y-4.4
X6.28Y-4.5
T0
M30
