M48
; DRILL file {KiCad (5.1.12)-1} date 04/03/22 13:26:04
; FORMAT={-:-/ absolute / metric / decimal}
; #@! TF.CreationDate,2022-04-03T13:26:04+02:00
; #@! TF.GenerationSoftware,Kicad,Pcbnew,(5.1.12)-1
; #@! TF.FileFunction,Plated,1,2,PTH
FMAT,2
METRIC
T1C0.400
T2C0.800
T3C1.000
%
G90
G05
T1
X28.575Y-52.705
X29.845Y-93.98
X32.385Y-92.71
X34.925Y-55.88
X54.61Y-81.28
X61.595Y-57.785
X64.77Y-52.705
X69.215Y-53.975
X73.025Y-55.245
X76.835Y-56.515
X99.06Y-47.625
X99.06Y-81.915
X100.965Y-38.735
X100.965Y-48.26
X101.6Y-37.465
X107.95Y-86.36
T2
X24.765Y-61.0
X24.765Y-76.24
X27.305Y-61.0
X27.305Y-76.24
X28.14Y-41.485
X28.14Y-49.105
X29.845Y-61.0
X29.845Y-76.24
X30.68Y-41.485
X30.68Y-49.105
X32.385Y-61.0
X32.385Y-76.24
X33.22Y-41.485
X33.22Y-49.105
X34.925Y-61.0
X34.925Y-76.24
X35.76Y-41.485
X35.76Y-49.105
X37.465Y-61.0
X37.465Y-76.24
X38.3Y-41.485
X38.3Y-49.105
X40.005Y-61.0
X40.005Y-76.24
X40.84Y-41.485
X40.84Y-49.105
X42.545Y-61.0
X42.545Y-76.24
X43.38Y-41.485
X43.38Y-49.105
X45.085Y-61.0
X45.085Y-76.24
X45.92Y-41.485
X45.92Y-49.105
X46.355Y-86.995
X46.355Y-99.695
X47.625Y-61.0
X47.625Y-76.24
X48.46Y-41.485
X48.46Y-49.105
X50.165Y-61.0
X50.165Y-76.24
X51.0Y-41.485
X51.0Y-49.105
X52.705Y-61.0
X52.705Y-76.24
X55.245Y-41.395
X55.245Y-48.895
X56.515Y-63.66
X56.515Y-73.66
X57.05Y-86.555
X57.05Y-101.795
X59.59Y-86.555
X59.59Y-101.795
X61.06Y-61.0
X61.06Y-76.24
X62.13Y-86.555
X62.13Y-101.795
X63.6Y-61.0
X63.6Y-76.24
X64.67Y-86.555
X64.67Y-101.795
X66.14Y-61.0
X66.14Y-76.24
X66.76Y-41.0
X66.76Y-51.16
X67.21Y-86.555
X67.21Y-101.795
X68.68Y-61.0
X68.68Y-76.24
X69.3Y-41.0
X69.3Y-51.16
X71.22Y-61.0
X71.22Y-76.24
X71.84Y-41.0
X71.84Y-51.16
X71.84Y-86.555
X71.84Y-101.795
X73.76Y-61.0
X73.76Y-76.24
X74.38Y-41.0
X74.38Y-51.16
X74.38Y-86.555
X74.38Y-101.795
X76.3Y-61.0
X76.3Y-76.24
X76.92Y-41.0
X76.92Y-51.16
X76.92Y-86.555
X76.92Y-101.795
X78.84Y-61.0
X78.84Y-76.24
X79.46Y-41.0
X79.46Y-51.16
X79.46Y-86.555
X79.46Y-101.795
X81.38Y-61.0
X81.38Y-76.24
X82.0Y-41.0
X82.0Y-51.16
X82.0Y-86.555
X82.0Y-101.795
X83.92Y-61.0
X83.92Y-76.24
X85.725Y-43.935
X85.725Y-51.435
X86.46Y-61.0
X86.46Y-76.24
X89.0Y-61.0
X89.0Y-76.24
X92.71Y-63.66
X92.71Y-73.66
X93.98Y-86.995
X93.98Y-99.695
X96.76Y-41.0
X96.76Y-51.16
X96.76Y-64.0
X96.76Y-74.16
X99.3Y-41.0
X99.3Y-51.16
X99.3Y-64.0
X99.3Y-74.16
X101.84Y-41.0
X101.84Y-51.16
X101.84Y-64.0
X101.84Y-74.16
X104.38Y-41.0
X104.38Y-51.16
X104.38Y-64.0
X104.38Y-74.16
X106.92Y-41.0
X106.92Y-51.16
X106.92Y-64.0
X106.92Y-74.16
X109.46Y-41.0
X109.46Y-51.16
X109.46Y-64.0
X109.46Y-74.16
X112.0Y-41.0
X112.0Y-51.16
X112.0Y-64.0
X112.0Y-74.16
X115.57Y-43.935
X115.57Y-51.435
X115.57Y-66.16
X115.57Y-73.66
T3
X29.0Y-26.0
X29.0Y-31.08
X31.54Y-26.0
X31.54Y-31.08
X34.08Y-26.0
X34.08Y-31.08
X36.62Y-26.0
X36.62Y-31.08
X39.16Y-26.0
X39.16Y-31.08
X41.7Y-26.0
X41.7Y-31.08
X44.24Y-26.0
X44.24Y-31.08
X46.78Y-26.0
X46.78Y-31.08
X49.32Y-26.0
X49.32Y-31.08
X51.86Y-26.0
X51.86Y-31.08
X54.4Y-26.0
X54.4Y-31.08
X56.94Y-26.0
X56.94Y-31.08
X59.48Y-26.0
X59.48Y-31.08
X62.02Y-26.0
X62.02Y-31.08
X64.56Y-26.0
X64.56Y-31.08
X67.1Y-26.0
X67.1Y-31.08
X69.64Y-26.0
X69.64Y-31.08
X72.18Y-26.0
X72.18Y-31.08
X74.72Y-26.0
X74.72Y-31.08
X77.26Y-26.0
X77.26Y-31.08
X79.8Y-26.0
X79.8Y-31.08
X82.34Y-26.0
X82.34Y-31.08
X84.88Y-26.0
X84.88Y-31.08
X87.42Y-26.0
X87.42Y-31.08
X89.96Y-26.0
X89.96Y-31.08
X92.5Y-26.0
X92.5Y-31.08
X95.04Y-26.0
X95.04Y-31.08
X97.58Y-26.0
X97.58Y-31.08
X100.12Y-26.0
X100.12Y-31.08
X102.66Y-26.0
X102.66Y-31.08
X105.2Y-26.0
X105.2Y-31.08
X107.74Y-26.0
X107.74Y-31.08
T0
M30
