%TF.GenerationSoftware,KiCad,Pcbnew,(5.1.12)-1*%
%TF.CreationDate,2022-04-03T13:26:01+02:00*%
%TF.ProjectId,ec1834-post,65633138-3334-42d7-906f-73742e6b6963,rev?*%
%TF.SameCoordinates,Original*%
%TF.FileFunction,Copper,L1,Top*%
%TF.FilePolarity,Positive*%
%FSLAX46Y46*%
G04 Gerber Fmt 4.6, Leading zero omitted, Abs format (unit mm)*
G04 Created by KiCad (PCBNEW (5.1.12)-1) date 2022-04-03 13:26:01*
%MOMM*%
%LPD*%
G01*
G04 APERTURE LIST*
%TA.AperFunction,ComponentPad*%
%ADD10O,1.600000X1.600000*%
%TD*%
%TA.AperFunction,ComponentPad*%
%ADD11C,1.600000*%
%TD*%
%TA.AperFunction,ComponentPad*%
%ADD12R,1.600000X1.600000*%
%TD*%
%TA.AperFunction,ComponentPad*%
%ADD13C,1.550000*%
%TD*%
%TA.AperFunction,ComponentPad*%
%ADD14R,1.524000X2.524000*%
%TD*%
%TA.AperFunction,ComponentPad*%
%ADD15O,1.524000X2.524000*%
%TD*%
%TA.AperFunction,ViaPad*%
%ADD16C,0.800000*%
%TD*%
%TA.AperFunction,Conductor*%
%ADD17C,0.250000*%
%TD*%
%TA.AperFunction,Conductor*%
%ADD18C,1.000000*%
%TD*%
G04 APERTURE END LIST*
D10*
%TO.P,C1,2*%
%TO.N,GND*%
X85725000Y-43935000D03*
D11*
%TO.P,C1,1*%
%TO.N,+5V*%
X85725000Y-51435000D03*
%TD*%
D10*
%TO.P,U2,14*%
%TO.N,+5V*%
X112000000Y-51160000D03*
%TO.P,U2,7*%
%TO.N,GND*%
X96760000Y-41000000D03*
%TO.P,U2,13*%
%TO.N,A0*%
X109460000Y-51160000D03*
%TO.P,U2,6*%
%TO.N,Net-(U2-Pad6)*%
X99300000Y-41000000D03*
%TO.P,U2,12*%
%TO.N,Net-(U2-Pad12)*%
X106920000Y-51160000D03*
%TO.P,U2,5*%
%TO.N,A7*%
X101840000Y-41000000D03*
%TO.P,U2,11*%
%TO.N,A1*%
X104380000Y-51160000D03*
%TO.P,U2,4*%
%TO.N,Net-(U2-Pad4)*%
X104380000Y-41000000D03*
%TO.P,U2,10*%
%TO.N,Net-(U2-Pad10)*%
X101840000Y-51160000D03*
%TO.P,U2,3*%
%TO.N,A4*%
X106920000Y-41000000D03*
%TO.P,U2,9*%
%TO.N,A2*%
X99300000Y-51160000D03*
%TO.P,U2,2*%
%TO.N,Net-(U2-Pad2)*%
X109460000Y-41000000D03*
%TO.P,U2,8*%
%TO.N,Net-(U2-Pad8)*%
X96760000Y-51160000D03*
D12*
%TO.P,U2,1*%
%TO.N,A3*%
X112000000Y-41000000D03*
%TD*%
D10*
%TO.P,U5,24*%
%TO.N,+5V*%
X52705000Y-76240000D03*
%TO.P,U5,12*%
%TO.N,GND*%
X24765000Y-61000000D03*
%TO.P,U5,23*%
X50165000Y-76240000D03*
%TO.P,U5,11*%
%TO.N,Net-(AFF2-Pad4)*%
X27305000Y-61000000D03*
%TO.P,U5,22*%
%TO.N,GND*%
X47625000Y-76240000D03*
%TO.P,U5,10*%
%TO.N,Net-(AFF2-Pad6)*%
X29845000Y-61000000D03*
%TO.P,U5,21*%
%TO.N,GND*%
X45085000Y-76240000D03*
%TO.P,U5,9*%
%TO.N,Net-(AFF2-Pad7)*%
X32385000Y-61000000D03*
%TO.P,U5,20*%
%TO.N,GND*%
X42545000Y-76240000D03*
%TO.P,U5,8*%
%TO.N,Net-(U4-Pad2)*%
X34925000Y-61000000D03*
%TO.P,U5,19*%
%TO.N,GND*%
X40005000Y-76240000D03*
%TO.P,U5,7*%
%TO.N,Net-(U4-Pad5)*%
X37465000Y-61000000D03*
%TO.P,U5,18*%
%TO.N,GND*%
X37465000Y-76240000D03*
%TO.P,U5,6*%
%TO.N,Net-(U4-Pad6)*%
X40005000Y-61000000D03*
%TO.P,U5,17*%
%TO.N,Net-(U5-Pad17)*%
X34925000Y-76240000D03*
%TO.P,U5,5*%
%TO.N,Net-(U4-Pad9)*%
X42545000Y-61000000D03*
%TO.P,U5,16*%
%TO.N,Net-(AFF2-Pad10)*%
X32385000Y-76240000D03*
%TO.P,U5,4*%
%TO.N,GND*%
X45085000Y-61000000D03*
%TO.P,U5,15*%
%TO.N,Net-(AFF2-Pad9)*%
X29845000Y-76240000D03*
%TO.P,U5,3*%
%TO.N,GND*%
X47625000Y-61000000D03*
%TO.P,U5,14*%
%TO.N,Net-(AFF2-Pad1)*%
X27305000Y-76240000D03*
%TO.P,U5,2*%
%TO.N,GND*%
X50165000Y-61000000D03*
%TO.P,U5,13*%
%TO.N,Net-(AFF2-Pad2)*%
X24765000Y-76240000D03*
D12*
%TO.P,U5,1*%
%TO.N,GND*%
X52705000Y-61000000D03*
%TD*%
D10*
%TO.P,C6,2*%
%TO.N,GND*%
X92710000Y-63660000D03*
D11*
%TO.P,C6,1*%
%TO.N,+5V*%
X92710000Y-73660000D03*
%TD*%
D10*
%TO.P,C5,2*%
%TO.N,GND*%
X56515000Y-63660000D03*
D11*
%TO.P,C5,1*%
%TO.N,+5V*%
X56515000Y-73660000D03*
%TD*%
D10*
%TO.P,C4,2*%
%TO.N,GND*%
X55245000Y-41395000D03*
D11*
%TO.P,C4,1*%
%TO.N,+5V*%
X55245000Y-48895000D03*
%TD*%
D10*
%TO.P,C3,2*%
%TO.N,GND*%
X115570000Y-66160000D03*
D11*
%TO.P,C3,1*%
%TO.N,+5V*%
X115570000Y-73660000D03*
%TD*%
D10*
%TO.P,C2,2*%
%TO.N,GND*%
X115570000Y-43935000D03*
D11*
%TO.P,C2,1*%
%TO.N,+5V*%
X115570000Y-51435000D03*
%TD*%
D10*
%TO.P,U1,14*%
%TO.N,+5V*%
X82000000Y-51160000D03*
%TO.P,U1,7*%
%TO.N,GND*%
X66760000Y-41000000D03*
%TO.P,U1,13*%
%TO.N,Net-(U1-Pad13)*%
X79460000Y-51160000D03*
%TO.P,U1,6*%
%TO.N,Net-(U1-Pad10)*%
X69300000Y-41000000D03*
%TO.P,U1,12*%
%TO.N,Net-(U1-Pad12)*%
X76920000Y-51160000D03*
%TO.P,U1,5*%
%TO.N,AEN*%
X71840000Y-41000000D03*
%TO.P,U1,11*%
%TO.N,Net-(U1-Pad11)*%
X74380000Y-51160000D03*
%TO.P,U1,4*%
X74380000Y-41000000D03*
%TO.P,U1,10*%
%TO.N,Net-(U1-Pad10)*%
X71840000Y-51160000D03*
%TO.P,U1,3*%
%TO.N,Net-(U1-Pad13)*%
X76920000Y-41000000D03*
%TO.P,U1,9*%
%TO.N,IOW*%
X69300000Y-51160000D03*
%TO.P,U1,2*%
%TO.N,A9*%
X79460000Y-41000000D03*
%TO.P,U1,8*%
%TO.N,Net-(U1-Pad8)*%
X66760000Y-51160000D03*
D12*
%TO.P,U1,1*%
%TO.N,A8*%
X82000000Y-41000000D03*
%TD*%
D10*
%TO.P,U4,20*%
%TO.N,+5V*%
X51000000Y-49105000D03*
%TO.P,U4,10*%
%TO.N,GND*%
X28140000Y-41485000D03*
%TO.P,U4,19*%
%TO.N,Net-(U4-Pad19)*%
X48460000Y-49105000D03*
%TO.P,U4,9*%
%TO.N,Net-(U4-Pad9)*%
X30680000Y-41485000D03*
%TO.P,U4,18*%
%TO.N,D4*%
X45920000Y-49105000D03*
%TO.P,U4,8*%
%TO.N,D3*%
X33220000Y-41485000D03*
%TO.P,U4,17*%
%TO.N,D5*%
X43380000Y-49105000D03*
%TO.P,U4,7*%
%TO.N,D2*%
X35760000Y-41485000D03*
%TO.P,U4,16*%
%TO.N,Net-(U4-Pad16)*%
X40840000Y-49105000D03*
%TO.P,U4,6*%
%TO.N,Net-(U4-Pad6)*%
X38300000Y-41485000D03*
%TO.P,U4,15*%
%TO.N,Net-(U4-Pad15)*%
X38300000Y-49105000D03*
%TO.P,U4,5*%
%TO.N,Net-(U4-Pad5)*%
X40840000Y-41485000D03*
%TO.P,U4,14*%
%TO.N,D6*%
X35760000Y-49105000D03*
%TO.P,U4,4*%
%TO.N,D1*%
X43380000Y-41485000D03*
%TO.P,U4,13*%
%TO.N,D7*%
X33220000Y-49105000D03*
%TO.P,U4,3*%
%TO.N,D0*%
X45920000Y-41485000D03*
%TO.P,U4,12*%
%TO.N,Net-(U4-Pad12)*%
X30680000Y-49105000D03*
%TO.P,U4,2*%
%TO.N,Net-(U4-Pad2)*%
X48460000Y-41485000D03*
%TO.P,U4,11*%
%TO.N,Net-(U1-Pad8)*%
X28140000Y-49105000D03*
D12*
%TO.P,U4,1*%
%TO.N,GND*%
X51000000Y-41485000D03*
%TD*%
D13*
%TO.P,U0,c32*%
%TO.N,Net-(U0-Padc32)*%
X107740000Y-31080000D03*
%TO.P,U0,c31*%
%TO.N,A0*%
X105200000Y-31080000D03*
%TO.P,U0,c30*%
%TO.N,A1*%
X102660000Y-31080000D03*
%TO.P,U0,c29*%
%TO.N,A2*%
X100120000Y-31080000D03*
%TO.P,U0,c28*%
%TO.N,A3*%
X97580000Y-31080000D03*
%TO.P,U0,c27*%
%TO.N,A4*%
X95040000Y-31080000D03*
%TO.P,U0,c26*%
%TO.N,A5*%
X92500000Y-31080000D03*
%TO.P,U0,c25*%
%TO.N,A6*%
X89960000Y-31080000D03*
%TO.P,U0,c24*%
%TO.N,A7*%
X87420000Y-31080000D03*
%TO.P,U0,c23*%
%TO.N,A8*%
X84880000Y-31080000D03*
%TO.P,U0,c22*%
%TO.N,A9*%
X82340000Y-31080000D03*
%TO.P,U0,c21*%
%TO.N,Net-(U0-Padc21)*%
X79800000Y-31080000D03*
%TO.P,U0,c20*%
%TO.N,Net-(U0-Padc20)*%
X77260000Y-31080000D03*
%TO.P,U0,c19*%
%TO.N,Net-(U0-Padc19)*%
X74720000Y-31080000D03*
%TO.P,U0,c18*%
%TO.N,Net-(U0-Padc18)*%
X72180000Y-31080000D03*
%TO.P,U0,c17*%
%TO.N,Net-(U0-Padc17)*%
X69640000Y-31080000D03*
%TO.P,U0,c16*%
%TO.N,Net-(U0-Padc16)*%
X67100000Y-31080000D03*
%TO.P,U0,c15*%
%TO.N,Net-(U0-Padc15)*%
X64560000Y-31080000D03*
%TO.P,U0,c14*%
%TO.N,Net-(U0-Padc14)*%
X62020000Y-31080000D03*
%TO.P,U0,c13*%
%TO.N,Net-(U0-Padc13)*%
X59480000Y-31080000D03*
%TO.P,U0,c12*%
%TO.N,Net-(U0-Padc12)*%
X56940000Y-31080000D03*
%TO.P,U0,c11*%
%TO.N,AEN*%
X54400000Y-31080000D03*
%TO.P,U0,c10*%
%TO.N,Net-(U0-Padc10)*%
X51860000Y-31080000D03*
%TO.P,U0,c9*%
%TO.N,D0*%
X49320000Y-31080000D03*
%TO.P,U0,c8*%
%TO.N,D1*%
X46780000Y-31080000D03*
%TO.P,U0,c7*%
%TO.N,D2*%
X44240000Y-31080000D03*
%TO.P,U0,c6*%
%TO.N,D3*%
X41700000Y-31080000D03*
%TO.P,U0,c5*%
%TO.N,D4*%
X39160000Y-31080000D03*
%TO.P,U0,c4*%
%TO.N,D5*%
X36620000Y-31080000D03*
%TO.P,U0,c3*%
%TO.N,D6*%
X34080000Y-31080000D03*
%TO.P,U0,c2*%
%TO.N,D7*%
X31540000Y-31080000D03*
%TO.P,U0,c1*%
%TO.N,Net-(U0-Padc1)*%
X29000000Y-31080000D03*
%TO.P,U0,a32*%
%TO.N,GND*%
X107740000Y-26000000D03*
%TO.P,U0,a31*%
X105200000Y-26000000D03*
%TO.P,U0,a30*%
%TO.N,Net-(U0-Pada30)*%
X102660000Y-26000000D03*
%TO.P,U0,a29*%
%TO.N,Net-(U0-Pada29)*%
X100120000Y-26000000D03*
%TO.P,U0,a28*%
%TO.N,Net-(U0-Pada28)*%
X97580000Y-26000000D03*
%TO.P,U0,a27*%
%TO.N,Net-(U0-Pada27)*%
X95040000Y-26000000D03*
%TO.P,U0,a26*%
%TO.N,Net-(U0-Pada26)*%
X92500000Y-26000000D03*
%TO.P,U0,a25*%
%TO.N,Net-(U0-Pada25)*%
X89960000Y-26000000D03*
%TO.P,U0,a24*%
%TO.N,Net-(U0-Pada24)*%
X87420000Y-26000000D03*
%TO.P,U0,a23*%
%TO.N,Net-(U0-Pada23)*%
X84880000Y-26000000D03*
%TO.P,U0,a22*%
%TO.N,Net-(U0-Pada22)*%
X82340000Y-26000000D03*
%TO.P,U0,a21*%
%TO.N,Net-(U0-Pada21)*%
X79800000Y-26000000D03*
%TO.P,U0,a20*%
%TO.N,Net-(U0-Pada20)*%
X77260000Y-26000000D03*
%TO.P,U0,a19*%
%TO.N,Net-(U0-Pada19)*%
X74720000Y-26000000D03*
%TO.P,U0,a18*%
%TO.N,Net-(U0-Pada18)*%
X72180000Y-26000000D03*
%TO.P,U0,a17*%
%TO.N,Net-(U0-Pada17)*%
X69640000Y-26000000D03*
%TO.P,U0,a16*%
%TO.N,Net-(U0-Pada16)*%
X67100000Y-26000000D03*
%TO.P,U0,a15*%
%TO.N,Net-(U0-Pada15)*%
X64560000Y-26000000D03*
%TO.P,U0,a14*%
%TO.N,Net-(U0-Pada14)*%
X62020000Y-26000000D03*
%TO.P,U0,a13*%
%TO.N,IOW*%
X59480000Y-26000000D03*
%TO.P,U0,a12*%
%TO.N,Net-(U0-Pada12)*%
X56940000Y-26000000D03*
%TO.P,U0,a11*%
%TO.N,Net-(U0-Pada11)*%
X54400000Y-26000000D03*
%TO.P,U0,a10*%
%TO.N,Net-(U0-Pada10)*%
X51860000Y-26000000D03*
%TO.P,U0,a9*%
%TO.N,Net-(U0-Pada9)*%
X49320000Y-26000000D03*
%TO.P,U0,a8*%
%TO.N,Net-(U0-Pada8)*%
X46780000Y-26000000D03*
%TO.P,U0,a7*%
%TO.N,Net-(U0-Pada7)*%
X44240000Y-26000000D03*
%TO.P,U0,a6*%
%TO.N,Net-(U0-Pada6)*%
X41700000Y-26000000D03*
%TO.P,U0,a5*%
%TO.N,Net-(U0-Pada5)*%
X39160000Y-26000000D03*
%TO.P,U0,a4*%
%TO.N,Net-(U0-Pada4)*%
X36620000Y-26000000D03*
%TO.P,U0,a3*%
%TO.N,+5V*%
X34080000Y-26000000D03*
%TO.P,U0,a2*%
%TO.N,Net-(U0-Pada2)*%
X31540000Y-26000000D03*
%TO.P,U0,a1*%
%TO.N,GND*%
%TA.AperFunction,ComponentPad*%
G36*
G01*
X28225000Y-26525002D02*
X28225000Y-25474998D01*
G75*
G02*
X28474998Y-25225000I249998J0D01*
G01*
X29525002Y-25225000D01*
G75*
G02*
X29775000Y-25474998I0J-249998D01*
G01*
X29775000Y-26525002D01*
G75*
G02*
X29525002Y-26775000I-249998J0D01*
G01*
X28474998Y-26775000D01*
G75*
G02*
X28225000Y-26525002I0J249998D01*
G01*
G37*
%TD.AperFunction*%
%TD*%
D10*
%TO.P,U6,24*%
%TO.N,+5V*%
X89000000Y-76240000D03*
%TO.P,U6,12*%
%TO.N,GND*%
X61060000Y-61000000D03*
%TO.P,U6,23*%
X86460000Y-76240000D03*
%TO.P,U6,11*%
%TO.N,Net-(AFF1-Pad4)*%
X63600000Y-61000000D03*
%TO.P,U6,22*%
%TO.N,GND*%
X83920000Y-76240000D03*
%TO.P,U6,10*%
%TO.N,Net-(AFF1-Pad6)*%
X66140000Y-61000000D03*
%TO.P,U6,21*%
%TO.N,GND*%
X81380000Y-76240000D03*
%TO.P,U6,9*%
%TO.N,Net-(AFF1-Pad7)*%
X68680000Y-61000000D03*
%TO.P,U6,20*%
%TO.N,GND*%
X78840000Y-76240000D03*
%TO.P,U6,8*%
%TO.N,Net-(U4-Pad19)*%
X71220000Y-61000000D03*
%TO.P,U6,19*%
%TO.N,GND*%
X76300000Y-76240000D03*
%TO.P,U6,7*%
%TO.N,Net-(U4-Pad16)*%
X73760000Y-61000000D03*
%TO.P,U6,18*%
%TO.N,GND*%
X73760000Y-76240000D03*
%TO.P,U6,6*%
%TO.N,Net-(U4-Pad15)*%
X76300000Y-61000000D03*
%TO.P,U6,17*%
%TO.N,Net-(U6-Pad17)*%
X71220000Y-76240000D03*
%TO.P,U6,5*%
%TO.N,Net-(U4-Pad12)*%
X78840000Y-61000000D03*
%TO.P,U6,16*%
%TO.N,Net-(AFF1-Pad10)*%
X68680000Y-76240000D03*
%TO.P,U6,4*%
%TO.N,GND*%
X81380000Y-61000000D03*
%TO.P,U6,15*%
%TO.N,Net-(AFF1-Pad9)*%
X66140000Y-76240000D03*
%TO.P,U6,3*%
%TO.N,GND*%
X83920000Y-61000000D03*
%TO.P,U6,14*%
%TO.N,Net-(AFF1-Pad1)*%
X63600000Y-76240000D03*
%TO.P,U6,2*%
%TO.N,GND*%
X86460000Y-61000000D03*
%TO.P,U6,13*%
%TO.N,Net-(AFF1-Pad2)*%
X61060000Y-76240000D03*
D12*
%TO.P,U6,1*%
%TO.N,GND*%
X89000000Y-61000000D03*
%TD*%
D10*
%TO.P,U3,14*%
%TO.N,+5V*%
X112000000Y-74160000D03*
%TO.P,U3,7*%
%TO.N,GND*%
X96760000Y-64000000D03*
%TO.P,U3,13*%
%TO.N,N/C*%
X109460000Y-74160000D03*
%TO.P,U3,6*%
%TO.N,Net-(U2-Pad6)*%
X99300000Y-64000000D03*
%TO.P,U3,12*%
%TO.N,A5*%
X106920000Y-74160000D03*
%TO.P,U3,5*%
%TO.N,Net-(U2-Pad4)*%
X101840000Y-64000000D03*
%TO.P,U3,11*%
%TO.N,A6*%
X104380000Y-74160000D03*
%TO.P,U3,4*%
%TO.N,Net-(U2-Pad2)*%
X104380000Y-64000000D03*
%TO.P,U3,10*%
%TO.N,N/C*%
X101840000Y-74160000D03*
%TO.P,U3,3*%
%TO.N,Net-(U2-Pad8)*%
X106920000Y-64000000D03*
%TO.P,U3,9*%
%TO.N,N/C*%
X99300000Y-74160000D03*
%TO.P,U3,2*%
%TO.N,Net-(U2-Pad10)*%
X109460000Y-64000000D03*
%TO.P,U3,8*%
%TO.N,Net-(U1-Pad12)*%
X96760000Y-74160000D03*
D12*
%TO.P,U3,1*%
%TO.N,Net-(U2-Pad12)*%
X112000000Y-64000000D03*
%TD*%
D10*
%TO.P,R2,2*%
%TO.N,+5V*%
X93980000Y-86995000D03*
D11*
%TO.P,R2,1*%
%TO.N,Net-(AFF1-Pad3)*%
X93980000Y-99695000D03*
%TD*%
D10*
%TO.P,R1,2*%
%TO.N,+5V*%
X46355000Y-86995000D03*
D11*
%TO.P,R1,1*%
%TO.N,Net-(AFF2-Pad3)*%
X46355000Y-99695000D03*
%TD*%
D14*
%TO.P,AFF2,1*%
%TO.N,Net-(AFF2-Pad1)*%
X67210000Y-86555000D03*
D15*
%TO.P,AFF2,2*%
%TO.N,Net-(AFF2-Pad2)*%
X64670000Y-86555000D03*
%TO.P,AFF2,3*%
%TO.N,Net-(AFF2-Pad3)*%
X62130000Y-86555000D03*
%TO.P,AFF2,4*%
%TO.N,Net-(AFF2-Pad4)*%
X59590000Y-86555000D03*
%TO.P,AFF2,5*%
%TO.N,Net-(AFF2-Pad5)*%
X57050000Y-86555000D03*
%TO.P,AFF2,6*%
%TO.N,Net-(AFF2-Pad6)*%
X57050000Y-101795000D03*
%TO.P,AFF2,7*%
%TO.N,Net-(AFF2-Pad7)*%
X59590000Y-101795000D03*
%TO.P,AFF2,8*%
%TO.N,Net-(AFF2-Pad3)*%
X62130000Y-101795000D03*
%TO.P,AFF2,9*%
%TO.N,Net-(AFF2-Pad9)*%
X64670000Y-101795000D03*
%TO.P,AFF2,10*%
%TO.N,Net-(AFF2-Pad10)*%
X67210000Y-101795000D03*
%TD*%
D14*
%TO.P,AFF1,1*%
%TO.N,Net-(AFF1-Pad1)*%
X82000000Y-86555000D03*
D15*
%TO.P,AFF1,2*%
%TO.N,Net-(AFF1-Pad2)*%
X79460000Y-86555000D03*
%TO.P,AFF1,3*%
%TO.N,Net-(AFF1-Pad3)*%
X76920000Y-86555000D03*
%TO.P,AFF1,4*%
%TO.N,Net-(AFF1-Pad4)*%
X74380000Y-86555000D03*
%TO.P,AFF1,5*%
%TO.N,Net-(AFF1-Pad5)*%
X71840000Y-86555000D03*
%TO.P,AFF1,6*%
%TO.N,Net-(AFF1-Pad6)*%
X71840000Y-101795000D03*
%TO.P,AFF1,7*%
%TO.N,Net-(AFF1-Pad7)*%
X74380000Y-101795000D03*
%TO.P,AFF1,8*%
%TO.N,Net-(AFF1-Pad3)*%
X76920000Y-101795000D03*
%TO.P,AFF1,9*%
%TO.N,Net-(AFF1-Pad9)*%
X79460000Y-101795000D03*
%TO.P,AFF1,10*%
%TO.N,Net-(AFF1-Pad10)*%
X82000000Y-101795000D03*
%TD*%
D16*
%TO.N,Net-(AFF2-Pad4)*%
X54610000Y-81280000D03*
%TO.N,Net-(AFF2-Pad9)*%
X29845000Y-93980000D03*
%TO.N,Net-(AFF2-Pad10)*%
X32385000Y-92710000D03*
%TO.N,+5V*%
X28575000Y-52705000D03*
X61595000Y-57785000D03*
%TO.N,A3*%
X101600000Y-37465000D03*
%TO.N,A4*%
X100965000Y-38735000D03*
%TO.N,GND*%
X107950000Y-86360000D03*
X99060000Y-81915000D03*
%TO.N,Net-(U2-Pad4)*%
X99060000Y-47625000D03*
%TO.N,Net-(U2-Pad2)*%
X100965000Y-48260000D03*
%TO.N,Net-(U4-Pad19)*%
X64770000Y-52705000D03*
%TO.N,Net-(U4-Pad16)*%
X69215000Y-53975000D03*
%TO.N,Net-(U4-Pad15)*%
X73025000Y-55245000D03*
%TO.N,Net-(U4-Pad12)*%
X76835000Y-56515000D03*
%TO.N,Net-(U4-Pad2)*%
X34925000Y-55880000D03*
%TD*%
D17*
%TO.N,Net-(AFF1-Pad1)*%
X67370705Y-80010705D02*
X80645000Y-80010000D01*
X63600000Y-76240000D02*
X67370705Y-80010705D01*
X80645000Y-80010000D02*
X81280000Y-80010000D01*
X82000000Y-80730000D02*
X82000000Y-86555000D01*
X81280000Y-80010000D02*
X82000000Y-80730000D01*
%TO.N,Net-(AFF1-Pad2)*%
X61060000Y-76240000D02*
X65465000Y-80645000D01*
X65465000Y-80645000D02*
X78740000Y-80645000D01*
X79460000Y-81365000D02*
X79460000Y-86555000D01*
X78740000Y-80645000D02*
X79460000Y-81365000D01*
%TO.N,Net-(AFF1-Pad3)*%
X76920000Y-86555000D02*
X76920000Y-101795000D01*
X90292990Y-103382010D02*
X93980000Y-99695000D01*
X78507010Y-103382010D02*
X90292990Y-103382010D01*
X76920000Y-101795000D02*
X78507010Y-103382010D01*
%TO.N,Net-(AFF1-Pad9)*%
X66140000Y-76240000D02*
X69275000Y-79375000D01*
X69275000Y-79375000D02*
X83820000Y-79375000D01*
X83820000Y-79375000D02*
X86360000Y-81915000D01*
X86360000Y-94895000D02*
X79460000Y-101795000D01*
X86360000Y-81915000D02*
X86360000Y-94895000D01*
%TO.N,Net-(AFF1-Pad10)*%
X68680000Y-76240000D02*
X71180000Y-78740000D01*
X71180000Y-78740000D02*
X84455000Y-78740000D01*
X84455000Y-78740000D02*
X86995000Y-81280000D01*
X86995000Y-96800000D02*
X82000000Y-101795000D01*
X86995000Y-81280000D02*
X86995000Y-96800000D01*
%TO.N,Net-(AFF2-Pad1)*%
X33655000Y-82550000D02*
X27305000Y-76240000D01*
X66675000Y-82550000D02*
X33655000Y-82550000D01*
X67210000Y-83085000D02*
X66675000Y-82550000D01*
X67210000Y-86555000D02*
X67210000Y-83085000D01*
%TO.N,Net-(AFF2-Pad2)*%
X64670000Y-83720000D02*
X64670000Y-86555000D01*
X31750000Y-83185000D02*
X64135000Y-83185000D01*
X64135000Y-83185000D02*
X64670000Y-83720000D01*
X24765000Y-76240000D02*
X31750000Y-83185000D01*
%TO.N,Net-(AFF2-Pad3)*%
X62130000Y-101795000D02*
X62130000Y-102335000D01*
X62130000Y-102335000D02*
X60325000Y-104140000D01*
X50800000Y-104140000D02*
X46355000Y-99695000D01*
X60325000Y-104140000D02*
X50800000Y-104140000D01*
X68580000Y-90170000D02*
X67310000Y-88900000D01*
X64475000Y-88900000D02*
X62130000Y-86555000D01*
X67945000Y-104140000D02*
X68580000Y-103505000D01*
X63500000Y-104140000D02*
X67945000Y-104140000D01*
X68580000Y-103505000D02*
X68580000Y-90170000D01*
X62130000Y-102770000D02*
X63500000Y-104140000D01*
X67310000Y-88900000D02*
X64475000Y-88900000D01*
X62130000Y-101795000D02*
X62130000Y-102770000D01*
%TO.N,Net-(AFF2-Pad4)*%
X27305000Y-61000000D02*
X29170000Y-62865000D01*
X29170000Y-62865000D02*
X48895000Y-62865000D01*
X51579999Y-65549999D02*
X51579999Y-78249999D01*
X48895000Y-62865000D02*
X51579999Y-65549999D01*
X51579999Y-78249999D02*
X52705000Y-79375000D01*
X52705000Y-79375000D02*
X52705000Y-79375000D01*
X52705000Y-79375000D02*
X54610000Y-81280000D01*
%TO.N,Net-(AFF2-Pad9)*%
X60325000Y-93980000D02*
X29845000Y-93980000D01*
X64670000Y-98325000D02*
X60325000Y-93980000D01*
X64670000Y-101795000D02*
X64670000Y-98325000D01*
%TO.N,Net-(AFF2-Pad10)*%
X60960000Y-92710000D02*
X32385000Y-92710000D01*
X67210000Y-98960000D02*
X60960000Y-92710000D01*
X67210000Y-101795000D02*
X67210000Y-98960000D01*
D18*
%TO.N,+5V*%
X23495000Y-34401998D02*
X23495000Y-50165000D01*
X30421988Y-27475010D02*
X23495000Y-34401998D01*
X32604990Y-27475010D02*
X30421988Y-27475010D01*
X34080000Y-26000000D02*
X32604990Y-27475010D01*
X23495000Y-50165000D02*
X23495000Y-51435000D01*
X23495000Y-51435000D02*
X24765000Y-52705000D01*
X24765000Y-52705000D02*
X28575000Y-52705000D01*
X28575000Y-52705000D02*
X28575000Y-52705000D01*
X33299998Y-86995000D02*
X46355000Y-86995000D01*
X23264999Y-76960001D02*
X33299998Y-86995000D01*
X23264999Y-51665001D02*
X23264999Y-76960001D01*
X23495000Y-51435000D02*
X23264999Y-51665001D01*
X92519990Y-104965010D02*
X97790000Y-99695000D01*
X97790000Y-90805000D02*
X93980000Y-86995000D01*
X39202008Y-104965010D02*
X92519990Y-104965010D01*
X97790000Y-99695000D02*
X97790000Y-90805000D01*
X23264999Y-89028001D02*
X39202008Y-104965010D01*
X23264999Y-76960001D02*
X23264999Y-89028001D01*
X79375000Y-57785000D02*
X85725000Y-51435000D01*
X61595000Y-57785000D02*
X79375000Y-57785000D01*
X82275000Y-51435000D02*
X82000000Y-51160000D01*
X85725000Y-51435000D02*
X82275000Y-51435000D01*
D17*
%TO.N,A1*%
X102660000Y-31080000D02*
X102965001Y-31385001D01*
%TO.N,A2*%
X100120000Y-31080000D02*
X100425001Y-31385001D01*
%TO.N,A3*%
X111760000Y-38735000D02*
X111760000Y-38735000D01*
X110490000Y-37465000D02*
X101600000Y-37465000D01*
X112000000Y-38975000D02*
X110490000Y-37465000D01*
X112000000Y-41000000D02*
X112000000Y-38975000D01*
%TO.N,A4*%
X106920000Y-41000000D02*
X106920000Y-38975000D01*
X106920000Y-38975000D02*
X106680000Y-38735000D01*
X106680000Y-38735000D02*
X106680000Y-38735000D01*
X106680000Y-38735000D02*
X100965000Y-38735000D01*
%TO.N,AEN*%
X70485000Y-36195000D02*
X71840000Y-41000000D01*
X59515000Y-36195000D02*
X70485000Y-36195000D01*
X54400000Y-31080000D02*
X59515000Y-36195000D01*
%TO.N,D4*%
X44794999Y-47979999D02*
X45920000Y-49105000D01*
X44794999Y-36714999D02*
X44794999Y-47979999D01*
X39160000Y-31080000D02*
X44794999Y-36714999D01*
%TO.N,D5*%
X41965001Y-47690001D02*
X43380000Y-49105000D01*
X41965001Y-36425001D02*
X41965001Y-47690001D01*
X36620000Y-31080000D02*
X41965001Y-36425001D01*
%TO.N,D6*%
X34345001Y-47690001D02*
X35760000Y-49105000D01*
X34345001Y-31345001D02*
X34345001Y-47690001D01*
X34080000Y-31080000D02*
X34345001Y-31345001D01*
%TO.N,D7*%
X31805001Y-47690001D02*
X33220000Y-49105000D01*
X31805001Y-31345001D02*
X31805001Y-47690001D01*
X31540000Y-31080000D02*
X31805001Y-31345001D01*
D18*
%TO.N,GND*%
X24765000Y-63540000D02*
X37465000Y-76240000D01*
X24765000Y-61000000D02*
X24765000Y-63540000D01*
X37465000Y-76240000D02*
X40005000Y-76240000D01*
X40005000Y-76240000D02*
X42545000Y-76240000D01*
X42545000Y-76240000D02*
X45085000Y-76240000D01*
X45085000Y-76240000D02*
X47625000Y-76240000D01*
X47625000Y-76240000D02*
X50165000Y-76240000D01*
X50165000Y-61000000D02*
X55205000Y-66040000D01*
X90330000Y-66040000D02*
X92710000Y-63660000D01*
X55205000Y-66040000D02*
X90330000Y-66040000D01*
X91660000Y-63660000D02*
X89000000Y-61000000D01*
X92710000Y-63660000D02*
X91660000Y-63660000D01*
X89000000Y-61000000D02*
X86460000Y-61000000D01*
X83920000Y-61000000D02*
X81380000Y-61000000D01*
X92710000Y-63660000D02*
X92710000Y-65405000D01*
X92710000Y-65405000D02*
X93465000Y-66160000D01*
X96760000Y-65645000D02*
X97275000Y-66160000D01*
X96760000Y-64000000D02*
X96760000Y-65645000D01*
X93465000Y-66160000D02*
X97275000Y-66160000D01*
X115570000Y-33830000D02*
X115570000Y-43935000D01*
X69695000Y-43935000D02*
X85090000Y-43935000D01*
X66760000Y-41000000D02*
X69695000Y-43935000D01*
X93825000Y-43935000D02*
X96760000Y-41000000D01*
X105200000Y-26000000D02*
X107740000Y-26000000D01*
X86460000Y-61000000D02*
X83920000Y-61000000D01*
X73760000Y-76240000D02*
X76300000Y-76240000D01*
X76300000Y-76240000D02*
X78840000Y-76240000D01*
X78840000Y-76240000D02*
X81380000Y-76240000D01*
X81380000Y-76240000D02*
X83920000Y-76240000D01*
X83920000Y-76240000D02*
X86460000Y-76240000D01*
X83920000Y-72450000D02*
X90330000Y-66040000D01*
X83920000Y-76240000D02*
X83920000Y-72450000D01*
X96760000Y-39868630D02*
X102338630Y-34290000D01*
X96760000Y-41000000D02*
X96760000Y-39868630D01*
X110490000Y-34290000D02*
X113260000Y-31520000D01*
X102338630Y-34290000D02*
X110490000Y-34290000D01*
X113260000Y-31520000D02*
X115570000Y-33830000D01*
X107740000Y-26000000D02*
X113260000Y-31520000D01*
X89000000Y-44985000D02*
X90050000Y-43935000D01*
X89000000Y-61000000D02*
X89000000Y-44985000D01*
X90050000Y-43935000D02*
X85090000Y-43935000D01*
X93825000Y-43935000D02*
X90050000Y-43935000D01*
X115570000Y-66160000D02*
X97275000Y-66160000D01*
X86460000Y-76240000D02*
X86460000Y-78205000D01*
X86460000Y-78205000D02*
X90170000Y-81915000D01*
X90170000Y-81915000D02*
X99060000Y-81915000D01*
X103505000Y-81915000D02*
X107950000Y-86360000D01*
X107950000Y-86360000D02*
X107950000Y-86360000D01*
X99060000Y-81915000D02*
X103505000Y-81915000D01*
D17*
%TO.N,Net-(U2-Pad4)*%
X99060000Y-46320000D02*
X104380000Y-41000000D01*
X99060000Y-47625000D02*
X99060000Y-46320000D01*
%TO.N,Net-(U2-Pad2)*%
X102200000Y-48260000D02*
X109460000Y-41000000D01*
X100965000Y-48260000D02*
X102200000Y-48260000D01*
%TO.N,Net-(U4-Pad19)*%
X52060000Y-52705000D02*
X48460000Y-49105000D01*
X64770000Y-52705000D02*
X52060000Y-52705000D01*
%TO.N,Net-(U4-Pad9)*%
X41419999Y-59874999D02*
X42545000Y-61000000D01*
X35468589Y-55154999D02*
X40188589Y-59874999D01*
X34834999Y-55154999D02*
X35468589Y-55154999D01*
X40188589Y-59874999D02*
X41419999Y-59874999D01*
X29554999Y-49874999D02*
X34834999Y-55154999D01*
X29554999Y-42610001D02*
X29554999Y-49874999D01*
X30680000Y-41485000D02*
X29554999Y-42610001D01*
%TO.N,Net-(U4-Pad16)*%
X45710000Y-53975000D02*
X40840000Y-49105000D01*
X69215000Y-53975000D02*
X45710000Y-53975000D01*
%TO.N,Net-(U4-Pad15)*%
X44440000Y-55245000D02*
X38300000Y-49105000D01*
X73025000Y-55245000D02*
X44440000Y-55245000D01*
%TO.N,Net-(U4-Pad12)*%
X30680000Y-49730000D02*
X30680000Y-49105000D01*
X37465000Y-56515000D02*
X30680000Y-49730000D01*
X76835000Y-56515000D02*
X76835000Y-56515000D01*
X76835000Y-56515000D02*
X37465000Y-56515000D01*
%TO.N,Net-(U4-Pad2)*%
X34925000Y-55880000D02*
X34925000Y-61000000D01*
%TD*%
M02*
