%TF.GenerationSoftware,KiCad,Pcbnew,(5.1.12)-1*%
%TF.CreationDate,2022-04-03T13:26:01+02:00*%
%TF.ProjectId,ec1834-post,65633138-3334-42d7-906f-73742e6b6963,rev?*%
%TF.SameCoordinates,Original*%
%TF.FileFunction,Other,User*%
%FSLAX46Y46*%
G04 Gerber Fmt 4.6, Leading zero omitted, Abs format (unit mm)*
G04 Created by KiCad (PCBNEW (5.1.12)-1) date 2022-04-03 13:26:01*
%MOMM*%
%LPD*%
G01*
G04 APERTURE LIST*
%ADD10C,0.050000*%
G04 APERTURE END LIST*
D10*
%TO.C,C1*%
X84175000Y-42885000D02*
X84175000Y-52485000D01*
X87275000Y-42885000D02*
X84175000Y-42885000D01*
X87275000Y-52485000D02*
X87275000Y-42885000D01*
X84175000Y-52485000D02*
X87275000Y-52485000D01*
%TO.C,U2*%
X113550000Y-39950000D02*
X95200000Y-39950000D01*
X95200000Y-39950000D02*
X95200000Y-52250000D01*
X95200000Y-52250000D02*
X113550000Y-52250000D01*
X113550000Y-52250000D02*
X113550000Y-39950000D01*
%TO.C,U5*%
X54255000Y-59950000D02*
X23205000Y-59950000D01*
X23205000Y-59950000D02*
X23205000Y-77300000D01*
X23205000Y-77300000D02*
X54255000Y-77300000D01*
X54255000Y-77300000D02*
X54255000Y-59950000D01*
%TO.C,C6*%
X90910000Y-62610000D02*
X90910000Y-74710000D01*
X94510000Y-62610000D02*
X90910000Y-62610000D01*
X94510000Y-74710000D02*
X94510000Y-62610000D01*
X90910000Y-74710000D02*
X94510000Y-74710000D01*
%TO.C,C5*%
X54715000Y-62610000D02*
X54715000Y-74710000D01*
X58315000Y-62610000D02*
X54715000Y-62610000D01*
X58315000Y-74710000D02*
X58315000Y-62610000D01*
X54715000Y-74710000D02*
X58315000Y-74710000D01*
%TO.C,C4*%
X53445000Y-40345000D02*
X53445000Y-49945000D01*
X57045000Y-40345000D02*
X53445000Y-40345000D01*
X57045000Y-49945000D02*
X57045000Y-40345000D01*
X53445000Y-49945000D02*
X57045000Y-49945000D01*
%TO.C,C3*%
X114020000Y-65110000D02*
X114020000Y-74710000D01*
X117120000Y-65110000D02*
X114020000Y-65110000D01*
X117120000Y-74710000D02*
X117120000Y-65110000D01*
X114020000Y-74710000D02*
X117120000Y-74710000D01*
%TO.C,C2*%
X114020000Y-42885000D02*
X114020000Y-52485000D01*
X117120000Y-42885000D02*
X114020000Y-42885000D01*
X117120000Y-52485000D02*
X117120000Y-42885000D01*
X114020000Y-52485000D02*
X117120000Y-52485000D01*
%TO.C,U1*%
X83550000Y-39950000D02*
X65200000Y-39950000D01*
X65200000Y-39950000D02*
X65200000Y-52250000D01*
X65200000Y-52250000D02*
X83550000Y-52250000D01*
X83550000Y-52250000D02*
X83550000Y-39950000D01*
%TO.C,U4*%
X52550000Y-40385000D02*
X26600000Y-40385000D01*
X26600000Y-40385000D02*
X26600000Y-50185000D01*
X26600000Y-50185000D02*
X52550000Y-50185000D01*
X52550000Y-50185000D02*
X52550000Y-40385000D01*
%TO.C,U0*%
X20870000Y-12770000D02*
X20870000Y-26500000D01*
X20870000Y-26500000D02*
X27730000Y-26500000D01*
X27730000Y-26500000D02*
X27730000Y-32360000D01*
X27730000Y-32360000D02*
X109020000Y-32360000D01*
X109020000Y-32360000D02*
X109020000Y-26500000D01*
X109020000Y-26500000D02*
X115870000Y-26500000D01*
X115870000Y-26500000D02*
X115870000Y-12770000D01*
X115870000Y-12770000D02*
X20870000Y-12770000D01*
%TO.C,U6*%
X90550000Y-59950000D02*
X59500000Y-59950000D01*
X59500000Y-59950000D02*
X59500000Y-77300000D01*
X59500000Y-77300000D02*
X90550000Y-77300000D01*
X90550000Y-77300000D02*
X90550000Y-59950000D01*
%TO.C,U3*%
X113550000Y-62950000D02*
X95200000Y-62950000D01*
X95200000Y-62950000D02*
X95200000Y-75250000D01*
X95200000Y-75250000D02*
X113550000Y-75250000D01*
X113550000Y-75250000D02*
X113550000Y-62950000D01*
%TO.C,R2*%
X92130000Y-100745000D02*
X95830000Y-100745000D01*
X95830000Y-100745000D02*
X95830000Y-85945000D01*
X95830000Y-85945000D02*
X92130000Y-85945000D01*
X92130000Y-85945000D02*
X92130000Y-100745000D01*
%TO.C,R1*%
X44505000Y-100745000D02*
X48205000Y-100745000D01*
X48205000Y-100745000D02*
X48205000Y-85945000D01*
X48205000Y-85945000D02*
X44505000Y-85945000D01*
X44505000Y-85945000D02*
X44505000Y-100745000D01*
%TO.C,AFF2*%
X55580000Y-84395000D02*
X55580000Y-103955000D01*
X68680000Y-84395000D02*
X68680000Y-103955000D01*
X68680000Y-103955000D02*
X55580000Y-103955000D01*
X68680000Y-84395000D02*
X55580000Y-84395000D01*
%TO.C,AFF1*%
X70370000Y-84395000D02*
X70370000Y-103955000D01*
X83470000Y-84395000D02*
X83470000Y-103955000D01*
X83470000Y-103955000D02*
X70370000Y-103955000D01*
X83470000Y-84395000D02*
X70370000Y-84395000D01*
%TD*%
M02*
