%TF.GenerationSoftware,KiCad,Pcbnew,(5.1.12)-1*%
%TF.CreationDate,2022-04-03T13:26:01+02:00*%
%TF.ProjectId,ec1834-post,65633138-3334-42d7-906f-73742e6b6963,rev?*%
%TF.SameCoordinates,Original*%
%TF.FileFunction,Legend,Top*%
%TF.FilePolarity,Positive*%
%FSLAX46Y46*%
G04 Gerber Fmt 4.6, Leading zero omitted, Abs format (unit mm)*
G04 Created by KiCad (PCBNEW (5.1.12)-1) date 2022-04-03 13:26:01*
%MOMM*%
%LPD*%
G01*
G04 APERTURE LIST*
%ADD10C,0.150000*%
%ADD11C,0.120000*%
G04 APERTURE END LIST*
D10*
X87185714Y-78287619D02*
X87233333Y-78240000D01*
X87328571Y-78192380D01*
X87566666Y-78192380D01*
X87661904Y-78240000D01*
X87709523Y-78287619D01*
X87757142Y-78382857D01*
X87757142Y-78478095D01*
X87709523Y-78620952D01*
X87138095Y-79192380D01*
X87757142Y-79192380D01*
X88090476Y-78192380D02*
X88757142Y-78192380D01*
X88328571Y-79192380D01*
X89042857Y-78192380D02*
X89661904Y-78192380D01*
X89328571Y-78573333D01*
X89471428Y-78573333D01*
X89566666Y-78620952D01*
X89614285Y-78668571D01*
X89661904Y-78763809D01*
X89661904Y-79001904D01*
X89614285Y-79097142D01*
X89566666Y-79144761D01*
X89471428Y-79192380D01*
X89185714Y-79192380D01*
X89090476Y-79144761D01*
X89042857Y-79097142D01*
X90042857Y-78287619D02*
X90090476Y-78240000D01*
X90185714Y-78192380D01*
X90423809Y-78192380D01*
X90519047Y-78240000D01*
X90566666Y-78287619D01*
X90614285Y-78382857D01*
X90614285Y-78478095D01*
X90566666Y-78620952D01*
X89995238Y-79192380D01*
X90614285Y-79192380D01*
X43600714Y-90296904D02*
X44267380Y-90296904D01*
X43219761Y-90535000D02*
X43934047Y-90773095D01*
X43934047Y-90154047D01*
X43267380Y-89868333D02*
X43267380Y-89201666D01*
X44267380Y-89630238D01*
X43267380Y-88630238D02*
X43267380Y-88535000D01*
X43315000Y-88439761D01*
X43362619Y-88392142D01*
X43457857Y-88344523D01*
X43648333Y-88296904D01*
X43886428Y-88296904D01*
X44076904Y-88344523D01*
X44172142Y-88392142D01*
X44219761Y-88439761D01*
X44267380Y-88535000D01*
X44267380Y-88630238D01*
X44219761Y-88725476D01*
X44172142Y-88773095D01*
X44076904Y-88820714D01*
X43886428Y-88868333D01*
X43648333Y-88868333D01*
X43457857Y-88820714D01*
X43362619Y-88773095D01*
X43315000Y-88725476D01*
X43267380Y-88630238D01*
X91225714Y-90296904D02*
X91892380Y-90296904D01*
X90844761Y-90535000D02*
X91559047Y-90773095D01*
X91559047Y-90154047D01*
X90892380Y-89868333D02*
X90892380Y-89201666D01*
X91892380Y-89630238D01*
X90892380Y-88630238D02*
X90892380Y-88535000D01*
X90940000Y-88439761D01*
X90987619Y-88392142D01*
X91082857Y-88344523D01*
X91273333Y-88296904D01*
X91511428Y-88296904D01*
X91701904Y-88344523D01*
X91797142Y-88392142D01*
X91844761Y-88439761D01*
X91892380Y-88535000D01*
X91892380Y-88630238D01*
X91844761Y-88725476D01*
X91797142Y-88773095D01*
X91701904Y-88820714D01*
X91511428Y-88868333D01*
X91273333Y-88868333D01*
X91082857Y-88820714D01*
X90987619Y-88773095D01*
X90940000Y-88725476D01*
X90892380Y-88630238D01*
X109363095Y-75652380D02*
X110029761Y-75652380D01*
X109601190Y-76652380D01*
X110839285Y-75985714D02*
X110839285Y-76652380D01*
X110601190Y-75604761D02*
X110363095Y-76319047D01*
X110982142Y-76319047D01*
X111267857Y-75652380D02*
X111886904Y-75652380D01*
X111553571Y-76033333D01*
X111696428Y-76033333D01*
X111791666Y-76080952D01*
X111839285Y-76128571D01*
X111886904Y-76223809D01*
X111886904Y-76461904D01*
X111839285Y-76557142D01*
X111791666Y-76604761D01*
X111696428Y-76652380D01*
X111410714Y-76652380D01*
X111315476Y-76604761D01*
X111267857Y-76557142D01*
X112505952Y-75652380D02*
X112601190Y-75652380D01*
X112696428Y-75700000D01*
X112744047Y-75747619D01*
X112791666Y-75842857D01*
X112839285Y-76033333D01*
X112839285Y-76271428D01*
X112791666Y-76461904D01*
X112744047Y-76557142D01*
X112696428Y-76604761D01*
X112601190Y-76652380D01*
X112505952Y-76652380D01*
X112410714Y-76604761D01*
X112363095Y-76557142D01*
X112315476Y-76461904D01*
X112267857Y-76271428D01*
X112267857Y-76033333D01*
X112315476Y-75842857D01*
X112363095Y-75747619D01*
X112410714Y-75700000D01*
X112505952Y-75652380D01*
X50355714Y-78287619D02*
X50403333Y-78240000D01*
X50498571Y-78192380D01*
X50736666Y-78192380D01*
X50831904Y-78240000D01*
X50879523Y-78287619D01*
X50927142Y-78382857D01*
X50927142Y-78478095D01*
X50879523Y-78620952D01*
X50308095Y-79192380D01*
X50927142Y-79192380D01*
X51260476Y-78192380D02*
X51927142Y-78192380D01*
X51498571Y-79192380D01*
X52212857Y-78192380D02*
X52831904Y-78192380D01*
X52498571Y-78573333D01*
X52641428Y-78573333D01*
X52736666Y-78620952D01*
X52784285Y-78668571D01*
X52831904Y-78763809D01*
X52831904Y-79001904D01*
X52784285Y-79097142D01*
X52736666Y-79144761D01*
X52641428Y-79192380D01*
X52355714Y-79192380D01*
X52260476Y-79144761D01*
X52212857Y-79097142D01*
X53212857Y-78287619D02*
X53260476Y-78240000D01*
X53355714Y-78192380D01*
X53593809Y-78192380D01*
X53689047Y-78240000D01*
X53736666Y-78287619D01*
X53784285Y-78382857D01*
X53784285Y-78478095D01*
X53736666Y-78620952D01*
X53165238Y-79192380D01*
X53784285Y-79192380D01*
X45633095Y-50887380D02*
X46299761Y-50887380D01*
X45871190Y-51887380D01*
X47109285Y-51220714D02*
X47109285Y-51887380D01*
X46871190Y-50839761D02*
X46633095Y-51554047D01*
X47252142Y-51554047D01*
X47633095Y-51887380D02*
X47633095Y-50887380D01*
X47633095Y-51363571D02*
X48204523Y-51363571D01*
X48204523Y-51887380D02*
X48204523Y-50887380D01*
X49252142Y-51792142D02*
X49204523Y-51839761D01*
X49061666Y-51887380D01*
X48966428Y-51887380D01*
X48823571Y-51839761D01*
X48728333Y-51744523D01*
X48680714Y-51649285D01*
X48633095Y-51458809D01*
X48633095Y-51315952D01*
X48680714Y-51125476D01*
X48728333Y-51030238D01*
X48823571Y-50935000D01*
X48966428Y-50887380D01*
X49061666Y-50887380D01*
X49204523Y-50935000D01*
X49252142Y-50982619D01*
X49585476Y-50887380D02*
X50204523Y-50887380D01*
X49871190Y-51268333D01*
X50014047Y-51268333D01*
X50109285Y-51315952D01*
X50156904Y-51363571D01*
X50204523Y-51458809D01*
X50204523Y-51696904D01*
X50156904Y-51792142D01*
X50109285Y-51839761D01*
X50014047Y-51887380D01*
X49728333Y-51887380D01*
X49633095Y-51839761D01*
X49585476Y-51792142D01*
X50537857Y-50887380D02*
X51204523Y-50887380D01*
X50775952Y-51887380D01*
X52014047Y-51220714D02*
X52014047Y-51887380D01*
X51775952Y-50839761D02*
X51537857Y-51554047D01*
X52156904Y-51554047D01*
X79518095Y-52792380D02*
X80184761Y-52792380D01*
X79756190Y-53792380D01*
X80994285Y-53125714D02*
X80994285Y-53792380D01*
X80756190Y-52744761D02*
X80518095Y-53459047D01*
X81137142Y-53459047D01*
X81422857Y-52792380D02*
X82041904Y-52792380D01*
X81708571Y-53173333D01*
X81851428Y-53173333D01*
X81946666Y-53220952D01*
X81994285Y-53268571D01*
X82041904Y-53363809D01*
X82041904Y-53601904D01*
X81994285Y-53697142D01*
X81946666Y-53744761D01*
X81851428Y-53792380D01*
X81565714Y-53792380D01*
X81470476Y-53744761D01*
X81422857Y-53697142D01*
X82422857Y-52887619D02*
X82470476Y-52840000D01*
X82565714Y-52792380D01*
X82803809Y-52792380D01*
X82899047Y-52840000D01*
X82946666Y-52887619D01*
X82994285Y-52982857D01*
X82994285Y-53078095D01*
X82946666Y-53220952D01*
X82375238Y-53792380D01*
X82994285Y-53792380D01*
X109998095Y-52792380D02*
X110664761Y-52792380D01*
X110236190Y-53792380D01*
X111474285Y-53125714D02*
X111474285Y-53792380D01*
X111236190Y-52744761D02*
X110998095Y-53459047D01*
X111617142Y-53459047D01*
X112188571Y-52792380D02*
X112283809Y-52792380D01*
X112379047Y-52840000D01*
X112426666Y-52887619D01*
X112474285Y-52982857D01*
X112521904Y-53173333D01*
X112521904Y-53411428D01*
X112474285Y-53601904D01*
X112426666Y-53697142D01*
X112379047Y-53744761D01*
X112283809Y-53792380D01*
X112188571Y-53792380D01*
X112093333Y-53744761D01*
X112045714Y-53697142D01*
X111998095Y-53601904D01*
X111950476Y-53411428D01*
X111950476Y-53173333D01*
X111998095Y-52982857D01*
X112045714Y-52887619D01*
X112093333Y-52840000D01*
X112188571Y-52792380D01*
X113379047Y-53125714D02*
X113379047Y-53792380D01*
X113140952Y-52744761D02*
X112902857Y-53459047D01*
X113521904Y-53459047D01*
D11*
%TO.C,C1*%
X85725000Y-44975000D02*
X85725000Y-45665000D01*
X85725000Y-50395000D02*
X85725000Y-49705000D01*
X84305000Y-45665000D02*
X84305000Y-49705000D01*
X87145000Y-45665000D02*
X84305000Y-45665000D01*
X87145000Y-49705000D02*
X87145000Y-45665000D01*
X84305000Y-49705000D02*
X87145000Y-49705000D01*
%TO.C,U2*%
X113330000Y-45080000D02*
X113330000Y-42845000D01*
X113330000Y-42845000D02*
X95430000Y-42845000D01*
X95430000Y-42845000D02*
X95430000Y-49315000D01*
X95430000Y-49315000D02*
X113330000Y-49315000D01*
X113330000Y-49315000D02*
X113330000Y-47080000D01*
X113330000Y-47080000D02*
G75*
G02*
X113330000Y-45080000I0J1000000D01*
G01*
%TO.C,U5*%
X54035000Y-67620000D02*
X54035000Y-62160000D01*
X54035000Y-62160000D02*
X23435000Y-62160000D01*
X23435000Y-62160000D02*
X23435000Y-75080000D01*
X23435000Y-75080000D02*
X54035000Y-75080000D01*
X54035000Y-75080000D02*
X54035000Y-69620000D01*
X54035000Y-69620000D02*
G75*
G02*
X54035000Y-67620000I0J1000000D01*
G01*
%TO.C,C6*%
X92710000Y-64700000D02*
X92710000Y-65990000D01*
X92710000Y-72620000D02*
X92710000Y-71330000D01*
X91040000Y-65990000D02*
X91040000Y-71330000D01*
X94380000Y-65990000D02*
X91040000Y-65990000D01*
X94380000Y-71330000D02*
X94380000Y-65990000D01*
X91040000Y-71330000D02*
X94380000Y-71330000D01*
%TO.C,C5*%
X56515000Y-64700000D02*
X56515000Y-65990000D01*
X56515000Y-72620000D02*
X56515000Y-71330000D01*
X54845000Y-65990000D02*
X54845000Y-71330000D01*
X58185000Y-65990000D02*
X54845000Y-65990000D01*
X58185000Y-71330000D02*
X58185000Y-65990000D01*
X54845000Y-71330000D02*
X58185000Y-71330000D01*
%TO.C,C4*%
X55245000Y-42435000D02*
X55245000Y-42475000D01*
X55245000Y-47855000D02*
X55245000Y-47815000D01*
X53575000Y-42475000D02*
X53575000Y-47815000D01*
X56915000Y-42475000D02*
X53575000Y-42475000D01*
X56915000Y-47815000D02*
X56915000Y-42475000D01*
X53575000Y-47815000D02*
X56915000Y-47815000D01*
%TO.C,C3*%
X115570000Y-67200000D02*
X115570000Y-67890000D01*
X115570000Y-72620000D02*
X115570000Y-71930000D01*
X114150000Y-67890000D02*
X114150000Y-71930000D01*
X116990000Y-67890000D02*
X114150000Y-67890000D01*
X116990000Y-71930000D02*
X116990000Y-67890000D01*
X114150000Y-71930000D02*
X116990000Y-71930000D01*
%TO.C,C2*%
X115570000Y-44975000D02*
X115570000Y-45665000D01*
X115570000Y-50395000D02*
X115570000Y-49705000D01*
X114150000Y-45665000D02*
X114150000Y-49705000D01*
X116990000Y-45665000D02*
X114150000Y-45665000D01*
X116990000Y-49705000D02*
X116990000Y-45665000D01*
X114150000Y-49705000D02*
X116990000Y-49705000D01*
%TO.C,U1*%
X83330000Y-45080000D02*
X83330000Y-42845000D01*
X83330000Y-42845000D02*
X65430000Y-42845000D01*
X65430000Y-42845000D02*
X65430000Y-49315000D01*
X65430000Y-49315000D02*
X83330000Y-49315000D01*
X83330000Y-49315000D02*
X83330000Y-47080000D01*
X83330000Y-47080000D02*
G75*
G02*
X83330000Y-45080000I0J1000000D01*
G01*
%TO.C,U4*%
X52330000Y-44295000D02*
X52330000Y-42645000D01*
X52330000Y-42645000D02*
X26810000Y-42645000D01*
X26810000Y-42645000D02*
X26810000Y-47945000D01*
X26810000Y-47945000D02*
X52330000Y-47945000D01*
X52330000Y-47945000D02*
X52330000Y-46295000D01*
X52330000Y-46295000D02*
G75*
G02*
X52330000Y-44295000I0J1000000D01*
G01*
%TO.C,U0*%
X21110000Y-20700000D02*
X21110000Y-26260000D01*
X21110000Y-26260000D02*
X26630000Y-26260000D01*
X26630000Y-26260000D02*
X26630000Y-25260000D01*
X115630000Y-20700000D02*
X115630000Y-26260000D01*
X115630000Y-26260000D02*
X110110000Y-26260000D01*
X110110000Y-26260000D02*
X110110000Y-25260000D01*
X26629000Y-25260000D02*
X27905000Y-25260000D01*
X30095000Y-25260000D02*
X30671000Y-25260000D01*
X32410000Y-25260000D02*
X33211000Y-25260000D01*
X34950000Y-25260000D02*
X35751000Y-25260000D01*
X37490000Y-25260000D02*
X38291000Y-25260000D01*
X40030000Y-25260000D02*
X40831000Y-25260000D01*
X42570000Y-25260000D02*
X43371000Y-25260000D01*
X45110000Y-25260000D02*
X45911000Y-25260000D01*
X47650000Y-25260000D02*
X48451000Y-25260000D01*
X50190000Y-25260000D02*
X50991000Y-25260000D01*
X52730000Y-25260000D02*
X53531000Y-25260000D01*
X55270000Y-25260000D02*
X56071000Y-25260000D01*
X57810000Y-25260000D02*
X58611000Y-25260000D01*
X60350000Y-25260000D02*
X61151000Y-25260000D01*
X62890000Y-25260000D02*
X63691000Y-25260000D01*
X65430000Y-25260000D02*
X66231000Y-25260000D01*
X67970000Y-25260000D02*
X68771000Y-25260000D01*
X70510000Y-25260000D02*
X71311000Y-25260000D01*
X73050000Y-25260000D02*
X73851000Y-25260000D01*
X75590000Y-25260000D02*
X76391000Y-25260000D01*
X78130000Y-25260000D02*
X78931000Y-25260000D01*
X80670000Y-25260000D02*
X81471000Y-25260000D01*
X83210000Y-25260000D02*
X84011000Y-25260000D01*
X85750000Y-25260000D02*
X86551000Y-25260000D01*
X88290000Y-25260000D02*
X89091000Y-25260000D01*
X90830000Y-25260000D02*
X91631000Y-25260000D01*
X93370000Y-25260000D02*
X94171000Y-25260000D01*
X95910000Y-25260000D02*
X96711000Y-25260000D01*
X98450000Y-25260000D02*
X99251000Y-25260000D01*
X100990000Y-25260000D02*
X101791000Y-25260000D01*
X103530000Y-25260000D02*
X104331000Y-25260000D01*
X106070000Y-25260000D02*
X106871000Y-25260000D01*
X108610000Y-25260000D02*
X110110000Y-25260000D01*
X27905000Y-26000000D02*
X27305000Y-25700000D01*
X27305000Y-25700000D02*
X27305000Y-26300000D01*
X27305000Y-26300000D02*
X27905000Y-26000000D01*
%TO.C,U6*%
X90330000Y-67620000D02*
X90330000Y-62160000D01*
X90330000Y-62160000D02*
X59730000Y-62160000D01*
X59730000Y-62160000D02*
X59730000Y-75080000D01*
X59730000Y-75080000D02*
X90330000Y-75080000D01*
X90330000Y-75080000D02*
X90330000Y-69620000D01*
X90330000Y-69620000D02*
G75*
G02*
X90330000Y-67620000I0J1000000D01*
G01*
%TO.C,U3*%
X113330000Y-68080000D02*
X113330000Y-65845000D01*
X113330000Y-65845000D02*
X95430000Y-65845000D01*
X95430000Y-65845000D02*
X95430000Y-72315000D01*
X95430000Y-72315000D02*
X113330000Y-72315000D01*
X113330000Y-72315000D02*
X113330000Y-70080000D01*
X113330000Y-70080000D02*
G75*
G02*
X113330000Y-68080000I0J1000000D01*
G01*
%TO.C,R2*%
X92260000Y-97965000D02*
X95700000Y-97965000D01*
X95700000Y-97965000D02*
X95700000Y-88725000D01*
X95700000Y-88725000D02*
X92260000Y-88725000D01*
X92260000Y-88725000D02*
X92260000Y-97965000D01*
X93980000Y-98655000D02*
X93980000Y-97965000D01*
X93980000Y-88035000D02*
X93980000Y-88725000D01*
%TO.C,R1*%
X44635000Y-97965000D02*
X48075000Y-97965000D01*
X48075000Y-97965000D02*
X48075000Y-88725000D01*
X48075000Y-88725000D02*
X44635000Y-88725000D01*
X44635000Y-88725000D02*
X44635000Y-97965000D01*
X46355000Y-98655000D02*
X46355000Y-97965000D01*
X46355000Y-88035000D02*
X46355000Y-88725000D01*
%TO.C,AFF2*%
X58577214Y-89175000D02*
G75*
G03*
X58577214Y-89175000I-447214J0D01*
G01*
X65130000Y-99175000D02*
X58130000Y-99175000D01*
X59130000Y-94175000D02*
X66130000Y-94175000D01*
X58130000Y-99175000D02*
X59130000Y-94175000D01*
X60130000Y-89175000D02*
X59130000Y-94175000D01*
X67130000Y-89175000D02*
X60130000Y-89175000D01*
X66130000Y-94175000D02*
X67130000Y-89175000D01*
X65130000Y-99175000D02*
X66130000Y-94175000D01*
X55830000Y-103810000D02*
X68430000Y-103810000D01*
X67430000Y-84540000D02*
X55830000Y-84540000D01*
X55720000Y-88460000D02*
X55720000Y-99890000D01*
X68540000Y-88460000D02*
X68540000Y-99890000D01*
%TO.C,AFF1*%
X73367214Y-89175000D02*
G75*
G03*
X73367214Y-89175000I-447214J0D01*
G01*
X79920000Y-99175000D02*
X72920000Y-99175000D01*
X73920000Y-94175000D02*
X80920000Y-94175000D01*
X72920000Y-99175000D02*
X73920000Y-94175000D01*
X74920000Y-89175000D02*
X73920000Y-94175000D01*
X81920000Y-89175000D02*
X74920000Y-89175000D01*
X80920000Y-94175000D02*
X81920000Y-89175000D01*
X79920000Y-99175000D02*
X80920000Y-94175000D01*
X70620000Y-103810000D02*
X83220000Y-103810000D01*
X82220000Y-84540000D02*
X70620000Y-84540000D01*
X70510000Y-88460000D02*
X70510000Y-99890000D01*
X83330000Y-88460000D02*
X83330000Y-99890000D01*
%TO.C,C1*%
D10*
X86082142Y-54141666D02*
X86129761Y-54189285D01*
X86177380Y-54332142D01*
X86177380Y-54427380D01*
X86129761Y-54570238D01*
X86034523Y-54665476D01*
X85939285Y-54713095D01*
X85748809Y-54760714D01*
X85605952Y-54760714D01*
X85415476Y-54713095D01*
X85320238Y-54665476D01*
X85225000Y-54570238D01*
X85177380Y-54427380D01*
X85177380Y-54332142D01*
X85225000Y-54189285D01*
X85272619Y-54141666D01*
X86177380Y-53189285D02*
X86177380Y-53760714D01*
X86177380Y-53475000D02*
X85177380Y-53475000D01*
X85320238Y-53570238D01*
X85415476Y-53665476D01*
X85463095Y-53760714D01*
%TO.C,U2*%
X108672380Y-39496904D02*
X109481904Y-39496904D01*
X109577142Y-39449285D01*
X109624761Y-39401666D01*
X109672380Y-39306428D01*
X109672380Y-39115952D01*
X109624761Y-39020714D01*
X109577142Y-38973095D01*
X109481904Y-38925476D01*
X108672380Y-38925476D01*
X108767619Y-38496904D02*
X108720000Y-38449285D01*
X108672380Y-38354047D01*
X108672380Y-38115952D01*
X108720000Y-38020714D01*
X108767619Y-37973095D01*
X108862857Y-37925476D01*
X108958095Y-37925476D01*
X109100952Y-37973095D01*
X109672380Y-38544523D01*
X109672380Y-37925476D01*
%TO.C,U5*%
X50252380Y-59181904D02*
X51061904Y-59181904D01*
X51157142Y-59134285D01*
X51204761Y-59086666D01*
X51252380Y-58991428D01*
X51252380Y-58800952D01*
X51204761Y-58705714D01*
X51157142Y-58658095D01*
X51061904Y-58610476D01*
X50252380Y-58610476D01*
X50252380Y-57658095D02*
X50252380Y-58134285D01*
X50728571Y-58181904D01*
X50680952Y-58134285D01*
X50633333Y-58039047D01*
X50633333Y-57800952D01*
X50680952Y-57705714D01*
X50728571Y-57658095D01*
X50823809Y-57610476D01*
X51061904Y-57610476D01*
X51157142Y-57658095D01*
X51204761Y-57705714D01*
X51252380Y-57800952D01*
X51252380Y-58039047D01*
X51204761Y-58134285D01*
X51157142Y-58181904D01*
%TO.C,C6*%
X93067142Y-76366666D02*
X93114761Y-76414285D01*
X93162380Y-76557142D01*
X93162380Y-76652380D01*
X93114761Y-76795238D01*
X93019523Y-76890476D01*
X92924285Y-76938095D01*
X92733809Y-76985714D01*
X92590952Y-76985714D01*
X92400476Y-76938095D01*
X92305238Y-76890476D01*
X92210000Y-76795238D01*
X92162380Y-76652380D01*
X92162380Y-76557142D01*
X92210000Y-76414285D01*
X92257619Y-76366666D01*
X92162380Y-75509523D02*
X92162380Y-75700000D01*
X92210000Y-75795238D01*
X92257619Y-75842857D01*
X92400476Y-75938095D01*
X92590952Y-75985714D01*
X92971904Y-75985714D01*
X93067142Y-75938095D01*
X93114761Y-75890476D01*
X93162380Y-75795238D01*
X93162380Y-75604761D01*
X93114761Y-75509523D01*
X93067142Y-75461904D01*
X92971904Y-75414285D01*
X92733809Y-75414285D01*
X92638571Y-75461904D01*
X92590952Y-75509523D01*
X92543333Y-75604761D01*
X92543333Y-75795238D01*
X92590952Y-75890476D01*
X92638571Y-75938095D01*
X92733809Y-75985714D01*
%TO.C,C5*%
X56872142Y-76366666D02*
X56919761Y-76414285D01*
X56967380Y-76557142D01*
X56967380Y-76652380D01*
X56919761Y-76795238D01*
X56824523Y-76890476D01*
X56729285Y-76938095D01*
X56538809Y-76985714D01*
X56395952Y-76985714D01*
X56205476Y-76938095D01*
X56110238Y-76890476D01*
X56015000Y-76795238D01*
X55967380Y-76652380D01*
X55967380Y-76557142D01*
X56015000Y-76414285D01*
X56062619Y-76366666D01*
X55967380Y-75461904D02*
X55967380Y-75938095D01*
X56443571Y-75985714D01*
X56395952Y-75938095D01*
X56348333Y-75842857D01*
X56348333Y-75604761D01*
X56395952Y-75509523D01*
X56443571Y-75461904D01*
X56538809Y-75414285D01*
X56776904Y-75414285D01*
X56872142Y-75461904D01*
X56919761Y-75509523D01*
X56967380Y-75604761D01*
X56967380Y-75842857D01*
X56919761Y-75938095D01*
X56872142Y-75985714D01*
%TO.C,C4*%
X55602142Y-50966666D02*
X55649761Y-51014285D01*
X55697380Y-51157142D01*
X55697380Y-51252380D01*
X55649761Y-51395238D01*
X55554523Y-51490476D01*
X55459285Y-51538095D01*
X55268809Y-51585714D01*
X55125952Y-51585714D01*
X54935476Y-51538095D01*
X54840238Y-51490476D01*
X54745000Y-51395238D01*
X54697380Y-51252380D01*
X54697380Y-51157142D01*
X54745000Y-51014285D01*
X54792619Y-50966666D01*
X55030714Y-50109523D02*
X55697380Y-50109523D01*
X54649761Y-50347619D02*
X55364047Y-50585714D01*
X55364047Y-49966666D01*
%TO.C,C3*%
X115927142Y-76366666D02*
X115974761Y-76414285D01*
X116022380Y-76557142D01*
X116022380Y-76652380D01*
X115974761Y-76795238D01*
X115879523Y-76890476D01*
X115784285Y-76938095D01*
X115593809Y-76985714D01*
X115450952Y-76985714D01*
X115260476Y-76938095D01*
X115165238Y-76890476D01*
X115070000Y-76795238D01*
X115022380Y-76652380D01*
X115022380Y-76557142D01*
X115070000Y-76414285D01*
X115117619Y-76366666D01*
X115022380Y-76033333D02*
X115022380Y-75414285D01*
X115403333Y-75747619D01*
X115403333Y-75604761D01*
X115450952Y-75509523D01*
X115498571Y-75461904D01*
X115593809Y-75414285D01*
X115831904Y-75414285D01*
X115927142Y-75461904D01*
X115974761Y-75509523D01*
X116022380Y-75604761D01*
X116022380Y-75890476D01*
X115974761Y-75985714D01*
X115927142Y-76033333D01*
%TO.C,C2*%
X115927142Y-54141666D02*
X115974761Y-54189285D01*
X116022380Y-54332142D01*
X116022380Y-54427380D01*
X115974761Y-54570238D01*
X115879523Y-54665476D01*
X115784285Y-54713095D01*
X115593809Y-54760714D01*
X115450952Y-54760714D01*
X115260476Y-54713095D01*
X115165238Y-54665476D01*
X115070000Y-54570238D01*
X115022380Y-54427380D01*
X115022380Y-54332142D01*
X115070000Y-54189285D01*
X115117619Y-54141666D01*
X115117619Y-53760714D02*
X115070000Y-53713095D01*
X115022380Y-53617857D01*
X115022380Y-53379761D01*
X115070000Y-53284523D01*
X115117619Y-53236904D01*
X115212857Y-53189285D01*
X115308095Y-53189285D01*
X115450952Y-53236904D01*
X116022380Y-53808333D01*
X116022380Y-53189285D01*
%TO.C,U1*%
X79462380Y-38861904D02*
X80271904Y-38861904D01*
X80367142Y-38814285D01*
X80414761Y-38766666D01*
X80462380Y-38671428D01*
X80462380Y-38480952D01*
X80414761Y-38385714D01*
X80367142Y-38338095D01*
X80271904Y-38290476D01*
X79462380Y-38290476D01*
X80462380Y-37290476D02*
X80462380Y-37861904D01*
X80462380Y-37576190D02*
X79462380Y-37576190D01*
X79605238Y-37671428D01*
X79700476Y-37766666D01*
X79748095Y-37861904D01*
%TO.C,U4*%
X49617380Y-40131904D02*
X50426904Y-40131904D01*
X50522142Y-40084285D01*
X50569761Y-40036666D01*
X50617380Y-39941428D01*
X50617380Y-39750952D01*
X50569761Y-39655714D01*
X50522142Y-39608095D01*
X50426904Y-39560476D01*
X49617380Y-39560476D01*
X49950714Y-38655714D02*
X50617380Y-38655714D01*
X49569761Y-38893809D02*
X50284047Y-39131904D01*
X50284047Y-38512857D01*
%TO.C,U0*%
X23158095Y-26452380D02*
X23158095Y-27261904D01*
X23205714Y-27357142D01*
X23253333Y-27404761D01*
X23348571Y-27452380D01*
X23539047Y-27452380D01*
X23634285Y-27404761D01*
X23681904Y-27357142D01*
X23729523Y-27261904D01*
X23729523Y-26452380D01*
X24396190Y-26452380D02*
X24491428Y-26452380D01*
X24586666Y-26500000D01*
X24634285Y-26547619D01*
X24681904Y-26642857D01*
X24729523Y-26833333D01*
X24729523Y-27071428D01*
X24681904Y-27261904D01*
X24634285Y-27357142D01*
X24586666Y-27404761D01*
X24491428Y-27452380D01*
X24396190Y-27452380D01*
X24300952Y-27404761D01*
X24253333Y-27357142D01*
X24205714Y-27261904D01*
X24158095Y-27071428D01*
X24158095Y-26833333D01*
X24205714Y-26642857D01*
X24253333Y-26547619D01*
X24300952Y-26500000D01*
X24396190Y-26452380D01*
%TO.C,U6*%
X86447380Y-59181904D02*
X87256904Y-59181904D01*
X87352142Y-59134285D01*
X87399761Y-59086666D01*
X87447380Y-58991428D01*
X87447380Y-58800952D01*
X87399761Y-58705714D01*
X87352142Y-58658095D01*
X87256904Y-58610476D01*
X86447380Y-58610476D01*
X86447380Y-57705714D02*
X86447380Y-57896190D01*
X86495000Y-57991428D01*
X86542619Y-58039047D01*
X86685476Y-58134285D01*
X86875952Y-58181904D01*
X87256904Y-58181904D01*
X87352142Y-58134285D01*
X87399761Y-58086666D01*
X87447380Y-57991428D01*
X87447380Y-57800952D01*
X87399761Y-57705714D01*
X87352142Y-57658095D01*
X87256904Y-57610476D01*
X87018809Y-57610476D01*
X86923571Y-57658095D01*
X86875952Y-57705714D01*
X86828333Y-57800952D01*
X86828333Y-57991428D01*
X86875952Y-58086666D01*
X86923571Y-58134285D01*
X87018809Y-58181904D01*
%TO.C,U3*%
X111212380Y-61721904D02*
X112021904Y-61721904D01*
X112117142Y-61674285D01*
X112164761Y-61626666D01*
X112212380Y-61531428D01*
X112212380Y-61340952D01*
X112164761Y-61245714D01*
X112117142Y-61198095D01*
X112021904Y-61150476D01*
X111212380Y-61150476D01*
X111212380Y-60769523D02*
X111212380Y-60150476D01*
X111593333Y-60483809D01*
X111593333Y-60340952D01*
X111640952Y-60245714D01*
X111688571Y-60198095D01*
X111783809Y-60150476D01*
X112021904Y-60150476D01*
X112117142Y-60198095D01*
X112164761Y-60245714D01*
X112212380Y-60340952D01*
X112212380Y-60626666D01*
X112164761Y-60721904D01*
X112117142Y-60769523D01*
%TO.C,R2*%
X91712380Y-93511666D02*
X91236190Y-93845000D01*
X91712380Y-94083095D02*
X90712380Y-94083095D01*
X90712380Y-93702142D01*
X90760000Y-93606904D01*
X90807619Y-93559285D01*
X90902857Y-93511666D01*
X91045714Y-93511666D01*
X91140952Y-93559285D01*
X91188571Y-93606904D01*
X91236190Y-93702142D01*
X91236190Y-94083095D01*
X90807619Y-93130714D02*
X90760000Y-93083095D01*
X90712380Y-92987857D01*
X90712380Y-92749761D01*
X90760000Y-92654523D01*
X90807619Y-92606904D01*
X90902857Y-92559285D01*
X90998095Y-92559285D01*
X91140952Y-92606904D01*
X91712380Y-93178333D01*
X91712380Y-92559285D01*
%TO.C,R1*%
X44087380Y-93511666D02*
X43611190Y-93845000D01*
X44087380Y-94083095D02*
X43087380Y-94083095D01*
X43087380Y-93702142D01*
X43135000Y-93606904D01*
X43182619Y-93559285D01*
X43277857Y-93511666D01*
X43420714Y-93511666D01*
X43515952Y-93559285D01*
X43563571Y-93606904D01*
X43611190Y-93702142D01*
X43611190Y-94083095D01*
X44087380Y-92559285D02*
X44087380Y-93130714D01*
X44087380Y-92845000D02*
X43087380Y-92845000D01*
X43230238Y-92940238D01*
X43325476Y-93035476D01*
X43373095Y-93130714D01*
%TO.C,AFF2*%
X69796666Y-95746428D02*
X69796666Y-95270238D01*
X70082380Y-95841666D02*
X69082380Y-95508333D01*
X70082380Y-95175000D01*
X69558571Y-94508333D02*
X69558571Y-94841666D01*
X70082380Y-94841666D02*
X69082380Y-94841666D01*
X69082380Y-94365476D01*
X69558571Y-93651190D02*
X69558571Y-93984523D01*
X70082380Y-93984523D02*
X69082380Y-93984523D01*
X69082380Y-93508333D01*
X69177619Y-93175000D02*
X69130000Y-93127380D01*
X69082380Y-93032142D01*
X69082380Y-92794047D01*
X69130000Y-92698809D01*
X69177619Y-92651190D01*
X69272857Y-92603571D01*
X69368095Y-92603571D01*
X69510952Y-92651190D01*
X70082380Y-93222619D01*
X70082380Y-92603571D01*
%TO.C,AFF1*%
X84586666Y-95746428D02*
X84586666Y-95270238D01*
X84872380Y-95841666D02*
X83872380Y-95508333D01*
X84872380Y-95175000D01*
X84348571Y-94508333D02*
X84348571Y-94841666D01*
X84872380Y-94841666D02*
X83872380Y-94841666D01*
X83872380Y-94365476D01*
X84348571Y-93651190D02*
X84348571Y-93984523D01*
X84872380Y-93984523D02*
X83872380Y-93984523D01*
X83872380Y-93508333D01*
X84872380Y-92603571D02*
X84872380Y-93175000D01*
X84872380Y-92889285D02*
X83872380Y-92889285D01*
X84015238Y-92984523D01*
X84110476Y-93079761D01*
X84158095Y-93175000D01*
%TD*%
M02*
