%TF.GenerationSoftware,KiCad,Pcbnew,(5.1.12)-1*%
%TF.CreationDate,2022-04-03T13:26:01+02:00*%
%TF.ProjectId,ec1834-post,65633138-3334-42d7-906f-73742e6b6963,rev?*%
%TF.SameCoordinates,Original*%
%TF.FileFunction,AssemblyDrawing,Top*%
%FSLAX46Y46*%
G04 Gerber Fmt 4.6, Leading zero omitted, Abs format (unit mm)*
G04 Created by KiCad (PCBNEW (5.1.12)-1) date 2022-04-03 13:26:01*
%MOMM*%
%LPD*%
G01*
G04 APERTURE LIST*
%ADD10C,0.100000*%
%ADD11C,0.150000*%
%ADD12C,0.114000*%
G04 APERTURE END LIST*
D10*
%TO.C,C1*%
X85725000Y-43935000D02*
X85725000Y-45785000D01*
X85725000Y-51435000D02*
X85725000Y-49585000D01*
X84425000Y-45785000D02*
X84425000Y-49585000D01*
X87025000Y-45785000D02*
X84425000Y-45785000D01*
X87025000Y-49585000D02*
X87025000Y-45785000D01*
X84425000Y-49585000D02*
X87025000Y-49585000D01*
%TO.C,U2*%
X113270000Y-43905000D02*
X113270000Y-49255000D01*
X113270000Y-49255000D02*
X95490000Y-49255000D01*
X95490000Y-49255000D02*
X95490000Y-42905000D01*
X95490000Y-42905000D02*
X112270000Y-42905000D01*
X112270000Y-42905000D02*
X113270000Y-43905000D01*
%TO.C,U5*%
X53975000Y-62255000D02*
X53975000Y-75985000D01*
X53975000Y-75985000D02*
X23495000Y-75985000D01*
X23495000Y-75985000D02*
X23495000Y-61255000D01*
X23495000Y-61255000D02*
X52975000Y-61255000D01*
X52975000Y-61255000D02*
X53975000Y-62255000D01*
%TO.C,C6*%
X92710000Y-63660000D02*
X92710000Y-66110000D01*
X92710000Y-73660000D02*
X92710000Y-71210000D01*
X91160000Y-66110000D02*
X91160000Y-71210000D01*
X94260000Y-66110000D02*
X91160000Y-66110000D01*
X94260000Y-71210000D02*
X94260000Y-66110000D01*
X91160000Y-71210000D02*
X94260000Y-71210000D01*
%TO.C,C5*%
X56515000Y-63660000D02*
X56515000Y-66110000D01*
X56515000Y-73660000D02*
X56515000Y-71210000D01*
X54965000Y-66110000D02*
X54965000Y-71210000D01*
X58065000Y-66110000D02*
X54965000Y-66110000D01*
X58065000Y-71210000D02*
X58065000Y-66110000D01*
X54965000Y-71210000D02*
X58065000Y-71210000D01*
%TO.C,C4*%
X55245000Y-41395000D02*
X55245000Y-42595000D01*
X55245000Y-48895000D02*
X55245000Y-47695000D01*
X53695000Y-42595000D02*
X53695000Y-47695000D01*
X56795000Y-42595000D02*
X53695000Y-42595000D01*
X56795000Y-47695000D02*
X56795000Y-42595000D01*
X53695000Y-47695000D02*
X56795000Y-47695000D01*
%TO.C,C3*%
X115570000Y-66160000D02*
X115570000Y-68010000D01*
X115570000Y-73660000D02*
X115570000Y-71810000D01*
X114270000Y-68010000D02*
X114270000Y-71810000D01*
X116870000Y-68010000D02*
X114270000Y-68010000D01*
X116870000Y-71810000D02*
X116870000Y-68010000D01*
X114270000Y-71810000D02*
X116870000Y-71810000D01*
%TO.C,C2*%
X115570000Y-43935000D02*
X115570000Y-45785000D01*
X115570000Y-51435000D02*
X115570000Y-49585000D01*
X114270000Y-45785000D02*
X114270000Y-49585000D01*
X116870000Y-45785000D02*
X114270000Y-45785000D01*
X116870000Y-49585000D02*
X116870000Y-45785000D01*
X114270000Y-49585000D02*
X116870000Y-49585000D01*
%TO.C,U1*%
X83270000Y-43905000D02*
X83270000Y-49255000D01*
X83270000Y-49255000D02*
X65490000Y-49255000D01*
X65490000Y-49255000D02*
X65490000Y-42905000D01*
X65490000Y-42905000D02*
X82270000Y-42905000D01*
X82270000Y-42905000D02*
X83270000Y-43905000D01*
%TO.C,U4*%
X52270000Y-43120000D02*
X52270000Y-48470000D01*
X52270000Y-48470000D02*
X26870000Y-48470000D01*
X26870000Y-48470000D02*
X26870000Y-42120000D01*
X26870000Y-42120000D02*
X51270000Y-42120000D01*
X51270000Y-42120000D02*
X52270000Y-43120000D01*
%TO.C,U0*%
X24620000Y-13260000D02*
X24620000Y-19260000D01*
X24620000Y-19260000D02*
X21370000Y-19260000D01*
X21370000Y-19260000D02*
X21370000Y-26000000D01*
X21370000Y-26000000D02*
X26370000Y-26000000D01*
X26370000Y-26000000D02*
X26370000Y-25000000D01*
X26370000Y-25000000D02*
X110370000Y-25000000D01*
X110370000Y-25000000D02*
X110370000Y-26000000D01*
X110370000Y-26000000D02*
X115370000Y-26000000D01*
X115370000Y-26000000D02*
X115370000Y-19260000D01*
X115370000Y-19260000D02*
X112120000Y-19260000D01*
X112120000Y-19260000D02*
X112120000Y-13260000D01*
X112120000Y-13260000D02*
X24620000Y-13260000D01*
X29000000Y-24800000D02*
X28500000Y-24100000D01*
X28500000Y-24100000D02*
X29500000Y-24100000D01*
X29500000Y-24100000D02*
X29000000Y-24800000D01*
%TO.C,U6*%
X90270000Y-62255000D02*
X90270000Y-75985000D01*
X90270000Y-75985000D02*
X59790000Y-75985000D01*
X59790000Y-75985000D02*
X59790000Y-61255000D01*
X59790000Y-61255000D02*
X89270000Y-61255000D01*
X89270000Y-61255000D02*
X90270000Y-62255000D01*
%TO.C,U3*%
X113270000Y-66905000D02*
X113270000Y-72255000D01*
X113270000Y-72255000D02*
X95490000Y-72255000D01*
X95490000Y-72255000D02*
X95490000Y-65905000D01*
X95490000Y-65905000D02*
X112270000Y-65905000D01*
X112270000Y-65905000D02*
X113270000Y-66905000D01*
%TO.C,R2*%
X92380000Y-97845000D02*
X95580000Y-97845000D01*
X95580000Y-97845000D02*
X95580000Y-88845000D01*
X95580000Y-88845000D02*
X92380000Y-88845000D01*
X92380000Y-88845000D02*
X92380000Y-97845000D01*
X93980000Y-99695000D02*
X93980000Y-97845000D01*
X93980000Y-86995000D02*
X93980000Y-88845000D01*
%TO.C,R1*%
X44755000Y-97845000D02*
X47955000Y-97845000D01*
X47955000Y-97845000D02*
X47955000Y-88845000D01*
X47955000Y-88845000D02*
X44755000Y-88845000D01*
X44755000Y-88845000D02*
X44755000Y-97845000D01*
X46355000Y-99695000D02*
X46355000Y-97845000D01*
X46355000Y-86995000D02*
X46355000Y-88845000D01*
%TO.C,AFF2*%
X68430000Y-85650000D02*
X68430000Y-103700000D01*
X55830000Y-84650000D02*
X55830000Y-103700000D01*
X67430000Y-84650000D02*
X55830000Y-84650000D01*
X55830000Y-103700000D02*
X68430000Y-103700000D01*
X68430000Y-85650000D02*
X67430000Y-84650000D01*
%TO.C,AFF1*%
X83220000Y-85650000D02*
X83220000Y-103700000D01*
X70620000Y-84650000D02*
X70620000Y-103700000D01*
X82220000Y-84650000D02*
X70620000Y-84650000D01*
X70620000Y-103700000D02*
X83220000Y-103700000D01*
X83220000Y-85650000D02*
X82220000Y-84650000D01*
%TD*%
%TO.C,C1*%
D11*
X88597380Y-48804047D02*
X88597380Y-49375476D01*
X88597380Y-49089761D02*
X87597380Y-49089761D01*
X87740238Y-49185000D01*
X87835476Y-49280238D01*
X87883095Y-49375476D01*
X87597380Y-48185000D02*
X87597380Y-48089761D01*
X87645000Y-47994523D01*
X87692619Y-47946904D01*
X87787857Y-47899285D01*
X87978333Y-47851666D01*
X88216428Y-47851666D01*
X88406904Y-47899285D01*
X88502142Y-47946904D01*
X88549761Y-47994523D01*
X88597380Y-48089761D01*
X88597380Y-48185000D01*
X88549761Y-48280238D01*
X88502142Y-48327857D01*
X88406904Y-48375476D01*
X88216428Y-48423095D01*
X87978333Y-48423095D01*
X87787857Y-48375476D01*
X87692619Y-48327857D01*
X87645000Y-48280238D01*
X87597380Y-48185000D01*
X87597380Y-47232619D02*
X87597380Y-47137380D01*
X87645000Y-47042142D01*
X87692619Y-46994523D01*
X87787857Y-46946904D01*
X87978333Y-46899285D01*
X88216428Y-46899285D01*
X88406904Y-46946904D01*
X88502142Y-46994523D01*
X88549761Y-47042142D01*
X88597380Y-47137380D01*
X88597380Y-47232619D01*
X88549761Y-47327857D01*
X88502142Y-47375476D01*
X88406904Y-47423095D01*
X88216428Y-47470714D01*
X87978333Y-47470714D01*
X87787857Y-47423095D01*
X87692619Y-47375476D01*
X87645000Y-47327857D01*
X87597380Y-47232619D01*
X87930714Y-46470714D02*
X88597380Y-46470714D01*
X88025952Y-46470714D02*
X87978333Y-46423095D01*
X87930714Y-46327857D01*
X87930714Y-46185000D01*
X87978333Y-46089761D01*
X88073571Y-46042142D01*
X88597380Y-46042142D01*
D12*
X85996428Y-47811666D02*
X86032619Y-47847857D01*
X86068809Y-47956428D01*
X86068809Y-48028809D01*
X86032619Y-48137380D01*
X85960238Y-48209761D01*
X85887857Y-48245952D01*
X85743095Y-48282142D01*
X85634523Y-48282142D01*
X85489761Y-48245952D01*
X85417380Y-48209761D01*
X85345000Y-48137380D01*
X85308809Y-48028809D01*
X85308809Y-47956428D01*
X85345000Y-47847857D01*
X85381190Y-47811666D01*
X86068809Y-47087857D02*
X86068809Y-47522142D01*
X86068809Y-47305000D02*
X85308809Y-47305000D01*
X85417380Y-47377380D01*
X85489761Y-47449761D01*
X85525952Y-47522142D01*
%TO.C,U2*%
D11*
X93882380Y-48865714D02*
X93882380Y-48199047D01*
X94882380Y-48627619D01*
X94215714Y-47389523D02*
X94882380Y-47389523D01*
X93834761Y-47627619D02*
X94549047Y-47865714D01*
X94549047Y-47246666D01*
X94882380Y-46865714D02*
X93882380Y-46865714D01*
X94358571Y-46865714D02*
X94358571Y-46294285D01*
X94882380Y-46294285D02*
X93882380Y-46294285D01*
X94787142Y-45246666D02*
X94834761Y-45294285D01*
X94882380Y-45437142D01*
X94882380Y-45532380D01*
X94834761Y-45675238D01*
X94739523Y-45770476D01*
X94644285Y-45818095D01*
X94453809Y-45865714D01*
X94310952Y-45865714D01*
X94120476Y-45818095D01*
X94025238Y-45770476D01*
X93930000Y-45675238D01*
X93882380Y-45532380D01*
X93882380Y-45437142D01*
X93930000Y-45294285D01*
X93977619Y-45246666D01*
X93882380Y-44627619D02*
X93882380Y-44532380D01*
X93930000Y-44437142D01*
X93977619Y-44389523D01*
X94072857Y-44341904D01*
X94263333Y-44294285D01*
X94501428Y-44294285D01*
X94691904Y-44341904D01*
X94787142Y-44389523D01*
X94834761Y-44437142D01*
X94882380Y-44532380D01*
X94882380Y-44627619D01*
X94834761Y-44722857D01*
X94787142Y-44770476D01*
X94691904Y-44818095D01*
X94501428Y-44865714D01*
X94263333Y-44865714D01*
X94072857Y-44818095D01*
X93977619Y-44770476D01*
X93930000Y-44722857D01*
X93882380Y-44627619D01*
X94215714Y-43437142D02*
X94882380Y-43437142D01*
X93834761Y-43675238D02*
X94549047Y-43913333D01*
X94549047Y-43294285D01*
X104467380Y-47476904D02*
X105276904Y-47476904D01*
X105372142Y-47429285D01*
X105419761Y-47381666D01*
X105467380Y-47286428D01*
X105467380Y-47095952D01*
X105419761Y-47000714D01*
X105372142Y-46953095D01*
X105276904Y-46905476D01*
X104467380Y-46905476D01*
X104562619Y-46476904D02*
X104515000Y-46429285D01*
X104467380Y-46334047D01*
X104467380Y-46095952D01*
X104515000Y-46000714D01*
X104562619Y-45953095D01*
X104657857Y-45905476D01*
X104753095Y-45905476D01*
X104895952Y-45953095D01*
X105467380Y-46524523D01*
X105467380Y-45905476D01*
%TO.C,U5*%
X21982619Y-70334285D02*
X21935000Y-70286666D01*
X21887380Y-70191428D01*
X21887380Y-69953333D01*
X21935000Y-69858095D01*
X21982619Y-69810476D01*
X22077857Y-69762857D01*
X22173095Y-69762857D01*
X22315952Y-69810476D01*
X22887380Y-70381904D01*
X22887380Y-69762857D01*
X21887380Y-69429523D02*
X21887380Y-68762857D01*
X22887380Y-69191428D01*
X21887380Y-68477142D02*
X21887380Y-67858095D01*
X22268333Y-68191428D01*
X22268333Y-68048571D01*
X22315952Y-67953333D01*
X22363571Y-67905714D01*
X22458809Y-67858095D01*
X22696904Y-67858095D01*
X22792142Y-67905714D01*
X22839761Y-67953333D01*
X22887380Y-68048571D01*
X22887380Y-68334285D01*
X22839761Y-68429523D01*
X22792142Y-68477142D01*
X21982619Y-67477142D02*
X21935000Y-67429523D01*
X21887380Y-67334285D01*
X21887380Y-67096190D01*
X21935000Y-67000952D01*
X21982619Y-66953333D01*
X22077857Y-66905714D01*
X22173095Y-66905714D01*
X22315952Y-66953333D01*
X22887380Y-67524761D01*
X22887380Y-66905714D01*
X38187380Y-69381904D02*
X38996904Y-69381904D01*
X39092142Y-69334285D01*
X39139761Y-69286666D01*
X39187380Y-69191428D01*
X39187380Y-69000952D01*
X39139761Y-68905714D01*
X39092142Y-68858095D01*
X38996904Y-68810476D01*
X38187380Y-68810476D01*
X38187380Y-67858095D02*
X38187380Y-68334285D01*
X38663571Y-68381904D01*
X38615952Y-68334285D01*
X38568333Y-68239047D01*
X38568333Y-68000952D01*
X38615952Y-67905714D01*
X38663571Y-67858095D01*
X38758809Y-67810476D01*
X38996904Y-67810476D01*
X39092142Y-67858095D01*
X39139761Y-67905714D01*
X39187380Y-68000952D01*
X39187380Y-68239047D01*
X39139761Y-68334285D01*
X39092142Y-68381904D01*
%TO.C,C6*%
X95832380Y-69779047D02*
X95832380Y-70350476D01*
X95832380Y-70064761D02*
X94832380Y-70064761D01*
X94975238Y-70160000D01*
X95070476Y-70255238D01*
X95118095Y-70350476D01*
X94832380Y-69160000D02*
X94832380Y-69064761D01*
X94880000Y-68969523D01*
X94927619Y-68921904D01*
X95022857Y-68874285D01*
X95213333Y-68826666D01*
X95451428Y-68826666D01*
X95641904Y-68874285D01*
X95737142Y-68921904D01*
X95784761Y-68969523D01*
X95832380Y-69064761D01*
X95832380Y-69160000D01*
X95784761Y-69255238D01*
X95737142Y-69302857D01*
X95641904Y-69350476D01*
X95451428Y-69398095D01*
X95213333Y-69398095D01*
X95022857Y-69350476D01*
X94927619Y-69302857D01*
X94880000Y-69255238D01*
X94832380Y-69160000D01*
X94832380Y-68207619D02*
X94832380Y-68112380D01*
X94880000Y-68017142D01*
X94927619Y-67969523D01*
X95022857Y-67921904D01*
X95213333Y-67874285D01*
X95451428Y-67874285D01*
X95641904Y-67921904D01*
X95737142Y-67969523D01*
X95784761Y-68017142D01*
X95832380Y-68112380D01*
X95832380Y-68207619D01*
X95784761Y-68302857D01*
X95737142Y-68350476D01*
X95641904Y-68398095D01*
X95451428Y-68445714D01*
X95213333Y-68445714D01*
X95022857Y-68398095D01*
X94927619Y-68350476D01*
X94880000Y-68302857D01*
X94832380Y-68207619D01*
X95165714Y-67445714D02*
X95832380Y-67445714D01*
X95260952Y-67445714D02*
X95213333Y-67398095D01*
X95165714Y-67302857D01*
X95165714Y-67160000D01*
X95213333Y-67064761D01*
X95308571Y-67017142D01*
X95832380Y-67017142D01*
X93067142Y-68826666D02*
X93114761Y-68874285D01*
X93162380Y-69017142D01*
X93162380Y-69112380D01*
X93114761Y-69255238D01*
X93019523Y-69350476D01*
X92924285Y-69398095D01*
X92733809Y-69445714D01*
X92590952Y-69445714D01*
X92400476Y-69398095D01*
X92305238Y-69350476D01*
X92210000Y-69255238D01*
X92162380Y-69112380D01*
X92162380Y-69017142D01*
X92210000Y-68874285D01*
X92257619Y-68826666D01*
X92162380Y-67969523D02*
X92162380Y-68160000D01*
X92210000Y-68255238D01*
X92257619Y-68302857D01*
X92400476Y-68398095D01*
X92590952Y-68445714D01*
X92971904Y-68445714D01*
X93067142Y-68398095D01*
X93114761Y-68350476D01*
X93162380Y-68255238D01*
X93162380Y-68064761D01*
X93114761Y-67969523D01*
X93067142Y-67921904D01*
X92971904Y-67874285D01*
X92733809Y-67874285D01*
X92638571Y-67921904D01*
X92590952Y-67969523D01*
X92543333Y-68064761D01*
X92543333Y-68255238D01*
X92590952Y-68350476D01*
X92638571Y-68398095D01*
X92733809Y-68445714D01*
%TO.C,C5*%
X59637380Y-69779047D02*
X59637380Y-70350476D01*
X59637380Y-70064761D02*
X58637380Y-70064761D01*
X58780238Y-70160000D01*
X58875476Y-70255238D01*
X58923095Y-70350476D01*
X58637380Y-69160000D02*
X58637380Y-69064761D01*
X58685000Y-68969523D01*
X58732619Y-68921904D01*
X58827857Y-68874285D01*
X59018333Y-68826666D01*
X59256428Y-68826666D01*
X59446904Y-68874285D01*
X59542142Y-68921904D01*
X59589761Y-68969523D01*
X59637380Y-69064761D01*
X59637380Y-69160000D01*
X59589761Y-69255238D01*
X59542142Y-69302857D01*
X59446904Y-69350476D01*
X59256428Y-69398095D01*
X59018333Y-69398095D01*
X58827857Y-69350476D01*
X58732619Y-69302857D01*
X58685000Y-69255238D01*
X58637380Y-69160000D01*
X58637380Y-68207619D02*
X58637380Y-68112380D01*
X58685000Y-68017142D01*
X58732619Y-67969523D01*
X58827857Y-67921904D01*
X59018333Y-67874285D01*
X59256428Y-67874285D01*
X59446904Y-67921904D01*
X59542142Y-67969523D01*
X59589761Y-68017142D01*
X59637380Y-68112380D01*
X59637380Y-68207619D01*
X59589761Y-68302857D01*
X59542142Y-68350476D01*
X59446904Y-68398095D01*
X59256428Y-68445714D01*
X59018333Y-68445714D01*
X58827857Y-68398095D01*
X58732619Y-68350476D01*
X58685000Y-68302857D01*
X58637380Y-68207619D01*
X58970714Y-67445714D02*
X59637380Y-67445714D01*
X59065952Y-67445714D02*
X59018333Y-67398095D01*
X58970714Y-67302857D01*
X58970714Y-67160000D01*
X59018333Y-67064761D01*
X59113571Y-67017142D01*
X59637380Y-67017142D01*
X56872142Y-68746666D02*
X56919761Y-68794285D01*
X56967380Y-68937142D01*
X56967380Y-69032380D01*
X56919761Y-69175238D01*
X56824523Y-69270476D01*
X56729285Y-69318095D01*
X56538809Y-69365714D01*
X56395952Y-69365714D01*
X56205476Y-69318095D01*
X56110238Y-69270476D01*
X56015000Y-69175238D01*
X55967380Y-69032380D01*
X55967380Y-68937142D01*
X56015000Y-68794285D01*
X56062619Y-68746666D01*
X55967380Y-67841904D02*
X55967380Y-68318095D01*
X56443571Y-68365714D01*
X56395952Y-68318095D01*
X56348333Y-68222857D01*
X56348333Y-67984761D01*
X56395952Y-67889523D01*
X56443571Y-67841904D01*
X56538809Y-67794285D01*
X56776904Y-67794285D01*
X56872142Y-67841904D01*
X56919761Y-67889523D01*
X56967380Y-67984761D01*
X56967380Y-68222857D01*
X56919761Y-68318095D01*
X56872142Y-68365714D01*
%TO.C,C4*%
X58367380Y-46264047D02*
X58367380Y-46835476D01*
X58367380Y-46549761D02*
X57367380Y-46549761D01*
X57510238Y-46645000D01*
X57605476Y-46740238D01*
X57653095Y-46835476D01*
X57367380Y-45645000D02*
X57367380Y-45549761D01*
X57415000Y-45454523D01*
X57462619Y-45406904D01*
X57557857Y-45359285D01*
X57748333Y-45311666D01*
X57986428Y-45311666D01*
X58176904Y-45359285D01*
X58272142Y-45406904D01*
X58319761Y-45454523D01*
X58367380Y-45549761D01*
X58367380Y-45645000D01*
X58319761Y-45740238D01*
X58272142Y-45787857D01*
X58176904Y-45835476D01*
X57986428Y-45883095D01*
X57748333Y-45883095D01*
X57557857Y-45835476D01*
X57462619Y-45787857D01*
X57415000Y-45740238D01*
X57367380Y-45645000D01*
X57367380Y-44692619D02*
X57367380Y-44597380D01*
X57415000Y-44502142D01*
X57462619Y-44454523D01*
X57557857Y-44406904D01*
X57748333Y-44359285D01*
X57986428Y-44359285D01*
X58176904Y-44406904D01*
X58272142Y-44454523D01*
X58319761Y-44502142D01*
X58367380Y-44597380D01*
X58367380Y-44692619D01*
X58319761Y-44787857D01*
X58272142Y-44835476D01*
X58176904Y-44883095D01*
X57986428Y-44930714D01*
X57748333Y-44930714D01*
X57557857Y-44883095D01*
X57462619Y-44835476D01*
X57415000Y-44787857D01*
X57367380Y-44692619D01*
X57700714Y-43930714D02*
X58367380Y-43930714D01*
X57795952Y-43930714D02*
X57748333Y-43883095D01*
X57700714Y-43787857D01*
X57700714Y-43645000D01*
X57748333Y-43549761D01*
X57843571Y-43502142D01*
X58367380Y-43502142D01*
X55602142Y-45311666D02*
X55649761Y-45359285D01*
X55697380Y-45502142D01*
X55697380Y-45597380D01*
X55649761Y-45740238D01*
X55554523Y-45835476D01*
X55459285Y-45883095D01*
X55268809Y-45930714D01*
X55125952Y-45930714D01*
X54935476Y-45883095D01*
X54840238Y-45835476D01*
X54745000Y-45740238D01*
X54697380Y-45597380D01*
X54697380Y-45502142D01*
X54745000Y-45359285D01*
X54792619Y-45311666D01*
X55030714Y-44454523D02*
X55697380Y-44454523D01*
X54649761Y-44692619D02*
X55364047Y-44930714D01*
X55364047Y-44311666D01*
%TO.C,C3*%
X118442380Y-71029047D02*
X118442380Y-71600476D01*
X118442380Y-71314761D02*
X117442380Y-71314761D01*
X117585238Y-71410000D01*
X117680476Y-71505238D01*
X117728095Y-71600476D01*
X117442380Y-70410000D02*
X117442380Y-70314761D01*
X117490000Y-70219523D01*
X117537619Y-70171904D01*
X117632857Y-70124285D01*
X117823333Y-70076666D01*
X118061428Y-70076666D01*
X118251904Y-70124285D01*
X118347142Y-70171904D01*
X118394761Y-70219523D01*
X118442380Y-70314761D01*
X118442380Y-70410000D01*
X118394761Y-70505238D01*
X118347142Y-70552857D01*
X118251904Y-70600476D01*
X118061428Y-70648095D01*
X117823333Y-70648095D01*
X117632857Y-70600476D01*
X117537619Y-70552857D01*
X117490000Y-70505238D01*
X117442380Y-70410000D01*
X117442380Y-69457619D02*
X117442380Y-69362380D01*
X117490000Y-69267142D01*
X117537619Y-69219523D01*
X117632857Y-69171904D01*
X117823333Y-69124285D01*
X118061428Y-69124285D01*
X118251904Y-69171904D01*
X118347142Y-69219523D01*
X118394761Y-69267142D01*
X118442380Y-69362380D01*
X118442380Y-69457619D01*
X118394761Y-69552857D01*
X118347142Y-69600476D01*
X118251904Y-69648095D01*
X118061428Y-69695714D01*
X117823333Y-69695714D01*
X117632857Y-69648095D01*
X117537619Y-69600476D01*
X117490000Y-69552857D01*
X117442380Y-69457619D01*
X117775714Y-68695714D02*
X118442380Y-68695714D01*
X117870952Y-68695714D02*
X117823333Y-68648095D01*
X117775714Y-68552857D01*
X117775714Y-68410000D01*
X117823333Y-68314761D01*
X117918571Y-68267142D01*
X118442380Y-68267142D01*
D12*
X115841428Y-70036666D02*
X115877619Y-70072857D01*
X115913809Y-70181428D01*
X115913809Y-70253809D01*
X115877619Y-70362380D01*
X115805238Y-70434761D01*
X115732857Y-70470952D01*
X115588095Y-70507142D01*
X115479523Y-70507142D01*
X115334761Y-70470952D01*
X115262380Y-70434761D01*
X115190000Y-70362380D01*
X115153809Y-70253809D01*
X115153809Y-70181428D01*
X115190000Y-70072857D01*
X115226190Y-70036666D01*
X115153809Y-69783333D02*
X115153809Y-69312857D01*
X115443333Y-69566190D01*
X115443333Y-69457619D01*
X115479523Y-69385238D01*
X115515714Y-69349047D01*
X115588095Y-69312857D01*
X115769047Y-69312857D01*
X115841428Y-69349047D01*
X115877619Y-69385238D01*
X115913809Y-69457619D01*
X115913809Y-69674761D01*
X115877619Y-69747142D01*
X115841428Y-69783333D01*
%TO.C,C2*%
D11*
X118442380Y-48804047D02*
X118442380Y-49375476D01*
X118442380Y-49089761D02*
X117442380Y-49089761D01*
X117585238Y-49185000D01*
X117680476Y-49280238D01*
X117728095Y-49375476D01*
X117442380Y-48185000D02*
X117442380Y-48089761D01*
X117490000Y-47994523D01*
X117537619Y-47946904D01*
X117632857Y-47899285D01*
X117823333Y-47851666D01*
X118061428Y-47851666D01*
X118251904Y-47899285D01*
X118347142Y-47946904D01*
X118394761Y-47994523D01*
X118442380Y-48089761D01*
X118442380Y-48185000D01*
X118394761Y-48280238D01*
X118347142Y-48327857D01*
X118251904Y-48375476D01*
X118061428Y-48423095D01*
X117823333Y-48423095D01*
X117632857Y-48375476D01*
X117537619Y-48327857D01*
X117490000Y-48280238D01*
X117442380Y-48185000D01*
X117442380Y-47232619D02*
X117442380Y-47137380D01*
X117490000Y-47042142D01*
X117537619Y-46994523D01*
X117632857Y-46946904D01*
X117823333Y-46899285D01*
X118061428Y-46899285D01*
X118251904Y-46946904D01*
X118347142Y-46994523D01*
X118394761Y-47042142D01*
X118442380Y-47137380D01*
X118442380Y-47232619D01*
X118394761Y-47327857D01*
X118347142Y-47375476D01*
X118251904Y-47423095D01*
X118061428Y-47470714D01*
X117823333Y-47470714D01*
X117632857Y-47423095D01*
X117537619Y-47375476D01*
X117490000Y-47327857D01*
X117442380Y-47232619D01*
X117775714Y-46470714D02*
X118442380Y-46470714D01*
X117870952Y-46470714D02*
X117823333Y-46423095D01*
X117775714Y-46327857D01*
X117775714Y-46185000D01*
X117823333Y-46089761D01*
X117918571Y-46042142D01*
X118442380Y-46042142D01*
D12*
X115841428Y-47811666D02*
X115877619Y-47847857D01*
X115913809Y-47956428D01*
X115913809Y-48028809D01*
X115877619Y-48137380D01*
X115805238Y-48209761D01*
X115732857Y-48245952D01*
X115588095Y-48282142D01*
X115479523Y-48282142D01*
X115334761Y-48245952D01*
X115262380Y-48209761D01*
X115190000Y-48137380D01*
X115153809Y-48028809D01*
X115153809Y-47956428D01*
X115190000Y-47847857D01*
X115226190Y-47811666D01*
X115226190Y-47522142D02*
X115190000Y-47485952D01*
X115153809Y-47413571D01*
X115153809Y-47232619D01*
X115190000Y-47160238D01*
X115226190Y-47124047D01*
X115298571Y-47087857D01*
X115370952Y-47087857D01*
X115479523Y-47124047D01*
X115913809Y-47558333D01*
X115913809Y-47087857D01*
%TO.C,U1*%
D11*
X63882380Y-47841904D02*
X63882380Y-47175238D01*
X64882380Y-47603809D01*
X64215714Y-46365714D02*
X64882380Y-46365714D01*
X63834761Y-46603809D02*
X64549047Y-46841904D01*
X64549047Y-46222857D01*
X63882380Y-45937142D02*
X63882380Y-45318095D01*
X64263333Y-45651428D01*
X64263333Y-45508571D01*
X64310952Y-45413333D01*
X64358571Y-45365714D01*
X64453809Y-45318095D01*
X64691904Y-45318095D01*
X64787142Y-45365714D01*
X64834761Y-45413333D01*
X64882380Y-45508571D01*
X64882380Y-45794285D01*
X64834761Y-45889523D01*
X64787142Y-45937142D01*
X63977619Y-44937142D02*
X63930000Y-44889523D01*
X63882380Y-44794285D01*
X63882380Y-44556190D01*
X63930000Y-44460952D01*
X63977619Y-44413333D01*
X64072857Y-44365714D01*
X64168095Y-44365714D01*
X64310952Y-44413333D01*
X64882380Y-44984761D01*
X64882380Y-44365714D01*
X73832380Y-46841904D02*
X74641904Y-46841904D01*
X74737142Y-46794285D01*
X74784761Y-46746666D01*
X74832380Y-46651428D01*
X74832380Y-46460952D01*
X74784761Y-46365714D01*
X74737142Y-46318095D01*
X74641904Y-46270476D01*
X73832380Y-46270476D01*
X74832380Y-45270476D02*
X74832380Y-45841904D01*
X74832380Y-45556190D02*
X73832380Y-45556190D01*
X73975238Y-45651428D01*
X74070476Y-45746666D01*
X74118095Y-45841904D01*
%TO.C,U4*%
X25262380Y-48556904D02*
X25262380Y-47890238D01*
X26262380Y-48318809D01*
X25595714Y-47080714D02*
X26262380Y-47080714D01*
X25214761Y-47318809D02*
X25929047Y-47556904D01*
X25929047Y-46937857D01*
X26262380Y-46556904D02*
X25262380Y-46556904D01*
X25738571Y-46556904D02*
X25738571Y-45985476D01*
X26262380Y-45985476D02*
X25262380Y-45985476D01*
X26167142Y-44937857D02*
X26214761Y-44985476D01*
X26262380Y-45128333D01*
X26262380Y-45223571D01*
X26214761Y-45366428D01*
X26119523Y-45461666D01*
X26024285Y-45509285D01*
X25833809Y-45556904D01*
X25690952Y-45556904D01*
X25500476Y-45509285D01*
X25405238Y-45461666D01*
X25310000Y-45366428D01*
X25262380Y-45223571D01*
X25262380Y-45128333D01*
X25310000Y-44985476D01*
X25357619Y-44937857D01*
X25262380Y-44604523D02*
X25262380Y-43985476D01*
X25643333Y-44318809D01*
X25643333Y-44175952D01*
X25690952Y-44080714D01*
X25738571Y-44033095D01*
X25833809Y-43985476D01*
X26071904Y-43985476D01*
X26167142Y-44033095D01*
X26214761Y-44080714D01*
X26262380Y-44175952D01*
X26262380Y-44461666D01*
X26214761Y-44556904D01*
X26167142Y-44604523D01*
X25262380Y-43652142D02*
X25262380Y-42985476D01*
X26262380Y-43414047D01*
X25595714Y-42175952D02*
X26262380Y-42175952D01*
X25214761Y-42414047D02*
X25929047Y-42652142D01*
X25929047Y-42033095D01*
X39022380Y-46056904D02*
X39831904Y-46056904D01*
X39927142Y-46009285D01*
X39974761Y-45961666D01*
X40022380Y-45866428D01*
X40022380Y-45675952D01*
X39974761Y-45580714D01*
X39927142Y-45533095D01*
X39831904Y-45485476D01*
X39022380Y-45485476D01*
X39355714Y-44580714D02*
X40022380Y-44580714D01*
X38974761Y-44818809D02*
X39689047Y-45056904D01*
X39689047Y-44437857D01*
%TO.C,U0*%
X62322380Y-33548571D02*
X62465238Y-33596190D01*
X62512857Y-33643809D01*
X62560476Y-33739047D01*
X62560476Y-33881904D01*
X62512857Y-33977142D01*
X62465238Y-34024761D01*
X62370000Y-34072380D01*
X61989047Y-34072380D01*
X61989047Y-33072380D01*
X62322380Y-33072380D01*
X62417619Y-33120000D01*
X62465238Y-33167619D01*
X62512857Y-33262857D01*
X62512857Y-33358095D01*
X62465238Y-33453333D01*
X62417619Y-33500952D01*
X62322380Y-33548571D01*
X61989047Y-33548571D01*
X62989047Y-33072380D02*
X62989047Y-33881904D01*
X63036666Y-33977142D01*
X63084285Y-34024761D01*
X63179523Y-34072380D01*
X63370000Y-34072380D01*
X63465238Y-34024761D01*
X63512857Y-33977142D01*
X63560476Y-33881904D01*
X63560476Y-33072380D01*
X63989047Y-34024761D02*
X64131904Y-34072380D01*
X64370000Y-34072380D01*
X64465238Y-34024761D01*
X64512857Y-33977142D01*
X64560476Y-33881904D01*
X64560476Y-33786666D01*
X64512857Y-33691428D01*
X64465238Y-33643809D01*
X64370000Y-33596190D01*
X64179523Y-33548571D01*
X64084285Y-33500952D01*
X64036666Y-33453333D01*
X63989047Y-33358095D01*
X63989047Y-33262857D01*
X64036666Y-33167619D01*
X64084285Y-33120000D01*
X64179523Y-33072380D01*
X64417619Y-33072380D01*
X64560476Y-33120000D01*
X64750952Y-34167619D02*
X65512857Y-34167619D01*
X65750952Y-33548571D02*
X66084285Y-33548571D01*
X66227142Y-34072380D02*
X65750952Y-34072380D01*
X65750952Y-33072380D01*
X66227142Y-33072380D01*
X67227142Y-33977142D02*
X67179523Y-34024761D01*
X67036666Y-34072380D01*
X66941428Y-34072380D01*
X66798571Y-34024761D01*
X66703333Y-33929523D01*
X66655714Y-33834285D01*
X66608095Y-33643809D01*
X66608095Y-33500952D01*
X66655714Y-33310476D01*
X66703333Y-33215238D01*
X66798571Y-33120000D01*
X66941428Y-33072380D01*
X67036666Y-33072380D01*
X67179523Y-33120000D01*
X67227142Y-33167619D01*
X68179523Y-34072380D02*
X67608095Y-34072380D01*
X67893809Y-34072380D02*
X67893809Y-33072380D01*
X67798571Y-33215238D01*
X67703333Y-33310476D01*
X67608095Y-33358095D01*
X68750952Y-33500952D02*
X68655714Y-33453333D01*
X68608095Y-33405714D01*
X68560476Y-33310476D01*
X68560476Y-33262857D01*
X68608095Y-33167619D01*
X68655714Y-33120000D01*
X68750952Y-33072380D01*
X68941428Y-33072380D01*
X69036666Y-33120000D01*
X69084285Y-33167619D01*
X69131904Y-33262857D01*
X69131904Y-33310476D01*
X69084285Y-33405714D01*
X69036666Y-33453333D01*
X68941428Y-33500952D01*
X68750952Y-33500952D01*
X68655714Y-33548571D01*
X68608095Y-33596190D01*
X68560476Y-33691428D01*
X68560476Y-33881904D01*
X68608095Y-33977142D01*
X68655714Y-34024761D01*
X68750952Y-34072380D01*
X68941428Y-34072380D01*
X69036666Y-34024761D01*
X69084285Y-33977142D01*
X69131904Y-33881904D01*
X69131904Y-33691428D01*
X69084285Y-33596190D01*
X69036666Y-33548571D01*
X68941428Y-33500952D01*
X69465238Y-33072380D02*
X70084285Y-33072380D01*
X69750952Y-33453333D01*
X69893809Y-33453333D01*
X69989047Y-33500952D01*
X70036666Y-33548571D01*
X70084285Y-33643809D01*
X70084285Y-33881904D01*
X70036666Y-33977142D01*
X69989047Y-34024761D01*
X69893809Y-34072380D01*
X69608095Y-34072380D01*
X69512857Y-34024761D01*
X69465238Y-33977142D01*
X70941428Y-33405714D02*
X70941428Y-34072380D01*
X70703333Y-33024761D02*
X70465238Y-33739047D01*
X71084285Y-33739047D01*
X71227142Y-34167619D02*
X71989047Y-34167619D01*
X72370000Y-33500952D02*
X72274761Y-33453333D01*
X72227142Y-33405714D01*
X72179523Y-33310476D01*
X72179523Y-33262857D01*
X72227142Y-33167619D01*
X72274761Y-33120000D01*
X72370000Y-33072380D01*
X72560476Y-33072380D01*
X72655714Y-33120000D01*
X72703333Y-33167619D01*
X72750952Y-33262857D01*
X72750952Y-33310476D01*
X72703333Y-33405714D01*
X72655714Y-33453333D01*
X72560476Y-33500952D01*
X72370000Y-33500952D01*
X72274761Y-33548571D01*
X72227142Y-33596190D01*
X72179523Y-33691428D01*
X72179523Y-33881904D01*
X72227142Y-33977142D01*
X72274761Y-34024761D01*
X72370000Y-34072380D01*
X72560476Y-34072380D01*
X72655714Y-34024761D01*
X72703333Y-33977142D01*
X72750952Y-33881904D01*
X72750952Y-33691428D01*
X72703333Y-33596190D01*
X72655714Y-33548571D01*
X72560476Y-33500952D01*
X73512857Y-33548571D02*
X73655714Y-33596190D01*
X73703333Y-33643809D01*
X73750952Y-33739047D01*
X73750952Y-33881904D01*
X73703333Y-33977142D01*
X73655714Y-34024761D01*
X73560476Y-34072380D01*
X73179523Y-34072380D01*
X73179523Y-33072380D01*
X73512857Y-33072380D01*
X73608095Y-33120000D01*
X73655714Y-33167619D01*
X73703333Y-33262857D01*
X73703333Y-33358095D01*
X73655714Y-33453333D01*
X73608095Y-33500952D01*
X73512857Y-33548571D01*
X73179523Y-33548571D01*
X74179523Y-34072380D02*
X74179523Y-33405714D01*
X74179523Y-33072380D02*
X74131904Y-33120000D01*
X74179523Y-33167619D01*
X74227142Y-33120000D01*
X74179523Y-33072380D01*
X74179523Y-33167619D01*
X74512857Y-33405714D02*
X74893809Y-33405714D01*
X74655714Y-33072380D02*
X74655714Y-33929523D01*
X74703333Y-34024761D01*
X74798571Y-34072380D01*
X74893809Y-34072380D01*
X67608095Y-22912380D02*
X67608095Y-23721904D01*
X67655714Y-23817142D01*
X67703333Y-23864761D01*
X67798571Y-23912380D01*
X67989047Y-23912380D01*
X68084285Y-23864761D01*
X68131904Y-23817142D01*
X68179523Y-23721904D01*
X68179523Y-22912380D01*
X68846190Y-22912380D02*
X68941428Y-22912380D01*
X69036666Y-22960000D01*
X69084285Y-23007619D01*
X69131904Y-23102857D01*
X69179523Y-23293333D01*
X69179523Y-23531428D01*
X69131904Y-23721904D01*
X69084285Y-23817142D01*
X69036666Y-23864761D01*
X68941428Y-23912380D01*
X68846190Y-23912380D01*
X68750952Y-23864761D01*
X68703333Y-23817142D01*
X68655714Y-23721904D01*
X68608095Y-23531428D01*
X68608095Y-23293333D01*
X68655714Y-23102857D01*
X68703333Y-23007619D01*
X68750952Y-22960000D01*
X68846190Y-22912380D01*
%TO.C,U6*%
X58277619Y-70334285D02*
X58230000Y-70286666D01*
X58182380Y-70191428D01*
X58182380Y-69953333D01*
X58230000Y-69858095D01*
X58277619Y-69810476D01*
X58372857Y-69762857D01*
X58468095Y-69762857D01*
X58610952Y-69810476D01*
X59182380Y-70381904D01*
X59182380Y-69762857D01*
X58182380Y-69429523D02*
X58182380Y-68762857D01*
X59182380Y-69191428D01*
X58182380Y-68477142D02*
X58182380Y-67858095D01*
X58563333Y-68191428D01*
X58563333Y-68048571D01*
X58610952Y-67953333D01*
X58658571Y-67905714D01*
X58753809Y-67858095D01*
X58991904Y-67858095D01*
X59087142Y-67905714D01*
X59134761Y-67953333D01*
X59182380Y-68048571D01*
X59182380Y-68334285D01*
X59134761Y-68429523D01*
X59087142Y-68477142D01*
X58277619Y-67477142D02*
X58230000Y-67429523D01*
X58182380Y-67334285D01*
X58182380Y-67096190D01*
X58230000Y-67000952D01*
X58277619Y-66953333D01*
X58372857Y-66905714D01*
X58468095Y-66905714D01*
X58610952Y-66953333D01*
X59182380Y-67524761D01*
X59182380Y-66905714D01*
X74482380Y-69381904D02*
X75291904Y-69381904D01*
X75387142Y-69334285D01*
X75434761Y-69286666D01*
X75482380Y-69191428D01*
X75482380Y-69000952D01*
X75434761Y-68905714D01*
X75387142Y-68858095D01*
X75291904Y-68810476D01*
X74482380Y-68810476D01*
X74482380Y-67905714D02*
X74482380Y-68096190D01*
X74530000Y-68191428D01*
X74577619Y-68239047D01*
X74720476Y-68334285D01*
X74910952Y-68381904D01*
X75291904Y-68381904D01*
X75387142Y-68334285D01*
X75434761Y-68286666D01*
X75482380Y-68191428D01*
X75482380Y-68000952D01*
X75434761Y-67905714D01*
X75387142Y-67858095D01*
X75291904Y-67810476D01*
X75053809Y-67810476D01*
X74958571Y-67858095D01*
X74910952Y-67905714D01*
X74863333Y-68000952D01*
X74863333Y-68191428D01*
X74910952Y-68286666D01*
X74958571Y-68334285D01*
X75053809Y-68381904D01*
%TO.C,U3*%
X93882380Y-70841904D02*
X93882380Y-70175238D01*
X94882380Y-70603809D01*
X94215714Y-69365714D02*
X94882380Y-69365714D01*
X93834761Y-69603809D02*
X94549047Y-69841904D01*
X94549047Y-69222857D01*
X93882380Y-68937142D02*
X93882380Y-68318095D01*
X94263333Y-68651428D01*
X94263333Y-68508571D01*
X94310952Y-68413333D01*
X94358571Y-68365714D01*
X94453809Y-68318095D01*
X94691904Y-68318095D01*
X94787142Y-68365714D01*
X94834761Y-68413333D01*
X94882380Y-68508571D01*
X94882380Y-68794285D01*
X94834761Y-68889523D01*
X94787142Y-68937142D01*
X93882380Y-67699047D02*
X93882380Y-67603809D01*
X93930000Y-67508571D01*
X93977619Y-67460952D01*
X94072857Y-67413333D01*
X94263333Y-67365714D01*
X94501428Y-67365714D01*
X94691904Y-67413333D01*
X94787142Y-67460952D01*
X94834761Y-67508571D01*
X94882380Y-67603809D01*
X94882380Y-67699047D01*
X94834761Y-67794285D01*
X94787142Y-67841904D01*
X94691904Y-67889523D01*
X94501428Y-67937142D01*
X94263333Y-67937142D01*
X94072857Y-67889523D01*
X93977619Y-67841904D01*
X93930000Y-67794285D01*
X93882380Y-67699047D01*
X103267380Y-68891904D02*
X104076904Y-68891904D01*
X104172142Y-68844285D01*
X104219761Y-68796666D01*
X104267380Y-68701428D01*
X104267380Y-68510952D01*
X104219761Y-68415714D01*
X104172142Y-68368095D01*
X104076904Y-68320476D01*
X103267380Y-68320476D01*
X103267380Y-67939523D02*
X103267380Y-67320476D01*
X103648333Y-67653809D01*
X103648333Y-67510952D01*
X103695952Y-67415714D01*
X103743571Y-67368095D01*
X103838809Y-67320476D01*
X104076904Y-67320476D01*
X104172142Y-67368095D01*
X104219761Y-67415714D01*
X104267380Y-67510952D01*
X104267380Y-67796666D01*
X104219761Y-67891904D01*
X104172142Y-67939523D01*
%TO.C,R2*%
X96485714Y-94106904D02*
X97152380Y-94106904D01*
X96104761Y-94345000D02*
X96819047Y-94583095D01*
X96819047Y-93964047D01*
X96152380Y-93678333D02*
X96152380Y-93011666D01*
X97152380Y-93440238D01*
X96152380Y-92440238D02*
X96152380Y-92345000D01*
X96200000Y-92249761D01*
X96247619Y-92202142D01*
X96342857Y-92154523D01*
X96533333Y-92106904D01*
X96771428Y-92106904D01*
X96961904Y-92154523D01*
X97057142Y-92202142D01*
X97104761Y-92249761D01*
X97152380Y-92345000D01*
X97152380Y-92440238D01*
X97104761Y-92535476D01*
X97057142Y-92583095D01*
X96961904Y-92630714D01*
X96771428Y-92678333D01*
X96533333Y-92678333D01*
X96342857Y-92630714D01*
X96247619Y-92583095D01*
X96200000Y-92535476D01*
X96152380Y-92440238D01*
X94432380Y-93511666D02*
X93956190Y-93845000D01*
X94432380Y-94083095D02*
X93432380Y-94083095D01*
X93432380Y-93702142D01*
X93480000Y-93606904D01*
X93527619Y-93559285D01*
X93622857Y-93511666D01*
X93765714Y-93511666D01*
X93860952Y-93559285D01*
X93908571Y-93606904D01*
X93956190Y-93702142D01*
X93956190Y-94083095D01*
X93527619Y-93130714D02*
X93480000Y-93083095D01*
X93432380Y-92987857D01*
X93432380Y-92749761D01*
X93480000Y-92654523D01*
X93527619Y-92606904D01*
X93622857Y-92559285D01*
X93718095Y-92559285D01*
X93860952Y-92606904D01*
X94432380Y-93178333D01*
X94432380Y-92559285D01*
%TO.C,R1*%
X48860714Y-94106904D02*
X49527380Y-94106904D01*
X48479761Y-94345000D02*
X49194047Y-94583095D01*
X49194047Y-93964047D01*
X48527380Y-93678333D02*
X48527380Y-93011666D01*
X49527380Y-93440238D01*
X48527380Y-92440238D02*
X48527380Y-92345000D01*
X48575000Y-92249761D01*
X48622619Y-92202142D01*
X48717857Y-92154523D01*
X48908333Y-92106904D01*
X49146428Y-92106904D01*
X49336904Y-92154523D01*
X49432142Y-92202142D01*
X49479761Y-92249761D01*
X49527380Y-92345000D01*
X49527380Y-92440238D01*
X49479761Y-92535476D01*
X49432142Y-92583095D01*
X49336904Y-92630714D01*
X49146428Y-92678333D01*
X48908333Y-92678333D01*
X48717857Y-92630714D01*
X48622619Y-92583095D01*
X48575000Y-92535476D01*
X48527380Y-92440238D01*
X46807380Y-93511666D02*
X46331190Y-93845000D01*
X46807380Y-94083095D02*
X45807380Y-94083095D01*
X45807380Y-93702142D01*
X45855000Y-93606904D01*
X45902619Y-93559285D01*
X45997857Y-93511666D01*
X46140714Y-93511666D01*
X46235952Y-93559285D01*
X46283571Y-93606904D01*
X46331190Y-93702142D01*
X46331190Y-94083095D01*
X46807380Y-92559285D02*
X46807380Y-93130714D01*
X46807380Y-92845000D02*
X45807380Y-92845000D01*
X45950238Y-92940238D01*
X46045476Y-93035476D01*
X46093095Y-93130714D01*
%TO.C,AFF2*%
X55082380Y-98270238D02*
X55082380Y-98746428D01*
X54082380Y-98746428D01*
X54082380Y-98079761D02*
X54082380Y-97508333D01*
X55082380Y-97794047D02*
X54082380Y-97794047D01*
X55034761Y-97222619D02*
X55082380Y-97079761D01*
X55082380Y-96841666D01*
X55034761Y-96746428D01*
X54987142Y-96698809D01*
X54891904Y-96651190D01*
X54796666Y-96651190D01*
X54701428Y-96698809D01*
X54653809Y-96746428D01*
X54606190Y-96841666D01*
X54558571Y-97032142D01*
X54510952Y-97127380D01*
X54463333Y-97175000D01*
X54368095Y-97222619D01*
X54272857Y-97222619D01*
X54177619Y-97175000D01*
X54130000Y-97127380D01*
X54082380Y-97032142D01*
X54082380Y-96794047D01*
X54130000Y-96651190D01*
X54701428Y-96222619D02*
X54701428Y-95460714D01*
X54082380Y-94555952D02*
X54082380Y-94746428D01*
X54130000Y-94841666D01*
X54177619Y-94889285D01*
X54320476Y-94984523D01*
X54510952Y-95032142D01*
X54891904Y-95032142D01*
X54987142Y-94984523D01*
X55034761Y-94936904D01*
X55082380Y-94841666D01*
X55082380Y-94651190D01*
X55034761Y-94555952D01*
X54987142Y-94508333D01*
X54891904Y-94460714D01*
X54653809Y-94460714D01*
X54558571Y-94508333D01*
X54510952Y-94555952D01*
X54463333Y-94651190D01*
X54463333Y-94841666D01*
X54510952Y-94936904D01*
X54558571Y-94984523D01*
X54653809Y-95032142D01*
X55082380Y-93984523D02*
X55082380Y-93794047D01*
X55034761Y-93698809D01*
X54987142Y-93651190D01*
X54844285Y-93555952D01*
X54653809Y-93508333D01*
X54272857Y-93508333D01*
X54177619Y-93555952D01*
X54130000Y-93603571D01*
X54082380Y-93698809D01*
X54082380Y-93889285D01*
X54130000Y-93984523D01*
X54177619Y-94032142D01*
X54272857Y-94079761D01*
X54510952Y-94079761D01*
X54606190Y-94032142D01*
X54653809Y-93984523D01*
X54701428Y-93889285D01*
X54701428Y-93698809D01*
X54653809Y-93603571D01*
X54606190Y-93555952D01*
X54510952Y-93508333D01*
X54082380Y-92651190D02*
X54082380Y-92841666D01*
X54130000Y-92936904D01*
X54177619Y-92984523D01*
X54320476Y-93079761D01*
X54510952Y-93127380D01*
X54891904Y-93127380D01*
X54987142Y-93079761D01*
X55034761Y-93032142D01*
X55082380Y-92936904D01*
X55082380Y-92746428D01*
X55034761Y-92651190D01*
X54987142Y-92603571D01*
X54891904Y-92555952D01*
X54653809Y-92555952D01*
X54558571Y-92603571D01*
X54510952Y-92651190D01*
X54463333Y-92746428D01*
X54463333Y-92936904D01*
X54510952Y-93032142D01*
X54558571Y-93079761D01*
X54653809Y-93127380D01*
X54082380Y-91936904D02*
X54082380Y-91841666D01*
X54130000Y-91746428D01*
X54177619Y-91698809D01*
X54272857Y-91651190D01*
X54463333Y-91603571D01*
X54701428Y-91603571D01*
X54891904Y-91651190D01*
X54987142Y-91698809D01*
X55034761Y-91746428D01*
X55082380Y-91841666D01*
X55082380Y-91936904D01*
X55034761Y-92032142D01*
X54987142Y-92079761D01*
X54891904Y-92127380D01*
X54701428Y-92175000D01*
X54463333Y-92175000D01*
X54272857Y-92127380D01*
X54177619Y-92079761D01*
X54130000Y-92032142D01*
X54082380Y-91936904D01*
X55082380Y-91175000D02*
X54082380Y-91175000D01*
X54558571Y-91175000D02*
X54558571Y-90603571D01*
X55082380Y-90603571D02*
X54082380Y-90603571D01*
X55082380Y-89555952D02*
X54606190Y-89889285D01*
X55082380Y-90127380D02*
X54082380Y-90127380D01*
X54082380Y-89746428D01*
X54130000Y-89651190D01*
X54177619Y-89603571D01*
X54272857Y-89555952D01*
X54415714Y-89555952D01*
X54510952Y-89603571D01*
X54558571Y-89651190D01*
X54606190Y-89746428D01*
X54606190Y-90127380D01*
X62296666Y-95996428D02*
X62296666Y-95520238D01*
X62582380Y-96091666D02*
X61582380Y-95758333D01*
X62582380Y-95425000D01*
X62058571Y-94758333D02*
X62058571Y-95091666D01*
X62582380Y-95091666D02*
X61582380Y-95091666D01*
X61582380Y-94615476D01*
X62058571Y-93901190D02*
X62058571Y-94234523D01*
X62582380Y-94234523D02*
X61582380Y-94234523D01*
X61582380Y-93758333D01*
X61677619Y-93425000D02*
X61630000Y-93377380D01*
X61582380Y-93282142D01*
X61582380Y-93044047D01*
X61630000Y-92948809D01*
X61677619Y-92901190D01*
X61772857Y-92853571D01*
X61868095Y-92853571D01*
X62010952Y-92901190D01*
X62582380Y-93472619D01*
X62582380Y-92853571D01*
%TO.C,AFF1*%
X69872380Y-98270238D02*
X69872380Y-98746428D01*
X68872380Y-98746428D01*
X68872380Y-98079761D02*
X68872380Y-97508333D01*
X69872380Y-97794047D02*
X68872380Y-97794047D01*
X69824761Y-97222619D02*
X69872380Y-97079761D01*
X69872380Y-96841666D01*
X69824761Y-96746428D01*
X69777142Y-96698809D01*
X69681904Y-96651190D01*
X69586666Y-96651190D01*
X69491428Y-96698809D01*
X69443809Y-96746428D01*
X69396190Y-96841666D01*
X69348571Y-97032142D01*
X69300952Y-97127380D01*
X69253333Y-97175000D01*
X69158095Y-97222619D01*
X69062857Y-97222619D01*
X68967619Y-97175000D01*
X68920000Y-97127380D01*
X68872380Y-97032142D01*
X68872380Y-96794047D01*
X68920000Y-96651190D01*
X69491428Y-96222619D02*
X69491428Y-95460714D01*
X68872380Y-94555952D02*
X68872380Y-94746428D01*
X68920000Y-94841666D01*
X68967619Y-94889285D01*
X69110476Y-94984523D01*
X69300952Y-95032142D01*
X69681904Y-95032142D01*
X69777142Y-94984523D01*
X69824761Y-94936904D01*
X69872380Y-94841666D01*
X69872380Y-94651190D01*
X69824761Y-94555952D01*
X69777142Y-94508333D01*
X69681904Y-94460714D01*
X69443809Y-94460714D01*
X69348571Y-94508333D01*
X69300952Y-94555952D01*
X69253333Y-94651190D01*
X69253333Y-94841666D01*
X69300952Y-94936904D01*
X69348571Y-94984523D01*
X69443809Y-95032142D01*
X69872380Y-93984523D02*
X69872380Y-93794047D01*
X69824761Y-93698809D01*
X69777142Y-93651190D01*
X69634285Y-93555952D01*
X69443809Y-93508333D01*
X69062857Y-93508333D01*
X68967619Y-93555952D01*
X68920000Y-93603571D01*
X68872380Y-93698809D01*
X68872380Y-93889285D01*
X68920000Y-93984523D01*
X68967619Y-94032142D01*
X69062857Y-94079761D01*
X69300952Y-94079761D01*
X69396190Y-94032142D01*
X69443809Y-93984523D01*
X69491428Y-93889285D01*
X69491428Y-93698809D01*
X69443809Y-93603571D01*
X69396190Y-93555952D01*
X69300952Y-93508333D01*
X68872380Y-92651190D02*
X68872380Y-92841666D01*
X68920000Y-92936904D01*
X68967619Y-92984523D01*
X69110476Y-93079761D01*
X69300952Y-93127380D01*
X69681904Y-93127380D01*
X69777142Y-93079761D01*
X69824761Y-93032142D01*
X69872380Y-92936904D01*
X69872380Y-92746428D01*
X69824761Y-92651190D01*
X69777142Y-92603571D01*
X69681904Y-92555952D01*
X69443809Y-92555952D01*
X69348571Y-92603571D01*
X69300952Y-92651190D01*
X69253333Y-92746428D01*
X69253333Y-92936904D01*
X69300952Y-93032142D01*
X69348571Y-93079761D01*
X69443809Y-93127380D01*
X68872380Y-91936904D02*
X68872380Y-91841666D01*
X68920000Y-91746428D01*
X68967619Y-91698809D01*
X69062857Y-91651190D01*
X69253333Y-91603571D01*
X69491428Y-91603571D01*
X69681904Y-91651190D01*
X69777142Y-91698809D01*
X69824761Y-91746428D01*
X69872380Y-91841666D01*
X69872380Y-91936904D01*
X69824761Y-92032142D01*
X69777142Y-92079761D01*
X69681904Y-92127380D01*
X69491428Y-92175000D01*
X69253333Y-92175000D01*
X69062857Y-92127380D01*
X68967619Y-92079761D01*
X68920000Y-92032142D01*
X68872380Y-91936904D01*
X69872380Y-91175000D02*
X68872380Y-91175000D01*
X69348571Y-91175000D02*
X69348571Y-90603571D01*
X69872380Y-90603571D02*
X68872380Y-90603571D01*
X69872380Y-89555952D02*
X69396190Y-89889285D01*
X69872380Y-90127380D02*
X68872380Y-90127380D01*
X68872380Y-89746428D01*
X68920000Y-89651190D01*
X68967619Y-89603571D01*
X69062857Y-89555952D01*
X69205714Y-89555952D01*
X69300952Y-89603571D01*
X69348571Y-89651190D01*
X69396190Y-89746428D01*
X69396190Y-90127380D01*
X77086666Y-95996428D02*
X77086666Y-95520238D01*
X77372380Y-96091666D02*
X76372380Y-95758333D01*
X77372380Y-95425000D01*
X76848571Y-94758333D02*
X76848571Y-95091666D01*
X77372380Y-95091666D02*
X76372380Y-95091666D01*
X76372380Y-94615476D01*
X76848571Y-93901190D02*
X76848571Y-94234523D01*
X77372380Y-94234523D02*
X76372380Y-94234523D01*
X76372380Y-93758333D01*
X77372380Y-92853571D02*
X77372380Y-93425000D01*
X77372380Y-93139285D02*
X76372380Y-93139285D01*
X76515238Y-93234523D01*
X76610476Y-93329761D01*
X76658095Y-93425000D01*
%TD*%
M02*
