%TF.GenerationSoftware,KiCad,Pcbnew,(5.1.12)-1*%
%TF.CreationDate,2022-04-03T13:26:01+02:00*%
%TF.ProjectId,ec1834-post,65633138-3334-42d7-906f-73742e6b6963,rev?*%
%TF.SameCoordinates,Original*%
%TF.FileFunction,Other,Comment*%
%FSLAX46Y46*%
G04 Gerber Fmt 4.6, Leading zero omitted, Abs format (unit mm)*
G04 Created by KiCad (PCBNEW (5.1.12)-1) date 2022-04-03 13:26:01*
%MOMM*%
%LPD*%
G01*
G04 APERTURE LIST*
%ADD10C,0.100000*%
G04 APERTURE END LIST*
D10*
%TO.C,U0*%
X68170000Y-20100000D02*
X68370000Y-20600000D01*
X68370000Y-20600000D02*
X68570000Y-20100000D01*
X68370000Y-20600000D02*
X68370000Y-19300000D01*
%TD*%
%TO.C,U0*%
X65753333Y-18650000D02*
X65853333Y-18683333D01*
X65886666Y-18716666D01*
X65920000Y-18783333D01*
X65920000Y-18883333D01*
X65886666Y-18950000D01*
X65853333Y-18983333D01*
X65786666Y-19016666D01*
X65520000Y-19016666D01*
X65520000Y-18316666D01*
X65753333Y-18316666D01*
X65820000Y-18350000D01*
X65853333Y-18383333D01*
X65886666Y-18450000D01*
X65886666Y-18516666D01*
X65853333Y-18583333D01*
X65820000Y-18616666D01*
X65753333Y-18650000D01*
X65520000Y-18650000D01*
X66320000Y-19016666D02*
X66253333Y-18983333D01*
X66220000Y-18950000D01*
X66186666Y-18883333D01*
X66186666Y-18683333D01*
X66220000Y-18616666D01*
X66253333Y-18583333D01*
X66320000Y-18550000D01*
X66420000Y-18550000D01*
X66486666Y-18583333D01*
X66520000Y-18616666D01*
X66553333Y-18683333D01*
X66553333Y-18883333D01*
X66520000Y-18950000D01*
X66486666Y-18983333D01*
X66420000Y-19016666D01*
X66320000Y-19016666D01*
X67153333Y-19016666D02*
X67153333Y-18650000D01*
X67120000Y-18583333D01*
X67053333Y-18550000D01*
X66920000Y-18550000D01*
X66853333Y-18583333D01*
X67153333Y-18983333D02*
X67086666Y-19016666D01*
X66920000Y-19016666D01*
X66853333Y-18983333D01*
X66820000Y-18916666D01*
X66820000Y-18850000D01*
X66853333Y-18783333D01*
X66920000Y-18750000D01*
X67086666Y-18750000D01*
X67153333Y-18716666D01*
X67486666Y-19016666D02*
X67486666Y-18550000D01*
X67486666Y-18683333D02*
X67520000Y-18616666D01*
X67553333Y-18583333D01*
X67620000Y-18550000D01*
X67686666Y-18550000D01*
X68220000Y-19016666D02*
X68220000Y-18316666D01*
X68220000Y-18983333D02*
X68153333Y-19016666D01*
X68020000Y-19016666D01*
X67953333Y-18983333D01*
X67920000Y-18950000D01*
X67886666Y-18883333D01*
X67886666Y-18683333D01*
X67920000Y-18616666D01*
X67953333Y-18583333D01*
X68020000Y-18550000D01*
X68153333Y-18550000D01*
X68220000Y-18583333D01*
X69353333Y-18983333D02*
X69286666Y-19016666D01*
X69153333Y-19016666D01*
X69086666Y-18983333D01*
X69053333Y-18916666D01*
X69053333Y-18650000D01*
X69086666Y-18583333D01*
X69153333Y-18550000D01*
X69286666Y-18550000D01*
X69353333Y-18583333D01*
X69386666Y-18650000D01*
X69386666Y-18716666D01*
X69053333Y-18783333D01*
X69986666Y-19016666D02*
X69986666Y-18316666D01*
X69986666Y-18983333D02*
X69920000Y-19016666D01*
X69786666Y-19016666D01*
X69720000Y-18983333D01*
X69686666Y-18950000D01*
X69653333Y-18883333D01*
X69653333Y-18683333D01*
X69686666Y-18616666D01*
X69720000Y-18583333D01*
X69786666Y-18550000D01*
X69920000Y-18550000D01*
X69986666Y-18583333D01*
X70620000Y-18550000D02*
X70620000Y-19116666D01*
X70586666Y-19183333D01*
X70553333Y-19216666D01*
X70486666Y-19250000D01*
X70386666Y-19250000D01*
X70320000Y-19216666D01*
X70620000Y-18983333D02*
X70553333Y-19016666D01*
X70420000Y-19016666D01*
X70353333Y-18983333D01*
X70320000Y-18950000D01*
X70286666Y-18883333D01*
X70286666Y-18683333D01*
X70320000Y-18616666D01*
X70353333Y-18583333D01*
X70420000Y-18550000D01*
X70553333Y-18550000D01*
X70620000Y-18583333D01*
X71220000Y-18983333D02*
X71153333Y-19016666D01*
X71020000Y-19016666D01*
X70953333Y-18983333D01*
X70920000Y-18916666D01*
X70920000Y-18650000D01*
X70953333Y-18583333D01*
X71020000Y-18550000D01*
X71153333Y-18550000D01*
X71220000Y-18583333D01*
X71253333Y-18650000D01*
X71253333Y-18716666D01*
X70920000Y-18783333D01*
%TD*%
M02*
